<svg width="300" height="273" viewBox="0 0 300 273" fill="none" xmlns="http://www.w3.org/2000/svg">
<g clip-path="url(#clip0_209_857)">
<path opacity="0.03" d="M295.272 101.343H95.3871C95.2838 101.439 95.1943 101.535 95.091 101.625C85.6432 110.171 73.62 113.786 61.7758 117.814H298.467C297.75 112.262 296.682 106.761 295.272 101.343Z" fill="black"/>
<path opacity="0.03" d="M299.693 134.72H31.9519C27.582 139.553 24.1035 145.123 21.6777 151.171H299.059C299.549 145.701 299.76 140.211 299.693 134.72Z" fill="black"/>
<path opacity="0.03" d="M16.0378 184.548H292.862C294.399 179.14 295.692 173.654 296.738 168.09H17.0294C16.166 173.531 15.8339 179.043 16.0378 184.548Z" fill="black"/>
<path opacity="0.03" d="M22.8689 215.047C23.2821 216.018 23.7228 216.975 24.1773 217.918H279.227C282.095 213.046 284.584 207.961 286.671 202.707C286.836 202.294 286.995 201.88 287.153 201.467H18.3309C19.4498 206.116 20.9681 210.659 22.8689 215.047Z" fill="black"/>
<path opacity="0.03" d="M52.872 251.296H247.358C254.504 246.657 261.029 241.126 266.777 234.838H34.9128C40.1045 241.132 46.1492 246.672 52.872 251.296Z" fill="black"/>
<path d="M163.347 272.663C178.062 272.004 192.706 270.22 207.15 267.327C218.072 265.17 228.637 261.491 238.537 256.398V197.281H163.347V272.663Z" fill="#CCCCCC"/>
<path d="M163.347 272.663C178.062 272.004 192.706 270.22 207.15 267.327C218.072 265.17 228.637 261.491 238.537 256.398V197.281H163.347V272.663Z" fill="black" fill-opacity="0.5" stroke="#263238" stroke-linecap="round" stroke-linejoin="round"/>
<path d="M163.347 272.663V197.281L156.839 181.856V272.898C159.015 272.842 161.198 272.753 163.347 272.663Z" fill="#263238"/>
<path opacity="0.5" d="M238.564 197.404H163.367L156.839 181.849H232.029L238.564 197.404Z" fill="white" stroke="#263238" stroke-width="1.16992" stroke-linecap="round" stroke-linejoin="round"/>
<path d="M238.564 197.404H163.367L156.839 181.849H232.029L238.564 197.404Z" fill="#CCCCCC" stroke="#263238" stroke-linecap="round" stroke-linejoin="round"/>
<path d="M158.767 238.322H83.5774V265.461C85.8728 266.103 88.2003 266.67 90.56 267.161C112.983 271.717 135.865 273.617 158.733 272.822L158.767 238.322Z" fill="#CCCCCC" stroke="#263238" stroke-linecap="round" stroke-linejoin="round"/>
<path d="M158.767 238.46H83.5773L77.0424 222.904H152.239L158.767 238.46Z" fill="#CCCCCC"/>
<mask id="mask0_209_857" style="mask-type:luminance" maskUnits="userSpaceOnUse" x="77" y="222" width="82" height="17">
<path d="M158.767 238.46H83.5773L77.0424 222.904H152.239L158.767 238.46Z" fill="white"/>
</mask>
<g mask="url(#mask0_209_857)">
<path opacity="0.5" d="M158.767 238.46H83.5773L77.0424 222.904H152.239L158.767 238.46Z" fill="white" stroke="#263238" stroke-linecap="round" stroke-linejoin="round"/>
</g>
<path d="M158.767 238.46H83.5773L77.0424 222.904H152.239L158.767 238.46Z" stroke="#263238" stroke-width="1.16992" stroke-linecap="round" stroke-linejoin="round"/>
<path d="M77.0424 263.457C79.1908 264.2 81.3738 264.868 83.5773 265.481V238.322L77.0424 222.883V263.457Z" fill="#263238"/>
<path d="M22.8689 215.047C33.1568 239.011 53.6294 255.586 77.9582 263.801V213.78H22.318C22.497 214.22 22.6554 214.627 22.8689 215.047Z" fill="#CCCCCC"/>
<path d="M22.8689 215.047C33.1568 239.011 53.6294 255.586 77.9582 263.801V213.78H22.318C22.497 214.22 22.6554 214.627 22.8689 215.047Z" fill="black" fill-opacity="0.5" stroke="#263238" stroke-linecap="round" stroke-linejoin="round"/>
<path d="M22.3732 213.904H77.9583L71.4509 198.382H17.6493C18.7188 203.697 20.3008 208.895 22.3732 213.904Z" fill="#CCCCCC" stroke="#263238" stroke-linecap="round" stroke-linejoin="round"/>
<path d="M273.043 83.1218L234.784 37.618L230.762 41.6396L244.707 58.2214L111.28 170.411L80.4993 135.498C79.7262 134.62 78.7713 133.922 77.7008 133.451C76.6304 132.98 75.4702 132.748 74.3009 132.771C73.1317 132.794 71.9815 133.071 70.9303 133.584C69.8792 134.096 68.9524 134.832 68.2143 135.739L0 219.523L12.4984 229.701L74.7011 153.264L104.401 186.951C105.791 188.53 107.744 189.502 109.842 189.659C111.94 189.816 114.016 189.146 115.626 187.791L255.077 70.5546L269.022 87.1433L273.043 83.1218Z" fill="white" stroke="#263238" stroke-linecap="round" stroke-linejoin="round"/>
<path d="M293.316 27.2476L234.784 37.6181L248.735 54.2069L115.302 166.396L84.5207 131.477C83.7471 130.599 82.7915 129.9 81.7205 129.429C80.6495 128.958 79.4888 128.726 78.319 128.749C77.1492 128.772 75.9985 129.049 74.9468 129.562C73.8951 130.075 72.9676 130.81 72.2289 131.718L4.02148 215.508L16.513 225.679L78.7226 149.243L108.423 182.93C109.813 184.509 111.766 185.481 113.864 185.638C115.961 185.795 118.037 185.124 119.647 183.77L259.099 66.54L273.043 83.1219L293.316 27.2476Z" fill="#FFC283" stroke="#263238" stroke-linecap="round" stroke-linejoin="round"/>
<path opacity="0.15" d="M198.562 194.554C214.224 194.554 226.92 192.355 226.92 189.644C226.92 186.932 214.224 184.734 198.562 184.734C182.901 184.734 170.205 186.932 170.205 189.644C170.205 192.355 182.901 194.554 198.562 194.554Z" fill="black"/>
<path d="M181.175 180.161C181.175 180.161 176.616 187.144 176.885 189.024C177.153 190.904 182.249 193.052 183.861 193.844C185.472 194.636 195.677 195.724 197.02 194.113C198.363 192.501 195.14 191.964 193.26 191.159C191.38 190.353 186.546 186.338 186.546 186.338L186.009 181.773L181.175 180.161Z" fill="#263238" stroke="#263238" stroke-width="1.16992" stroke-miterlimit="10"/>
<path d="M197.02 194.127C197.44 193.624 197.412 193.225 197.123 192.887C194.052 193.183 189.356 193.452 186.009 192.784C182.098 192.006 178.627 189.375 177.023 188.005C176.909 188.332 176.862 188.679 176.885 189.024C177.153 190.904 182.249 193.052 183.86 193.844C185.472 194.636 195.712 195.738 197.02 194.127Z" fill="white" stroke="#263238" stroke-width="1.16992" stroke-linecap="round" stroke-linejoin="round"/>
<path d="M209.105 175.059C209.105 175.059 204.285 180.43 205.345 182.042C206.406 183.653 209.911 183.116 212.059 184.996C214.208 186.876 217.431 189.293 220.653 190.367C223.876 191.441 226.562 189.561 225.219 188.487C223.876 187.413 217.699 182.042 217.162 180.162C216.807 178.579 216.627 176.963 216.625 175.341L209.105 175.059Z" fill="#263238" stroke="#263238" stroke-width="1.16992" stroke-miterlimit="10"/>
<path d="M225.391 189.63C223.982 189.721 222.567 189.608 221.19 189.293C218.773 188.755 215.551 185.264 212.328 182.847C210.324 181.346 207.287 180.988 205.27 180.926C205.206 181.107 205.18 181.3 205.193 181.491C205.206 181.683 205.258 181.87 205.345 182.041C206.42 183.653 209.911 183.116 212.059 184.996C214.208 186.876 217.43 189.293 220.653 190.367C222.857 191.104 224.812 190.456 225.391 189.63Z" fill="white" stroke="#263238" stroke-width="1.16992" stroke-linecap="round" stroke-linejoin="round"/>
<path d="M195.966 90.9583C195.966 90.9583 192.096 104.937 192.902 108.966C193.708 112.994 199.168 146.323 199.168 146.323L181.175 180.155L187.889 183.915C187.889 183.915 211.522 153.037 211.791 149.277C212.059 145.517 212.7 116.348 212.7 116.348L228.173 144.175L208.031 174.784C208.031 174.784 211.254 177.469 213.402 177.469H216.893C216.893 177.469 242.407 145.793 242.675 143.906C242.944 142.019 225.515 103.918 225.515 103.918L224.427 95.2552L195.966 90.9583Z" fill="#71BDD5" stroke="#263238" stroke-width="1.16992" stroke-linecap="round" stroke-linejoin="round"/>
<path d="M201.282 100.633C201.282 100.633 203.231 105.316 201.475 107.857C199.719 110.398 196.207 111.369 196.207 111.369" stroke="#263238" stroke-width="1.16992" stroke-linecap="round" stroke-linejoin="round"/>
<path d="M212.7 116.354L221.776 108.249" stroke="#263238" stroke-width="1.16992" stroke-linecap="round" stroke-linejoin="round"/>
<path d="M219.056 102.01L217.616 105.089C217.616 105.089 221.521 106.115 219.882 107.967C218.243 109.819 217.21 110.033 217.21 110.033" stroke="#263238" stroke-width="1.16992" stroke-linecap="round" stroke-linejoin="round"/>
<path d="M213.381 116.251L220.412 111.954" stroke="#263238" stroke-width="1.16992" stroke-linecap="round" stroke-linejoin="round"/>
<path d="M196.4 100.633C195.906 103.802 195.58 106.995 195.422 110.198" stroke="#263238" stroke-width="1.16992" stroke-linecap="round" stroke-linejoin="round"/>
<path d="M185.789 178.757L184.687 180.664" stroke="#263238" stroke-width="1.16992" stroke-linecap="round" stroke-linejoin="round"/>
<path d="M196.207 114.103C196.207 114.103 200.497 144.553 200.89 145.531C201.282 146.509 202.839 146.509 202.453 147.287C202.06 147.874 201.522 148.349 200.89 148.664L201.868 150.813L187.359 176.044" stroke="#263238" stroke-width="1.16992" stroke-linecap="round" stroke-linejoin="round"/>
<path d="M213.705 172.745L212.018 175.396" stroke="#263238" stroke-width="1.16992" stroke-linecap="round" stroke-linejoin="round"/>
<path d="M214.945 116.051C214.945 116.051 228.221 138.473 230.142 141.819C232.064 145.166 234.825 143.575 234.047 144.746C233.269 145.917 230.335 146.509 230.335 146.509L215.268 170.28" stroke="#263238" stroke-width="1.16992" stroke-linecap="round" stroke-linejoin="round"/>
<path d="M194.727 96.8872C195.198 97.2226 195.698 97.5153 196.221 97.7618C198.363 98.8291 199.258 99.3663 199.258 99.3663L199.947 95.7992L202.625 96.3295L202.267 99.3663C202.267 99.3663 201.909 100.055 205.483 100.261C209.057 100.468 210.172 101.15 210.172 101.15L210.861 97.0181L213.54 96.839V101.48C215.627 101.483 217.712 101.363 219.786 101.122C221.125 100.934 222.405 100.446 223.532 99.6968V96.481L222.079 94.8765L195.966 90.9583C195.966 90.9583 195.388 94.1121 194.727 96.8872Z" fill="#263238"/>
<path d="M217.458 98.6501V101.15C219.044 100.993 220.604 100.635 222.099 100.082L222.451 97.9408C222.451 97.9408 218.346 98.292 217.458 98.6501Z" fill="white" stroke="#263238" stroke-width="1.16992" stroke-linecap="round" stroke-linejoin="round"/>
<path d="M241.966 98.1267L237.8 98.4779L234.591 102.286C234.591 102.286 237.683 104.779 239.349 106.328C241.016 107.878 242.441 109.296 243.749 108.938C245.058 108.58 249.568 102.403 249.568 100.978C249.568 99.5522 244.459 96.9354 241.966 98.1267Z" fill="white" stroke="#263238" stroke-width="1.16992" stroke-linecap="round" stroke-linejoin="round"/>
<path d="M239.466 99.3112C240.199 98.5232 241.041 97.8438 241.966 97.2935C242.637 96.9032 243.403 96.7074 244.179 96.728C244.955 96.7487 245.71 96.9851 246.359 97.4106C247.909 98.3609 248.143 99.3112 247.31 100.379C246.476 101.446 243.274 105.254 243.033 104.304C242.792 103.353 244.225 100.379 244.225 100.379C244.225 100.379 242.317 104.779 239.707 101.928" fill="white"/>
<path d="M239.466 99.3112C240.199 98.5232 241.041 97.8438 241.966 97.2935C242.637 96.9032 243.403 96.7074 244.179 96.728C244.955 96.7487 245.71 96.9851 246.359 97.4106C247.909 98.3609 248.143 99.3112 247.31 100.379C246.476 101.446 243.274 105.254 243.033 104.304C242.792 103.353 244.225 100.379 244.225 100.379C244.225 100.379 242.317 104.779 239.707 101.928" stroke="#263238" stroke-width="1.16992" stroke-linecap="round" stroke-linejoin="round"/>
<path d="M242.916 107.988C242.916 107.988 241.016 106.204 241.016 105.378C241.016 104.552 243.508 102.403 243.508 102.403" stroke="#263238" stroke-width="1.16992" stroke-linecap="round" stroke-linejoin="round"/>
<path d="M236.849 96.2192L239.232 98.1267L235.307 102.761L233.165 100.737L236.849 96.2192Z" fill="white" stroke="#263238" stroke-width="1.16992" stroke-linecap="round" stroke-linejoin="round"/>
<path d="M225.088 85.3667L237.8 96.1642L232.525 101.439L221.727 94.243L225.088 85.3667Z" fill="#71BDD5" stroke="#263238" stroke-width="1.16992" stroke-linecap="round" stroke-linejoin="round"/>
<path d="M206.729 44.4147C206.729 44.4147 200.532 47.7269 199.527 53.2014C198.521 58.6759 195.491 89.5397 195.491 92.2735C195.491 95.0073 203.266 98.3265 210.035 98.4711C216.804 98.6157 223.718 98.4711 224.73 96.1642C225.742 93.8573 227.76 67.6073 226.892 60.1151C226.024 52.623 224.138 48.45 221.383 46.5769C218.629 44.7039 210.482 42.2593 206.729 44.4147Z" fill="white" stroke="#263238" stroke-width="1.16992" stroke-linecap="round" stroke-linejoin="round"/>
<path d="M198.218 92.3354C198.218 92.3354 213.671 86.2067 219.792 77.9502" stroke="#263238" stroke-width="1.16992" stroke-linecap="round" stroke-linejoin="round"/>
<path d="M197.151 94.1671C203.642 94.8275 210.199 94.0082 216.329 91.7708" stroke="#263238" stroke-width="1.16992" stroke-linecap="round" stroke-linejoin="round"/>
<path d="M209.036 31.1656C209.036 31.1656 209.036 31.4342 209.078 31.8956C209.192 34.245 209.133 36.5996 208.899 38.9401L208.465 42.8308L219.407 45.9985C219.407 45.9985 219.841 43.6985 220.853 40.3862C221.619 38.0735 222.633 35.8501 223.876 33.7548C223.876 33.7548 218.835 32.171 215.95 29.7264C213.065 27.2819 210.049 28.1426 209.036 31.1656Z" fill="white" stroke="#263238" stroke-width="1.16992" stroke-linecap="round" stroke-linejoin="round"/>
<path d="M219.696 10.8583C219.696 10.8583 222.864 8.40687 220.998 3.65541C219.131 -1.09604 211.199 -0.524488 208.32 1.49316C205.442 3.5108 206.881 4.8054 208.465 4.93624C210.049 5.06708 210.765 6.80927 208.754 7.38771C206.743 7.96615 204.429 6.52005 201.117 10.1422C197.805 13.7643 200.973 16.9113 201.551 16.0505C202.129 15.1897 203.135 13.1652 203.424 14.4667C203.713 15.7682 200.532 17.4828 200.112 21.5181C199.692 25.5534 203.424 29.5818 205.869 31.5995C208.313 33.6171 211.488 34.1887 212.927 32.2881C214.366 30.3875 215.812 27.2474 217.396 25.2298C218.98 23.2121 217.107 18.3436 216.528 16.443C215.95 14.5424 219.696 10.8583 219.696 10.8583Z" fill="#263238" stroke="#263238" stroke-width="1.16992" stroke-linecap="round" stroke-linejoin="round"/>
<path d="M212.493 27.4196C212.493 27.4196 210.482 24.3965 208.609 25.4019C206.736 26.4073 208.609 30.5872 210.338 31.8887C212.066 33.1902 214.366 31.2001 214.366 31.2001C214.366 31.2001 217.809 36.0961 220.419 36.0961C223.029 36.0961 230.934 35.6623 231.506 33.0731C232.077 30.4839 227.904 21.9795 227.904 21.9795C227.904 21.9795 229.206 20.3957 229.061 19.3903C228.917 18.3849 226.176 18.8119 225.618 18.378C225.06 17.9442 223.6 14.205 221.872 12.1805C220.144 10.156 219.283 10.1628 219.283 10.1628C219.283 10.1628 210.172 14.7421 212.238 16.1882C214.304 17.6343 214.993 16.3328 214.827 17.3382C214.662 18.3436 211.515 22.0897 212.073 22.5235C212.631 22.9573 214.662 24.1073 214.373 25.4019C214.084 26.6965 214.222 27.8534 212.493 27.4196Z" fill="white" stroke="#263238" stroke-width="1.16992" stroke-linecap="round" stroke-linejoin="round"/>
<path d="M224.241 18.7086C224.585 19.5418 224.578 20.3337 224.241 20.4852C223.903 20.6367 223.311 20.0858 222.96 19.2595C222.609 18.4331 222.623 17.6343 222.96 17.4828C223.298 17.3313 223.89 17.8822 224.241 18.7086Z" fill="#263238"/>
<path d="M222.981 15.8371C222.981 15.8371 220.86 15.2104 219.985 16.8356" stroke="#263238" stroke-width="1.16992" stroke-linecap="round" stroke-linejoin="round"/>
<path d="M227.856 25.7119C227.856 25.7119 226.858 26.8344 225.233 25.8359" stroke="#263238" stroke-width="1.16992" stroke-linecap="round" stroke-linejoin="round"/>
<path d="M186.691 63.7648C186.691 63.7648 171.968 63.8405 168.952 64.3363C165.936 64.8321 169.172 72.827 169.482 74.7138C169.792 76.6006 186.691 63.7648 186.691 63.7648Z" fill="#71BDD5" stroke="#263238" stroke-width="1.16992" stroke-linecap="round" stroke-linejoin="round"/>
<path d="M218.236 47.7751C219.746 49.6256 220.739 51.8421 221.117 54.2001C221.494 56.5582 221.241 58.974 220.385 61.2031C217.431 68.9845 200.511 82.9496 191.38 89.3951C185.442 93.5306 179.256 97.2976 172.856 100.675C172.856 100.675 162.658 92.3355 159.697 84.561C156.736 76.7865 160.489 72.8545 171.231 69.1084C181.974 65.3624 195.677 60.666 198.087 53.9589C200.497 47.2517 203.514 42.1973 208.458 42.8377C213.402 43.4781 218.236 47.7751 218.236 47.7751Z" fill="#71BDD5" stroke="#263238" stroke-width="1.16992" stroke-linecap="round" stroke-linejoin="round"/>
<path d="M198.631 83.7552C198.631 83.7552 188.694 87.5151 180.101 90.2007C171.507 92.8863 160.771 92.3492 161.04 94.4977C161.308 96.6462 167.485 100.695 168.828 101.48C170.171 102.265 172.856 100.406 176.079 99.6003C179.302 98.7946 194.334 89.1265 198.631 83.7552Z" fill="#263238" stroke="#263238" stroke-width="1.16992" stroke-linecap="round" stroke-linejoin="round"/>
<path d="M165.888 108.091L164.834 116.609L166.535 116.823L167.409 109.764L181.774 111.541L180.906 118.599L182.607 118.813L183.661 110.295L165.888 108.091Z" fill="white" stroke="#263238" stroke-width="1.16992" stroke-linecap="round" stroke-linejoin="round"/>
<path d="M191.624 117.944L156.086 113.637C154.297 113.42 152.672 114.694 152.455 116.482L149.383 141.822C149.167 143.611 150.441 145.236 152.229 145.453L187.768 149.761C189.556 149.977 191.182 148.703 191.398 146.915L194.47 121.575C194.687 119.787 193.413 118.161 191.624 117.944Z" fill="white" stroke="#263238" stroke-width="1.1667" stroke-linecap="round" stroke-linejoin="round"/>
<path d="M152.48 129.948L191.18 134.899" stroke="#263238" stroke-width="1.16992" stroke-linecap="round" stroke-linejoin="round"/>
<path d="M157.197 115.618L154.092 141.296L156.281 145.311L159.387 142.205L162.679 116.265" fill="white"/>
<path d="M157.197 115.618L154.092 141.296L156.281 145.311L159.387 142.205L162.679 116.265" stroke="#263238" stroke-width="1.16992" stroke-linecap="round" stroke-linejoin="round"/>
<path d="M161.421 133.77L153.815 132.766L153.337 136.391L160.942 137.395L161.421 133.77Z" fill="white" stroke="#263238" stroke-width="1.16992" stroke-linecap="round" stroke-linejoin="round"/>
<path d="M161.148 134.722L153.554 133.725L153.435 134.631L161.029 135.629L161.148 134.722Z" fill="white" stroke="#263238" stroke-width="1.16816" stroke-linecap="round" stroke-linejoin="round"/>
<path d="M184.253 119.13L181.134 144.767L183.323 148.788L186.429 145.676L189.721 119.735" fill="white"/>
<path d="M184.253 119.13L181.134 144.767L183.323 148.788L186.429 145.676L189.721 119.735" stroke="#263238" stroke-width="1.16992" stroke-linecap="round" stroke-linejoin="round"/>
<path d="M188.464 137.237L180.859 136.234L180.381 139.859L187.986 140.863L188.464 137.237Z" fill="white" stroke="#263238" stroke-width="1.16992" stroke-linecap="round" stroke-linejoin="round"/>
<path d="M188.285 138.596L180.68 137.592L180.56 138.5L188.165 139.504L188.285 138.596Z" fill="white" stroke="#263238" stroke-width="1.16992" stroke-linecap="round" stroke-linejoin="round"/>
<path d="M213.671 50.1922C213.671 50.1922 210.717 48.5808 205.882 49.1179C201.048 49.655 177.153 64.1573 173.676 65.7687C170.198 67.38 170.453 72.2072 170.453 72.2072L172.602 103.092H179.309L183.606 73.0129C183.606 73.0129 214.38 64.8459 215.344 58.7585" fill="#71BDD5"/>
<path d="M213.671 50.1922C213.671 50.1922 210.717 48.5808 205.882 49.1179C201.048 49.655 177.153 64.1573 173.676 65.7687C170.198 67.38 170.453 72.2072 170.453 72.2072L172.602 103.092H179.309L183.606 73.0129C183.606 73.0129 214.38 64.8459 215.344 58.7585" stroke="#263238" stroke-width="1.16992" stroke-linecap="round" stroke-linejoin="round"/>
<path d="M179.295 103.092L180.906 108.731C180.906 108.731 180.906 114.103 180.101 114.64C179.295 115.177 179.026 116.251 177.69 115.177L176.348 114.103C175.378 113.85 174.39 113.671 173.393 113.566C172.588 113.566 170.976 113.566 170.439 112.188C169.902 110.811 172.588 103.057 172.588 103.057L179.295 103.092Z" fill="white" stroke="#263238" stroke-width="1.16992" stroke-linecap="round" stroke-linejoin="round"/>
<path d="M220.02 50.0544L221.142 55.0125C218.549 55.9025 215.827 56.3562 213.085 56.3553C208.52 56.3553 200.732 49.1041 195.367 45.0757C190.003 41.0473 184.625 46.4185 179.791 48.0299C174.957 49.6413 171.197 48.8356 163.677 46.15C156.157 43.4644 147.839 49.6412 147.839 49.6412L145.443 55.5496L152.962 59.578C152.962 59.578 159.945 51.7897 165.047 51.7897C170.15 51.7897 180.087 55.5496 183.847 53.4011C187.606 51.2526 190.561 47.2035 193.246 47.7613C195.932 48.3191 207.714 60.1151 213.616 60.6591C215.244 60.859 216.895 60.5853 218.371 59.8709C219.848 59.1564 221.087 58.0314 221.941 56.6307L224.089 50.4332C224.089 50.4332 220.502 45.3581 220.02 50.0544Z" fill="#263238" stroke="#263238" stroke-width="1.16992" stroke-linecap="round" stroke-linejoin="round"/>
<path d="M221.28 45.7092L224.021 45.9985L227.904 52.7675L223.876 49.7445L221.418 50.7499L221.135 48.4499L221.28 45.7092Z" fill="white" stroke="#263238" stroke-width="1.16992" stroke-linecap="round" stroke-linejoin="round"/>
<path d="M206.385 38.2034L222.003 44.5593L221.714 51.1838L204.367 42.8171L206.385 38.2034Z" fill="white" stroke="#263238" stroke-width="1.16992" stroke-linecap="round" stroke-linejoin="round"/>
</g>
<defs>
<clipPath id="clip0_209_857">
<rect width="299.709" height="273" fill="white"/>
</clipPath>
</defs>
</svg>
