<svg width="402" height="368" viewBox="0 0 402 368" fill="none" xmlns="http://www.w3.org/2000/svg">
<g clip-path="url(#clip0_209_937)">
<path opacity="0.7" d="M65.091 324.061C47.0725 318.019 31.6196 307.012 22.2089 286.477C5.72779 250.41 31.1887 210.593 59.0293 197.823C86.8699 185.054 125.894 182.792 127.402 162.501C128.91 142.211 95.8204 109.905 122.897 84.3753C145.714 62.8314 179.283 55.3498 209.631 52.8723C260.151 48.7398 305.932 58.3953 337.161 101.219C350.949 120.128 364.806 146.5 361.075 170.747C355.062 209.819 328.759 225.586 336.28 248.109C343.8 270.632 370.838 263.141 382.109 291.686C388.543 307.971 384.773 324.08 368.635 332.287C350.283 341.619 328.357 337.017 308.733 336.762C277.523 336.36 246.304 335.548 215.095 334.666C188.949 333.942 162.802 333.119 136.656 332.199C112.781 331.435 87.9863 331.738 65.091 324.061Z" fill="url(#paint0_linear_209_937)"/>
<path d="M119.999 310.82L0 329.965L221.079 368.264L402.156 336.927L119.999 310.82Z" fill="#FFC283"/>
<path opacity="0.15" d="M196.353 340.639C230.09 340.639 257.44 337.381 257.44 333.363C257.44 329.344 230.09 326.087 196.353 326.087C162.616 326.087 135.266 329.344 135.266 333.363C135.266 337.381 162.616 340.639 196.353 340.639Z" fill="black"/>
<path d="M191.261 254.453C191.261 254.453 186.169 255.912 170.539 255.55C154.91 255.188 132.348 247.912 123.632 247.912C114.917 247.912 105.438 251.182 101.814 258.458C98.1911 265.734 94.9008 274.822 115.994 283.185C137.088 291.548 153.079 294.094 183.26 301.722C213.441 309.351 225.437 309.723 241.037 305.728C256.637 301.732 267.213 291.548 265.763 277.329C264.314 263.11 261.033 254.424 253.405 252.24C245.777 250.056 191.261 254.453 191.261 254.453Z" fill="#263238" stroke="#263238" stroke-linecap="round" stroke-linejoin="round"/>
<path d="M215.654 138.635C215.654 138.635 216.203 145.549 214.274 149.407C212.344 153.265 204.589 157.153 197.949 160.747C191.31 164.341 181.909 163.793 178.041 169.874C174.173 175.955 174.447 186.188 174.447 186.188C174.447 186.188 168.356 195.599 163.381 203.894C158.406 212.188 155.635 220.766 162 225.437C168.365 230.109 176.102 223.224 180.254 216.624C184.406 210.024 188.274 202.523 188.274 202.523C188.274 202.523 193.572 228.209 192.142 235.152C190.712 242.095 187.442 248.705 187.442 251.799C187.442 254.894 189.929 257.058 193.807 257.881C197.685 258.703 210.954 259.839 220.081 259.271C229.207 258.703 255.207 257.058 256.313 253.454C257.42 249.851 259.075 224.967 259.075 224.967C259.075 224.967 275.39 230.5 280.374 220.551C285.359 210.602 285.623 188.235 282.029 177.12C278.435 166.006 269.299 161.912 263.776 159.151C258.252 156.389 243.035 149.192 240.273 146.146C237.512 143.101 236.66 128.118 236.66 123.143C236.66 118.169 236.111 122.869 230.853 126.737C225.594 130.605 215.654 138.635 215.654 138.635Z" fill="white"/>
<mask id="mask0_209_937" style="mask-type:luminance" maskUnits="userSpaceOnUse" x="158" y="120" width="127" height="140">
<path d="M215.654 138.635C215.654 138.635 216.203 145.549 214.274 149.407C212.344 153.265 204.589 157.153 197.949 160.747C191.31 164.341 181.909 163.793 178.041 169.874C174.173 175.955 174.447 186.188 174.447 186.188C174.447 186.188 168.356 195.599 163.381 203.894C158.406 212.188 155.635 220.766 162 225.437C168.365 230.109 176.102 223.224 180.254 216.624C184.406 210.024 188.274 202.523 188.274 202.523C188.274 202.523 193.572 228.209 192.142 235.152C190.712 242.095 187.442 248.705 187.442 251.799C187.442 254.894 189.929 257.058 193.807 257.881C197.685 258.703 210.954 259.839 220.081 259.271C229.207 258.703 255.207 257.058 256.313 253.454C257.42 249.851 259.075 224.967 259.075 224.967C259.075 224.967 275.39 230.5 280.374 220.551C285.359 210.602 285.623 188.235 282.029 177.12C278.435 166.006 269.299 161.912 263.776 159.151C258.252 156.389 243.035 149.192 240.273 146.146C237.512 143.101 236.66 128.118 236.66 123.143C236.66 118.169 236.111 122.869 230.853 126.737C225.594 130.605 215.654 138.635 215.654 138.635Z" fill="white"/>
</mask>
<g mask="url(#mask0_209_937)">
<path d="M282.029 177.071C278.435 166.016 269.299 161.863 263.776 159.102C258.253 156.34 243.035 149.143 240.273 146.097C237.512 143.052 236.66 128.118 236.66 123.143C236.66 118.169 236.111 122.869 230.853 126.737C225.594 130.605 215.645 138.635 215.645 138.635C215.747 140.204 215.747 141.777 215.645 143.345C218.788 144.707 222.95 146.283 225.271 146.283C229.315 146.283 230.529 149.113 232.126 151.943C233.722 154.774 230.911 158.005 230.911 158.005C230.911 158.005 243.847 158.818 248.293 160.022C252.739 161.227 264.461 162.852 271.737 168.924C277.485 173.703 281.461 182.506 284.076 188.196C283.793 184.425 283.107 180.696 282.029 177.071Z" fill="#71BDD5"/>
<path opacity="0.6" d="M282.029 177.071C278.435 166.016 269.299 161.863 263.776 159.102C258.253 156.34 243.035 149.143 240.273 146.097C237.512 143.052 236.66 128.118 236.66 123.143C236.66 118.169 236.111 122.869 230.853 126.737C225.594 130.605 215.645 138.635 215.645 138.635C215.747 140.204 215.747 141.777 215.645 143.345C218.788 144.707 222.95 146.283 225.271 146.283C229.315 146.283 230.529 149.113 232.126 151.943C233.722 154.774 230.911 158.005 230.911 158.005C230.911 158.005 243.847 158.818 248.293 160.022C252.739 161.227 264.461 162.852 271.737 168.924C277.485 173.703 281.461 182.506 284.076 188.196C283.793 184.425 283.107 180.696 282.029 177.071Z" fill="white"/>
</g>
<path d="M215.654 138.635C215.654 138.635 216.203 145.549 214.274 149.407C212.344 153.265 204.589 157.153 197.949 160.747C191.31 164.341 181.909 163.793 178.041 169.874C174.173 175.955 174.447 186.188 174.447 186.188C174.447 186.188 168.356 195.599 163.381 203.894C158.406 212.188 155.635 220.766 162 225.437C168.365 230.109 176.102 223.224 180.254 216.624C184.406 210.024 188.274 202.523 188.274 202.523C188.274 202.523 193.572 228.209 192.142 235.152C190.712 242.095 187.442 248.705 187.442 251.799C187.442 254.894 189.929 257.058 193.807 257.881C197.685 258.703 210.954 259.839 220.081 259.271C229.207 258.703 255.207 257.058 256.313 253.454C257.42 249.851 259.075 224.967 259.075 224.967C259.075 224.967 275.39 230.5 280.374 220.551C285.359 210.602 285.623 188.235 282.029 177.12C278.435 166.006 269.299 161.912 263.776 159.151C258.252 156.389 243.035 149.192 240.273 146.146C237.512 143.101 236.66 128.118 236.66 123.143C236.66 118.169 236.111 122.869 230.853 126.737C225.594 130.605 215.654 138.635 215.654 138.635Z" stroke="#263238" stroke-linecap="round" stroke-linejoin="round"/>
<path d="M254.375 106.27C256.588 102.128 259.907 94.9304 255.481 89.9557C251.055 84.981 248.293 87.9972 247.735 83.0421C247.177 78.087 246.08 72.8087 241.096 72.8087C236.111 72.8087 232.527 74.7673 229.482 72.8087C226.436 70.8502 223.949 65.3369 216.203 65.3369C208.457 65.3369 208.466 77.235 207.076 78.6158C206.392 79.109 205.626 79.4771 204.814 79.7028C204.525 79.6309 204.257 79.4961 204.026 79.3082C203.796 79.1203 203.61 78.8839 203.482 78.6158C202.101 75.8542 205.969 76.1284 207.634 71.9763C209.299 67.8243 204.589 65.0627 201.269 67.5501C197.949 70.0374 204.863 69.7632 200.995 73.9153C197.127 78.0674 194.913 83.0421 198.468 89.1527C202.023 95.2633 206.214 91.64 206.214 91.64C207.037 91.0916 207.781 94.2057 215.155 95.5571C222.176 96.8399 226.975 94.5778 227.533 102.294C228.091 110.011 234.975 114.33 236.914 115.436C238.853 116.543 233.869 122.634 234.956 125.395C236.043 128.157 239.656 127.883 241.869 127.609C244.082 127.334 242.702 124.015 247.402 123.456C252.103 122.898 253.758 121.498 255.697 116.269C257.635 111.039 252.161 110.422 254.375 106.27Z" fill="#263238" stroke="#263238" stroke-linecap="round" stroke-linejoin="round"/>
<path d="M253.425 98.8182C254.269 98.9173 255.12 98.7011 255.814 98.2111" stroke="white" stroke-linecap="round" stroke-linejoin="round"/>
<path d="M236.434 87.5565C236.434 87.5565 241.331 83.6394 244.19 88.5358C245.943 91.4736 248.225 95.3906 250.712 97.4863" stroke="white" stroke-linecap="round" stroke-linejoin="round"/>
<path d="M234.016 101.119C237.049 100.552 240.144 100.387 243.221 100.63C247.578 101.119 247.138 104.547 251.936 104.547" stroke="white" stroke-linecap="round" stroke-linejoin="round"/>
<path d="M213.794 82.7582C214.201 83.2561 214.661 83.7091 215.165 84.1096" stroke="white" stroke-linecap="round" stroke-linejoin="round"/>
<path d="M233.82 82.8072C233.82 82.8072 232.566 87.067 227.719 81.26C222.871 75.4529 219.513 68.7253 214.009 74.4932C213.351 75.0845 212.841 75.8227 212.521 76.6479C212.201 77.4731 212.08 78.362 212.168 79.2427" stroke="white" stroke-linecap="round" stroke-linejoin="round"/>
<path d="M201.563 84.3837C201.085 83.3962 200.755 82.3436 200.583 81.2599" stroke="white" stroke-linecap="round" stroke-linejoin="round"/>
<path d="M210.278 89.0059C210.278 89.0059 205.627 89.5543 202.699 86.1171" stroke="white" stroke-linecap="round" stroke-linejoin="round"/>
<path d="M263.775 159.102C259.467 156.938 249.263 152.09 243.671 148.624C241.83 154.147 236.425 166.838 225.613 166.838C215.644 166.838 212.716 157.515 211.904 152.296C208.594 155.234 202.983 158.054 197.988 160.757C191.359 164.351 181.948 163.802 178.08 169.884C174.212 175.965 174.486 186.198 174.486 186.198C174.486 186.198 172.429 189.381 169.736 193.66C180.91 193.102 188.342 202.523 188.342 202.523C188.342 202.523 193.572 228.209 192.142 235.152C190.712 242.095 187.442 248.705 187.442 251.799C187.442 254.894 189.929 257.058 193.807 257.881C197.685 258.703 210.954 259.839 220.081 259.271C229.207 258.703 255.207 257.058 256.313 253.454C257.42 249.851 259.075 224.967 259.075 224.967L257.42 203.12C271.316 193.934 281.03 200.368 284.213 203.12C284.898 193.729 284.115 183.535 282.029 177.111C278.435 166.015 269.308 161.863 263.775 159.102Z" fill="#71BDD5"/>
<mask id="mask1_209_937" style="mask-type:luminance" maskUnits="userSpaceOnUse" x="169" y="148" width="116" height="112">
<path d="M263.775 159.102C259.467 156.938 249.263 152.09 243.671 148.624C241.83 154.147 236.425 166.838 225.613 166.838C215.644 166.838 212.716 157.515 211.904 152.296C208.594 155.234 202.983 158.054 197.988 160.757C191.359 164.351 181.948 163.802 178.08 169.884C174.212 175.965 174.486 186.198 174.486 186.198C174.486 186.198 172.429 189.381 169.736 193.66C180.91 193.102 188.342 202.523 188.342 202.523C188.342 202.523 193.572 228.209 192.142 235.152C190.712 242.095 187.442 248.705 187.442 251.799C187.442 254.894 189.929 257.058 193.807 257.881C197.685 258.703 210.954 259.839 220.081 259.271C229.207 258.703 255.207 257.058 256.313 253.454C257.42 249.851 259.075 224.967 259.075 224.967L257.42 203.12C271.316 193.934 281.03 200.368 284.213 203.12C284.898 193.729 284.115 183.535 282.029 177.111C278.435 166.015 269.308 161.863 263.775 159.102Z" fill="white"/>
</mask>
<g mask="url(#mask1_209_937)">
<path opacity="0.15" d="M282.029 177.071C278.435 166.016 269.299 161.863 263.776 159.102C258.252 156.34 243.035 149.143 240.273 146.097C237.512 143.052 236.66 128.118 236.66 123.143C236.66 118.169 236.111 122.869 230.853 126.737C225.594 130.605 215.645 138.635 215.645 138.635C215.747 140.204 215.747 141.777 215.645 143.345C218.788 144.707 222.95 146.283 225.271 146.283C229.315 146.283 230.529 149.113 232.126 151.943C233.722 154.774 230.911 158.005 230.911 158.005C230.911 158.005 243.847 158.818 248.293 160.022C252.739 161.227 264.461 162.852 271.737 168.924C277.485 173.703 281.461 182.506 284.076 188.196C283.793 184.425 283.107 180.696 282.029 177.071Z" fill="black"/>
<path opacity="0.15" d="M244.268 159.66C244.268 159.66 240.224 167.338 232.517 169.766C228.095 171.223 223.37 171.503 218.807 170.579C218.807 170.579 224.468 173.811 232.958 171.793C241.448 169.776 244.268 159.66 244.268 159.66Z" fill="black"/>
<path opacity="0.15" d="M255.589 197.646C255.589 197.646 255.99 210.582 251.143 213.813C246.296 217.045 230.931 219.875 224.869 218.259C218.808 216.644 213.118 208.153 207.487 209.769C201.856 211.385 192.122 221.902 192.122 221.902L192.524 229.178L209.906 220.688C209.906 220.688 221.657 227.543 234.564 236.043C247.471 244.543 235.377 246.56 235.377 246.56L219.209 252.622C219.209 252.622 229.717 248.577 237.815 248.577C245.914 248.577 240.645 250.193 240.645 250.193H256L256.323 253.405L259.261 233.624L258.448 209.769C258.448 209.769 257.616 193.601 255.589 197.646Z" fill="black"/>
</g>
<path d="M263.775 159.102C259.467 156.938 249.263 152.09 243.671 148.624C241.83 154.147 236.425 166.838 225.613 166.838C215.644 166.838 212.716 157.515 211.904 152.296C208.594 155.234 202.983 158.054 197.988 160.757C191.359 164.351 181.948 163.802 178.08 169.884C174.212 175.965 174.486 186.198 174.486 186.198C174.486 186.198 172.429 189.381 169.736 193.66C180.91 193.102 188.342 202.523 188.342 202.523C188.342 202.523 193.572 228.209 192.142 235.152C190.712 242.095 187.442 248.705 187.442 251.799C187.442 254.894 189.929 257.058 193.807 257.881C197.685 258.703 210.954 259.839 220.081 259.271C229.207 258.703 255.207 257.058 256.313 253.454C257.42 249.851 259.075 224.967 259.075 224.967L257.42 203.12C271.316 193.934 281.03 200.368 284.213 203.12C284.898 193.729 284.115 183.535 282.029 177.111C278.435 166.015 269.308 161.863 263.775 159.102Z" stroke="#263238" stroke-linecap="round" stroke-linejoin="round"/>
<path d="M188.274 202.523C188.274 202.523 183.995 189.371 185.806 182.457" stroke="#263238" stroke-linecap="round" stroke-linejoin="round"/>
<path d="M257.42 203.071C256.402 197.914 256.657 192.586 258.164 187.55" stroke="#263238" stroke-linecap="round" stroke-linejoin="round"/>
<path d="M193.807 257.832C193.807 257.832 207.262 255.873 216.33 253.729" stroke="#263238" stroke-linecap="round" stroke-linejoin="round"/>
<path d="M161.628 209.603C161.628 209.603 158.896 211.052 156.732 216.33C154.568 221.608 151.835 231.411 154.548 234.505C157.261 237.6 163.459 234.868 169.237 234.143C175.015 233.418 199.232 219.239 203.227 216.869C207.223 214.499 210.503 213.598 211.776 211.414C213.049 209.231 212.687 201.416 212.863 197.597C213.04 193.778 212.139 176.689 212.139 176.689C212.139 176.689 210.866 172.508 208.682 172.87C208.682 172.87 206.136 171.421 205.597 172.87L204.5 175.808C204.5 175.808 202.14 175.083 201.563 176.357C201.168 177.596 200.925 178.878 200.838 180.176C200.838 180.176 198.116 181.449 198.116 183.113C198.116 184.778 198.654 194.571 198.654 197.293C198.654 200.016 198.292 204.207 199.203 206.019C200.113 207.83 201.024 209.475 201.024 209.475C201.024 209.475 187.745 211.297 182.114 211.297C176.484 211.297 166.662 211.473 164.84 212.384" fill="white"/>
<mask id="mask2_209_937" style="mask-type:luminance" maskUnits="userSpaceOnUse" x="153" y="172" width="60" height="64">
<path d="M161.628 209.603C161.628 209.603 158.896 211.052 156.732 216.33C154.568 221.608 151.835 231.411 154.548 234.505C157.261 237.6 163.459 234.868 169.237 234.143C175.015 233.418 199.232 219.239 203.227 216.869C207.223 214.499 210.503 213.598 211.776 211.414C213.049 209.231 212.687 201.416 212.863 197.597C213.04 193.778 212.139 176.689 212.139 176.689C212.139 176.689 210.866 172.508 208.682 172.87C208.682 172.87 206.136 171.421 205.597 172.87L204.5 175.808C204.5 175.808 202.14 175.083 201.563 176.357C201.168 177.596 200.925 178.878 200.838 180.176C200.838 180.176 198.116 181.449 198.116 183.113C198.116 184.778 198.654 194.571 198.654 197.293C198.654 200.016 198.292 204.207 199.203 206.019C200.113 207.83 201.024 209.475 201.024 209.475C201.024 209.475 187.745 211.297 182.114 211.297C176.484 211.297 166.662 211.473 164.84 212.384" fill="white"/>
</mask>
<g mask="url(#mask2_209_937)">
<path d="M211.806 211.365C212.442 210.269 212.677 207.742 212.785 205.01L204.05 206.91C204.05 206.91 204.941 210.905 200.045 214.019C195.148 217.133 168.503 226.015 166.75 226.456C164.997 226.897 183.642 218.465 176.542 218.906C169.443 219.346 160.982 226.906 156.095 226.906C155.313 226.912 154.535 226.803 153.784 226.583C153.246 229.932 153.285 232.968 154.597 234.417C157.319 237.512 163.508 234.78 169.286 234.055C175.064 233.33 199.281 219.15 203.276 216.781C207.272 214.411 210.533 213.52 211.806 211.365Z" fill="#71BDD5"/>
<path opacity="0.6" d="M211.806 211.365C212.442 210.269 212.677 207.742 212.785 205.01L204.05 206.91C204.05 206.91 204.941 210.905 200.045 214.019C195.148 217.133 168.503 226.015 166.75 226.456C164.997 226.897 183.642 218.465 176.542 218.906C169.443 219.346 160.982 226.906 156.095 226.906C155.313 226.912 154.535 226.803 153.784 226.583C153.246 229.932 153.285 232.968 154.597 234.417C157.319 237.512 163.508 234.78 169.286 234.055C175.064 233.33 199.281 219.15 203.276 216.781C207.272 214.411 210.533 213.52 211.806 211.365Z" fill="white"/>
</g>
<path d="M161.628 209.603C161.628 209.603 158.896 211.052 156.732 216.33C154.568 221.608 151.835 231.411 154.548 234.505C157.261 237.6 163.459 234.868 169.237 234.143C175.015 233.418 199.232 219.239 203.227 216.869C207.223 214.499 210.503 213.598 211.776 211.414C213.049 209.231 212.687 201.416 212.863 197.597C213.04 193.778 212.139 176.689 212.139 176.689C212.139 176.689 210.866 172.508 208.682 172.87C208.682 172.87 206.136 171.421 205.597 172.87L204.5 175.808C204.5 175.808 202.14 175.083 201.563 176.357C201.168 177.596 200.925 178.878 200.838 180.176C200.838 180.176 198.116 181.449 198.116 183.113C198.116 184.778 198.654 194.571 198.654 197.293C198.654 200.016 198.292 204.207 199.203 206.019C200.113 207.83 201.024 209.475 201.024 209.475C201.024 209.475 187.745 211.297 182.114 211.297C176.484 211.297 166.662 211.473 164.84 212.384" stroke="#263238" stroke-linecap="round" stroke-linejoin="round"/>
<path d="M272.168 218.416C263.443 212.785 245.258 217.143 239.441 216.781C233.624 216.418 217.446 207.507 217.446 207.507C217.446 207.507 220.717 204.236 220.893 202.239C221.07 200.241 220.893 194.786 220.893 191.692C220.893 188.597 221.804 185.513 221.99 183.153C222.176 180.793 219.052 182.418 218.533 183.153C218.014 183.887 216.712 191.143 216.712 191.143C216.712 191.143 215.076 186.247 215.076 185.699C215.076 185.15 214.714 178.423 213.803 175.691C212.893 172.958 210.719 175.691 210.719 175.691C210.533 174.055 209.984 172.753 208.711 172.753C207.438 172.753 206.351 177.306 206.351 177.306C206.351 174.574 205.441 174.76 204.53 175.661C203.619 176.562 203.629 182.575 203.629 182.575L202.532 180.939C201.259 180.577 200.574 182.575 200.574 184.396C200.574 186.218 201.298 191.662 201.298 196.206C201.245 198.523 201.429 200.84 201.847 203.12C202.644 206.302 203.996 209.319 205.842 212.031C208.936 216.575 219.297 222.206 225.662 227.112C232.028 232.018 250.751 240.205 260.025 241.664C269.299 243.123 275.693 246.56 277.838 242.575C279.982 238.589 284.017 218.935 282.019 212.394" fill="white"/>
<mask id="mask3_209_937" style="mask-type:luminance" maskUnits="userSpaceOnUse" x="200" y="172" width="83" height="73">
<path d="M272.168 218.416C263.443 212.785 245.258 217.143 239.441 216.781C233.624 216.418 217.446 207.507 217.446 207.507C217.446 207.507 220.717 204.236 220.893 202.239C221.07 200.241 220.893 194.786 220.893 191.692C220.893 188.597 221.804 185.513 221.99 183.153C222.176 180.793 219.052 182.418 218.533 183.153C218.014 183.887 216.712 191.143 216.712 191.143C216.712 191.143 215.076 186.247 215.076 185.699C215.076 185.15 214.714 178.423 213.803 175.691C212.893 172.958 210.719 175.691 210.719 175.691C210.533 174.055 209.984 172.753 208.711 172.753C207.438 172.753 206.351 177.306 206.351 177.306C206.351 174.574 205.441 174.76 204.53 175.661C203.619 176.562 203.629 182.575 203.629 182.575L202.532 180.939C201.259 180.577 200.574 182.575 200.574 184.396C200.574 186.218 201.298 191.662 201.298 196.206C201.245 198.523 201.429 200.84 201.847 203.12C202.644 206.302 203.996 209.319 205.842 212.031C208.936 216.575 219.297 222.206 225.662 227.112C232.028 232.018 250.751 240.205 260.025 241.664C269.299 243.123 275.693 246.56 277.838 242.575C279.982 238.589 284.017 218.935 282.019 212.394" fill="white"/>
</mask>
<g mask="url(#mask3_209_937)">
<path d="M259.986 241.732C269.259 243.182 275.654 246.629 277.799 242.643C279.346 239.813 281.784 229.188 282.391 220.884C280.541 224.556 275.429 234.182 272.168 234.838C268.123 235.641 250.741 230.794 248.714 230.392C246.687 229.991 274.175 229.178 264.079 226.75C253.983 224.321 246.296 225.937 233.722 222.304C221.148 218.671 210.964 216.036 205.764 212.1C208.858 216.644 219.219 222.274 225.584 227.18C231.949 232.087 250.712 240.273 259.986 241.732Z" fill="#71BDD5"/>
<path opacity="0.6" d="M259.986 241.732C269.259 243.182 275.654 246.629 277.799 242.643C279.346 239.813 281.784 229.188 282.391 220.884C280.541 224.556 275.429 234.182 272.168 234.838C268.123 235.641 250.741 230.794 248.714 230.392C246.687 229.991 274.175 229.178 264.079 226.75C253.983 224.321 246.296 225.937 233.722 222.304C221.148 218.671 210.964 216.036 205.764 212.1C208.858 216.644 219.219 222.274 225.584 227.18C231.949 232.087 250.712 240.273 259.986 241.732Z" fill="white"/>
</g>
<path d="M272.168 218.416C263.443 212.785 245.258 217.143 239.441 216.781C233.624 216.418 217.446 207.507 217.446 207.507C217.446 207.507 220.717 204.236 220.893 202.239C221.07 200.241 220.893 194.786 220.893 191.692C220.893 188.597 221.804 185.513 221.99 183.153C222.176 180.793 219.052 182.418 218.533 183.153C218.014 183.887 216.712 191.143 216.712 191.143C216.712 191.143 215.076 186.247 215.076 185.699C215.076 185.15 214.714 178.423 213.803 175.691C212.893 172.958 210.719 175.691 210.719 175.691C210.533 174.055 209.984 172.753 208.711 172.753C207.438 172.753 206.351 177.306 206.351 177.306C206.351 174.574 205.441 174.76 204.53 175.661C203.619 176.562 203.629 182.575 203.629 182.575L202.532 180.939C201.259 180.577 200.574 182.575 200.574 184.396C200.574 186.218 201.298 191.662 201.298 196.206C201.245 198.523 201.429 200.84 201.847 203.12C202.644 206.302 203.996 209.319 205.842 212.031C208.936 216.575 219.297 222.206 225.662 227.112C232.028 232.018 250.751 240.205 260.025 241.664C269.299 243.123 275.693 246.56 277.838 242.575C279.982 238.589 284.017 218.935 282.019 212.394" stroke="#263238" stroke-linecap="round" stroke-linejoin="round"/>
<path d="M216.712 191.183C217.693 193.547 218.189 196.085 218.171 198.645" stroke="#263238" stroke-linecap="round" stroke-linejoin="round"/>
<path d="M210.719 175.73C211.268 178.061 211.632 180.431 211.806 182.82C211.806 185.19 212.168 190.654 212.168 190.654" stroke="#263238" stroke-linecap="round" stroke-linejoin="round"/>
<path d="M206.351 177.375C206.351 177.375 207.076 181.556 207.438 184.23C207.664 186.524 207.726 188.831 207.624 191.134" stroke="#263238" stroke-linecap="round" stroke-linejoin="round"/>
<path d="M203.629 182.643C203.629 182.643 204.167 185.914 204.53 187.373C204.798 189.3 204.922 191.245 204.902 193.19" stroke="#263238" stroke-linecap="round" stroke-linejoin="round"/>
<path d="M191.985 287.944C189.987 287.027 188.147 285.801 186.531 284.311C184.357 282.127 186.531 276.673 183.593 274.518C180.655 272.364 174.868 271.58 173.8 274.89C172.733 278.2 171.979 280.345 169.795 281.07C167.611 281.794 165.075 281.794 161.07 283.616C157.065 285.437 157.075 291.979 157.075 291.979C164.752 293.003 172.302 294.832 179.598 297.433C190.144 301.429 194.864 299.245 194.864 299.245C194.864 299.245 195.266 291.91 191.985 287.944Z" fill="white"/>
<mask id="mask4_209_937" style="mask-type:luminance" maskUnits="userSpaceOnUse" x="157" y="272" width="38" height="28">
<path d="M191.985 287.944C189.987 287.027 188.147 285.801 186.531 284.311C184.357 282.127 186.531 276.673 183.593 274.518C180.655 272.364 174.868 271.58 173.8 274.89C172.733 278.2 171.979 280.345 169.795 281.07C167.611 281.794 165.075 281.794 161.07 283.616C157.065 285.437 157.075 291.979 157.075 291.979C164.752 293.003 172.302 294.832 179.598 297.433C190.144 301.429 194.864 299.245 194.864 299.245C194.864 299.245 195.266 291.91 191.985 287.944Z" fill="white"/>
</mask>
<g mask="url(#mask4_209_937)">
<path d="M187.588 291.783C187.588 291.783 181.37 290.892 180.038 288.669C178.707 286.446 180.92 282.45 177.365 282.45C173.81 282.45 174.261 285.114 171.147 286.005C168.033 286.896 163.146 285.555 165.369 288.228C167.592 290.902 176.484 296.219 181.811 297.11C187.138 298.001 191.143 294.887 187.588 291.783Z" fill="#71BDD5"/>
<path opacity="0.6" d="M187.588 291.783C187.588 291.783 181.37 290.892 180.038 288.669C178.707 286.446 180.92 282.45 177.365 282.45C173.81 282.45 174.261 285.114 171.147 286.005C168.033 286.896 163.146 285.555 165.369 288.228C167.592 290.902 176.484 296.219 181.811 297.11C187.138 298.001 191.143 294.887 187.588 291.783Z" fill="white"/>
</g>
<path d="M191.985 287.944C189.987 287.027 188.147 285.801 186.531 284.311C184.357 282.127 186.531 276.673 183.593 274.518C180.655 272.364 174.868 271.58 173.8 274.89C172.733 278.2 171.979 280.345 169.795 281.07C167.611 281.794 165.075 281.794 161.07 283.616C157.065 285.437 157.075 291.979 157.075 291.979C164.752 293.003 172.302 294.832 179.598 297.433C190.144 301.429 194.864 299.245 194.864 299.245C194.864 299.245 195.266 291.91 191.985 287.944Z" stroke="#263238" stroke-linecap="round" stroke-linejoin="round"/>
<path d="M219.033 298.647C224.563 297.223 229.985 295.41 235.259 293.222C242.212 290.402 249.243 287.631 255.951 284.272C266.136 279.18 269.769 271.541 267.223 262.091C264.676 252.641 260.319 245.365 241.762 248.636C223.204 251.907 217.329 263.071 209.446 271.541C199.702 281.97 191.672 287.337 187.99 286.818C183.789 286.23 182.898 294.084 188.715 297.002C198.116 301.703 208.839 301.154 219.033 298.647Z" fill="#263238" stroke="#263238" stroke-linecap="round" stroke-linejoin="round"/>
<path d="M191.143 286.446C191.143 286.446 200.025 284.673 209.358 274.009C218.69 263.345 220.012 261.563 220.012 261.563" stroke="white" stroke-linecap="round" stroke-linejoin="round"/>
<path d="M257.87 283.586C259.448 282.301 260.91 280.879 262.238 279.336" stroke="white" stroke-linecap="round" stroke-linejoin="round"/>
<path d="M228.914 298.001C228.914 298.001 242.682 294.025 253.669 286.7" stroke="white" stroke-linecap="round" stroke-linejoin="round"/>
<path d="M118.54 248.773C115.314 248.159 112.017 248.007 108.748 248.323C100.022 249.048 94.2056 254.502 92.7562 259.232C91.3069 263.962 96.3893 275.958 107.661 283.958C118.932 291.959 130.566 293.751 146.205 298.138C160.061 302.006 174.603 306.56 173.624 306.305C172.635 305.337 171.851 304.178 171.321 302.899C170.791 301.62 170.525 300.247 170.539 298.863C170.745 295.514 172.997 292.899 174.878 291.274C171.94 289.922 167.112 286.867 159.63 279.953C147.585 268.848 135.286 257.734 128.069 252.622" fill="#263238"/>
<path d="M118.54 248.773C115.314 248.159 112.017 248.007 108.748 248.323C100.022 249.048 94.2056 254.502 92.7562 259.232C91.3069 263.962 96.3893 275.958 107.661 283.958C118.932 291.959 130.566 293.751 146.205 298.138C160.061 302.006 174.603 306.56 173.624 306.305C172.635 305.337 171.851 304.178 171.321 302.899C170.791 301.62 170.525 300.247 170.539 298.863C170.745 295.514 172.997 292.899 174.878 291.274C171.94 289.922 167.112 286.867 159.63 279.953C147.585 268.848 135.286 257.734 128.069 252.622" stroke="#263238" stroke-linecap="round" stroke-linejoin="round"/>
<path d="M124.191 253.278C122.173 252.299 120.94 251.79 120.94 251.79" stroke="white" stroke-linecap="round" stroke-linejoin="round"/>
<path d="M161.814 280.227C161.814 280.227 142.709 265.117 135.158 259.79C132.767 258.102 130.286 256.546 127.726 255.129" stroke="white" stroke-linecap="round" stroke-linejoin="round"/>
<path d="M218.533 297.002C213.803 295.906 213.441 297.002 202.17 296.63C190.898 296.258 178.54 292.272 178.54 292.272C178.54 292.272 177.482 292.429 174.878 291.225C172.997 292.85 170.745 295.465 170.539 298.814C170.525 300.198 170.791 301.571 171.321 302.85C171.851 304.13 172.635 305.288 173.624 306.256C175.583 306.775 177.473 307.236 179.265 307.539C187.265 308.998 197.078 312.631 202.17 314.815C206.275 316.716 210.739 317.718 215.263 317.753C219.258 317.753 217.701 318.35 220.619 317.616C223.537 316.881 222.529 314.845 222.529 314.845C223.772 314.781 224.999 314.537 226.172 314.12C228.346 313.385 227.621 310.477 227.621 310.477C229.049 310.528 230.473 310.299 231.812 309.801C234.035 308.636 234.035 306.188 233.075 303.926C231.626 300.498 223.263 298.089 218.533 297.002Z" fill="white"/>
<mask id="mask5_209_937" style="mask-type:luminance" maskUnits="userSpaceOnUse" x="170" y="291" width="64" height="27">
<path d="M218.533 297.002C213.803 295.906 213.441 297.002 202.17 296.63C190.898 296.258 178.54 292.272 178.54 292.272C178.54 292.272 177.482 292.429 174.878 291.225C172.997 292.85 170.745 295.465 170.539 298.814C170.525 300.198 170.791 301.571 171.321 302.85C171.851 304.13 172.635 305.288 173.624 306.256C175.583 306.775 177.473 307.236 179.265 307.539C187.265 308.998 197.078 312.631 202.17 314.815C206.275 316.716 210.739 317.718 215.263 317.753C219.258 317.753 217.701 318.35 220.619 317.616C223.537 316.881 222.529 314.845 222.529 314.845C223.772 314.781 224.999 314.537 226.172 314.12C228.346 313.385 227.621 310.477 227.621 310.477C229.049 310.528 230.473 310.299 231.812 309.801C234.035 308.636 234.035 306.188 233.075 303.926C231.626 300.498 223.263 298.089 218.533 297.002Z" fill="white"/>
</mask>
<g mask="url(#mask5_209_937)">
<path d="M220.619 317.586C222.431 317.136 222.725 316.167 222.695 315.501C221.665 315.662 220.624 315.753 219.581 315.775C213.803 315.775 207.144 310.879 196.03 309.106C189.949 308.127 180.273 306.501 172.762 305.189C173.046 305.561 173.33 305.914 173.624 306.237C175.583 306.756 177.473 307.216 179.265 307.52C187.265 308.979 197.078 312.612 202.17 314.796C206.275 316.697 210.739 317.698 215.263 317.733C219.258 317.724 217.701 318.301 220.619 317.586Z" fill="#71BDD5"/>
<path opacity="0.6" d="M220.619 317.586C222.431 317.136 222.725 316.167 222.695 315.501C221.665 315.662 220.624 315.753 219.581 315.775C213.803 315.775 207.144 310.879 196.03 309.106C189.949 308.127 180.273 306.501 172.762 305.189C173.046 305.561 173.33 305.914 173.624 306.237C175.583 306.756 177.473 307.216 179.265 307.52C187.265 308.979 197.078 312.612 202.17 314.796C206.275 316.697 210.739 317.698 215.263 317.733C219.258 317.724 217.701 318.301 220.619 317.586Z" fill="white"/>
</g>
<path d="M218.533 297.002C213.803 295.906 213.441 297.002 202.17 296.63C190.898 296.258 178.54 292.272 178.54 292.272C178.54 292.272 177.482 292.429 174.878 291.225C172.997 292.85 170.745 295.465 170.539 298.814C170.525 300.198 170.791 301.571 171.321 302.85C171.851 304.13 172.635 305.288 173.624 306.256C175.583 306.775 177.473 307.236 179.265 307.539C187.265 308.998 197.078 312.631 202.17 314.815C206.275 316.716 210.739 317.718 215.263 317.753C219.258 317.753 217.701 318.35 220.619 317.616C223.537 316.881 222.529 314.845 222.529 314.845C223.772 314.781 224.999 314.537 226.172 314.12C228.346 313.385 227.621 310.477 227.621 310.477C229.049 310.528 230.473 310.299 231.812 309.801C234.035 308.636 234.035 306.188 233.075 303.926C231.626 300.498 223.263 298.089 218.533 297.002Z" stroke="#263238" stroke-linecap="round" stroke-linejoin="round"/>
<path d="M227.621 310.467C225.949 308.976 224.105 307.69 222.127 306.638" stroke="#263238" stroke-linecap="round" stroke-linejoin="round"/>
<path d="M222.529 314.815C222.529 314.815 219.258 312.631 218.533 311.182" stroke="#263238" stroke-linecap="round" stroke-linejoin="round"/>
<path d="M217.446 317.322C216.057 316.584 214.908 315.462 214.136 314.091" stroke="#263238" stroke-linecap="round" stroke-linejoin="round"/>
<path d="M213.079 317.724C211.377 317.394 209.837 316.496 208.711 315.177" stroke="#263238" stroke-linecap="round" stroke-linejoin="round"/>
<path d="M209.289 87.1943C209.289 87.1943 202.375 93.5497 202.934 100.463C203.492 107.377 201.269 111.235 202.101 116.23C202.934 121.224 204.06 130.919 206.018 133.377C207.977 135.835 208.232 138.635 210.17 140.016C212.109 141.397 218.749 141.397 220.13 139.184C221.51 136.97 236.17 128.412 237.277 125.356C238.383 122.301 238.109 121.488 238.109 121.488C238.109 121.488 247.784 115.681 246.403 110.716C245.023 105.751 241.145 103.803 238.932 105.467C236.718 107.132 236.444 107.955 236.444 107.955C236.444 107.955 230.657 104.145 231.763 100.552C232.87 96.9576 236.327 95.7237 235.22 91.5716C234.114 87.4195 225.839 89.4956 217.035 90.1713C210.092 90.6805 212.374 84.6482 209.289 87.1943Z" fill="white"/>
<mask id="mask6_209_937" style="mask-type:luminance" maskUnits="userSpaceOnUse" x="201" y="86" width="46" height="55">
<path d="M209.289 87.1943C209.289 87.1943 202.375 93.5497 202.934 100.463C203.492 107.377 201.269 111.235 202.101 116.23C202.934 121.224 204.06 130.919 206.018 133.377C207.977 135.835 208.232 138.635 210.17 140.016C212.109 141.397 218.749 141.397 220.13 139.184C221.51 136.97 236.17 128.412 237.277 125.356C238.383 122.301 238.109 121.488 238.109 121.488C238.109 121.488 247.784 115.681 246.403 110.716C245.023 105.751 241.145 103.803 238.932 105.467C236.718 107.132 236.444 107.955 236.444 107.955C236.444 107.955 230.657 104.145 231.763 100.552C232.87 96.9576 236.327 95.7237 235.22 91.5716C234.114 87.4195 225.839 89.4956 217.035 90.1713C210.092 90.6805 212.374 84.6482 209.289 87.1943Z" fill="white"/>
</mask>
<g mask="url(#mask6_209_937)">
<path d="M246.354 110.697C244.974 105.722 241.096 103.783 238.883 105.448C236.669 107.113 236.395 107.935 236.395 107.935C236.395 107.935 230.608 104.126 231.714 100.532C232.821 96.938 236.278 95.7041 235.171 91.552C234.065 87.3999 228.61 82.9149 219.806 83.5906C217.779 83.7472 216.31 83.9039 215.165 84.1096C218.837 83.8158 225.183 83.8354 228.502 86.8711C233.399 91.317 228.914 95.7629 227.699 100.219C226.485 104.674 229.315 110.726 228.502 115.172C227.69 119.618 223.655 122.849 223.655 128.51C223.655 134.17 224.056 136.197 218.759 139.83L217.721 140.574C218.635 140.401 219.458 139.908 220.041 139.184C221.422 136.97 236.082 128.412 237.188 125.356C238.295 122.301 238.021 121.488 238.021 121.488C238.021 121.488 247.735 115.681 246.354 110.697Z" fill="#71BDD5"/>
<path opacity="0.6" d="M246.354 110.697C244.974 105.722 241.096 103.783 238.883 105.448C236.669 107.113 236.395 107.935 236.395 107.935C236.395 107.935 230.608 104.126 231.714 100.532C232.821 96.938 236.278 95.7041 235.171 91.552C234.065 87.3999 228.61 82.9149 219.806 83.5906C217.779 83.7472 216.31 83.9039 215.165 84.1096C218.837 83.8158 225.183 83.8354 228.502 86.8711C233.399 91.317 228.914 95.7629 227.699 100.219C226.485 104.674 229.315 110.726 228.502 115.172C227.69 119.618 223.655 122.849 223.655 128.51C223.655 134.17 224.056 136.197 218.759 139.83L217.721 140.574C218.635 140.401 219.458 139.908 220.041 139.184C221.422 136.97 236.082 128.412 237.188 125.356C238.295 122.301 238.021 121.488 238.021 121.488C238.021 121.488 247.735 115.681 246.354 110.697Z" fill="white"/>
</g>
<path d="M209.289 87.1943C209.289 87.1943 202.375 93.5497 202.934 100.463C203.492 107.377 201.269 111.235 202.101 116.23C202.934 121.224 204.06 130.919 206.018 133.377C207.977 135.835 208.232 138.635 210.17 140.016C212.109 141.397 218.749 141.397 220.13 139.184C221.51 136.97 236.17 128.412 237.277 125.356C238.383 122.301 238.109 121.488 238.109 121.488C238.109 121.488 247.784 115.681 246.403 110.716C245.023 105.751 241.145 103.803 238.932 105.467C236.718 107.132 236.444 107.955 236.444 107.955C236.444 107.955 230.657 104.145 231.763 100.552C232.87 96.9576 236.327 95.7237 235.22 91.5716C234.114 87.4195 225.839 89.4956 217.035 90.1713C210.092 90.6805 212.374 84.6482 209.289 87.1943Z" stroke="#263238" stroke-linecap="round" stroke-linejoin="round"/>
<path d="M216.095 111.549C216.095 111.549 219.121 115.691 224.086 111.549" stroke="#263238" stroke-linecap="round" stroke-linejoin="round"/>
<path d="M203.756 110.971C204.011 111.305 204.335 111.581 204.705 111.78C205.076 111.978 205.485 112.095 205.905 112.122C206.324 112.149 206.745 112.085 207.138 111.936C207.531 111.786 207.887 111.554 208.182 111.255" stroke="#263238" stroke-linecap="round" stroke-linejoin="round"/>
<path d="M213.715 123.427C211.502 123.985 208.466 123.153 208.183 122.321C207.899 121.488 209.573 110.697 209.573 110.697L207.615 107.377C207.615 107.377 205.95 104.89 203.697 106.554" stroke="#263238" stroke-linecap="round" stroke-linejoin="round"/>
<path d="M208.741 128.402L215.282 128.372" stroke="#263238" stroke-linecap="round" stroke-linejoin="round"/>
<path d="M225.888 107.103C224.039 105.916 221.899 105.263 219.703 105.215C217.507 105.166 215.34 105.725 213.441 106.829" stroke="#263238" stroke-linecap="round" stroke-linejoin="round"/>
<path d="M244.21 111.676C244.21 111.676 243.054 108.679 240.743 109.6C238.432 110.52 237.972 113.517 237.972 113.517C237.972 113.517 239.823 112.822 239.823 115.133C239.823 117.444 237.747 116.514 237.747 116.514" stroke="#263238" stroke-linecap="round" stroke-linejoin="round"/>
<path d="M122.225 56.4293L119.487 61.9403M123.618 60.5563L118.097 57.8226M334.073 102.491L331.334 108.002M335.459 106.615L329.938 103.882M276.848 21L274.109 26.511M278.237 25.1177L272.716 22.384M110.644 127.602L107.906 133.113M112.034 131.72L106.513 128.986M341.472 81.4046C341.025 82.3075 340.319 83.0576 339.445 83.5602C338.571 84.0628 337.567 84.2952 336.56 84.228C335.554 84.1608 334.589 83.7971 333.79 83.1828C332.99 82.5685 332.391 81.7313 332.069 80.7771C331.746 79.8229 331.714 78.7946 331.977 77.8222C332.24 76.8499 332.786 75.9773 333.546 75.3147C334.305 74.6522 335.245 74.2295 336.246 74.1002C337.246 73.9709 338.263 74.1408 339.167 74.5883C340.377 75.1877 341.3 76.2423 341.732 77.5203C342.164 78.7984 342.071 80.1954 341.472 81.4046ZM97.1739 89.3674C96.9834 92.1686 94.5541 94.2853 91.748 94.0951C88.9418 93.905 86.8214 91.48 87.0119 88.6788C87.2024 85.8776 89.6316 83.7609 92.4378 83.9511C95.2439 84.1412 97.3643 86.5662 97.1739 89.3674ZM339.061 138.275C339.001 138.423 338.912 138.557 338.797 138.669C338.683 138.78 338.547 138.867 338.398 138.924C338.248 138.981 338.089 139.006 337.929 138.999C337.769 138.991 337.613 138.95 337.469 138.879C337.326 138.808 337.199 138.709 337.096 138.586C336.993 138.464 336.917 138.322 336.872 138.169C336.827 138.016 336.814 137.855 336.834 137.696C336.854 137.538 336.907 137.386 336.989 137.248C337.138 136.998 337.377 136.813 337.657 136.731C337.938 136.648 338.239 136.675 338.501 136.804C338.762 136.934 338.965 137.157 339.069 137.43C339.173 137.702 339.17 138.004 339.061 138.275ZM188.175 44.9802C188.074 45.1863 187.914 45.3578 187.716 45.4731C187.517 45.5883 187.288 45.6421 187.059 45.6276C186.83 45.6131 186.61 45.531 186.427 45.3916C186.245 45.2522 186.108 45.0619 186.034 44.8448C185.96 44.6276 185.952 44.3934 186.012 44.1719C186.071 43.9503 186.195 43.7514 186.368 43.6003C186.541 43.4492 186.755 43.3528 186.983 43.3232C187.211 43.2936 187.442 43.3322 187.648 43.4341C187.923 43.5701 188.132 43.809 188.231 44.0987C188.33 44.3884 188.31 44.7053 188.175 44.9802Z" stroke="#263238" stroke-linecap="round" stroke-linejoin="round"/>
</g>
<defs>
<linearGradient id="paint0_linear_209_937" x1="201.044" y1="52" x2="201.044" y2="338.12" gradientUnits="userSpaceOnUse">
<stop stop-color="#71BDD5"/>
<stop offset="1" stop-color="#71BDD5" stop-opacity="0"/>
</linearGradient>
<clipPath id="clip0_209_937">
<rect width="402" height="368" fill="white"/>
</clipPath>
</defs>
</svg>
