<svg width="281" height="309" viewBox="0 0 281 309" fill="none" xmlns="http://www.w3.org/2000/svg">
<g clip-path="url(#clip0_209_771)">
<path d="M88.0599 308.566C132.071 308.566 167.75 301.681 167.75 293.187C167.75 284.694 132.071 277.808 88.0599 277.808C44.0484 277.808 8.37009 284.694 8.37009 293.187C8.37009 301.681 44.0484 308.566 88.0599 308.566Z" fill="#E0E0E0"/>
<path opacity="0.5" d="M88.0599 308.566C132.071 308.566 167.75 301.681 167.75 293.187C167.75 284.694 132.071 277.808 88.0599 277.808C44.0484 277.808 8.37009 284.694 8.37009 293.187C8.37009 301.681 44.0484 308.566 88.0599 308.566Z" fill="#C5E4EE"/>
<path d="M25.5289 174.519V190.671C25.5289 190.671 28.1106 215.305 32.2862 238.979L9.37653 286.98L14.6519 287.297C14.6519 287.297 49.9764 243.64 51.216 238.979C52.4556 234.319 50.3865 199.06 50.3865 199.06L86.4193 220.804L101.957 275.488L107.241 273.316C107.241 273.316 101.854 214.756 100.717 213.348C83.4275 192.032 59.0825 177.93 59.0825 177.93L54.1147 168.927L25.5289 174.519Z" fill="#263238" stroke="#263238" stroke-linecap="round" stroke-linejoin="round"/>
<path d="M51.0016 199.861L53.2665 187.931" stroke="white" stroke-width="0.5" stroke-linecap="round" stroke-linejoin="round"/>
<path d="M51.6168 197.392L56.9667 185.461" stroke="white" stroke-width="0.5" stroke-linecap="round" stroke-linejoin="round"/>
<path d="M68.9249 123.005C68.9249 123.005 67.6667 129.884 69.4842 131.459C71.3016 133.034 77.7607 134.041 78.497 130.909C79.2333 127.777 73.1564 96.7028 72.4201 93.5712C71.6838 90.4395 69.4842 92.2849 68.7478 93.2077C68.0115 94.1304 68.9249 123.005 68.9249 123.005Z" fill="white" stroke="#263238" stroke-linecap="round" stroke-linejoin="round"/>
<path d="M36.8346 111.606C36.8346 111.606 16.6279 119.752 10.3832 122.53C4.13852 125.307 7.4566 131.543 8.38864 133.714C9.32069 135.886 24.308 174.724 24.6808 175.423C25.0536 176.122 27.4769 177.809 30.9441 177.8C34.4113 177.791 54.6553 172.776 55.3823 170.344C56.1093 167.911 54.8138 164.09 54.8138 164.09L44.2444 131.748C44.2444 131.748 70.0061 133.146 71.2737 132.959C72.5413 132.773 75.8594 128.718 71.982 124.869C68.1047 121.02 43.8157 114.458 42.5294 113.358C41.2432 112.259 39.0436 110.86 36.8346 111.606Z" fill="white" stroke="#263238" stroke-linecap="round" stroke-linejoin="round"/>
<path d="M25.6315 124.375L30.9628 129.175L37.3659 164.919L44.3004 169.719L45.6332 159.317L32.5845 128.374V122.781C32.5845 121.448 33.1158 118.242 29.6486 116.648C26.1814 115.055 21.3627 117.441 25.6315 124.375Z" fill="#71BDD5"/>
<path d="M68.3563 118.951C68.3563 118.951 65.0476 118.951 63.9478 125.764C62.8479 132.577 64.4977 133.854 66.3338 134.217C68.1699 134.581 72.4014 136.082 74.6103 133.854C76.8193 131.626 77.0057 126.677 75.7195 122.819C75.4943 122.078 75.1244 121.39 74.6311 120.794C74.1379 120.198 73.5312 119.706 72.8463 119.346C72.1613 118.986 71.4117 118.766 70.6409 118.698C69.8702 118.63 69.0936 118.716 68.3563 118.951Z" fill="white" stroke="#263238" stroke-linecap="round" stroke-linejoin="round"/>
<path d="M29.5647 111.783L37.8412 122.082L32.1465 118.951L30.1146 124.291L29.5647 111.783Z" fill="white" stroke="#263238" stroke-linecap="round" stroke-linejoin="round"/>
<path d="M31.0373 106.266L29.9375 125.028L22.0244 116.565L20.1883 104.979L31.0373 106.266Z" fill="white" stroke="#263238" stroke-linecap="round" stroke-linejoin="round"/>
<path d="M19.0792 111.597L28.5674 120.367L26.1627 128.103L17.4294 118.037L19.0792 111.597Z" fill="white" stroke="#263238" stroke-linecap="round" stroke-linejoin="round"/>
<path d="M104.231 169.57C91.5068 169.616 79.0607 165.85 68.4962 158.758C61.8883 154.409 56.2587 148.731 51.9662 142.086C47.6736 135.441 44.8121 127.974 43.564 120.162C38.531 88.0907 62.0558 57.6688 96.0754 52.2536L127.532 46.2233L130.803 69.6083L100.251 75.098L99.9154 75.1633C78.4784 78.5093 63.5657 97.0756 66.6228 116.565C69.6799 136.054 89.5138 149.102 110.858 145.859L142.92 139.754L147.282 162.552L114.959 168.694L114.586 168.759C111.16 169.296 107.698 169.567 104.231 169.57Z" fill="#263238" stroke="#263238" stroke-linecap="round" stroke-linejoin="round"/>
<path d="M103.513 167.063C90.7891 167.108 78.343 163.343 67.7785 156.251C61.1706 151.901 55.541 146.223 51.2485 139.578C46.9559 132.933 44.0944 125.467 42.8463 117.655C37.7946 85.5834 61.3381 55.1521 95.3577 49.7463L126.814 43.7159L130.039 67.1009L99.4867 72.5907C99.3765 72.6184 99.2643 72.6371 99.1511 72.6466C77.7141 75.9927 62.8014 94.5683 65.8678 114.057C68.9342 133.546 88.7495 146.595 110.103 143.352L142.24 137.247L146.648 160.044L114.306 166.187L113.933 166.252C110.486 166.792 107.002 167.063 103.513 167.063Z" fill="#FFC283" stroke="#263238" stroke-linecap="round" stroke-linejoin="round"/>
<path d="M98.5919 164.099C88.1291 163.308 78.0509 159.814 69.3444 153.958C63.4464 150.011 58.346 144.986 54.3105 139.148" fill="#FFC283"/>
<path d="M98.5919 164.099C88.1291 163.308 78.0509 159.814 69.3444 153.958C63.4464 150.011 58.346 144.986 54.3105 139.148" stroke="#263238" stroke-linecap="round" stroke-linejoin="round"/>
<path d="M106.421 164.192C105.489 164.192 104.482 164.267 103.513 164.267L106.421 164.192Z" fill="#71BDD5"/>
<path d="M106.421 164.192C105.489 164.192 104.482 164.267 103.513 164.267" stroke="#263238" stroke-linecap="round" stroke-linejoin="round"/>
<path d="M84.3875 74.6692C78.709 77.6628 73.7825 81.9042 69.9781 87.0747C67.0748 90.9613 64.9718 95.3855 63.7911 100.091C62.6103 104.796 62.3753 109.689 63.0996 114.486C64.9637 126.137 72.2709 135.783 82.5328 141.376" stroke="#263238" stroke-linecap="round" stroke-linejoin="round"/>
<path d="M52.5955 81.4266C57.2293 73.7307 63.5031 67.1514 70.9701 62.1573C78.4372 57.1631 86.9137 53.8771 95.7958 52.5332L124.447 47.0435L126.898 64.8455L98.7131 69.9065C96.2017 70.3054 93.7268 70.9069 91.3126 71.7053" stroke="#263238" stroke-linecap="round" stroke-linejoin="round"/>
<path d="M48.9885 88.6871C49.5477 87.3263 50.1691 85.9904 50.8526 84.6793" stroke="#263238" stroke-linecap="round" stroke-linejoin="round"/>
<path d="M105.843 71.4536L130.039 67.1009L126.814 43.7159L102.236 48.4321L105.843 71.4536Z" fill="white" stroke="#263238" stroke-linecap="round" stroke-linejoin="round"/>
<path d="M146.602 160.045L142.24 137.247L116.888 142.056L120.476 165.003L146.602 160.045Z" fill="white" stroke="#263238" stroke-linecap="round" stroke-linejoin="round"/>
<path d="M31.8855 158.824C31.8855 158.824 65.8585 160.781 67.5362 160.501C69.2139 160.222 74.4706 154.601 75.7941 153.977C77.1176 153.352 79.7833 155.291 81.3864 155.925C82.9895 156.559 84.341 155.711 84.4621 157.006C84.5833 158.302 83.6326 158.805 81.7965 158.712C79.9603 158.618 78.8605 158.367 77.9471 158.32C77.0337 158.274 79.8671 160.268 82.3277 162.608C84.7883 164.947 86.7643 165.786 86.1584 166.858C85.5526 167.93 84.0893 167.669 83.2039 166.858C82.3184 166.047 79.7553 165.926 77.7328 165.833C75.7102 165.739 72.2989 164.08 72.2989 164.08C67.5768 165.193 62.7977 166.049 57.9827 166.643C47.5904 168.125 32.9294 170.306 28.8936 169.906C24.8579 169.505 22.2015 164.034 22.2015 164.034L31.8855 158.824Z" fill="white" stroke="#263238" stroke-linecap="round" stroke-linejoin="round"/>
<path d="M10.3832 122.53C10.3832 122.53 4.92142 124.655 3.44879 127.786C1.97616 130.918 3.6352 136.063 5.83482 140.108C8.03445 144.153 21.4745 165.273 21.4745 165.273L29.5647 157.919C29.5647 157.919 22.2108 134.749 21.2881 132.754" fill="white"/>
<path d="M10.3832 122.53C10.3832 122.53 4.92142 124.655 3.44879 127.786C1.97616 130.918 3.6352 136.063 5.83482 140.108C8.03445 144.153 21.4745 165.273 21.4745 165.273L29.5647 157.919C29.5647 157.919 22.2108 134.749 21.2881 132.754" stroke="#263238" stroke-linecap="round" stroke-linejoin="round"/>
<path d="M12.4337 130.172C13.4998 130.094 14.5707 130.233 15.5816 130.581C16.5925 130.929 17.5223 131.478 18.3149 132.195" stroke="#263238" stroke-linecap="round" stroke-linejoin="round"/>
<path d="M20.3654 128.523C20.3654 128.523 23.1615 129.073 24.0936 135.14" stroke="#263238" stroke-linecap="round" stroke-linejoin="round"/>
<path d="M27.7286 151.88C27.7286 151.88 22.0245 154.452 18.9021 157.947C15.7798 161.443 16.106 162.542 18.1658 164.751C20.2256 166.96 21.4746 168.06 22.7608 167.147C24.047 166.233 32.6964 160.52 33.2463 159.047C33.7962 157.575 31.9601 152.066 30.6738 151.507C29.6812 151.24 28.6233 151.374 27.7286 151.88Z" fill="white" stroke="#263238" stroke-linecap="round" stroke-linejoin="round"/>
<path d="M72.4201 93.5711C72.4201 93.5711 78.1242 88.2398 78.8605 85.658C79.5968 83.0762 77.9284 79.0405 77.3879 78.8541C76.8473 78.6677 76.288 79.7861 76.288 81.2494C76.288 81.2494 74.629 79.2269 74.424 80.6995C74.3187 81.5532 74.2596 82.4119 74.2469 83.272C74.2469 83.272 72.5878 81.4079 72.2243 82.7221C72.1345 83.1224 72.1557 83.5397 72.2854 83.9289C72.4152 84.3181 72.6486 84.6646 72.9606 84.931C72.9606 84.931 70.5653 83.0669 70.5653 84.3718C70.6477 85.2724 71.0358 86.1176 71.6651 86.7671C71.6651 86.7671 68.5427 90.9986 68.7292 93.2076C68.7113 93.766 68.9132 94.3091 69.2913 94.7204C69.6695 95.1316 70.1938 95.3782 70.7517 95.4072" fill="white"/>
<path d="M72.4201 93.5711C72.4201 93.5711 78.1242 88.2398 78.8605 85.658C79.5968 83.0762 77.9284 79.0405 77.3879 78.8541C76.8473 78.6677 76.288 79.7861 76.288 81.2494C76.288 81.2494 74.629 79.2269 74.424 80.6995C74.3187 81.5532 74.2596 82.4119 74.2469 83.272C74.2469 83.272 72.5878 81.4079 72.2243 82.7221C72.1345 83.1224 72.1557 83.5397 72.2854 83.9289C72.4152 84.3181 72.6486 84.6646 72.9606 84.931C72.9606 84.931 70.5653 83.0669 70.5653 84.3718C70.6477 85.2724 71.0358 86.1176 71.6651 86.7671C71.6651 86.7671 68.5427 90.9986 68.7292 93.2076C68.7113 93.766 68.9132 94.3091 69.2913 94.7204C69.6695 95.1316 70.1938 95.3782 70.7517 95.4072" stroke="#263238" stroke-linecap="round" stroke-linejoin="round"/>
<path d="M73.0166 84.931C73.0166 84.931 74.3028 86.2172 74.1164 87.3171" stroke="#263238" stroke-linecap="round" stroke-linejoin="round"/>
<path d="M74.2655 83.272C74.2655 83.272 75.7381 85.2945 75.7381 86.5807" stroke="#263238" stroke-linecap="round" stroke-linejoin="round"/>
<path d="M76.2881 81.2494C77.1088 82.3843 77.6166 83.715 77.7607 85.1081" stroke="#263238" stroke-linecap="round" stroke-linejoin="round"/>
<path d="M14.6519 287.297C14.6519 287.297 22.1083 294.436 24.2893 296.617C26.4702 298.798 29.2571 300.028 27.0854 300.028C24.9137 300.028 20.2442 300.653 15.9009 299.413C11.5575 298.174 8.1276 294.436 6.58041 292.572C5.03321 290.708 9.37654 286.98 9.37654 286.98L14.6519 287.297Z" fill="white" stroke="#263238" stroke-linecap="round" stroke-linejoin="round"/>
<path d="M26.2466 298.313C22.3035 298.818 18.2986 298.5 14.4842 297.381C11.5762 296.449 8.109 291.789 6.79482 289.925C6.24492 290.857 5.99327 291.789 6.58046 292.525C8.12765 294.389 11.5483 298.118 15.9009 299.367C20.2535 300.615 24.9045 299.982 27.0854 299.982C28.614 300.028 27.6819 299.413 26.2466 298.313Z" fill="white" stroke="#263238" stroke-linecap="round" stroke-linejoin="round"/>
<path d="M107.241 273.316C107.241 273.316 124.018 280.455 125.258 280.772C126.497 281.089 126.749 283.065 120.961 283.065C118.472 283.065 109.096 283.68 106.924 283.68C104.753 283.68 102.264 283.876 101.649 282.636C101.034 281.397 101.957 275.487 101.957 275.487L107.241 273.316Z" fill="white" stroke="#263238" stroke-linecap="round" stroke-linejoin="round"/>
<path d="M125.258 280.772H125.211C117.997 281.835 105.023 281.658 101.453 281.583C101.45 281.95 101.516 282.313 101.649 282.655C102.264 283.895 104.743 283.699 106.924 283.699C109.105 283.699 118.472 283.084 120.961 283.084C126.749 283.065 126.497 281.08 125.258 280.772Z" fill="white" stroke="#263238" stroke-linecap="round" stroke-linejoin="round"/>
<path d="M28.5674 120.367L29.9375 125.028L27.2346 124.105L28.5674 120.367Z" fill="white" stroke="#263238" stroke-linecap="round" stroke-linejoin="round"/>
<path d="M30.6739 80.5131C30.6739 80.5131 29.5647 77.2043 24.9697 76.8315C20.3748 76.4587 12.0889 83.0855 11.3526 87.6898C10.6162 92.2941 17.4295 104.606 19.452 106.443C21.4746 108.279 38.5776 107.738 39.1275 105.343C39.6774 102.947 34.3461 87.5034 30.6739 80.5131Z" fill="white" stroke="#263238" stroke-linecap="round" stroke-linejoin="round"/>
<path d="M30.301 91.7349C30.301 91.7349 32.1651 94.1209 33.2462 94.3073C34.3274 94.4937 36.0424 94.1209 35.1103 95.2393C34.1783 96.3578 31.0652 97.1034 31.0652 97.1034" stroke="#263238" stroke-linecap="round" stroke-linejoin="round"/>
<path d="M31.0746 100.189C31.0746 100.189 27.0295 101.121 25.1934 98.166" stroke="#263238" stroke-linecap="round" stroke-linejoin="round"/>
<path d="M25.8924 97.4297L24.2333 98.9023" stroke="#263238" stroke-linecap="round" stroke-linejoin="round"/>
<path d="M25.1561 93.5711C25.8549 93.0236 26.672 92.6469 27.5422 92.4713" stroke="#263238" stroke-linecap="round" stroke-linejoin="round"/>
<path d="M22.3973 90.6259C22.3973 90.6259 23.4971 88.9761 26.9923 89.6938" stroke="#263238" stroke-linecap="round" stroke-linejoin="round"/>
<path d="M28.2784 87.6713C28.2784 87.6713 28.092 84.8751 30.6738 85.0895" stroke="#263238" stroke-linecap="round" stroke-linejoin="round"/>
<path d="M32.8268 90.2158C33.1251 90.8682 33.1344 91.4927 32.8268 91.6232C32.5192 91.7537 32.0905 91.3156 31.7922 90.6911C31.494 90.0667 31.494 89.4142 31.7922 89.2931C32.0905 89.1719 32.5379 89.5354 32.8268 90.2158Z" fill="#263238"/>
<path d="M15.9569 98.5388C15.9569 98.5388 18.753 97.8025 18.753 96.3299C18.753 94.8573 17.6439 94.4658 18.0167 93.3846C18.3895 92.3035 20.9619 90.8122 20.2256 89.1531C19.4893 87.4941 15.8077 87.5034 16.1805 86.2172C16.5534 84.931 28.8657 81.7993 29.7884 77.9407C30.7111 74.082 26.6567 69.2913 23.5344 69.4777C20.412 69.6641 22.0617 73.5228 22.0617 73.5228C22.0617 73.5228 12.8625 70.7266 11.0263 74.2591C9.19021 77.7915 12.6854 79.4133 12.6854 79.4133C12.6854 79.4133 6.24494 82.3492 5.69504 86.7671C5.14513 91.185 12.8625 99.6386 14.5215 100.189C16.1805 100.738 15.9569 98.5388 15.9569 98.5388Z" fill="#263238" stroke="#263238" stroke-linecap="round" stroke-linejoin="round"/>
<path d="M15.2298 86.5527C15.2298 86.5527 9.95444 90.197 9.22745 93.077" stroke="white" stroke-width="0.5" stroke-linecap="round" stroke-linejoin="round"/>
<path d="M19.2749 88.3702C19.2749 88.3702 12.7506 91.2875 10.7188 95.4724" stroke="white" stroke-width="0.5" stroke-linecap="round" stroke-linejoin="round"/>
<path d="M17.4294 99.6387C17.4294 99.6387 16.3203 97.0663 14.2978 97.2527C12.2752 97.4391 12.8251 100.375 14.8477 102.77C16.8702 105.166 19.2656 103.507 19.452 102.957" fill="white"/>
<path d="M17.4294 99.6387C17.4294 99.6387 16.3203 97.0663 14.2978 97.2527C12.2752 97.4391 12.8251 100.375 14.8477 102.77C16.8702 105.166 19.2656 103.507 19.452 102.957" stroke="#263238" stroke-linecap="round" stroke-linejoin="round"/>
<path d="M204.789 89.8987H179.68V106.405H204.789V89.8987Z" fill="white" stroke="#263238" stroke-linecap="round" stroke-linejoin="round"/>
<path d="M179.68 89.8987L192.235 98.1473L204.789 89.8987" stroke="#263238" stroke-linecap="round" stroke-linejoin="round"/>
<path d="M258.056 56.9071L233.731 50.6797L229.637 66.6705L253.962 72.8979L258.056 56.9071Z" fill="white" stroke="#263238" stroke-linecap="round" stroke-linejoin="round"/>
<path d="M233.72 50.697L243.833 61.807L258.046 56.9231" stroke="#263238" stroke-linecap="round" stroke-linejoin="round"/>
<path d="M243.781 141.411L219.456 135.184L215.362 151.175L239.687 157.402L243.781 141.411Z" fill="white" stroke="#263238" stroke-linecap="round" stroke-linejoin="round"/>
<path d="M219.422 135.205L229.544 146.315L243.749 141.431" stroke="#263238" stroke-linecap="round" stroke-linejoin="round"/>
<path d="M270.519 84.9395L246.194 78.712L242.1 94.7028L266.425 100.93L270.519 84.9395Z" fill="white" stroke="#263238" stroke-linecap="round" stroke-linejoin="round"/>
<path d="M246.181 78.7328L256.294 89.8428L270.508 84.9682" stroke="#263238" stroke-linecap="round" stroke-linejoin="round"/>
<path d="M247.647 113.493L231.574 94.202L218.892 104.768L234.965 124.059L247.647 113.493Z" fill="white" stroke="#263238" stroke-linecap="round" stroke-linejoin="round"/>
<path d="M231.576 94.1954L233.272 109.127L247.654 113.489" stroke="#263238" stroke-linecap="round" stroke-linejoin="round"/>
<path d="M279.33 53.8372L263.258 34.5461L250.576 45.1121L266.649 64.4032L279.33 53.8372Z" fill="white" stroke="#263238" stroke-linecap="round" stroke-linejoin="round"/>
<path d="M263.266 34.5446L264.962 49.4759L279.343 53.8379" stroke="#263238" stroke-linecap="round" stroke-linejoin="round"/>
<path d="M265.169 109.013L245.081 123.827L254.82 137.032L274.907 122.218L265.169 109.013Z" fill="white" stroke="#263238" stroke-width="0.994032" stroke-linecap="round" stroke-linejoin="round"/>
<path d="M247.477 123.601L262.473 122.8L267.693 108.707" stroke="#263238" stroke-linecap="round" stroke-linejoin="round"/>
<path d="M143.973 35.8121H118.864V52.3186H143.973V35.8121Z" fill="white" stroke="#263238" stroke-linecap="round" stroke-linejoin="round"/>
<path d="M118.864 35.8121L131.419 44.0607L143.973 35.8121" stroke="#263238" stroke-linecap="round" stroke-linejoin="round"/>
<path d="M168.203 48.539L150.019 31.2231L138.636 43.1767L156.819 60.4925L168.203 48.539Z" fill="white" stroke="#263238" stroke-linecap="round" stroke-linejoin="round"/>
<path d="M150.004 31.2266L153.406 45.8597L168.188 48.544" stroke="#263238" stroke-linecap="round" stroke-linejoin="round"/>
<path d="M233.746 24.3006L211.012 34.9598L218.019 49.9052L240.754 39.2459L233.746 24.3006Z" fill="white" stroke="#263238" stroke-linecap="round" stroke-linejoin="round"/>
<path d="M211.015 34.9827L225.881 37.1264L233.748 24.3295" stroke="#263238" stroke-linecap="round" stroke-linejoin="round"/>
<path d="M193.161 58.0278L199.227 33.6622L183.209 29.6745L177.143 54.0401L193.161 58.0278Z" fill="white" stroke="#263238" stroke-linecap="round" stroke-linejoin="round"/>
<path d="M199.234 33.6685L188.189 43.8557L193.167 58.0321" stroke="#263238" stroke-linecap="round" stroke-linejoin="round"/>
<path d="M138.348 125.257L117.74 139.602L127.17 153.149L147.778 138.805L138.348 125.257Z" fill="white" stroke="#263238" stroke-linecap="round" stroke-linejoin="round"/>
<path d="M117.746 139.586L132.761 139.185L138.353 125.242" stroke="#263238" stroke-linecap="round" stroke-linejoin="round"/>
<path d="M168.829 128.595L148.24 142.907L157.648 156.443L178.238 142.13L168.829 128.595Z" fill="white" stroke="#263238" stroke-width="0.998649" stroke-linecap="round" stroke-linejoin="round"/>
<path d="M148.708 142.727L163.723 142.326L169.315 128.383" stroke="#263238" stroke-linecap="round" stroke-linejoin="round"/>
<path d="M146.588 58.4092L124.253 46.9357L116.711 61.6181L139.045 73.0916L146.588 58.4092Z" fill="white" stroke="#263238" stroke-linecap="round" stroke-linejoin="round"/>
<path d="M124.261 46.9315L131.661 60.0081L146.592 58.405" stroke="#263238" stroke-linecap="round" stroke-linejoin="round"/>
<path d="M156.471 153.983L134.136 142.51L126.594 157.192L148.929 168.666L156.471 153.983Z" fill="white" stroke="#263238" stroke-linecap="round" stroke-linejoin="round"/>
<path d="M134.131 142.503L141.531 155.589L156.472 153.986" stroke="#263238" stroke-linecap="round" stroke-linejoin="round"/>
</g>
<defs>
<clipPath id="clip0_209_771">
<rect width="281" height="309" fill="white"/>
</clipPath>
</defs>
</svg>
