<svg width="630" height="605" viewBox="0 0 630 605" fill="none" xmlns="http://www.w3.org/2000/svg">
<g clip-path="url(#clip0_209_29)">
<path d="M658.911 455.618C658.035 449.76 656.958 443.956 655.736 438.225L600.802 464.853L658.911 455.618Z" fill="#71BDD5"/>
<path d="M584.76 575.25C579.65 575.25 625.659 550.904 659.842 533.182C662.725 509.886 662.725 486.324 659.842 463.028L372.051 583.243L448.265 525.061L184.546 621.368H633.835C642.867 602.677 649.795 583.041 654.495 562.821C630.349 567.548 590.308 575.25 584.76 575.25Z" fill="#71BDD5"/>
<path d="M297.677 93.3535C315.724 93.3535 330.353 78.7236 330.353 60.6768C330.353 42.6299 315.724 28 297.677 28C279.63 28 265 42.6299 265 60.6768C265 78.7236 279.63 93.3535 297.677 93.3535Z" fill="white"/>
<path d="M143.525 624.942L240.782 545.097C241.351 544.695 241.996 544.413 242.677 544.269C243.359 544.124 244.062 544.12 244.746 544.257C245.429 544.394 246.077 544.668 246.65 545.063C247.224 545.459 247.711 545.967 248.082 546.557C250.984 550.9 245.18 581.397 245.18 581.397L261.149 582.857L264.051 593.004L274.216 603.169L275.658 624.942H143.525Z" fill="#263238" stroke="#263238" stroke-miterlimit="10"/>
<path d="M94.509 621.566L156.944 576.56C156.944 576.56 167.109 575.119 165.649 585.266C164.189 595.413 149.68 607.057 149.68 607.057L151.14 618.664L153.403 624.942H79.9999L94.509 621.566Z" fill="#263238" stroke="#263238" stroke-miterlimit="10"/>
<path d="M519.951 127.428L384.546 119.194C375.823 118.663 368.322 125.304 367.791 134.027L358.709 283.386C358.178 292.109 364.819 299.61 373.542 300.141L508.947 308.375C517.67 308.905 525.171 302.264 525.702 293.542L534.785 144.182C535.315 135.46 528.674 127.958 519.951 127.428Z" fill="#71BDD5" stroke="#263238" stroke-miterlimit="10"/>
<path d="M352.747 197.967C352.747 197.967 342.399 210.742 311.994 219.867C281.589 228.992 274.27 233.865 274.27 233.865C274.27 233.865 256.622 239.943 250.545 255.145C244.467 270.348 248.117 278.268 283.395 275.841C318.673 273.414 391.675 244.815 391.675 244.815C391.675 244.815 405.071 220.469 402.023 199.792C398.975 179.114 358.824 189.444 352.747 197.967Z" fill="white"/>
<mask id="mask0_209_29" style="mask-type:luminance" maskUnits="userSpaceOnUse" x="248" y="187" width="155" height="90">
<path d="M352.747 197.967C352.747 197.967 342.399 210.742 311.994 219.867C281.589 228.992 274.27 233.865 274.27 233.865C274.27 233.865 256.622 239.943 250.545 255.145C244.467 270.348 248.117 278.268 283.395 275.841C318.673 273.414 391.675 244.815 391.675 244.815C391.675 244.815 405.071 220.469 402.023 199.792C398.975 179.114 358.824 189.444 352.747 197.967Z" fill="white"/>
</mask>
<g mask="url(#mask0_209_29)">
<g style="mix-blend-mode:multiply" opacity="0.49">
<path d="M271.368 262.263C271.368 262.263 272.08 269.216 272.719 276.261C275.913 276.261 279.435 276.115 283.395 275.841C318.673 273.396 391.675 244.816 391.675 244.816C396.866 234.905 400.363 224.197 402.023 213.133L397.917 201.416C397.917 201.416 377.221 224.539 357.766 237.917C338.311 251.294 271.368 262.263 271.368 262.263Z" fill="#71BDD5"/>
</g>
</g>
<path d="M352.747 197.967C352.747 197.967 342.399 210.742 311.994 219.867C281.589 228.992 274.27 233.865 274.27 233.865C274.27 233.865 256.622 239.943 250.545 255.145C244.467 270.348 248.117 278.268 283.395 275.841C318.673 273.414 391.675 244.815 391.675 244.815C391.675 244.815 405.071 220.469 402.023 199.792C398.975 179.114 358.824 189.444 352.747 197.967Z" stroke="#263238" stroke-miterlimit="10"/>
<path d="M275.529 266.059C275.529 266.059 348.184 254.78 384.156 234.322" stroke="#263238" stroke-width="0.5" stroke-miterlimit="10"/>
<path d="M336.668 263.887C338.822 256.842 341.121 244.45 336.322 232.04C333.8 225.32 328.975 219.713 322.707 216.217C319.44 217.476 315.881 218.699 311.994 219.867L309.165 220.725C315.553 224.649 325.755 233.099 326.594 247.243C327.117 253.815 327 260.422 326.247 266.971C329.733 265.968 333.219 264.946 336.668 263.887Z" fill="#263238" stroke="#263238" stroke-miterlimit="10"/>
<path d="M402.169 168.109C399.187 165.173 395.651 162.859 391.766 161.302C365.65 151.373 351.615 181.213 346.761 201.617C346.761 201.617 352.838 206.49 368.041 204.044C383.243 201.599 405.144 191.269 407.589 182.746C409.013 177.435 406.202 172.197 402.169 168.109Z" fill="#263238" stroke="#263238" stroke-miterlimit="10"/>
<path d="M279.143 240.545C279.143 240.545 279.143 254.543 269.397 258.193C259.652 261.843 250.545 255.145 250.545 255.145C250.545 255.145 248.72 228.39 251.147 223.517C253.574 218.644 274.872 228.992 279.143 240.545Z" fill="white" stroke="#263238" stroke-miterlimit="10"/>
<path d="M418.266 162.908C418.266 162.908 401.841 165.171 397.825 170.208C393.81 175.245 371.709 295.114 370.578 298.526C369.446 301.939 373.972 312.725 388.171 328.056C402.37 343.386 419.963 347.93 436.991 349.062C454.019 350.193 494.334 341.762 503.988 332.637C513.643 323.511 512.511 299.695 512.511 286.645C512.511 273.596 517.621 183.877 514.208 175.938C510.796 167.999 488.658 161.174 485.263 161.174C481.869 161.174 422.245 162.342 418.266 162.908Z" fill="white"/>
<mask id="mask1_209_29" style="mask-type:luminance" maskUnits="userSpaceOnUse" x="370" y="161" width="146" height="189">
<path d="M418.266 162.908C418.266 162.908 401.841 165.171 397.825 170.208C393.81 175.245 371.709 295.114 370.578 298.526C369.446 301.939 373.972 312.725 388.171 328.056C402.37 343.386 419.963 347.93 436.991 349.062C454.019 350.193 494.334 341.762 503.988 332.637C513.643 323.511 512.511 299.695 512.511 286.645C512.511 273.596 517.621 183.877 514.208 175.938C510.796 167.999 488.658 161.174 485.263 161.174C481.869 161.174 422.245 162.342 418.266 162.908Z" fill="white"/>
</mask>
<g mask="url(#mask1_209_29)">
<g style="mix-blend-mode:multiply" opacity="0.49">
<path d="M512.511 286.682C512.511 273.615 517.621 183.914 514.209 175.957C510.796 168 488.658 161.21 485.263 161.21C481.869 161.21 422.226 162.342 418.266 162.908C415.273 163.36 412.307 163.969 409.378 164.733C416.678 177.508 432.666 196.196 463.618 197.784C475.703 198.546 487.83 197.251 499.48 193.952L492.819 268.34L441.207 263.486L479.423 284.164L481.869 315.791L509.427 323.365C513.132 312.141 512.511 296.428 512.511 286.682Z" fill="#71BDD5"/>
</g>
</g>
<path d="M418.266 162.908C418.266 162.908 401.841 165.171 397.825 170.208C393.81 175.245 371.709 295.114 370.578 298.526C369.446 301.939 373.972 312.725 388.171 328.056C402.37 343.386 419.963 347.93 436.991 349.062C454.018 350.193 494.334 341.762 503.988 332.637C513.643 323.511 512.511 299.694 512.511 286.645C512.511 273.596 517.621 183.877 514.208 175.938C510.796 167.999 488.658 161.174 485.263 161.174C481.869 161.174 422.245 162.342 418.266 162.908Z" stroke="#263238" stroke-miterlimit="10"/>
<path d="M444.601 288.909C418.631 288.909 386.62 248.758 385.269 247.115L389.558 243.72C389.886 244.122 421.277 283.433 444.601 283.433C451.372 283.433 455.898 281.809 458.052 278.597C461.337 273.706 458.398 266.168 458.362 266.095L463.436 264.015C463.6 264.435 467.542 274.29 462.596 281.663C459.366 286.463 453.27 288.909 444.601 288.909Z" fill="#263238" stroke="#263238" stroke-miterlimit="10"/>
<path d="M361.671 302.031C363.259 300.625 365.321 298.818 367.146 297.413C365.686 297.231 357.839 296.063 355.649 290.569C353.459 285.076 356.89 277.009 365.303 266.515C390.982 234.54 431.899 227.806 432.319 227.751L431.497 222.075C429.672 222.349 388.153 229.157 361.106 262.847C351.123 275.275 347.6 285.35 350.612 292.796C351.66 295.056 353.195 297.056 355.107 298.652C357.019 300.249 359.261 301.403 361.671 302.031Z" fill="#263238" stroke="#263238" stroke-miterlimit="10"/>
<path d="M438.455 218.83L429.945 218.372L429.243 231.42L437.753 231.878L438.455 218.83Z" fill="white" stroke="#263238" stroke-miterlimit="10"/>
<path d="M454.607 260.384L454.093 268.892L467.136 269.68L467.651 261.173L454.607 260.384Z" fill="white" stroke="#263238" stroke-miterlimit="10"/>
<path d="M437.009 206.088L433.596 254.652C433.45 256.829 434.166 258.976 435.591 260.629C437.015 262.282 439.032 263.308 441.207 263.485L489.041 267.263C490.162 267.35 491.289 267.208 492.353 266.846C493.417 266.484 494.397 265.909 495.232 265.156C496.067 264.403 496.74 263.488 497.21 262.466C497.68 261.445 497.937 260.339 497.966 259.215L499.243 208.552C499.297 206.374 498.49 204.263 496.997 202.678C495.503 201.092 493.445 200.16 491.268 200.084L445.642 198.404C443.484 198.304 441.373 199.052 439.76 200.487C438.147 201.923 437.159 203.933 437.009 206.088Z" fill="white" stroke="#263238" stroke-miterlimit="10"/>
<path d="M458.855 198.879L457.431 229.905L472.762 231.036L474.733 199.463L458.855 198.879Z" fill="#71BDD5" stroke="#263238" stroke-miterlimit="10"/>
<path d="M494.899 245.235C494.899 247.145 494.333 249.013 493.271 250.601C492.209 252.189 490.701 253.426 488.935 254.156C487.17 254.887 485.228 255.077 483.355 254.703C481.481 254.329 479.761 253.407 478.412 252.055C477.062 250.703 476.144 248.981 475.774 247.107C475.403 245.233 475.597 243.292 476.331 241.528C477.064 239.764 478.304 238.257 479.894 237.199C481.485 236.14 483.353 235.577 485.263 235.581C486.53 235.581 487.785 235.83 488.955 236.316C490.125 236.801 491.188 237.513 492.083 238.409C492.979 239.306 493.688 240.371 494.171 241.542C494.654 242.713 494.902 243.968 494.899 245.235Z" fill="#71BDD5" stroke="#263238" stroke-miterlimit="10"/>
<path d="M247.807 282.831C247.807 282.831 261.495 285.258 270.93 278.268C280.366 271.279 275.183 258.795 266.66 251.805C258.137 244.815 240.817 242.68 233.809 246.02C226.801 249.36 230.469 262.445 232.604 269.453C234.74 276.462 238.372 281.608 247.807 282.831Z" fill="white" stroke="#263238" stroke-miterlimit="10"/>
<path d="M178.674 57.7668C178.674 57.7668 187.27 84.814 156.865 100.637C126.46 116.46 111.841 115.237 76.5633 138.342C41.2853 161.447 32.7623 212.567 32.7623 212.567C32.7623 212.567 41.267 190.666 81.4179 188.239C121.569 185.812 161.72 184.206 177.543 183.366C200.666 182.143 212.821 168.766 212.821 168.766L178.674 57.7668Z" fill="#FFC283" stroke="#263238" stroke-miterlimit="10"/>
<path d="M316.739 507.11L178.675 57.7669C178.497 57.1941 178.435 56.592 178.492 55.9951C178.548 55.3982 178.722 54.8185 179.004 54.2892C179.286 53.7599 179.669 53.2916 180.133 52.9112C180.596 52.5308 181.13 52.2458 181.704 52.0728C182.859 51.7242 184.104 51.8449 185.17 52.4086C186.236 52.9724 187.037 53.9337 187.398 55.0841L325.517 504.464L316.739 507.11Z" fill="#263238" stroke="#263238" stroke-miterlimit="10"/>
<path d="M232.604 282.831C232.604 282.831 231.071 288.306 237.769 289.821C244.467 291.336 256.02 287.996 255.417 282.229C254.815 276.462 250.234 275.221 245.38 275.841C240.525 276.462 232.604 280.093 232.604 282.831Z" fill="white" stroke="#263238" stroke-miterlimit="10"/>
<path d="M238.372 263.978C238.372 263.978 221.417 266.643 220.705 270.293C219.993 273.943 221.326 282.448 225.852 283.725C230.378 285.003 245.361 283.506 248.063 278.67C250.764 273.834 247.041 264.599 243.555 263.595C242.72 263.255 241.817 263.112 240.918 263.179C240.019 263.245 239.147 263.519 238.372 263.978Z" fill="white" stroke="#263238" stroke-miterlimit="10"/>
<path d="M233.608 252.298C233.608 252.298 216.635 254.963 215.923 258.631C215.212 262.299 216.544 270.768 221.088 272.045C225.633 273.323 240.58 271.844 243.299 267.008C246.018 262.172 242.259 252.937 238.791 251.933C237.957 251.591 237.056 251.446 236.157 251.51C235.258 251.573 234.386 251.843 233.608 252.298Z" fill="white" stroke="#263238" stroke-miterlimit="10"/>
<path d="M230.049 234.741C230.049 234.741 211.489 233.683 209.974 237.406C208.459 241.129 207.839 250.382 212.347 252.773C216.854 255.163 233.024 257.025 237.003 252.517C240.981 248.009 239.138 237.406 235.689 235.544C234.877 234.979 233.944 234.612 232.965 234.473C231.985 234.333 230.987 234.425 230.049 234.741Z" fill="white" stroke="#263238" stroke-miterlimit="10"/>
<path d="M255.782 242.333C255.782 242.333 260.345 233.007 257.078 226.054C253.811 219.101 246.657 220.579 243.628 222.787C241.672 224.274 240.086 226.191 238.992 228.39C238.992 228.39 246.657 228.226 249.942 231.474C253.227 234.723 255.782 242.333 255.782 242.333Z" fill="#263238" stroke="#263238" stroke-miterlimit="10"/>
<path d="M254.341 230.562C254.117 229.653 253.664 228.817 253.025 228.133C252.386 227.449 251.582 226.941 250.691 226.656C247.041 225.47 241.018 224.229 238.956 228.481C235.908 234.559 235.908 250.382 245.033 253.411C254.158 256.441 256.586 249.159 255.983 241.256C255.72 237.654 255.171 234.077 254.341 230.562Z" fill="white" stroke="#263238" stroke-miterlimit="10"/>
<path d="M512.347 304.732C501.397 296.957 481.047 289.511 462.249 301.392C443.452 313.273 443.16 339.809 443.707 349.153C462.888 348.295 495.447 340.703 503.933 332.728C509.993 327.015 511.818 315.645 512.347 304.732Z" fill="#263238" stroke="#263238" stroke-miterlimit="10"/>
<path d="M459.713 429.747C458.191 431.41 457.088 433.411 456.495 435.585C455.901 437.759 455.834 440.043 456.3 442.249C457.997 449.549 456.3 513.772 456.3 513.772C456.3 513.772 456.865 529.102 483.548 533.081C510.23 537.059 519.318 529.668 519.318 529.668C519.318 529.668 518.753 449.056 518.187 439.967C517.913 434.662 516.141 429.542 513.077 425.203L459.713 429.747Z" fill="white"/>
<mask id="mask2_209_29" style="mask-type:luminance" maskUnits="userSpaceOnUse" x="455" y="425" width="65" height="110">
<path d="M459.713 429.747C458.191 431.41 457.088 433.411 456.495 435.585C455.901 437.759 455.834 440.043 456.3 442.249C457.997 449.549 456.3 513.772 456.3 513.772C456.3 513.772 456.865 529.102 483.548 533.081C510.23 537.059 519.318 529.668 519.318 529.668C519.318 529.668 518.753 449.056 518.187 439.967C517.913 434.662 516.141 429.542 513.077 425.203L459.713 429.747Z" fill="white"/>
</mask>
<g mask="url(#mask2_209_29)">
<g style="mix-blend-mode:multiply" opacity="0.49">
<path d="M513.077 425.294L459.713 429.838C458.191 431.501 457.088 433.502 456.495 435.676C455.901 437.851 455.834 440.135 456.3 442.34C456.92 444.986 457.085 454.969 457.048 466.668L508.313 533.574C516.198 532.278 519.264 529.759 519.264 529.759C519.264 529.759 518.698 449.147 518.132 440.059C517.875 434.758 516.122 429.64 513.077 425.294Z" fill="#71BDD5"/>
</g>
</g>
<path d="M459.713 429.747C458.191 431.41 457.088 433.411 456.495 435.585C455.901 437.759 455.834 440.043 456.3 442.249C457.997 449.549 456.3 513.772 456.3 513.772C456.3 513.772 456.865 529.102 483.548 533.081C510.23 537.059 519.318 529.668 519.318 529.668C519.318 529.668 518.753 449.056 518.187 439.967C517.913 434.662 516.141 429.542 513.077 425.203L459.713 429.747Z" stroke="#263238" stroke-miterlimit="10"/>
<path d="M511.945 312.798C511.945 312.798 505.704 304.841 482.471 305.972C459.238 307.104 448.981 334.936 449.62 340.648C450.259 346.361 453.581 422.41 455.862 428.652C458.143 434.893 484.241 440.569 503.55 437.175C522.859 433.78 524.556 416.734 522.293 404.798C520.03 392.863 516.617 323.055 516.617 320.847C516.617 318.638 514.774 316.193 511.945 312.798Z" fill="white"/>
<mask id="mask3_209_29" style="mask-type:luminance" maskUnits="userSpaceOnUse" x="449" y="305" width="75" height="134">
<path d="M511.945 312.798C511.945 312.798 505.704 304.841 482.471 305.972C459.238 307.104 448.981 334.936 449.62 340.648C450.259 346.361 453.581 422.41 455.862 428.652C458.143 434.893 484.241 440.569 503.55 437.175C522.859 433.78 524.556 416.734 522.293 404.798C520.03 392.863 516.617 323.055 516.617 320.847C516.617 318.638 514.774 316.193 511.945 312.798Z" fill="white"/>
</mask>
<g mask="url(#mask3_209_29)">
<g style="mix-blend-mode:multiply" opacity="0.49">
<path d="M522.165 404.762C519.884 392.845 516.49 323.018 516.49 320.81C516.49 318.602 514.774 316.266 511.945 312.871C510.742 311.603 509.304 310.581 507.711 309.86L504.974 310.991C504.974 310.991 506.196 323.164 506.196 338.988C506.196 354.811 502.546 408.339 502.546 408.339L451.445 351.142L450.916 365.907C452.266 390.527 454.237 424.6 455.734 428.688C457.997 434.93 484.113 440.606 503.422 437.211C522.731 433.817 524.447 416.698 522.165 404.762Z" fill="#71BDD5"/>
</g>
</g>
<path d="M511.945 312.798C511.945 312.798 505.704 304.841 482.471 305.972C459.238 307.104 448.981 334.936 449.62 340.648C450.259 346.361 453.581 422.41 455.862 428.652C458.143 434.893 484.241 440.569 503.55 437.175C522.859 433.78 524.556 416.734 522.293 404.798C520.03 392.863 516.617 323.055 516.617 320.847C516.617 318.638 514.774 316.193 511.945 312.798Z" stroke="#263238" stroke-miterlimit="10"/>
<path d="M457.431 430.879C457.431 430.879 473.857 445.643 493.202 444.512C512.547 443.38 517.621 430.879 517.621 430.879C517.621 430.879 519.318 425.203 497.181 420.093C475.043 414.982 457.431 430.879 457.431 430.879Z" fill="#263238" stroke="#263238" stroke-miterlimit="10"/>
<path d="M449.2 183.841C479.066 183.841 503.276 157.694 503.276 125.439C503.276 93.1853 479.066 67.0381 449.2 67.0381C419.335 67.0381 395.124 93.1853 395.124 125.439C395.124 157.694 419.335 183.841 449.2 183.841Z" fill="#263238" stroke="#263238" stroke-miterlimit="10"/>
<path d="M449.2 177.344C482.946 177.344 510.303 151.197 510.303 118.942C510.303 86.6882 482.946 60.541 449.2 60.541C415.454 60.541 388.098 86.6882 388.098 118.942C388.098 151.197 415.454 177.344 449.2 177.344Z" fill="white"/>
<mask id="mask4_209_29" style="mask-type:luminance" maskUnits="userSpaceOnUse" x="388" y="60" width="123" height="118">
<path d="M449.2 177.344C482.946 177.344 510.303 151.197 510.303 118.942C510.303 86.6882 482.946 60.541 449.2 60.541C415.454 60.541 388.098 86.6882 388.098 118.942C388.098 151.197 415.454 177.344 449.2 177.344Z" fill="white"/>
</mask>
<g mask="url(#mask4_209_29)">
<g style="mix-blend-mode:multiply" opacity="0.49">
<path d="M472.579 64.9941C474.66 91.7858 467.98 136.828 407.809 161.904C419.265 171.92 433.983 177.41 449.201 177.344C482.946 177.344 510.303 151.209 510.303 118.942C510.303 94.6146 494.717 73.7543 472.579 64.9941Z" fill="#71BDD5"/>
</g>
</g>
<path d="M449.2 177.344C482.946 177.344 510.303 151.197 510.303 118.942C510.303 86.6882 482.946 60.541 449.2 60.541C415.454 60.541 388.098 86.6882 388.098 118.942C388.098 151.197 415.454 177.344 449.2 177.344Z" stroke="#263238" stroke-miterlimit="10"/>
<path d="M387.277 115.694C391.006 115.694 394.029 112.671 394.029 108.941C394.029 105.212 391.006 102.188 387.277 102.188C383.547 102.188 380.524 105.212 380.524 108.941C380.524 112.671 383.547 115.694 387.277 115.694Z" fill="white" stroke="#263238" stroke-miterlimit="10"/>
<path d="M387.277 112.993C389.514 112.993 391.328 111.179 391.328 108.941C391.328 106.703 389.514 104.889 387.277 104.889C385.039 104.889 383.225 106.703 383.225 108.941C383.225 111.179 385.039 112.993 387.277 112.993Z" fill="white" stroke="#263238" stroke-miterlimit="10"/>
<path d="M448.379 168.145C476.007 168.145 498.404 149.385 498.404 126.242C498.404 103.1 476.007 84.3394 448.379 84.3394C420.751 84.3394 398.355 103.1 398.355 126.242C398.355 149.385 420.751 168.145 448.379 168.145Z" fill="#263238" stroke="#263238" stroke-miterlimit="10"/>
<path d="M408.064 106.112V125.585L411.185 110.784L419.744 128.706V108.448L453.27 156.739L429.91 102.991H440.86L433.067 95.9833L447.083 92.0959L429.18 90.5447C429.18 90.5447 415.072 94.432 408.064 106.112Z" fill="#71BDD5"/>
<path d="M550.764 198.733L552.242 199.573C560.017 203.953 596.043 224.558 604.694 233.92C614.294 244.432 591.919 259.982 572.701 264.544C553.483 269.107 516.49 236.676 510.996 230.27C505.503 223.864 500.484 189.59 513.278 183.202C526.071 176.814 550.764 198.733 550.764 198.733Z" fill="white"/>
<mask id="mask5_209_29" style="mask-type:luminance" maskUnits="userSpaceOnUse" x="505" y="182" width="102" height="83">
<path d="M550.764 198.733L552.242 199.573C560.017 203.953 596.043 224.558 604.694 233.92C614.294 244.432 591.919 259.982 572.701 264.544C553.483 269.107 516.49 236.676 510.996 230.27C505.503 223.864 500.484 189.59 513.278 183.202C526.071 176.814 550.764 198.733 550.764 198.733Z" fill="white"/>
</mask>
<g mask="url(#mask5_209_29)">
<g style="mix-blend-mode:multiply" opacity="0.49">
<path d="M604.749 233.92C596.189 224.558 560.072 203.953 552.297 199.573L550.819 198.733C550.819 198.733 526.126 176.833 513.333 183.202C500.539 189.572 505.576 223.882 511.051 230.27C516.822 236.21 523.086 241.65 529.776 246.531L564.598 216.016L606.063 243.392C606.858 241.873 607.158 240.144 606.923 238.446C606.687 236.748 605.927 235.165 604.749 233.92Z" fill="#71BDD5"/>
</g>
</g>
<path d="M550.764 198.733L552.242 199.573C560.017 203.953 596.043 224.558 604.694 233.92C614.294 244.432 591.919 259.982 572.701 264.544C553.483 269.107 516.49 236.676 510.996 230.27C505.503 223.864 500.484 189.59 513.278 183.202C526.071 176.814 550.764 198.733 550.764 198.733Z" stroke="#263238" stroke-miterlimit="10"/>
<path d="M499.663 168.109C502.648 165.177 506.183 162.864 510.065 161.302C536.2 151.373 550.216 181.213 555.089 201.617C555.089 201.617 548.994 206.49 533.791 204.044C518.588 201.599 496.688 191.269 494.242 182.746C492.728 177.435 495.538 172.197 499.663 168.109Z" fill="#263238" stroke="#263238" stroke-miterlimit="10"/>
<path d="M550.308 255.401C550.308 255.401 575.439 225.707 593.269 225.251C611.1 224.795 619.349 238.501 617.524 249.469C615.699 260.438 601.993 272.775 601.993 272.775C601.993 272.775 611.593 239.924 597.412 239.924C583.231 239.924 550.308 255.401 550.308 255.401Z" fill="#263238" stroke="#263238" stroke-miterlimit="10"/>
<path d="M541.164 262.263C541.164 262.263 571.332 237.588 592.813 234.395C614.294 231.201 622.014 257.244 601.938 272.72C581.863 288.197 568.558 294.621 554.396 292.796C540.233 290.971 528.827 276.9 541.164 262.263Z" fill="white"/>
<mask id="mask6_209_29" style="mask-type:luminance" maskUnits="userSpaceOnUse" x="535" y="234" width="79" height="60">
<path d="M541.164 262.263C541.164 262.263 571.332 237.588 592.813 234.395C614.294 231.201 622.014 257.244 601.938 272.72C581.863 288.197 568.558 294.621 554.396 292.796C540.233 290.971 528.827 276.9 541.164 262.263Z" fill="white"/>
</mask>
<g mask="url(#mask6_209_29)">
<g style="mix-blend-mode:multiply" opacity="0.49">
<path d="M604.986 236.183C605.296 241.494 603.708 255.091 581.625 264.69C553.648 276.863 548.026 276.9 548.026 276.9C548.857 281.419 548.082 286.086 545.836 290.095C548.498 291.549 551.407 292.496 554.414 292.887C568.576 294.712 581.79 288.325 601.956 272.812C617.524 260.712 616.356 242.315 604.986 236.183Z" fill="#71BDD5"/>
</g>
</g>
<path d="M541.164 262.263C541.164 262.263 571.332 237.588 592.813 234.395C614.294 231.201 622.014 257.244 601.938 272.72C581.863 288.197 568.558 294.621 554.396 292.796C540.233 290.971 528.827 276.9 541.164 262.263Z" stroke="#263238" stroke-miterlimit="10"/>
<path d="M562.609 287.923C562.609 287.923 606.41 269.673 614.093 243.483" stroke="#263238" stroke-width="0.5" stroke-miterlimit="10"/>
<path d="M530.196 271.862C530.196 271.862 535.671 264.562 543.445 263.632C551.22 262.701 559.451 273.688 562.189 282.831C564.926 291.974 561.276 296.537 557.152 297.906C553.027 299.275 530.196 271.862 530.196 271.862Z" fill="#263238" stroke="#263238" stroke-miterlimit="10"/>
<path d="M557.152 297.906C557.152 297.906 559.907 289.237 548.026 276.9C536.145 264.562 532.021 271.424 521.508 277.356C510.996 283.287 507.346 293.781 511.909 301.081C516.471 308.382 518.315 312.962 531.984 315.244C545.654 317.525 553.465 303.363 553.465 303.363C555.302 302.039 556.609 300.104 557.152 297.906Z" fill="white"/>
<mask id="mask7_209_29" style="mask-type:luminance" maskUnits="userSpaceOnUse" x="509" y="270" width="49" height="46">
<path d="M557.152 297.906C557.152 297.906 559.907 289.237 548.026 276.9C536.145 264.562 532.021 271.424 521.508 277.356C510.996 283.287 507.346 293.781 511.909 301.081C516.471 308.382 518.315 312.962 531.984 315.244C545.654 317.525 553.465 303.363 553.465 303.363C555.302 302.039 556.609 300.104 557.152 297.906Z" fill="white"/>
</mask>
<g mask="url(#mask7_209_29)">
<g style="mix-blend-mode:multiply" opacity="0.49">
<path d="M537.824 296.318C529.622 299.034 521.202 301.042 512.657 302.322C516.727 308.929 519.081 313.127 532.021 315.28C545.727 317.561 553.502 303.399 553.502 303.399C555.329 302.064 556.622 300.124 557.152 297.924C557.152 297.924 559.907 289.255 548.026 276.918C548.026 276.899 551.22 291.463 537.824 296.318Z" fill="#71BDD5"/>
</g>
</g>
<path d="M557.152 297.906C557.152 297.906 559.907 289.237 548.026 276.9C536.145 264.562 532.021 271.424 521.508 277.356C510.996 283.287 507.346 293.781 511.909 301.081C516.471 308.382 518.315 312.962 531.984 315.244C545.654 317.525 553.465 303.363 553.465 303.363C555.302 302.039 556.609 300.104 557.152 297.906Z" stroke="#263238" stroke-miterlimit="10"/>
<path d="M553.501 303.399C553.501 303.399 542.989 309.805 536.583 310.261L553.501 303.399Z" fill="white"/>
<path d="M553.501 303.399C553.501 303.399 542.989 309.805 536.583 310.261" stroke="#263238" stroke-miterlimit="10"/>
<path d="M249.322 601.903C249.322 601.903 232.294 589.748 248.117 573.925C263.94 558.102 274.872 561.752 280.968 547.152C287.064 532.552 293.123 505.797 338.147 489.973C383.17 474.15 428.176 487.546 450.076 503.351C471.977 519.156 512.128 530.124 534.028 527.697C555.929 525.27 582.702 547.152 586.352 566.625C590.002 586.098 597.303 588.526 600.953 592.176C604.603 595.826 608.253 605.553 608.253 605.553H277.318C277.318 605.553 257.845 607.999 249.322 601.903Z" fill="#263238" stroke="#263238" stroke-miterlimit="10"/>
<path d="M561.568 547.371C561.568 547.371 571.971 562.957 565.474 575.969C558.977 588.982 547.223 588.964 547.223 588.964" stroke="white" stroke-miterlimit="10"/>
<path d="M542.077 581.171C542.077 581.171 542.077 586.354 523.826 592.869" stroke="white" stroke-miterlimit="10"/>
<path d="M371.143 598.034C365.395 599.658 361.379 600.662 361.379 600.662" stroke="white" stroke-miterlimit="10"/>
<path d="M430.439 540.052C424.416 545.09 417.919 551.915 415.966 559.069C412.079 573.359 418.576 575.969 408.173 583.762C402.388 588.106 388.573 592.887 377.458 596.191" stroke="white" stroke-miterlimit="10"/>
<path d="M441.973 531.767C441.973 531.767 439.491 533.227 436.042 535.69" stroke="white" stroke-miterlimit="10"/>
<path d="M386.072 577.265C386.072 577.265 367.822 588.963 352.272 594.165C336.723 599.366 301.573 590.259 301.573 590.259" stroke="white" stroke-miterlimit="10"/>
<path d="M296.572 581.335C290.254 578.382 284.808 573.842 280.767 568.158" stroke="white" stroke-miterlimit="10"/>
<path d="M314.567 586.354C311.074 586.042 307.624 585.363 304.274 584.328" stroke="white" stroke-miterlimit="10"/>
<path d="M407.498 296.519C392.77 284.127 380.031 285.569 372.713 288.215C371.545 294.201 370.76 298.034 370.578 298.599C369.428 302.012 373.972 312.798 388.171 328.129C397.245 337.888 409.171 344.53 422.245 347.109C425.767 333.403 426.479 312.506 407.498 296.519Z" fill="#263238" stroke="#263238" stroke-miterlimit="10"/>
<path d="M354.718 485.958C354.718 485.958 327.981 500.121 327.342 515.487C326.704 530.854 342.673 530.818 360.193 526.273C377.713 521.729 400.49 502.986 404.469 501.289C408.447 499.591 422.062 491.634 419.233 480.282C416.404 468.931 400.983 458.145 400.983 458.145L354.718 485.958Z" fill="white" stroke="#263238" stroke-miterlimit="10"/>
<path d="M419.58 481.432C404.286 492.51 370.304 516.272 355.247 520.598C350.593 522.091 345.654 522.471 340.826 521.707C335.998 520.943 331.417 519.056 327.452 516.199C327.452 530.799 343.038 530.799 360.303 526.273C377.896 521.729 400.6 502.986 404.578 501.289C408.557 499.591 421.259 492.163 419.58 481.432Z" fill="#71BDD5" stroke="#263238" stroke-miterlimit="10"/>
<path d="M324.021 422.939C324.021 422.939 342.18 481.341 348.987 487.09C355.795 492.839 384.758 488.221 384.758 488.221C384.758 488.221 391 499.591 395.544 504.647C400.089 509.702 413.795 505.778 414.287 491.579C414.78 477.38 406.33 457.524 406.33 457.524L387.039 404.142C387.039 404.142 364.318 399.597 343.238 404.142C322.159 408.686 324.021 422.939 324.021 422.939Z" fill="white"/>
<mask id="mask8_209_29" style="mask-type:luminance" maskUnits="userSpaceOnUse" x="323" y="402" width="92" height="105">
<path d="M324.021 422.939C324.021 422.939 342.18 481.341 348.987 487.09C355.795 492.839 384.758 488.221 384.758 488.221C384.758 488.221 391 499.591 395.544 504.647C400.089 509.702 413.795 505.778 414.287 491.579C414.78 477.38 406.33 457.524 406.33 457.524L387.039 404.142C387.039 404.142 364.318 399.597 343.238 404.142C322.159 408.686 324.021 422.939 324.021 422.939Z" fill="white"/>
</mask>
<g mask="url(#mask8_209_29)">
<g style="mix-blend-mode:multiply" opacity="0.49">
<path d="M414.288 491.634C414.853 477.435 406.33 457.579 406.33 457.579L387.04 404.196C374.991 402.067 362.701 401.662 350.539 402.992C345.947 404.506 341.233 405.623 336.449 406.332C332.765 407.747 329.539 410.145 327.124 413.267C331.96 414.818 337.471 416.461 343.22 417.994C361.471 422.866 367.548 415.566 371.198 430.167C374.848 444.767 378.973 474.515 384.813 488.221C384.813 488.221 391.055 499.591 395.599 504.647C400.143 509.702 413.722 505.833 414.288 491.634Z" fill="#71BDD5"/>
</g>
</g>
<path d="M324.021 422.939C324.021 422.939 342.18 481.341 348.987 487.09C355.795 492.839 384.758 488.221 384.758 488.221C384.758 488.221 391 499.591 395.544 504.647C400.089 509.702 413.795 505.778 414.287 491.579C414.78 477.38 406.33 457.524 406.33 457.524L387.039 404.142C387.039 404.142 364.318 399.597 343.238 404.142C322.159 408.686 324.021 422.939 324.021 422.939Z" stroke="#263238" stroke-miterlimit="10"/>
<path d="M406.896 485.684C407.477 488.855 407.655 492.087 407.425 495.302" stroke="#263238" stroke-width="0.5" stroke-miterlimit="10"/>
<path d="M380.634 417.72C380.634 417.72 399.559 454.221 405.673 479.771" stroke="#263238" stroke-width="0.5" stroke-miterlimit="10"/>
<path d="M321.739 395.692C321.739 395.692 313.235 406.478 318.345 419.527C323.455 432.576 343.896 435.952 361.489 429.747C379.082 423.542 388.737 408.175 386.474 400.236C384.211 392.297 321.739 395.692 321.739 395.692Z" fill="#263238" stroke="#263238" stroke-miterlimit="10"/>
<path d="M420.529 342.893C420.529 342.893 397.825 395.126 383.061 405.912C368.296 416.698 335.373 417.264 323.455 404.196C311.537 391.129 325.718 360.487 340.483 336.67C355.247 312.853 362.62 292.394 379.082 293.526C395.544 294.657 422.81 315.061 420.529 342.893Z" fill="white"/>
<mask id="mask9_209_29" style="mask-type:luminance" maskUnits="userSpaceOnUse" x="319" y="293" width="102" height="122">
<path d="M420.529 342.893C420.529 342.893 397.825 395.126 383.061 405.912C368.296 416.698 335.373 417.264 323.455 404.196C311.537 391.129 325.718 360.487 340.483 336.67C355.247 312.853 362.62 292.394 379.082 293.526C395.544 294.657 422.81 315.061 420.529 342.893Z" fill="white"/>
</mask>
<g mask="url(#mask9_209_29)">
<g style="mix-blend-mode:multiply" opacity="0.49">
<path d="M369.921 392.443C357.145 403.192 339.954 406.514 327.087 407.335C341.067 417.081 369.61 415.731 383.061 405.912C397.826 395.126 420.529 342.893 420.529 342.893C421.011 336.901 420.144 330.877 417.992 325.263C411.586 336.98 389.394 376.018 369.921 392.443Z" fill="#71BDD5"/>
</g>
</g>
<path d="M420.529 342.893C420.529 342.893 397.825 395.126 383.061 405.912C368.296 416.698 335.373 417.264 323.455 404.196C311.537 391.129 325.718 360.487 340.483 336.67C355.247 312.853 362.62 292.394 379.082 293.526C395.544 294.657 422.81 315.061 420.529 342.893Z" stroke="#263238" stroke-miterlimit="10"/>
<path d="M369.537 408.138C367.478 409.451 365.281 410.534 362.985 411.369" stroke="#263238" stroke-width="0.5" stroke-miterlimit="10"/>
<path d="M413.247 347.583C406.202 362.604 392.989 387.734 377.513 401.951" stroke="#263238" stroke-width="0.5" stroke-miterlimit="10"/>
<path d="M418.722 335.191C418.722 335.191 417.481 338.294 415.236 343.276" stroke="#263238" stroke-width="0.5" stroke-miterlimit="10"/>
</g>
<defs>
<clipPath id="clip0_209_29">
<rect width="630" height="606" fill="white"/>
</clipPath>
</defs>
</svg>
