<svg width="499" height="485" viewBox="0 0 499 485" fill="none" xmlns="http://www.w3.org/2000/svg">
<path d="M215.259 484.253C320.224 484.253 405.315 478.952 405.315 472.413C405.315 465.874 320.224 460.573 215.259 460.573C110.295 460.573 25.2043 465.874 25.2043 472.413C25.2043 478.952 110.295 484.253 215.259 484.253Z" fill="#FFC283"/>
<path opacity="0.8" d="M215.259 484.253C320.224 484.253 405.315 478.952 405.315 472.413C405.315 465.874 320.224 460.573 215.259 460.573C110.295 460.573 25.2043 465.874 25.2043 472.413C25.2043 478.952 110.295 484.253 215.259 484.253Z" fill="white"/>
<path d="M358.077 22.1848H166.977C153.784 22.1848 143.088 32.8803 143.088 46.0739V449.52C143.088 462.713 153.784 473.409 166.977 473.409H358.077C371.271 473.409 381.967 462.713 381.967 449.52V46.0739C381.967 32.8803 371.271 22.1848 358.077 22.1848Z" fill="#263238"/>
<path d="M371.344 71.7332H153.699V423.86H371.344V71.7332Z" fill="white" stroke="#263238" stroke-width="1.33739" stroke-miterlimit="10"/>
<path d="M295.885 214.32C314.308 195.897 314.308 166.027 295.885 147.603C277.462 129.18 247.592 129.18 229.169 147.603C210.746 166.027 210.746 195.897 229.169 214.32C247.592 232.743 277.462 232.743 295.885 214.32Z" fill="#FFC283"/>
<path d="M324.463 401.717H200.604C200.325 401.719 200.049 401.665 199.791 401.56C199.533 401.454 199.298 401.299 199.101 401.102C198.903 400.906 198.746 400.672 198.639 400.415C198.532 400.157 198.477 399.881 198.477 399.602C198.475 399.323 198.529 399.045 198.635 398.786C198.742 398.528 198.898 398.293 199.096 398.095C199.294 397.897 199.529 397.74 199.788 397.634C200.047 397.528 200.324 397.474 200.604 397.475H324.463C324.742 397.475 325.018 397.53 325.275 397.638C325.533 397.745 325.766 397.901 325.963 398.099C326.159 398.297 326.315 398.531 326.42 398.789C326.526 399.047 326.579 399.324 326.578 399.602C326.578 400.163 326.355 400.701 325.958 401.098C325.562 401.494 325.024 401.717 324.463 401.717Z" fill="#FFC283"/>
<path d="M328.496 254.658H196.559C193.836 254.658 191.628 256.865 191.628 259.588V275.141C191.628 277.864 193.836 280.071 196.559 280.071H328.496C331.219 280.071 333.426 277.864 333.426 275.141V259.588C333.426 256.865 331.219 254.658 328.496 254.658Z" fill="#FFC283"/>
<path d="M328.496 302.19H196.559C193.836 302.19 191.628 304.397 191.628 307.12V322.673C191.628 325.396 193.836 327.603 196.559 327.603H328.496C331.219 327.603 333.426 325.396 333.426 322.673V307.12C333.426 304.397 331.219 302.19 328.496 302.19Z" fill="#FFC283"/>
<path d="M286.017 204.494L272.136 196.502V189.9C274.146 187.468 275.602 184.628 276.402 181.576C276.88 181.746 277.383 181.833 277.89 181.834C279.611 181.834 280.705 176.498 280.89 172.687C282.894 168.445 280.164 165.962 280.164 165.962C280.164 165.962 281.296 164.83 282.046 160.294C282.796 155.757 279.402 157.65 276.759 153.495C274.115 149.339 272.222 144.814 263.542 144.814C261.15 144.736 258.79 145.378 256.768 146.659C254.746 147.939 253.157 149.799 252.206 151.995C250.045 152.002 247.892 152.254 245.788 152.745C243.132 153.495 242.382 162.187 244.644 165.593C245.657 167.454 246.197 169.535 246.218 171.654C245.616 170.916 244.989 170.72 244.644 172.392C243.894 176.166 246.919 181.453 246.919 181.453L248.48 181.011C249.267 184.272 250.785 187.311 252.919 189.9V196.502L239.038 204.494C237.417 205.43 236.07 206.776 235.134 208.396C234.197 210.017 233.703 211.856 233.702 213.727V218.301C241.958 224.679 252.095 228.138 262.527 228.138C272.96 228.138 283.097 224.679 291.353 218.301V213.727C291.354 211.855 290.861 210.016 289.924 208.394C288.987 206.773 287.64 205.428 286.017 204.494Z" fill="#263238"/>
<path d="M209.592 321.284C209.273 321.279 208.969 321.151 208.743 320.927C208.622 320.819 208.526 320.686 208.46 320.538C208.394 320.39 208.361 320.229 208.362 320.067C208.366 319.845 208.43 319.628 208.546 319.44L210.76 315.899L206.444 316.034C206.281 316.044 206.119 316.02 205.966 315.962C205.813 315.905 205.675 315.816 205.559 315.702C205.358 315.477 205.248 315.186 205.248 314.884C205.248 314.583 205.358 314.292 205.559 314.067C205.672 313.948 205.81 313.855 205.963 313.796C206.116 313.736 206.28 313.711 206.444 313.722L210.698 313.882L208.51 310.354C208.391 310.161 208.327 309.94 208.325 309.714C208.324 309.552 208.357 309.391 208.423 309.243C208.489 309.094 208.585 308.962 208.706 308.854C208.932 308.629 209.236 308.502 209.555 308.497C209.764 308.498 209.969 308.559 210.145 308.672C210.322 308.786 210.462 308.946 210.551 309.136L212.653 312.935L214.731 309.161C214.829 308.96 214.981 308.789 215.17 308.668C215.358 308.546 215.576 308.479 215.8 308.472C215.956 308.473 216.109 308.507 216.251 308.57C216.393 308.634 216.52 308.726 216.624 308.841C216.85 309.075 216.974 309.389 216.969 309.714C216.968 309.925 216.913 310.133 216.809 310.317L214.583 313.882L218.899 313.722C219.063 313.711 219.227 313.736 219.38 313.796C219.533 313.855 219.671 313.948 219.784 314.067C219.994 314.284 220.109 314.576 220.104 314.878C220.103 315.183 219.989 315.476 219.784 315.702C219.668 315.816 219.53 315.905 219.377 315.962C219.224 316.02 219.061 316.044 218.899 316.034L214.559 315.899L216.723 319.403C216.844 319.598 216.908 319.824 216.907 320.054C216.907 320.38 216.777 320.693 216.547 320.924C216.316 321.154 216.004 321.284 215.678 321.284C215.467 321.281 215.261 321.217 215.087 321.099C214.912 320.981 214.775 320.814 214.694 320.62L212.641 316.931L210.6 320.62C210.509 320.813 210.367 320.977 210.189 321.094C210.011 321.211 209.804 321.277 209.592 321.284Z" fill="#263238"/>
<path d="M229.534 321.284C229.215 321.279 228.911 321.151 228.685 320.927C228.564 320.819 228.468 320.686 228.402 320.538C228.336 320.39 228.303 320.229 228.304 320.067C228.308 319.845 228.372 319.628 228.489 319.44L230.702 315.899L226.399 316.034C226.234 316.041 226.07 316.016 225.916 315.959C225.762 315.902 225.621 315.814 225.501 315.702C225.338 315.533 225.229 315.32 225.189 315.089C225.149 314.858 225.179 314.62 225.276 314.407C225.373 314.193 225.532 314.014 225.732 313.892C225.932 313.769 226.164 313.711 226.399 313.722L230.64 313.882L228.452 310.354C228.333 310.161 228.269 309.94 228.267 309.714C228.266 309.552 228.3 309.391 228.365 309.243C228.431 309.094 228.528 308.962 228.648 308.854C228.874 308.629 229.179 308.502 229.497 308.497C229.706 308.498 229.911 308.559 230.087 308.672C230.264 308.786 230.404 308.946 230.493 309.136L232.595 312.935L234.673 309.161C234.772 308.96 234.923 308.789 235.112 308.668C235.3 308.546 235.519 308.479 235.743 308.472C235.898 308.472 236.052 308.504 236.194 308.568C236.336 308.632 236.463 308.725 236.566 308.841C236.68 308.956 236.771 309.092 236.832 309.242C236.893 309.392 236.924 309.552 236.923 309.714C236.919 309.927 236.859 310.134 236.751 310.317L234.525 313.882L238.853 313.747C239.015 313.736 239.178 313.761 239.329 313.821C239.479 313.88 239.615 313.973 239.726 314.091C239.936 314.309 240.051 314.601 240.046 314.903C240.045 315.207 239.931 315.501 239.726 315.726C239.613 315.841 239.476 315.929 239.326 315.987C239.175 316.044 239.014 316.068 238.853 316.058L234.501 315.923L236.665 319.427C236.786 319.623 236.85 319.849 236.849 320.079C236.849 320.405 236.72 320.718 236.489 320.948C236.259 321.179 235.946 321.308 235.62 321.308C235.409 321.306 235.204 321.241 235.029 321.123C234.854 321.005 234.718 320.839 234.636 320.644L232.583 316.956L230.542 320.644C230.448 320.833 230.304 320.992 230.127 321.104C229.949 321.217 229.744 321.279 229.534 321.284Z" fill="#263238"/>
<path d="M249.489 321.284C249.166 321.282 248.857 321.154 248.628 320.927C248.507 320.819 248.41 320.686 248.345 320.538C248.279 320.39 248.246 320.229 248.247 320.067C248.25 319.845 248.314 319.628 248.431 319.44L250.644 315.899L246.341 316.034C246.109 316.043 245.88 315.983 245.682 315.862C245.485 315.74 245.328 315.563 245.232 315.352C245.136 315.141 245.104 314.906 245.142 314.677C245.18 314.448 245.285 314.236 245.443 314.067C245.56 313.948 245.7 313.856 245.855 313.797C246.01 313.737 246.175 313.712 246.341 313.722L250.583 313.882L248.394 310.354C248.275 310.161 248.211 309.94 248.21 309.714C248.214 309.553 248.249 309.394 248.315 309.246C248.38 309.098 248.474 308.965 248.591 308.854C248.82 308.626 249.129 308.498 249.452 308.497C249.659 308.501 249.861 308.563 250.035 308.676C250.209 308.789 250.348 308.948 250.435 309.136L252.538 312.935L254.616 309.161C254.714 308.96 254.866 308.789 255.054 308.668C255.243 308.546 255.461 308.479 255.685 308.472C255.841 308.472 255.995 308.504 256.137 308.568C256.279 308.632 256.406 308.725 256.509 308.841C256.623 308.956 256.713 309.092 256.774 309.242C256.835 309.392 256.866 309.552 256.865 309.714C256.861 309.927 256.802 310.134 256.693 310.317L254.468 313.882L258.796 313.722C258.955 313.706 259.116 313.725 259.267 313.776C259.418 313.828 259.557 313.911 259.674 314.02C259.79 314.13 259.882 314.263 259.942 314.411C260.003 314.559 260.031 314.718 260.025 314.878C260.028 315.181 259.918 315.475 259.718 315.702C259.602 315.816 259.463 315.905 259.311 315.963C259.158 316.02 258.995 316.044 258.833 316.034L254.493 315.899L256.644 319.403C256.765 319.598 256.829 319.824 256.829 320.054C256.825 320.216 256.789 320.375 256.724 320.522C256.658 320.67 256.564 320.803 256.447 320.915C256.34 321.03 256.211 321.122 256.067 321.185C255.924 321.249 255.769 321.282 255.611 321.284C255.402 321.28 255.199 321.215 255.026 321.097C254.854 320.979 254.719 320.813 254.64 320.62L252.575 316.931L250.534 320.62C250.442 320.819 250.294 320.988 250.109 321.105C249.923 321.223 249.708 321.285 249.489 321.284Z" fill="#263238"/>
<path d="M269.431 321.284C269.108 321.282 268.799 321.154 268.57 320.927C268.339 320.7 268.206 320.391 268.201 320.067C268.198 319.845 268.257 319.628 268.374 319.44L270.587 315.899L266.283 316.034C266.119 316.041 265.955 316.016 265.801 315.959C265.647 315.902 265.506 315.814 265.386 315.702C265.185 315.477 265.075 315.186 265.075 314.884C265.075 314.583 265.185 314.292 265.386 314.067C265.505 313.952 265.645 313.862 265.8 313.803C265.954 313.744 266.118 313.717 266.283 313.722L270.537 313.882L268.361 310.354C268.242 310.161 268.178 309.94 268.177 309.714C268.181 309.553 268.216 309.394 268.282 309.246C268.347 309.098 268.441 308.965 268.558 308.854C268.787 308.626 269.096 308.498 269.419 308.497C269.628 308.498 269.833 308.559 270.009 308.672C270.185 308.786 270.326 308.946 270.414 309.136L272.505 312.935L274.582 309.161C274.681 308.96 274.833 308.789 275.021 308.668C275.21 308.546 275.428 308.479 275.652 308.472C275.808 308.472 275.962 308.504 276.104 308.568C276.246 308.632 276.373 308.725 276.476 308.841C276.59 308.956 276.68 309.092 276.741 309.242C276.802 309.392 276.833 309.552 276.832 309.714C276.828 309.927 276.769 310.134 276.66 310.317L274.435 313.882L278.763 313.722C278.922 313.706 279.083 313.725 279.234 313.776C279.385 313.828 279.524 313.911 279.64 314.02C279.757 314.13 279.849 314.263 279.909 314.411C279.97 314.559 279.998 314.718 279.992 314.878C279.995 315.181 279.885 315.475 279.685 315.702C279.569 315.816 279.43 315.905 279.278 315.963C279.125 316.02 278.962 316.044 278.8 316.034L274.459 315.899L276.611 319.403C276.732 319.598 276.796 319.824 276.796 320.054C276.797 320.217 276.763 320.377 276.698 320.526C276.632 320.674 276.535 320.807 276.414 320.915C276.307 321.03 276.178 321.122 276.034 321.185C275.891 321.249 275.735 321.282 275.578 321.284C275.369 321.28 275.166 321.215 274.993 321.097C274.821 320.979 274.686 320.813 274.607 320.62L272.541 316.931L270.501 320.62C270.407 320.823 270.255 320.994 270.065 321.112C269.875 321.23 269.655 321.29 269.431 321.284Z" fill="#263238"/>
<path d="M289.373 321.284C289.051 321.282 288.742 321.154 288.513 320.927C288.322 320.734 288.201 320.484 288.167 320.215C288.134 319.946 288.191 319.673 288.328 319.44L290.529 315.899L286.226 316.034C286.061 316.041 285.897 316.016 285.743 315.959C285.589 315.902 285.448 315.814 285.328 315.702C285.128 315.477 285.017 315.186 285.017 314.884C285.017 314.583 285.128 314.292 285.328 314.067C285.447 313.952 285.588 313.862 285.742 313.803C285.896 313.744 286.061 313.717 286.226 313.722L290.48 313.882L288.291 310.354C288.172 310.161 288.108 309.94 288.107 309.714C288.111 309.39 288.244 309.081 288.476 308.854C288.705 308.626 289.014 308.498 289.336 308.497C289.546 308.498 289.751 308.559 289.927 308.672C290.103 308.786 290.244 308.946 290.332 309.136L292.422 312.935L294.5 309.161C294.599 308.96 294.751 308.789 294.939 308.668C295.128 308.546 295.346 308.479 295.57 308.472C295.727 308.472 295.883 308.504 296.027 308.568C296.171 308.631 296.3 308.724 296.406 308.841C296.632 309.075 296.755 309.389 296.75 309.714C296.746 309.927 296.686 310.134 296.578 310.317L294.353 313.882L298.68 313.722C298.84 313.706 299 313.725 299.152 313.776C299.303 313.828 299.442 313.911 299.558 314.02C299.675 314.13 299.766 314.263 299.827 314.411C299.888 314.559 299.916 314.718 299.91 314.878C299.913 315.181 299.803 315.475 299.603 315.702C299.487 315.816 299.348 315.905 299.195 315.963C299.043 316.02 298.88 316.044 298.717 316.034L294.377 315.899L296.529 319.403C296.65 319.598 296.714 319.824 296.713 320.054C296.714 320.217 296.681 320.377 296.615 320.526C296.55 320.674 296.453 320.807 296.332 320.915C296.225 321.03 296.096 321.122 295.952 321.185C295.808 321.249 295.653 321.282 295.496 321.284C295.287 321.28 295.084 321.215 294.911 321.097C294.738 320.979 294.604 320.813 294.525 320.62L292.459 316.931L290.418 320.62C290.326 320.819 290.179 320.988 289.993 321.105C289.808 321.223 289.593 321.285 289.373 321.284Z" fill="#263238"/>
<path d="M309.316 321.284C308.997 321.279 308.693 321.151 308.467 320.927C308.346 320.819 308.25 320.686 308.184 320.538C308.118 320.39 308.085 320.229 308.086 320.067C308.09 319.845 308.154 319.628 308.27 319.44L310.471 315.899L306.168 316.034C306.01 316.046 305.851 316.025 305.701 315.972C305.551 315.919 305.414 315.835 305.299 315.727C305.183 315.618 305.091 315.486 305.029 315.34C304.967 315.194 304.936 315.037 304.939 314.878C304.938 314.728 304.967 314.579 305.024 314.439C305.081 314.3 305.165 314.173 305.271 314.067C305.384 313.948 305.522 313.855 305.675 313.796C305.828 313.736 305.992 313.711 306.156 313.722L310.41 313.882L308.221 310.354C308.102 310.161 308.038 309.94 308.037 309.714C308.042 309.39 308.174 309.081 308.406 308.854C308.635 308.626 308.944 308.498 309.266 308.497C309.476 308.498 309.681 308.559 309.857 308.672C310.033 308.786 310.174 308.946 310.262 309.136L312.352 312.935L314.443 309.161C314.54 308.961 314.69 308.792 314.876 308.671C315.062 308.549 315.278 308.481 315.5 308.472C315.657 308.472 315.813 308.504 315.957 308.568C316.101 308.631 316.23 308.724 316.336 308.841C316.562 309.075 316.685 309.389 316.68 309.714C316.68 309.925 316.625 310.133 316.52 310.317L314.295 313.882L318.611 313.722C318.774 313.711 318.939 313.736 319.092 313.796C319.245 313.855 319.383 313.948 319.496 314.067C319.705 314.284 319.82 314.576 319.815 314.878C319.815 315.183 319.701 315.476 319.496 315.702C319.38 315.816 319.241 315.905 319.089 315.963C318.936 316.02 318.773 316.044 318.611 316.034L314.27 315.899L316.422 319.403C316.543 319.598 316.607 319.824 316.606 320.054C316.602 320.379 316.469 320.688 316.238 320.915C316.014 321.144 315.709 321.276 315.389 321.284C315.18 321.28 314.977 321.215 314.804 321.097C314.632 320.979 314.497 320.813 314.418 320.62L312.352 316.931L310.311 320.62C310.223 320.812 310.083 320.975 309.907 321.093C309.732 321.21 309.527 321.276 309.316 321.284Z" fill="#263238"/>
<g style="mix-blend-mode:multiply">
<path d="M371.344 72.2007H153.699V85.8358H371.344V72.2007Z" fill="#FFC283"/>
</g>
<path d="M286.189 47.0822H238.853C237.999 47.0822 237.18 46.7428 236.576 46.1387C235.971 45.5346 235.632 44.7152 235.632 43.8609C235.632 43.0066 235.971 42.1872 236.576 41.5831C237.18 40.979 237.999 40.6396 238.853 40.6396H286.189C287.043 40.6396 287.862 40.979 288.467 41.5831C289.071 42.1872 289.41 43.0066 289.41 43.8609C289.41 44.7152 289.071 45.5346 288.467 46.1387C287.862 46.7428 287.043 47.0822 286.189 47.0822Z" fill="#FFC283" stroke="#263238" stroke-width="1.33739" stroke-linecap="round" stroke-linejoin="round"/>
<path d="M275.431 443.754C275.433 441.199 274.678 438.702 273.26 436.577C271.843 434.452 269.826 432.795 267.467 431.817C265.108 430.838 262.511 430.581 260.005 431.079C257.5 431.577 255.199 432.807 253.392 434.613C251.586 436.419 250.357 438.72 249.859 441.226C249.361 443.731 249.618 446.328 250.596 448.687C251.575 451.047 253.232 453.063 255.356 454.48C257.481 455.898 259.979 456.653 262.533 456.651C265.953 456.648 269.232 455.288 271.65 452.87C274.068 450.452 275.427 447.173 275.431 443.754Z" fill="#FFC283"/>
<path d="M269.074 437.212H255.993V450.294H269.074V437.212Z" fill="#FFC283" stroke="#263238" stroke-width="1.33739" stroke-linecap="round" stroke-linejoin="round"/>
<path d="M418.359 295.304C418.359 295.304 401.22 251.755 416.478 246.579C432.363 241.182 431.663 269.94 431.048 283.956C429.757 313.906 426.45 319.476 423.978 312.16L418.359 295.304ZM413.208 329.275C417.917 335.422 419.245 329.054 410.749 300.296C406.765 286.771 398.11 259.415 384.831 269.681C372.081 279.517 402.425 315.173 402.425 315.173L413.208 329.275ZM404.11 354.234C408.597 358.217 408.683 353.189 398.024 332.423C393.02 322.697 382.434 303.013 373.766 312.751C365.442 322.144 393.806 344.976 393.806 344.976L404.11 354.234ZM394.274 383.914C398.761 387.91 398.847 382.869 388.188 362.115C383.184 352.389 372.598 332.693 363.93 342.443C355.655 351.861 383.934 374.692 383.934 374.692L394.274 383.914ZM422.675 323.496C415.495 326.3 421.2 329.349 451.187 329.263C465.252 329.263 493.973 328.623 487.85 312.997C481.986 297.984 439.273 317.103 439.273 317.103L422.675 323.496ZM414.499 343.463C406.901 344.779 411.892 348.91 441.302 354.787C455.084 357.553 483.351 362.656 480.461 346.181C477.695 330.295 432.031 340.549 432.031 340.549L414.499 343.463ZM405.351 367.844C398.884 368.779 403.015 372.381 427.741 378.037C439.335 380.692 463.125 385.672 461.06 371.619C459.093 358.094 420.241 365.742 420.241 365.742L405.351 367.844ZM398.405 390.43C392.073 392.041 396.561 395.188 421.765 398.188C433.568 399.59 457.752 402.024 454.224 388.266C450.818 375.061 412.999 386.754 412.999 386.754L398.405 390.43ZM435.462 298.993C431.773 307.255 439.433 306.001 465.474 283.28C477.67 272.62 502.137 250.317 482.76 239.215C464.158 228.543 444.154 280.034 444.154 280.034L435.462 298.993ZM399.364 419.852C395.466 422.126 399.29 423.012 417.167 419.446C425.552 417.786 442.605 414.098 436.839 406.819C431.257 399.811 408.388 414.565 408.388 414.565L399.364 419.852Z" fill="#FFC283"/>
<path opacity="0.3" d="M418.359 295.304C418.359 295.304 401.22 251.755 416.478 246.579C432.363 241.182 431.663 269.94 431.048 283.956C429.757 313.906 426.45 319.476 423.978 312.16L418.359 295.304ZM413.208 329.275C417.917 335.422 419.245 329.054 410.749 300.296C406.765 286.771 398.11 259.415 384.831 269.681C372.081 279.517 402.425 315.173 402.425 315.173L413.208 329.275ZM404.11 354.234C408.597 358.217 408.683 353.189 398.024 332.423C393.02 322.697 382.434 303.013 373.766 312.751C365.442 322.144 393.806 344.976 393.806 344.976L404.11 354.234ZM394.274 383.914C398.761 387.91 398.847 382.869 388.188 362.115C383.184 352.389 372.598 332.693 363.93 342.443C355.655 351.861 383.934 374.692 383.934 374.692L394.274 383.914ZM422.675 323.496C415.495 326.3 421.2 329.349 451.187 329.263C465.252 329.263 493.973 328.623 487.85 312.997C481.986 297.984 439.273 317.103 439.273 317.103L422.675 323.496ZM414.499 343.463C406.901 344.779 411.892 348.91 441.302 354.787C455.084 357.553 483.351 362.656 480.461 346.181C477.695 330.295 432.031 340.549 432.031 340.549L414.499 343.463ZM405.351 367.844C398.884 368.779 403.015 372.381 427.741 378.037C439.335 380.692 463.125 385.672 461.06 371.619C459.093 358.094 420.241 365.742 420.241 365.742L405.351 367.844ZM398.405 390.43C392.073 392.041 396.561 395.188 421.765 398.188C433.568 399.59 457.752 402.024 454.224 388.266C450.818 375.061 412.999 386.754 412.999 386.754L398.405 390.43ZM435.462 298.993C431.773 307.255 439.433 306.001 465.474 283.28C477.67 272.62 502.137 250.317 482.76 239.215C464.158 228.543 444.154 280.034 444.154 280.034L435.462 298.993ZM399.364 419.852C395.466 422.126 399.29 423.012 417.167 419.446C425.552 417.786 442.605 414.098 436.839 406.819C431.257 399.811 408.388 414.565 408.388 414.565L399.364 419.852Z" fill="white"/>
<path d="M425.921 315.578L422.933 265.87L425.921 315.578ZM416.466 331.98L397.581 289.23L416.466 331.98ZM465.203 319.55L419.946 326.041L465.203 319.55ZM406.679 355.021L382.176 323.582L406.679 355.021ZM410.983 345.381L444.744 347.078L410.983 345.381ZM402.991 369.492L428.81 372.049L402.991 369.492ZM396.757 384.811L383.934 365.52L396.757 384.811ZM395.282 391.623L425.638 391.905L395.282 391.623ZM389.135 448.573C389.338 448.557 389.527 448.462 389.66 448.307C389.794 448.153 389.861 447.953 389.848 447.749C387.917 418.758 399.13 371.275 417.118 332.3C428.614 307.39 473.674 258.432 474.154 257.94C474.299 257.795 474.38 257.598 474.38 257.393C474.38 257.188 474.299 256.991 474.154 256.846C474.083 256.774 473.999 256.718 473.906 256.679C473.813 256.64 473.714 256.62 473.613 256.62C473.512 256.62 473.413 256.64 473.32 256.679C473.227 256.718 473.143 256.774 473.072 256.846C472.617 257.337 427.372 306.48 415.778 331.611C397.458 371.533 386.393 418.155 388.36 447.847C388.375 448.043 388.463 448.226 388.607 448.36C388.75 448.495 388.938 448.57 389.135 448.573ZM425.909 316.341C426.112 316.328 426.302 316.236 426.438 316.084C426.574 315.932 426.644 315.733 426.634 315.529L423.696 265.796C423.691 265.695 423.666 265.596 423.623 265.504C423.579 265.413 423.518 265.331 423.442 265.263C423.367 265.196 423.278 265.144 423.182 265.111C423.087 265.078 422.985 265.064 422.884 265.071C422.681 265.084 422.491 265.176 422.355 265.328C422.219 265.48 422.149 265.679 422.159 265.882L425.146 315.591C425.156 315.786 425.24 315.971 425.382 316.106C425.524 316.241 425.713 316.316 425.909 316.316V316.341ZM416.737 332.681C416.921 332.597 417.065 332.445 417.139 332.257C417.212 332.068 417.209 331.859 417.13 331.673L398.233 288.923C398.151 288.737 397.999 288.591 397.81 288.518C397.621 288.444 397.41 288.448 397.225 288.53C397.039 288.611 396.893 288.763 396.819 288.952C396.745 289.141 396.75 289.352 396.831 289.538L415.716 332.287C415.775 332.424 415.873 332.542 415.997 332.624C416.122 332.707 416.268 332.753 416.417 332.755C416.544 332.761 416.671 332.736 416.786 332.681H416.737ZM420.007 326.779L465.24 320.312C465.349 320.31 465.457 320.284 465.556 320.238C465.654 320.191 465.742 320.124 465.813 320.041C465.884 319.958 465.937 319.861 465.967 319.756C465.998 319.651 466.006 319.541 465.992 319.432C465.977 319.324 465.939 319.22 465.881 319.128C465.823 319.035 465.747 318.956 465.656 318.895C465.565 318.834 465.463 318.793 465.355 318.774C465.247 318.756 465.137 318.76 465.031 318.787L419.798 325.255C419.596 325.268 419.407 325.36 419.273 325.513C419.14 325.665 419.072 325.864 419.085 326.066C419.098 326.268 419.191 326.457 419.343 326.591C419.495 326.724 419.694 326.792 419.896 326.779H420.007ZM407.11 355.635C407.27 355.509 407.375 355.325 407.4 355.122C407.425 354.92 407.37 354.715 407.245 354.553L382.729 323.054C382.603 322.891 382.418 322.784 382.214 322.758C382.01 322.731 381.804 322.787 381.641 322.912C381.478 323.038 381.371 323.223 381.345 323.427C381.318 323.631 381.374 323.837 381.499 324.001L406.065 355.549C406.136 355.641 406.227 355.716 406.332 355.767C406.436 355.818 406.551 355.844 406.667 355.844C406.851 355.835 407.025 355.761 407.159 355.635H407.11ZM445.421 347.115C445.427 346.912 445.354 346.714 445.216 346.564C445.078 346.415 444.886 346.325 444.683 346.316L410.983 344.607C410.793 344.62 410.615 344.702 410.482 344.838C410.35 344.973 410.271 345.153 410.262 345.342C410.253 345.532 410.314 345.718 410.433 345.866C410.552 346.014 410.722 346.113 410.909 346.144L444.671 347.853C444.874 347.859 445.072 347.786 445.222 347.648C445.371 347.51 445.46 347.318 445.47 347.115H445.421ZM429.523 372.123C429.535 372.022 429.527 371.919 429.498 371.821C429.47 371.724 429.422 371.632 429.358 371.553C429.294 371.474 429.215 371.409 429.125 371.361C429.035 371.313 428.936 371.284 428.835 371.275L403.015 368.729C402.915 368.719 402.814 368.729 402.718 368.758C402.621 368.787 402.532 368.835 402.454 368.899C402.376 368.963 402.312 369.042 402.265 369.131C402.218 369.22 402.189 369.318 402.179 369.418C402.162 369.62 402.225 369.82 402.353 369.976C402.482 370.133 402.667 370.232 402.868 370.254L428.687 372.811H428.761C428.959 372.825 429.155 372.761 429.307 372.632C429.458 372.504 429.554 372.321 429.573 372.123H429.523ZM397.126 385.451C397.297 385.338 397.416 385.162 397.457 384.961C397.499 384.761 397.459 384.552 397.348 384.381L384.585 365.09C384.469 364.924 384.292 364.809 384.093 364.771C383.893 364.732 383.687 364.771 383.516 364.881C383.345 364.994 383.226 365.17 383.184 365.37C383.143 365.571 383.183 365.779 383.294 365.951L396.057 385.242C396.13 385.347 396.227 385.433 396.34 385.493C396.454 385.553 396.58 385.585 396.708 385.586C396.875 385.595 397.039 385.547 397.175 385.451H397.126ZM426.413 391.905C426.41 391.703 426.329 391.51 426.187 391.365C426.045 391.221 425.853 391.137 425.65 391.131L395.294 390.848C395.092 390.848 394.898 390.928 394.755 391.071C394.612 391.214 394.532 391.408 394.532 391.61C394.529 391.712 394.546 391.813 394.583 391.908C394.62 392.002 394.676 392.089 394.747 392.161C394.818 392.234 394.904 392.291 394.998 392.329C395.092 392.368 395.193 392.387 395.294 392.385L425.65 392.668C425.754 392.673 425.858 392.657 425.955 392.621C426.053 392.585 426.142 392.53 426.218 392.459C426.293 392.387 426.354 392.302 426.396 392.207C426.438 392.112 426.46 392.009 426.462 391.905H426.413ZM385.68 437.298C385.741 437.163 390.917 422.901 406.483 419.495C406.683 419.451 406.858 419.329 406.969 419.156C407.079 418.983 407.117 418.774 407.073 418.573C407.023 418.377 406.9 418.207 406.728 418.099C406.556 417.991 406.349 417.954 406.151 417.995C389.737 421.585 384.29 436.647 384.229 436.794C384.165 436.988 384.18 437.199 384.27 437.383C384.359 437.567 384.516 437.708 384.708 437.778H384.954C385.118 437.792 385.281 437.753 385.421 437.667C385.561 437.58 385.669 437.451 385.729 437.298H385.68ZM389.135 448.573C389.338 448.557 389.527 448.462 389.66 448.307C389.794 448.153 389.861 447.953 389.848 447.749C387.917 418.758 399.13 371.275 417.118 332.3C428.614 307.39 473.674 258.432 474.154 257.94C474.299 257.795 474.38 257.598 474.38 257.393C474.38 257.188 474.299 256.991 474.154 256.846C474.083 256.774 473.999 256.718 473.906 256.679C473.813 256.64 473.714 256.62 473.613 256.62C473.512 256.62 473.413 256.64 473.32 256.679C473.227 256.718 473.143 256.774 473.072 256.846C472.617 257.337 427.372 306.48 415.778 331.611C397.458 371.533 386.393 418.155 388.36 447.847C388.375 448.043 388.463 448.226 388.607 448.36C388.75 448.495 388.938 448.57 389.135 448.573ZM425.909 316.341C426.112 316.328 426.302 316.236 426.438 316.084C426.574 315.932 426.644 315.733 426.634 315.529L423.696 265.796C423.691 265.695 423.666 265.596 423.623 265.504C423.579 265.413 423.518 265.331 423.442 265.263C423.367 265.196 423.278 265.144 423.182 265.111C423.087 265.078 422.985 265.064 422.884 265.071C422.681 265.084 422.491 265.176 422.355 265.328C422.219 265.48 422.149 265.679 422.159 265.882L425.146 315.591C425.156 315.786 425.24 315.971 425.382 316.106C425.524 316.241 425.713 316.316 425.909 316.316V316.341ZM416.737 332.681C416.921 332.597 417.065 332.445 417.139 332.257C417.212 332.068 417.209 331.859 417.13 331.673L398.233 288.923C398.151 288.737 397.999 288.591 397.81 288.518C397.621 288.444 397.41 288.448 397.225 288.53C397.039 288.611 396.893 288.763 396.819 288.952C396.745 289.141 396.75 289.352 396.831 289.538L415.716 332.287C415.775 332.424 415.873 332.542 415.997 332.624C416.122 332.707 416.268 332.753 416.417 332.755C416.544 332.761 416.671 332.736 416.786 332.681H416.737ZM420.007 326.779L465.24 320.312C465.349 320.31 465.457 320.284 465.556 320.238C465.654 320.191 465.742 320.124 465.813 320.041C465.884 319.958 465.937 319.861 465.967 319.756C465.998 319.651 466.006 319.541 465.992 319.432C465.977 319.324 465.939 319.22 465.881 319.128C465.823 319.035 465.747 318.956 465.656 318.895C465.565 318.834 465.463 318.793 465.355 318.774C465.247 318.756 465.137 318.76 465.031 318.787L419.798 325.255C419.596 325.268 419.407 325.36 419.273 325.513C419.14 325.665 419.072 325.864 419.085 326.066C419.098 326.268 419.191 326.457 419.343 326.591C419.495 326.724 419.694 326.792 419.896 326.779H420.007ZM407.11 355.635C407.27 355.509 407.375 355.325 407.4 355.122C407.425 354.92 407.37 354.715 407.245 354.553L382.729 323.054C382.667 322.973 382.589 322.905 382.501 322.855C382.413 322.804 382.315 322.771 382.214 322.758C382.113 322.745 382.01 322.752 381.912 322.778C381.814 322.805 381.721 322.85 381.641 322.912C381.56 322.975 381.492 323.052 381.442 323.14C381.391 323.229 381.358 323.326 381.345 323.427C381.332 323.528 381.338 323.631 381.365 323.729C381.392 323.828 381.437 323.92 381.499 324.001L406.065 355.549C406.136 355.641 406.227 355.716 406.332 355.767C406.436 355.818 406.551 355.844 406.667 355.844C406.851 355.835 407.025 355.761 407.159 355.635H407.11ZM445.421 347.115C445.427 346.912 445.354 346.714 445.216 346.564C445.078 346.415 444.886 346.325 444.683 346.316L410.983 344.607C410.793 344.62 410.615 344.702 410.482 344.838C410.35 344.973 410.271 345.153 410.262 345.342C410.253 345.532 410.314 345.718 410.433 345.866C410.552 346.014 410.722 346.113 410.909 346.144L444.671 347.853C444.874 347.859 445.072 347.786 445.222 347.648C445.371 347.51 445.46 347.318 445.47 347.115H445.421ZM429.523 372.123C429.535 372.022 429.527 371.919 429.498 371.821C429.47 371.724 429.422 371.632 429.358 371.553C429.294 371.474 429.215 371.409 429.125 371.361C429.035 371.313 428.936 371.284 428.835 371.275L403.015 368.729C402.915 368.719 402.814 368.729 402.718 368.758C402.621 368.787 402.532 368.835 402.454 368.899C402.376 368.963 402.312 369.042 402.265 369.131C402.218 369.22 402.189 369.318 402.179 369.418C402.162 369.62 402.225 369.82 402.353 369.976C402.482 370.133 402.667 370.232 402.868 370.254L428.687 372.811H428.761C428.959 372.825 429.155 372.761 429.307 372.632C429.458 372.504 429.554 372.321 429.573 372.123H429.523ZM397.126 385.451C397.297 385.338 397.416 385.162 397.457 384.961C397.499 384.761 397.459 384.552 397.348 384.381L384.585 365.09C384.469 364.924 384.292 364.809 384.093 364.771C383.893 364.732 383.687 364.771 383.516 364.881C383.345 364.994 383.226 365.17 383.184 365.37C383.143 365.571 383.183 365.779 383.294 365.951L396.057 385.242C396.13 385.347 396.227 385.433 396.34 385.493C396.454 385.553 396.58 385.585 396.708 385.586C396.875 385.595 397.039 385.547 397.175 385.451H397.126ZM426.413 391.905C426.41 391.703 426.329 391.51 426.187 391.365C426.045 391.221 425.853 391.137 425.65 391.131L395.294 390.848C395.092 390.848 394.898 390.928 394.755 391.071C394.612 391.214 394.532 391.408 394.532 391.61C394.529 391.712 394.546 391.813 394.583 391.908C394.62 392.002 394.676 392.089 394.747 392.161C394.818 392.234 394.904 392.291 394.998 392.329C395.092 392.368 395.193 392.387 395.294 392.385L425.65 392.668C425.754 392.673 425.858 392.657 425.955 392.621C426.053 392.585 426.142 392.53 426.218 392.459C426.293 392.387 426.354 392.302 426.396 392.207C426.438 392.112 426.46 392.009 426.462 391.905H426.413ZM385.68 437.298C385.741 437.163 390.917 422.901 406.483 419.495C406.683 419.451 406.858 419.329 406.969 419.156C407.079 418.983 407.117 418.774 407.073 418.573C407.023 418.377 406.9 418.207 406.728 418.099C406.556 417.991 406.349 417.954 406.151 417.995C389.737 421.585 384.29 436.647 384.229 436.794C384.165 436.988 384.18 437.199 384.27 437.383C384.359 437.567 384.516 437.708 384.708 437.778H384.954C385.118 437.792 385.281 437.753 385.421 437.667C385.561 437.58 385.669 437.451 385.729 437.298H385.68Z" fill="#FFC283"/>
<path opacity="0.2" d="M425.921 315.578L422.933 265.87L425.921 315.578ZM416.466 331.98L397.581 289.23L416.466 331.98ZM465.203 319.55L419.946 326.041L465.203 319.55ZM406.679 355.021L382.176 323.582L406.679 355.021ZM410.983 345.381L444.744 347.078L410.983 345.381ZM402.991 369.492L428.81 372.049L402.991 369.492ZM396.757 384.811L383.934 365.52L396.757 384.811ZM395.282 391.623L425.638 391.905L395.282 391.623ZM389.135 448.573C389.338 448.557 389.527 448.462 389.66 448.307C389.794 448.153 389.861 447.953 389.848 447.749C387.917 418.758 399.13 371.275 417.118 332.3C428.614 307.39 473.674 258.432 474.154 257.94C474.299 257.795 474.38 257.598 474.38 257.393C474.38 257.188 474.299 256.991 474.154 256.846C474.083 256.774 473.999 256.718 473.906 256.679C473.813 256.64 473.714 256.62 473.613 256.62C473.512 256.62 473.413 256.64 473.32 256.679C473.227 256.718 473.143 256.774 473.072 256.846C472.617 257.337 427.372 306.48 415.778 331.611C397.458 371.533 386.393 418.155 388.36 447.847C388.375 448.043 388.463 448.226 388.607 448.36C388.75 448.495 388.938 448.57 389.135 448.573ZM425.909 316.341C426.112 316.328 426.302 316.236 426.438 316.084C426.574 315.932 426.644 315.733 426.634 315.529L423.696 265.796C423.691 265.695 423.666 265.596 423.623 265.504C423.579 265.413 423.518 265.331 423.442 265.263C423.367 265.196 423.278 265.144 423.182 265.111C423.087 265.078 422.985 265.064 422.884 265.071C422.681 265.084 422.491 265.176 422.355 265.328C422.219 265.48 422.149 265.679 422.159 265.882L425.146 315.591C425.156 315.786 425.24 315.971 425.382 316.106C425.524 316.241 425.713 316.316 425.909 316.316V316.341ZM416.737 332.681C416.921 332.597 417.065 332.445 417.139 332.257C417.212 332.068 417.209 331.859 417.13 331.673L398.233 288.923C398.151 288.737 397.999 288.591 397.81 288.518C397.621 288.444 397.41 288.448 397.225 288.53C397.039 288.611 396.893 288.763 396.819 288.952C396.745 289.141 396.75 289.352 396.831 289.538L415.716 332.287C415.775 332.424 415.873 332.542 415.997 332.624C416.122 332.707 416.268 332.753 416.417 332.755C416.544 332.761 416.671 332.736 416.786 332.681H416.737ZM420.007 326.779L465.24 320.312C465.349 320.31 465.457 320.284 465.556 320.238C465.654 320.191 465.742 320.124 465.813 320.041C465.884 319.958 465.937 319.861 465.967 319.756C465.998 319.651 466.006 319.541 465.992 319.432C465.977 319.324 465.939 319.22 465.881 319.128C465.823 319.035 465.747 318.956 465.656 318.895C465.565 318.834 465.463 318.793 465.355 318.774C465.247 318.756 465.137 318.76 465.031 318.787L419.798 325.255C419.596 325.268 419.407 325.36 419.273 325.513C419.14 325.665 419.072 325.864 419.085 326.066C419.098 326.268 419.191 326.457 419.343 326.591C419.495 326.724 419.694 326.792 419.896 326.779H420.007ZM407.11 355.635C407.27 355.509 407.375 355.325 407.4 355.122C407.425 354.92 407.37 354.715 407.245 354.553L382.729 323.054C382.603 322.891 382.418 322.784 382.214 322.758C382.01 322.731 381.804 322.787 381.641 322.912C381.478 323.038 381.371 323.223 381.345 323.427C381.318 323.631 381.374 323.837 381.499 324.001L406.065 355.549C406.136 355.641 406.227 355.716 406.332 355.767C406.436 355.818 406.551 355.844 406.667 355.844C406.851 355.835 407.025 355.761 407.159 355.635H407.11ZM445.421 347.115C445.427 346.912 445.354 346.714 445.216 346.564C445.078 346.415 444.886 346.325 444.683 346.316L410.983 344.607C410.793 344.62 410.615 344.702 410.482 344.838C410.35 344.973 410.271 345.153 410.262 345.342C410.253 345.532 410.314 345.718 410.433 345.866C410.552 346.014 410.722 346.113 410.909 346.144L444.671 347.853C444.874 347.859 445.072 347.786 445.222 347.648C445.371 347.51 445.46 347.318 445.47 347.115H445.421ZM429.523 372.123C429.535 372.022 429.527 371.919 429.498 371.821C429.47 371.724 429.422 371.632 429.358 371.553C429.294 371.474 429.215 371.409 429.125 371.361C429.035 371.313 428.936 371.284 428.835 371.275L403.015 368.729C402.915 368.719 402.814 368.729 402.718 368.758C402.621 368.787 402.532 368.835 402.454 368.899C402.376 368.963 402.312 369.042 402.265 369.131C402.218 369.22 402.189 369.318 402.179 369.418C402.162 369.62 402.225 369.82 402.353 369.976C402.482 370.133 402.667 370.232 402.868 370.254L428.687 372.811H428.761C428.959 372.825 429.155 372.761 429.307 372.632C429.458 372.504 429.554 372.321 429.573 372.123H429.523ZM397.126 385.451C397.297 385.338 397.416 385.162 397.457 384.961C397.499 384.761 397.459 384.552 397.348 384.381L384.585 365.09C384.469 364.924 384.292 364.809 384.093 364.771C383.893 364.732 383.687 364.771 383.516 364.881C383.345 364.994 383.226 365.17 383.184 365.37C383.143 365.571 383.183 365.779 383.294 365.951L396.057 385.242C396.13 385.347 396.227 385.433 396.34 385.493C396.454 385.553 396.58 385.585 396.708 385.586C396.875 385.595 397.039 385.547 397.175 385.451H397.126ZM426.413 391.905C426.41 391.703 426.329 391.51 426.187 391.365C426.045 391.221 425.853 391.137 425.65 391.131L395.294 390.848C395.092 390.848 394.898 390.928 394.755 391.071C394.612 391.214 394.532 391.408 394.532 391.61C394.529 391.712 394.546 391.813 394.583 391.908C394.62 392.002 394.676 392.089 394.747 392.161C394.818 392.234 394.904 392.291 394.998 392.329C395.092 392.368 395.193 392.387 395.294 392.385L425.65 392.668C425.754 392.673 425.858 392.657 425.955 392.621C426.053 392.585 426.142 392.53 426.218 392.459C426.293 392.387 426.354 392.302 426.396 392.207C426.438 392.112 426.46 392.009 426.462 391.905H426.413ZM385.68 437.298C385.741 437.163 390.917 422.901 406.483 419.495C406.683 419.451 406.858 419.329 406.969 419.156C407.079 418.983 407.117 418.774 407.073 418.573C407.023 418.377 406.9 418.207 406.728 418.099C406.556 417.991 406.349 417.954 406.151 417.995C389.737 421.585 384.29 436.647 384.229 436.794C384.165 436.988 384.18 437.199 384.27 437.383C384.359 437.567 384.516 437.708 384.708 437.778H384.954C385.118 437.792 385.281 437.753 385.421 437.667C385.561 437.58 385.669 437.451 385.729 437.298H385.68ZM389.135 448.573C389.338 448.557 389.527 448.462 389.66 448.307C389.794 448.153 389.861 447.953 389.848 447.749C387.917 418.758 399.13 371.275 417.118 332.3C428.614 307.39 473.674 258.432 474.154 257.94C474.299 257.795 474.38 257.598 474.38 257.393C474.38 257.188 474.299 256.991 474.154 256.846C474.083 256.774 473.999 256.718 473.906 256.679C473.813 256.64 473.714 256.62 473.613 256.62C473.512 256.62 473.413 256.64 473.32 256.679C473.227 256.718 473.143 256.774 473.072 256.846C472.617 257.337 427.372 306.48 415.778 331.611C397.458 371.533 386.393 418.155 388.36 447.847C388.375 448.043 388.463 448.226 388.607 448.36C388.75 448.495 388.938 448.57 389.135 448.573ZM425.909 316.341C426.112 316.328 426.302 316.236 426.438 316.084C426.574 315.932 426.644 315.733 426.634 315.529L423.696 265.796C423.691 265.695 423.666 265.596 423.623 265.504C423.579 265.413 423.518 265.331 423.442 265.263C423.367 265.196 423.278 265.144 423.182 265.111C423.087 265.078 422.985 265.064 422.884 265.071C422.681 265.084 422.491 265.176 422.355 265.328C422.219 265.48 422.149 265.679 422.159 265.882L425.146 315.591C425.156 315.786 425.24 315.971 425.382 316.106C425.524 316.241 425.713 316.316 425.909 316.316V316.341ZM416.737 332.681C416.921 332.597 417.065 332.445 417.139 332.257C417.212 332.068 417.209 331.859 417.13 331.673L398.233 288.923C398.151 288.737 397.999 288.591 397.81 288.518C397.621 288.444 397.41 288.448 397.225 288.53C397.039 288.611 396.893 288.763 396.819 288.952C396.745 289.141 396.75 289.352 396.831 289.538L415.716 332.287C415.775 332.424 415.873 332.542 415.997 332.624C416.122 332.707 416.268 332.753 416.417 332.755C416.544 332.761 416.671 332.736 416.786 332.681H416.737ZM420.007 326.779L465.24 320.312C465.349 320.31 465.457 320.284 465.556 320.238C465.654 320.191 465.742 320.124 465.813 320.041C465.884 319.958 465.937 319.861 465.967 319.756C465.998 319.651 466.006 319.541 465.992 319.432C465.977 319.324 465.939 319.22 465.881 319.128C465.823 319.035 465.747 318.956 465.656 318.895C465.565 318.834 465.463 318.793 465.355 318.774C465.247 318.756 465.137 318.76 465.031 318.787L419.798 325.255C419.596 325.268 419.407 325.36 419.273 325.513C419.14 325.665 419.072 325.864 419.085 326.066C419.098 326.268 419.191 326.457 419.343 326.591C419.495 326.724 419.694 326.792 419.896 326.779H420.007ZM407.11 355.635C407.27 355.509 407.375 355.325 407.4 355.122C407.425 354.92 407.37 354.715 407.245 354.553L382.729 323.054C382.667 322.973 382.589 322.905 382.501 322.855C382.413 322.804 382.315 322.771 382.214 322.758C382.113 322.745 382.01 322.752 381.912 322.778C381.814 322.805 381.721 322.85 381.641 322.912C381.56 322.975 381.492 323.052 381.442 323.14C381.391 323.229 381.358 323.326 381.345 323.427C381.332 323.528 381.338 323.631 381.365 323.729C381.392 323.828 381.437 323.92 381.499 324.001L406.065 355.549C406.136 355.641 406.227 355.716 406.332 355.767C406.436 355.818 406.551 355.844 406.667 355.844C406.851 355.835 407.025 355.761 407.159 355.635H407.11ZM445.421 347.115C445.427 346.912 445.354 346.714 445.216 346.564C445.078 346.415 444.886 346.325 444.683 346.316L410.983 344.607C410.793 344.62 410.615 344.702 410.482 344.838C410.35 344.973 410.271 345.153 410.262 345.342C410.253 345.532 410.314 345.718 410.433 345.866C410.552 346.014 410.722 346.113 410.909 346.144L444.671 347.853C444.874 347.859 445.072 347.786 445.222 347.648C445.371 347.51 445.46 347.318 445.47 347.115H445.421ZM429.523 372.123C429.535 372.022 429.527 371.919 429.498 371.821C429.47 371.724 429.422 371.632 429.358 371.553C429.294 371.474 429.215 371.409 429.125 371.361C429.035 371.313 428.936 371.284 428.835 371.275L403.015 368.729C402.915 368.719 402.814 368.729 402.718 368.758C402.621 368.787 402.532 368.835 402.454 368.899C402.376 368.963 402.312 369.042 402.265 369.131C402.218 369.22 402.189 369.318 402.179 369.418C402.162 369.62 402.225 369.82 402.353 369.976C402.482 370.133 402.667 370.232 402.868 370.254L428.687 372.811H428.761C428.959 372.825 429.155 372.761 429.307 372.632C429.458 372.504 429.554 372.321 429.573 372.123H429.523ZM397.126 385.451C397.297 385.338 397.416 385.162 397.457 384.961C397.499 384.761 397.459 384.552 397.348 384.381L384.585 365.09C384.469 364.924 384.292 364.809 384.093 364.771C383.893 364.732 383.687 364.771 383.516 364.881C383.345 364.994 383.226 365.17 383.184 365.37C383.143 365.571 383.183 365.779 383.294 365.951L396.057 385.242C396.13 385.347 396.227 385.433 396.34 385.493C396.454 385.553 396.58 385.585 396.708 385.586C396.875 385.595 397.039 385.547 397.175 385.451H397.126ZM426.413 391.905C426.41 391.703 426.329 391.51 426.187 391.365C426.045 391.221 425.853 391.137 425.65 391.131L395.294 390.848C395.092 390.848 394.898 390.928 394.755 391.071C394.612 391.214 394.532 391.408 394.532 391.61C394.529 391.712 394.546 391.813 394.583 391.908C394.62 392.002 394.676 392.089 394.747 392.161C394.818 392.234 394.904 392.291 394.998 392.329C395.092 392.368 395.193 392.387 395.294 392.385L425.65 392.668C425.754 392.673 425.858 392.657 425.955 392.621C426.053 392.585 426.142 392.53 426.218 392.459C426.293 392.387 426.354 392.302 426.396 392.207C426.438 392.112 426.46 392.009 426.462 391.905H426.413ZM385.68 437.298C385.741 437.163 390.917 422.901 406.483 419.495C406.683 419.451 406.858 419.329 406.969 419.156C407.079 418.983 407.117 418.774 407.073 418.573C407.023 418.377 406.9 418.207 406.728 418.099C406.556 417.991 406.349 417.954 406.151 417.995C389.737 421.585 384.29 436.647 384.229 436.794C384.165 436.988 384.18 437.199 384.27 437.383C384.359 437.567 384.516 437.708 384.708 437.778H384.954C385.118 437.792 385.281 437.753 385.421 437.667C385.561 437.58 385.669 437.451 385.729 437.298H385.68Z" fill="black"/>
<path d="M409.212 426.897H374.405V434.102H377.442L383.725 473.408H399.893L406.175 434.102H409.212V426.897Z" fill="#FFC283"/>
<path opacity="0.3" d="M409.212 426.897H374.405V434.102H377.442L383.725 473.408H399.893L406.175 434.102H409.212V426.897Z" fill="white"/>
<path d="M95.8386 209.031L55.3514 195.814L51.749 186.297L43.5237 186.039L28.5977 183.211L30.3927 186.297L49.1794 199.933L53.8146 202.244L96.1583 224.363L95.8386 209.031Z" fill="white" stroke="#263238" stroke-width="1.00396" stroke-miterlimit="10"/>
<path d="M51.7491 186.298L47.8885 183.986L40.1796 186.814L41.4582 188.351L51.7491 186.298Z" fill="white" stroke="#263238" stroke-width="1.00396" stroke-linejoin="round"/>
<path d="M95.8386 209.031L55.3514 195.814L51.749 186.297L43.5237 186.039L28.5977 183.211L30.3927 186.297L49.1794 199.933L53.8146 202.244L96.1583 224.363L95.8386 209.031Z" fill="white"/>
<mask id="mask0_209_1940" style="mask-type:luminance" maskUnits="userSpaceOnUse" x="28" y="183" width="69" height="42">
<path d="M95.8386 209.031L55.3514 195.814L51.749 186.297L43.5237 186.039L28.5977 183.211L30.3927 186.297L49.1794 199.933L53.8146 202.244L96.1583 224.363L95.8386 209.031Z" fill="white"/>
</mask>
<g mask="url(#mask0_209_1940)">
<path opacity="0.5" d="M95.8386 209.031L55.3514 195.814L51.749 186.297L43.5237 186.039L28.5977 183.211L30.3927 186.297L49.1794 199.933L53.8146 202.244L96.1583 224.363L95.8386 209.031Z" fill="#FFC283" stroke="#263238" stroke-width="1.00396" stroke-miterlimit="10"/>
</g>
<path d="M95.8386 209.031L55.3514 195.814L51.749 186.297L43.5237 186.039L28.5977 183.211L30.3927 186.297L49.1794 199.933L53.8146 202.244L96.1583 224.363L95.8386 209.031Z" stroke="#263238" stroke-width="1.00396" stroke-miterlimit="10"/>
<path d="M51.7491 186.298L47.8885 183.986L40.1796 186.814L41.4582 188.351L51.7491 186.298Z" fill="white"/>
<mask id="mask1_209_1940" style="mask-type:luminance" maskUnits="userSpaceOnUse" x="40" y="183" width="12" height="6">
<path d="M51.7491 186.298L47.8885 183.986L40.1796 186.814L41.4582 188.351L51.7491 186.298Z" fill="white"/>
</mask>
<g mask="url(#mask1_209_1940)">
<path opacity="0.5" d="M51.7491 186.298L47.8885 183.986L40.1796 186.814L41.4582 188.351L51.7491 186.298Z" fill="#FFC283" stroke="#263238" stroke-width="1.00396" stroke-linejoin="round"/>
</g>
<path d="M51.7491 186.298L47.8885 183.986L40.1796 186.814L41.4582 188.351L51.7491 186.298Z" stroke="#263238" stroke-width="1.00396" stroke-linejoin="round"/>
<path d="M104.433 123.249C104.433 123.249 103.806 128.782 105.367 132.335C106.929 135.889 115.597 147.925 115.597 147.925L99.4164 160.896C99.4164 160.896 92.7034 147.372 91.4247 145.183C90.146 142.995 88.6092 133.577 92.7772 126.827C96.9451 120.077 102.945 118.258 104.433 123.249Z" fill="white"/>
<mask id="mask2_209_1940" style="mask-type:luminance" maskUnits="userSpaceOnUse" x="90" y="120" width="26" height="41">
<path d="M104.433 123.249C104.433 123.249 103.806 128.782 105.367 132.335C106.929 135.889 115.597 147.925 115.597 147.925L99.4164 160.896C99.4164 160.896 92.7034 147.372 91.4247 145.183C90.146 142.995 88.6092 133.577 92.7772 126.827C96.9451 120.077 102.945 118.258 104.433 123.249Z" fill="white"/>
</mask>
<g mask="url(#mask2_209_1940)">
<g style="mix-blend-mode:multiply" opacity="0.5">
<path d="M96.1214 141.028L103.142 155.585L99.4041 160.909L92.3468 148.306L96.1214 141.028Z" fill="#FFC283"/>
</g>
</g>
<path d="M104.433 123.249C104.433 123.249 103.806 128.782 105.367 132.335C106.929 135.889 115.597 147.925 115.597 147.925L99.4164 160.896C99.4164 160.896 92.7034 147.372 91.4247 145.183C90.146 142.995 88.6092 133.577 92.7772 126.827C96.9451 120.077 102.945 118.258 104.433 123.249Z" stroke="#263238" stroke-width="1.00396" stroke-miterlimit="10"/>
<path d="M109.449 113.118C108.453 106.971 101.408 94.4668 90.2322 94.9463C82.9782 95.2659 79.5848 96.729 76.4373 98.5118C73.8716 100.023 71.4802 101.813 69.3062 103.848C63.8473 110.401 61.9292 112.196 62.9866 117.212C62.8999 119.213 63.2134 121.211 63.9087 123.089C65.5808 127.552 66.7243 130.466 68.1751 132.593C67.7325 134.671 66.5767 140.155 66.5153 141.409C66.4538 142.663 70.2037 141.79 72.0972 141.31C75.6135 149.179 82.0561 154.638 84.0601 155.265C87.5519 156.359 93.0723 150.618 95.9985 146.167C98.9247 141.716 96.7116 136.712 96.7239 134.72C96.7362 132.729 103.302 128.352 105.736 126.962C108.17 125.573 110.433 119.253 109.449 113.118Z" fill="white"/>
<mask id="mask3_209_1940" style="mask-type:luminance" maskUnits="userSpaceOnUse" x="62" y="94" width="48" height="62">
<path d="M109.449 113.118C108.453 106.971 101.408 94.4668 90.2322 94.9463C82.9782 95.2659 79.5848 96.729 76.4373 98.5118C73.8716 100.023 71.4802 101.813 69.3062 103.848C63.8473 110.401 61.9292 112.196 62.9866 117.212C62.8999 119.213 63.2134 121.211 63.9087 123.089C65.5808 127.552 66.7243 130.466 68.1751 132.593C67.7325 134.671 66.5767 140.155 66.5153 141.409C66.4538 142.663 70.2037 141.79 72.0972 141.31C75.6135 149.179 82.0561 154.638 84.0601 155.265C87.5519 156.359 93.0723 150.618 95.9985 146.167C98.9247 141.716 96.7116 136.712 96.7239 134.72C96.7362 132.729 103.302 128.352 105.736 126.962C108.17 125.573 110.433 119.253 109.449 113.118Z" fill="white"/>
</mask>
<g mask="url(#mask3_209_1940)">
<g style="mix-blend-mode:multiply" opacity="0.5">
<path d="M63.0358 117.212C62.9491 119.213 63.2626 121.211 63.9579 123.089C65.63 127.552 66.7735 130.466 68.2243 132.593C67.7817 134.671 66.6259 140.155 66.5645 141.409C66.503 142.663 70.2529 141.79 72.1464 141.31C75.6627 149.179 82.1052 154.638 84.1093 155.265C87.6011 156.359 93.1215 150.618 96.0477 146.167C96.7788 145.056 97.2533 143.796 97.437 142.478C97.2772 141.901 97.1665 141.544 97.1665 141.544C97.1665 141.544 95.519 147.876 92.2486 147.052C88.9781 146.228 83.9741 139.675 81.1831 137.413C78.3922 135.151 79.5356 132.175 78.9823 128.806C78.4291 125.438 70.1669 122.475 69.6136 120.544C69.0603 118.614 70.9906 110.622 70.9906 110.622C70.9906 110.622 74.1258 106.442 73.4496 108.163C72.9717 109.656 72.7983 111.229 72.9398 112.79C73.0813 114.351 73.5348 115.867 74.2734 117.249C74.7916 118.34 75.6138 119.258 76.6411 119.892C77.6683 120.527 78.857 120.852 80.0643 120.827L83.0643 105.962L76.7324 100.725L69.3554 103.799C63.8473 110.401 61.9661 112.196 63.0358 117.212Z" fill="#FFC283"/>
</g>
</g>
<path d="M109.449 113.118C108.453 106.971 101.408 94.4668 90.2322 94.9463C82.9782 95.2659 79.5848 96.729 76.4373 98.5118C73.8716 100.023 71.4802 101.813 69.3062 103.848C63.8473 110.401 61.9292 112.196 62.9866 117.212C62.8999 119.213 63.2134 121.211 63.9087 123.089C65.5808 127.552 66.7243 130.466 68.1751 132.593C67.7325 134.671 66.5767 140.155 66.5153 141.409C66.4538 142.663 70.2037 141.79 72.0972 141.31C75.6135 149.179 82.0561 154.638 84.0601 155.265C87.5519 156.359 93.0723 150.618 95.9985 146.167C98.9247 141.716 96.7116 136.712 96.7239 134.72C96.7362 132.729 103.302 128.352 105.736 126.962C108.17 125.573 110.433 119.253 109.449 113.118Z" stroke="#263238" stroke-miterlimit="10"/>
<path d="M69.6997 128.88L70.9292 132.396C70.9292 132.396 73.5726 133.269 76.7939 129.753" stroke="#263238" stroke-miterlimit="10" stroke-linecap="round"/>
<path d="M78.7856 145.306C78.7856 145.306 81.7118 145.011 82.8922 140.905" stroke="#263238" stroke-miterlimit="10" stroke-linecap="round"/>
<path d="M67.6464 125.942C67.6464 125.942 68.5193 123.298 73.7938 123.298" stroke="#263238" stroke-miterlimit="10" stroke-linecap="round"/>
<path d="M94.683 90.0526C90.8503 89.5015 86.9853 89.2058 83.1134 89.1674C83.1134 89.1674 71.5316 82.4913 60.4047 89.61C49.2778 96.7288 54.6261 109.196 54.6261 112.306C54.6261 115.417 51.0605 115.429 53.2859 119.438C55.5113 123.446 63.0358 121.233 63.0358 121.233C63.1153 119.721 63.5148 118.243 64.2079 116.897C64.901 115.551 65.8718 114.368 67.0563 113.425C71.0644 110.315 74.2611 109.638 75.5889 110.536C75.5889 110.536 74.7037 117.212 76.0316 119.88C76.0316 119.88 80.4823 122.106 81.8225 122.106C83.1626 122.106 80.9495 123.987 85.388 125.659C86.1966 125.949 87.0616 126.048 87.9149 125.948C88.7682 125.848 89.5867 125.551 90.306 125.081C90.9576 122.376 92.3838 118.306 95.0395 119.253C98.937 120.642 102.49 130.232 97.2157 133.503C103.56 134.659 111.244 123.433 111.699 113.204C112.154 102.975 101.273 91.2084 94.683 90.0526Z" fill="#263238"/>
<path d="M75.7856 106.147C75.7856 106.147 79.0561 104.389 83.0642 108.151C87.0724 111.913 94.8674 116.942 105.195 114.175" stroke="white" stroke-width="0.5" stroke-linecap="round" stroke-linejoin="round"/>
<path d="M75.3307 103.134C75.3307 103.134 77.5807 99.6179 81.3429 99.6179C85.1052 99.6179 93.896 104.892 100.916 104.892" stroke="white" stroke-width="0.5" stroke-linecap="round" stroke-linejoin="round"/>
<path d="M72.7734 109.909C72.7734 109.909 68.5071 104.647 64.4989 108.913C60.4908 113.18 63.0358 117.212 63.0358 117.212" stroke="white" stroke-width="0.5" stroke-linecap="round" stroke-linejoin="round"/>
<path d="M55.7203 113.426C58.1652 111.221 59.685 108.172 59.9744 104.893C60.4785 99.3724 68.0153 94.602 72.7734 99.1265" stroke="white" stroke-width="0.5" stroke-linecap="round" stroke-linejoin="round"/>
<path d="M63.4906 93.3479C63.4906 93.3479 71.0274 86.0693 77.2978 95.352" stroke="white" stroke-width="0.5" stroke-linecap="round" stroke-linejoin="round"/>
<path d="M124.83 451.217C124.83 451.217 129.465 458.421 128.949 463.057L128.445 467.692C128.445 467.692 111.441 472.352 107.838 472.352C104.236 472.352 85.1666 470.544 85.1666 470.544L84.3428 467.274C84.2851 467.032 84.3123 466.778 84.4198 466.554C84.5272 466.33 84.7084 466.15 84.933 466.044L101.937 458.114L107.297 452.249L124.83 451.217Z" fill="white" stroke="#263238" stroke-width="1.00396" stroke-miterlimit="10"/>
<path d="M110.42 468.724C115.031 469.081 123.785 466.266 128.863 464.47L128.506 467.692C128.506 467.692 111.441 472.352 107.839 472.352C104.236 472.352 85.1667 470.544 85.1667 470.544L84.5765 468.208C87.6257 468.22 104.322 468.257 110.42 468.724Z" fill="#FFC283" stroke="#263238" stroke-width="1.00396" stroke-miterlimit="10"/>
<path d="M101.962 458.114L77.2119 468.885C77.2119 468.885 75.0971 474.184 77.2119 475.241C79.3266 476.298 125.433 475.241 125.433 475.241C125.433 475.241 128.617 466.868 123.588 461.249C118.56 455.631 101.962 458.114 101.962 458.114Z" fill="white" stroke="#263238" stroke-width="1.00396" stroke-miterlimit="10"/>
<path d="M125.433 475.24C125.433 475.24 79.3265 476.298 77.2118 475.24C76.1913 474.724 76.1545 473.236 76.3881 471.823H126.244C126.081 472.985 125.809 474.129 125.433 475.24Z" fill="#FFC283" stroke="#263238" stroke-width="1.00396" stroke-miterlimit="10"/>
<path d="M90.2569 270.973C90.2569 270.973 83.7897 299.632 81.343 317.558C78.8963 335.484 77.4578 371.398 77.9742 375.516C78.4906 379.635 104.236 448.647 104.236 448.647L106.806 454.794L124.83 451.192C124.83 451.192 116.593 424.93 113.507 410.508C110.421 396.086 103.671 372.394 103.671 368.275C103.671 364.156 119.654 285.493 120.797 280.329C121.941 275.165 127.129 267.235 127.129 267.235L92.6175 266.534L90.2569 270.973Z" fill="#FFC283" stroke="#263238" stroke-width="1.00396" stroke-miterlimit="10"/>
<path d="M90.2567 270.973C90.2567 270.973 86.4699 297.149 88.0313 315.345C89.5928 333.542 92.9493 372.283 92.9493 378.049C92.9493 383.816 102.257 418.254 102.785 429.073C103.609 444.7 102.453 452.434 102.453 452.434L101.9 458.102C101.9 458.102 112.756 459.651 115.129 460.327C117.87 461.033 120.698 461.339 123.527 461.237C123.527 461.237 127.473 443.864 127.473 429.061C127.473 414.258 124.191 383.791 122.556 371.447C120.92 359.103 126.072 311.485 128.998 302.595C131.924 293.706 138.318 274.883 134.014 265.268C129.711 255.653 90.2567 270.973 90.2567 270.973Z" fill="#FFC283" stroke="#263238" stroke-width="1.00396" stroke-miterlimit="10"/>
<path d="M138.797 260.448L138.404 272.153C138.404 272.153 131.396 273.542 121.953 275.177C114.158 276.53 94.5845 274.821 87.9945 274.181C87.3939 274.128 86.8387 273.84 86.4495 273.38C86.0604 272.919 85.8689 272.323 85.9166 271.722L86.5559 261.149L138.797 260.448Z" fill="#263238"/>
<path d="M111.404 143.77C111.404 143.77 100.339 155.732 96.1706 163.171C92.0026 170.609 90.3551 182.007 88.7936 190.982C87.2321 199.957 91.4616 221.031 90.269 230.707L86.4944 261.186C86.4944 261.186 85.683 263.252 88.4002 265.514C91.1173 267.776 104.384 268.6 116.371 269.202C120.748 269.424 133.818 266.608 135.957 266.473C138.539 266.313 138.625 263.03 138.736 260.448C139.252 248.313 141.441 215.965 142.879 201.875C145.842 173.142 129.625 145.405 111.404 143.77Z" fill="white" stroke="#263238" stroke-width="1.00396" stroke-miterlimit="10"/>
<g style="mix-blend-mode:multiply">
<path d="M141.527 218.215C142.019 211.834 142.51 206.043 142.941 201.875C143.064 200.646 143.137 199.416 143.199 198.187L113.802 203.105L88.5479 194.498C88.5506 199.724 88.8462 204.945 89.4331 210.137L114.207 217.072L141.527 218.215Z" fill="#FFC283"/>
</g>
<g style="mix-blend-mode:multiply">
<path d="M110.31 144.974C108.638 146.831 105.318 150.605 102.158 154.614L120.822 173.585L126.969 171.126L110.31 144.974Z" fill="#FFC283"/>
</g>
<path d="M111.404 143.77C111.404 143.77 100.339 155.733 96.1707 163.171C94.9348 165.432 93.9336 167.813 93.183 170.277L115.437 144.569C114.122 144.17 112.771 143.903 111.404 143.77Z" fill="#263238"/>
<g style="mix-blend-mode:multiply">
<path d="M89.6543 186.138L113.802 194.08L143.125 190.711C142.665 183.407 141.042 176.222 138.318 169.429L114.674 178.908L93.5395 169.331C91.8113 174.824 90.5123 180.443 89.6543 186.138Z" fill="#FFC283"/>
</g>
<g style="mix-blend-mode:multiply">
<path d="M131.223 248.313C118.976 250.37 106.409 249.343 94.6584 245.326L88.7691 243.309L86.9371 258.063L93.6502 259.944C106.412 263.512 119.75 264.54 132.908 262.969L138.33 262.317C138.612 261.72 138.771 261.072 138.797 260.412C138.945 257.129 139.203 252.358 139.535 246.887L131.223 248.313Z" fill="#FFC283"/>
</g>
<g style="mix-blend-mode:multiply">
<path d="M134.506 228.223C122.258 230.288 109.689 229.256 97.9411 225.223L90.4412 222.654C90.6273 225.332 90.5903 228.022 90.3306 230.694L89.4576 237.789L96.933 239.879C109.69 243.451 123.024 244.482 136.178 242.916L139.867 242.473C140.174 237.555 140.531 232.317 140.912 227.141L134.506 228.223Z" fill="#FFC283"/>
</g>
<path d="M19.1567 176.23L42.9294 195.344L43.9541 194.07L20.1814 174.956L19.1567 176.23Z" fill="#263238"/>
<path d="M122.851 157.036C122.851 157.036 131.568 162.974 131.764 177.003C131.851 183.15 131.211 188.892 129.797 198.961C128.383 209.031 119.605 241.822 112.769 245.805C105.933 249.789 95.3223 242.264 95.3223 242.264L44.0032 208.195L31.5977 198.174L25.4502 186.568L27.3805 182.88L42.5156 194.486L34.364 186.949L35.9624 184.921L38.9131 186.974L47.5196 190.195L49.4007 202.49L52.0564 204.31L101.15 222.248C101.15 222.248 100.535 195.826 100.99 190.773C101.445 185.72 102.072 173.019 107.482 163.81" fill="white"/>
<mask id="mask4_209_1940" style="mask-type:luminance" maskUnits="userSpaceOnUse" x="25" y="157" width="107" height="90">
<path d="M122.851 157.036C122.851 157.036 131.568 162.974 131.764 177.003C131.851 183.15 131.211 188.892 129.797 198.961C128.383 209.031 119.605 241.822 112.769 245.805C105.933 249.789 95.3223 242.264 95.3223 242.264L44.0032 208.195L31.5977 198.174L25.4502 186.568L27.3805 182.88L42.5156 194.486L34.364 186.949L35.9624 184.921L38.9131 186.974L47.5196 190.195L49.4007 202.49L52.0564 204.31L101.15 222.248C101.15 222.248 100.535 195.826 100.99 190.773C101.445 185.72 102.072 173.019 107.482 163.81" fill="white"/>
</mask>
<g mask="url(#mask4_209_1940)">
<g style="mix-blend-mode:multiply" opacity="0.5">
<path d="M100.806 202.281C100.806 211.403 101.113 222.248 101.113 222.248L52.0686 204.383L49.4129 202.563L47.5318 190.268L38.9253 187.047L35.9869 184.957L34.3885 186.986L42.5155 194.486L27.3804 182.879L25.5485 186.506L31.6959 198.113L44.1015 208.194L47.2244 210.272L115.031 232.12L100.806 202.281Z" fill="#FFC283"/>
</g>
</g>
<path d="M122.851 157.036C122.851 157.036 131.568 162.974 131.764 177.003C131.851 183.15 131.211 188.892 129.797 198.961C128.383 209.031 119.605 241.822 112.769 245.805C105.933 249.789 95.3223 242.264 95.3223 242.264L44.0032 208.195L31.5977 198.174L25.4502 186.568L27.3805 182.88L42.5156 194.486L34.364 186.949L35.9624 184.921L38.9131 186.974L47.5196 190.195L49.4007 202.49L52.0564 204.31L101.15 222.248C101.15 222.248 100.535 195.826 100.99 190.773C101.445 185.72 102.072 173.019 107.482 163.81" stroke="#263238" stroke-width="1.00396" stroke-miterlimit="10"/>
<path d="M101.15 222.248L119.888 235.773L124.744 227.166C124.744 227.166 128.101 224.523 128.592 222.531C129.084 220.539 128.457 217.306 128.961 215.314C129.465 213.322 131.973 211.453 132.207 206.634C132.441 201.814 132.207 197.794 132.207 197.794C132.207 197.794 136.264 181.109 135.822 173.855C135.379 166.601 128.383 153.778 122.777 153.495C117.17 153.212 109.88 154.061 104.224 162.618C98.5682 171.175 99.7239 196.158 98.8387 197.72C97.9534 199.281 99.1829 206.99 99.1829 206.99C98.6915 207.357 98.2839 207.824 97.9871 208.36C97.6903 208.896 97.5112 209.49 97.4616 210.101C97.3633 212.105 99.5272 217.035 99.5272 217.035L101.15 222.248Z" fill="white" stroke="#263238" stroke-width="1.00396" stroke-miterlimit="10"/>
<g style="mix-blend-mode:multiply">
<path d="M99.3306 191.302C99.3692 193.447 99.2086 195.592 98.8511 197.707C98.0642 199.109 98.9617 205.441 99.1584 206.732C109.697 210.005 120.842 210.846 131.752 209.191C131.987 208.336 132.127 207.458 132.17 206.572C132.416 201.765 132.17 197.732 132.17 197.732C132.17 197.732 132.527 196.244 133.019 193.982C121.719 194.7 110.375 193.798 99.3306 191.302Z" fill="#FFC283"/>
</g>
<g style="mix-blend-mode:multiply">
<path d="M103.462 163.982C101.703 167.511 100.72 172.81 100.154 178.183C111.316 182.442 123.35 183.907 135.207 182.449C135.68 179.606 135.89 176.725 135.834 173.843C135.621 171.565 135.083 169.329 134.236 167.203C123.882 167.445 113.54 166.363 103.462 163.982Z" fill="#FFC283"/>
</g>
<path d="M99.5271 217.17L101.113 222.248L119.851 235.772L124.707 227.166C124.707 227.166 128.064 224.522 128.555 222.531C128.643 222.184 128.697 221.83 128.715 221.473C118.841 221.303 109.03 219.856 99.5271 217.17Z" fill="#263238"/>
<path d="M113.088 460.167C113.088 460.167 113.506 449.52 115.547 433.954C117.588 418.389 112.683 396.283 111.859 392.594C111.035 388.906 112.277 380.717 111.453 377.84C110.629 374.963 106.646 362.693 108.994 348.455C111.343 334.218 113.248 296.583 113.248 296.583C113.248 296.583 107.334 291.776 105.601 285.518C103.867 279.259 105.195 277.292 105.195 277.292" stroke="#263238" stroke-width="1.00396" stroke-miterlimit="10"/>
<path d="M115.83 277.87L113.556 290.46" stroke="#263238" stroke-width="1.00396" stroke-miterlimit="10"/>
</svg>
