<svg width="455" height="475" viewBox="0 0 455 475" fill="none" xmlns="http://www.w3.org/2000/svg">
<path opacity="0.7" d="M391.476 427.051C383.515 445.016 369.011 460.424 341.954 469.807C294.431 486.239 241.967 460.853 225.141 433.095C208.316 405.336 205.335 366.428 178.6 364.924C151.865 363.421 109.297 396.412 75.6587 369.416C47.2718 346.666 37.4138 313.196 34.1493 282.938C28.7042 232.567 41.4267 186.921 97.8521 155.785C122.768 142.037 157.516 128.222 189.464 131.942C240.948 137.937 261.722 164.162 291.399 156.663C321.076 149.165 311.205 122.207 348.818 110.969C370.276 104.554 391.502 108.313 402.314 124.404C414.611 142.701 408.547 164.562 408.211 184.129C407.682 215.246 406.611 246.373 405.45 277.49C404.495 303.559 403.411 329.628 402.198 355.698C401.192 379.502 401.592 404.223 391.476 427.051Z" fill="#71BDD5" fill-opacity="0.58"/>
<path opacity="0.3" d="M14.9173 151.401C14.7221 150.69 14.6787 149.946 14.7897 149.218C14.9008 148.489 15.1638 147.792 15.5618 147.172C15.9598 146.552 16.4838 146.022 17.0998 145.618C17.7158 145.213 18.41 144.943 19.1373 144.824C23.5256 144.235 28.9238 150.138 30.6311 153.709C30.7873 154.01 32.5306 159.107 32.4585 159.107C32.3864 159.107 24.6677 159.288 21.4817 157.905C18.7646 156.715 15.6386 154.454 14.9173 151.401ZM127.823 137.863C127.174 140.929 124.108 143.273 121.439 144.524C118.77 145.774 112.422 146.002 110.859 146.038C110.018 147.036 109.116 148.118 108.154 149.333C106.483 151.485 104.619 153.925 102.756 156.715C102.263 157.46 101.758 158.278 101.253 159.119C102.383 157.917 103.934 156.414 104.102 156.282C107.204 153.805 114.634 150.86 118.325 153.312C118.927 153.737 119.433 154.283 119.81 154.915C120.187 155.548 120.427 156.252 120.515 156.984C120.602 157.715 120.535 158.456 120.317 159.16C120.099 159.863 119.736 160.513 119.251 161.067C117.255 163.472 113.468 164.157 110.51 164.037C107.553 163.916 101.638 161.115 100.387 160.43C99.2932 162.185 98.2232 164.037 97.2133 165.996C95.3403 169.556 93.7834 173.273 92.5605 177.105L92.7889 177.226C93.6906 176.023 95.6503 173.619 95.8427 173.414C98.644 170.625 105.713 166.874 109.645 168.906C110.29 169.262 110.853 169.75 111.297 170.337C111.742 170.925 112.057 171.6 112.224 172.317C112.391 173.035 112.405 173.78 112.265 174.503C112.125 175.227 111.834 175.912 111.412 176.516C109.705 179.137 106.002 180.219 103.056 180.424C99.6539 180.664 92.6206 178.019 92.3561 177.911C91.2535 181.755 90.4021 185.667 89.8072 189.621C89.3504 192.543 89.0017 195.524 88.6891 198.53C89.3023 197.676 91.8631 194.466 92.0795 194.25C94.8809 191.461 101.95 187.71 105.894 189.741C106.538 190.098 107.1 190.587 107.543 191.175C107.986 191.763 108.301 192.438 108.466 193.156C108.632 193.873 108.644 194.618 108.504 195.341C108.363 196.063 108.072 196.749 107.649 197.352C105.942 199.973 102.251 201.055 99.2331 201.271C95.9148 201.5 89.17 198.987 88.605 198.771C88.4607 200.129 88.3044 201.488 88.1721 202.858C87.7393 207.307 87.3306 211.779 86.7775 216.167C86.5972 217.694 86.3447 219.185 86.1163 220.688C87.0781 219.486 88.8574 217.213 89.0378 217.081C91.8391 214.292 98.9085 210.553 102.852 212.585C103.496 212.941 104.057 213.428 104.5 214.015C104.943 214.602 105.258 215.276 105.424 215.993C105.589 216.709 105.602 217.453 105.461 218.175C105.321 218.897 105.03 219.581 104.607 220.183C102.9 222.804 99.197 223.898 96.2515 224.103C93.3059 224.307 87.571 222.323 85.972 221.698C85.5512 224.187 85.0943 226.651 84.5172 229.044C84.2527 230.078 84.0483 231.148 83.7357 232.122C83.4232 233.096 83.1466 234.081 82.8581 235.055C82.1848 237.039 81.5716 238.879 80.8984 240.706C80.5617 241.632 80.2251 242.497 79.9005 243.399C80.682 241.992 81.9564 239.792 82.1006 239.6C84.5052 236.414 90.8653 231.641 95.0612 233.047C95.7484 233.301 96.3747 233.696 96.8999 234.206C97.4251 234.717 97.8375 235.332 98.1105 236.011C98.3835 236.691 98.5111 237.42 98.4849 238.152C98.4588 238.884 98.2795 239.603 97.9587 240.261C96.6723 243.111 93.1496 244.746 90.2882 245.395C87.1141 246.116 80.2852 244.734 79.4677 244.553C78.6381 246.741 77.8085 248.869 76.9909 250.841C74.4421 257.093 72.0736 262.203 70.3664 265.749L70.0899 266.327H82.5214L78.2293 350.041C78.0578 353.099 76.7256 355.977 74.5047 358.086C72.2837 360.195 69.3415 361.377 66.2786 361.391C63.2158 361.377 60.2735 360.195 58.0526 358.086C55.8317 355.977 54.4995 353.099 54.328 350.041L50.0358 266.327H63.3811C63.3811 265.75 63.2489 265.124 63.1768 264.439C62.7319 260.58 61.9745 255.049 60.8564 248.461C60.5197 246.561 60.135 244.553 59.7262 242.449C58.8606 242.558 51.9715 243.435 48.9057 242.449C46.0803 241.584 42.714 239.696 41.692 236.751C41.4139 236.068 41.283 235.335 41.3078 234.599C41.3327 233.863 41.5128 233.141 41.8362 232.479C42.1597 231.817 42.6193 231.231 43.185 230.759C43.7506 230.288 44.4095 229.941 45.1185 229.741C49.4107 228.635 55.4581 233.877 57.5621 237.231C57.6944 237.448 59.0048 240.165 59.6421 241.56C59.3896 240.357 59.1371 239.083 58.8606 237.796C58.4638 235.933 57.9829 233.985 57.526 232.086L56.6965 229.14C56.444 228.13 56.0713 227.204 55.7587 226.206C55.2658 224.776 54.6887 223.321 54.1236 221.866C52.248 222.383 46.7416 223.814 43.9042 223.405C41.0668 222.996 37.3758 221.614 35.861 218.873C35.4837 218.239 35.2443 217.534 35.1582 216.802C35.0722 216.07 35.1415 215.328 35.3616 214.624C35.5817 213.921 35.9476 213.272 36.4356 212.719C36.9235 212.167 37.5225 211.724 38.1934 211.418C42.2691 209.687 49.0139 213.955 51.6229 216.949C51.707 217.045 52.1879 217.73 52.753 218.56C52.1519 217.153 51.5507 215.747 50.9015 214.352C49.038 210.385 47.0061 206.393 44.9983 202.389C44.5775 201.56 44.1687 200.718 43.796 199.877C42.221 200.321 36.2697 201.92 33.3001 201.488C30.3305 201.055 26.7597 199.708 25.2569 196.967C24.8773 196.335 24.6357 195.63 24.5478 194.898C24.4599 194.166 24.5277 193.424 24.7469 192.72C24.966 192.016 25.3314 191.367 25.8192 190.814C26.307 190.261 26.9061 189.818 27.5773 189.513C31.653 187.77 38.3978 192.038 41.0187 195.031C41.1029 195.14 41.68 195.957 42.3172 196.895C41.2472 194.695 40.2252 192.507 39.2634 190.294C37.6031 186.505 36.1974 182.609 35.0554 178.632C34.5024 178.801 27.5532 180.808 24.2349 180.328C21.3014 179.907 17.6945 178.548 16.1917 175.807C15.8141 175.174 15.574 174.47 15.4871 173.738C15.4002 173.007 15.4685 172.265 15.6874 171.562C15.9063 170.858 16.271 170.209 16.7577 169.656C17.2444 169.103 17.8422 168.659 18.5121 168.353C22.5998 166.622 29.3326 170.878 31.9536 173.871C32.1339 174.088 34.1898 177.081 34.8871 178.175C34.8871 178.175 34.8871 178.091 34.8871 178.043C33.8571 174.104 33.1851 170.08 32.8793 166.02C32.5826 162.422 32.4942 158.809 32.6148 155.2C32.699 151.833 32.9755 148.756 33.24 146.038C33.3963 144.572 33.5766 143.225 33.745 141.975H33.6728C33.6007 141.975 32.1099 136.853 32.0618 136.516C31.4005 132.609 32.4465 124.674 36.3779 122.642C37.0413 122.325 37.7638 122.15 38.4988 122.13C39.2338 122.11 39.9649 122.244 40.6449 122.524C41.3248 122.803 41.9384 123.223 42.446 123.755C42.9536 124.287 43.3439 124.919 43.5916 125.612C44.7338 128.521 43.4834 132.164 41.9445 134.689C40.4056 137.214 35.2358 140.893 33.9493 141.782C33.793 143.081 33.6488 144.476 33.5165 146.014C33.3121 148.732 33.0957 151.809 33.0837 155.164C33.0837 156.053 33.0837 157.015 33.0837 157.941C33.3843 156.366 33.8291 154.214 33.9013 154.01C35.1035 150.246 39.6962 143.682 44.1206 143.694C44.8625 143.713 45.5919 143.89 46.2605 144.212C46.9291 144.534 47.5217 144.994 47.9991 145.563C48.4764 146.131 48.8277 146.794 49.0296 147.508C49.2315 148.222 49.2794 148.971 49.1702 149.705C48.8456 152.807 46.0443 155.464 43.5195 157.003C40.9947 158.542 34.5024 159.408 33.1077 159.612C33.1077 161.68 33.2881 163.796 33.5285 165.996C33.9268 170.003 34.6833 173.967 35.7888 177.839H36.0413C36.1375 176.348 36.426 173.234 36.4741 172.97C37.2797 169.098 41.1029 162.077 45.5153 161.596C46.2495 161.537 46.988 161.633 47.6826 161.878C48.3772 162.123 49.0124 162.512 49.5467 163.019C50.081 163.526 50.5024 164.14 50.7835 164.821C51.0646 165.501 51.199 166.234 51.178 166.97C51.178 170.096 48.7735 172.982 46.3689 174.845C43.6638 176.913 36.3299 178.584 36.0533 178.644C37.2573 182.459 38.703 186.194 40.3815 189.826C41.5838 192.519 42.9785 195.188 44.3611 197.869C44.3611 196.811 44.7819 192.723 44.842 192.422C45.6355 188.551 49.4588 181.53 53.8711 181.049C54.6053 180.989 55.3438 181.085 56.0384 181.331C56.7331 181.576 57.3682 181.964 57.9025 182.472C58.4368 182.979 58.8582 183.593 59.1393 184.273C59.4204 184.954 59.5548 185.687 59.5339 186.423C59.5339 189.549 57.1293 192.495 54.7247 194.298C52.0917 196.318 45.1065 197.905 44.4813 198.085C45.1065 199.287 45.6836 200.49 46.3809 201.692C48.4729 205.648 50.5889 209.591 52.5606 213.559C53.2459 214.941 53.8711 216.324 54.4963 217.694C54.6165 216.131 54.869 213.282 54.9171 213.042C55.7226 209.158 59.5459 202.137 63.9582 201.668C64.6914 201.609 65.4289 201.704 66.1226 201.949C66.8164 202.193 67.4509 202.581 67.9851 203.087C68.5192 203.592 68.9408 204.205 69.2227 204.884C69.5045 205.564 69.6402 206.295 69.621 207.03C69.621 210.168 67.2164 213.114 64.8119 214.905C62.4073 216.696 56.5883 218.211 54.9291 218.608C55.9511 220.916 56.9249 223.225 57.7785 225.533C58.1152 226.543 58.536 227.553 58.8125 228.539C59.089 229.525 59.4016 230.499 59.7022 231.472C60.2312 233.492 60.7361 235.368 61.181 237.267C61.4214 238.217 61.6138 239.131 61.8302 240.057C61.71 238.458 61.5537 235.909 61.5657 235.68C61.7701 231.725 64.4872 224.199 68.7794 223.057C69.4962 222.889 70.2402 222.874 70.9632 223.013C71.6862 223.151 72.372 223.44 72.9762 223.861C73.5804 224.281 74.0894 224.824 74.4704 225.454C74.8513 226.084 75.0957 226.787 75.1875 227.517C75.2505 227.914 75.2747 228.317 75.2597 228.719C77.0059 231.733 77.9497 235.144 78.0009 238.626C78.0009 238.891 77.5801 241.872 77.3396 243.435C77.8205 242.233 78.2894 241.091 78.7703 239.828C79.4556 238.061 80.1409 236.161 80.8022 234.334C81.1148 233.372 81.4274 232.398 81.74 231.412C82.0886 230.439 82.293 229.453 82.5695 228.455C82.9543 226.988 83.2789 225.461 83.6035 223.934C81.752 223.333 76.3898 221.53 74.2377 219.582C72.0856 217.634 69.7653 214.484 70.0177 211.37C70.0536 210.638 70.2421 209.922 70.5713 209.267C70.9005 208.612 71.363 208.034 71.9291 207.568C72.4953 207.103 73.1525 206.761 73.8586 206.565C74.5647 206.369 75.3041 206.322 76.0291 206.429C80.3814 207.235 83.6756 214.52 84.1926 218.452C84.1926 218.572 84.1926 219.414 84.1926 220.412C84.4691 218.909 84.7336 217.418 84.9621 215.891C85.5993 211.539 86.1643 207.102 86.6453 202.666C86.7535 201.74 86.8737 200.814 86.9939 199.889C85.431 199.384 79.5879 197.484 77.3757 195.44C75.1635 193.396 72.9032 190.343 73.1557 187.229C73.1915 186.497 73.3801 185.78 73.7092 185.125C74.0384 184.471 74.5009 183.892 75.0671 183.427C75.6332 182.961 76.2905 182.62 76.9966 182.423C77.7027 182.227 78.442 182.181 79.1671 182.287C83.5193 183.093 86.8136 190.379 87.3185 194.31C87.3185 194.454 87.3185 195.512 87.3185 196.582C87.6432 194.178 87.9918 191.773 88.4246 189.369C89.1272 185.301 90.0992 181.285 91.3341 177.346C90.7811 177.178 83.88 175.025 81.3913 172.801C79.1911 170.83 76.9308 167.716 77.1833 164.59C77.2189 163.858 77.4075 163.142 77.7368 162.488C78.0661 161.834 78.5289 161.256 79.0952 160.791C79.6616 160.327 80.3191 159.986 81.0252 159.791C81.7312 159.597 82.4703 159.552 83.1947 159.66C87.559 160.466 90.8532 167.752 91.3582 171.683C91.3582 171.972 91.4544 175.603 91.4303 176.901V176.757C92.7495 172.913 94.403 169.191 96.3717 165.636C98.1239 162.459 100.055 159.384 102.155 156.426C104.078 153.661 106.002 151.256 107.733 149.14C108.671 147.938 109.561 146.976 110.39 146.026H110.294C110.21 146.026 111.833 140.893 111.965 140.58C113.576 136.973 118.818 130.962 123.231 131.395C123.978 131.47 124.701 131.704 125.35 132.082C125.999 132.46 126.559 132.973 126.994 133.586C127.428 134.199 127.725 134.898 127.866 135.636C128.007 136.374 127.989 137.133 127.811 137.863H127.823ZM76.9789 244.253C76.2215 243.88 70.4025 241.007 68.1422 238.542C66.175 239.612 64.1478 240.567 62.0707 241.403C62.5876 243.688 63.0686 245.912 63.4773 248.004C64.7998 254.628 65.6414 260.195 66.1825 264.09C66.2907 264.932 66.3868 265.665 66.483 266.351H66.7716L67.7454 264.451C69.5008 260.988 71.9534 255.975 74.6225 249.843C75.3799 248.076 76.2335 246.188 76.9669 244.253H76.9789ZM100.207 159.612C100.207 159.612 101.614 154.43 101.662 154.094C102.215 150.174 100.964 142.275 96.9728 140.352C96.301 140.049 95.5728 139.891 94.8358 139.888C94.0988 139.886 93.3695 140.039 92.6956 140.337C92.0216 140.635 91.4182 141.073 90.9247 141.62C90.4311 142.167 90.0586 142.813 89.8313 143.514C88.7613 146.447 90.1198 150.054 91.7189 152.543C93.5944 155.452 100.183 159.6 100.195 159.612H100.207Z" fill="#C5E4EE"/>
<mask id="mask0_2038_897" style="mask-type:luminance" maskUnits="userSpaceOnUse" x="0" y="0" width="455" height="382">
<path d="M290.636 1.6201C269.023 4.35123 247.927 10.2369 228.021 19.0892C214.518 25.1469 201.685 32.5973 189.729 41.3194C172.187 54.1237 156.618 70.0298 135.013 75.8729C110.186 82.6057 83.7357 77.3517 59.101 85.0944C-4.74006 105.136 -19.7445 197.748 28.2986 240.982C45.1305 256.155 63.4292 269.765 79.5037 285.803C96.9007 303.152 110.486 323.074 130.06 338.487C149.907 354.104 172.514 365.85 196.702 373.112C249.602 388.85 310.75 382.49 357.122 351.748C398 324.649 426.698 281.751 441.726 235.536C448.288 215.392 452.271 194.498 453.581 173.354C455.979 136.229 448.918 99.1019 433.058 65.4491C406.62 9.92785 347.227 -5.48537 290.636 1.6201Z" fill="white"/>
</mask>
<g mask="url(#mask0_2038_897)">
<path d="M259.605 80.3335C259.605 80.3335 249.807 83.0025 237.339 67.421C224.871 51.8394 246.248 32.6871 260.495 30.8957C274.742 29.1043 279.647 37.9892 289.037 42.0288C298.427 46.0685 310.413 31.7854 334.459 40.6943C358.505 49.6032 361.619 69.6452 362.508 81.668C363.398 93.6908 354.092 105.269 360.284 123.087C366.476 140.904 378.991 166.284 375.433 184.102C371.874 201.92 363.41 241.547 336.238 280.729C309.067 319.912 270.774 330.167 222.671 332.427C174.568 334.688 135.386 324.408 99.3172 282.557C63.2488 240.706 76.6061 180.568 108.671 163.651C140.736 146.735 183.008 149.801 215.962 137.778C248.917 125.756 253.81 122.642 259.605 107.938C263.027 99.0544 263.027 89.2168 259.605 80.3335Z" fill="#263238"/>
<path d="M277.014 66.4475C277.014 66.4475 266.362 53.9197 254.471 53.2946C242.581 52.6694 246.957 63.9347 253.269 67.0727" stroke="white" stroke-linecap="round" stroke-linejoin="round"/>
<path d="M348.826 98.4644C350.669 97.8635 352.408 96.9836 353.984 95.8555" stroke="white" stroke-linecap="round" stroke-linejoin="round"/>
<path d="M256.155 44.986C256.155 44.986 259.088 32.7588 278.661 45.9598C298.234 59.1608 303.116 86.5608 318.769 95.3615C326.026 99.5305 334.472 101.143 342.755 99.9421" stroke="white" stroke-linecap="round" stroke-linejoin="round"/>
<path d="M290.888 45.4795C292.836 45.4795 304.114 52.3205 317.339 70.9077C330.564 89.495 336.407 95.3621 344.234 96.3479" stroke="white" stroke-linecap="round" stroke-linejoin="round"/>
<path d="M215.902 163.025C209.087 166.108 202.112 168.825 195.007 171.165C150.522 185.833 96.2034 195.126 88.8695 230.834C81.5356 266.542 106.964 274.368 106.964 274.368" stroke="white" stroke-linecap="round" stroke-linejoin="round"/>
<path d="M263.007 132.548C263.007 132.548 249.782 146.025 224.414 158.998" stroke="white" stroke-linecap="round" stroke-linejoin="round"/>
<path d="M97.6219 245.49C95.1978 248.673 93.551 252.379 92.8127 256.311" stroke="white" stroke-linecap="round" stroke-linejoin="round"/>
<path d="M272.301 181.457C243.963 194.538 214.489 205.001 184.246 212.716C148.178 221.637 116.919 227.444 101.878 240.874" stroke="white" stroke-linecap="round" stroke-linejoin="round"/>
<path d="M225.761 196.57C225.761 196.57 216.407 199.684 216.407 204.986C216.407 210.288 217.742 220.616 217.742 220.616C217.742 220.616 203.05 258.007 200.814 261.614C198.577 265.22 190.57 268.286 190.57 271.857C190.57 275.428 174.544 299.017 179.437 317.279C184.33 335.542 193.696 332.416 200.814 327.967C207.931 323.519 226.651 307.036 227.985 305.701C229.32 304.367 227.54 257.61 230.654 239.792C232.679 227.702 234.02 215.508 234.67 203.267C235.115 197.893 225.761 196.57 225.761 196.57Z" fill="#FFC283"/>
<mask id="mask1_2038_897" style="mask-type:luminance" maskUnits="userSpaceOnUse" x="178" y="196" width="57" height="136">
<path d="M225.761 196.57C225.761 196.57 216.407 199.684 216.407 204.986C216.407 210.288 217.742 220.616 217.742 220.616C217.742 220.616 203.05 258.007 200.814 261.614C198.577 265.22 190.57 268.286 190.57 271.857C190.57 275.428 174.544 299.017 179.437 317.279C184.33 335.542 193.696 332.416 200.814 327.967C207.931 323.519 226.651 307.036 227.985 305.701C229.32 304.367 227.54 257.61 230.654 239.792C232.679 227.702 234.02 215.508 234.67 203.267C235.115 197.893 225.761 196.57 225.761 196.57Z" fill="white"/>
</mask>
<g mask="url(#mask1_2038_897)">
<path opacity="0.3" d="M229.86 245.984L221.444 243.051C221.444 243.051 213.834 253.871 213.029 263.886C212.223 273.901 211.43 281.921 211.43 281.921C211.43 281.921 200.609 275.104 200.609 282.726C200.609 290.348 189.788 287.126 189.38 291.142C188.971 295.158 171.754 311.172 176.155 320.393C177.128 322.413 180.964 327.607 185.484 329.11C190.293 333.366 196.028 330.986 200.801 328.004C207.931 323.543 226.638 307.072 227.973 305.738C229.307 304.403 227.865 266.507 229.86 245.984Z" fill="black"/>
</g>
<path d="M225.761 196.57C225.761 196.57 216.407 199.684 216.407 204.986C216.407 210.288 217.742 220.616 217.742 220.616C217.742 220.616 203.05 258.007 200.814 261.614C198.577 265.22 190.57 268.286 190.57 271.857C190.57 275.428 174.544 299.017 179.437 317.279C184.33 335.542 193.696 332.416 200.814 327.967C207.931 323.519 226.651 307.036 227.985 305.701C229.32 304.367 227.54 257.61 230.654 239.792C232.679 227.702 234.02 215.508 234.67 203.267C235.115 197.893 225.761 196.57 225.761 196.57Z" stroke="#263238" stroke-linecap="round" stroke-linejoin="round"/>
<path d="M203.05 298.992C203.05 298.992 195.031 283.362 189.236 273.611C183.441 263.861 174.099 234.417 174.099 234.417C174.099 234.417 169.65 226.398 158.469 227.288C147.288 228.177 144.655 250.011 146.446 268.261C148.238 286.512 162.485 314.585 175.397 324.829C188.31 335.072 197.111 330.732 206.573 322.592" fill="#FFC283"/>
<mask id="mask2_2038_897" style="mask-type:luminance" maskUnits="userSpaceOnUse" x="145" y="227" width="62" height="104">
<path d="M203.05 298.992C203.05 298.992 195.031 283.362 189.236 273.611C183.441 263.861 174.099 234.417 174.099 234.417C174.099 234.417 169.65 226.398 158.469 227.288C147.288 228.177 144.655 250.011 146.446 268.261C148.238 286.512 162.485 314.585 175.397 324.829C188.31 335.072 197.111 330.732 206.573 322.592" fill="white"/>
</mask>
<g mask="url(#mask2_2038_897)">
<path opacity="0.3" d="M206.609 322.592L203.002 298.992C203.002 298.992 194.982 283.362 189.187 273.611C183.392 263.861 174.051 234.417 174.051 234.417C173.804 233.997 173.527 233.595 173.221 233.215C169.614 238.325 164.901 246.163 164.901 246.163L155.776 272.698C155.776 272.698 158.89 281.438 171.31 296.262C183.729 311.086 198.565 317.507 190.149 319.106C181.733 320.705 179.329 321.907 184.535 325.514C186.795 327.077 189.055 329.541 191.544 331.453C197.567 331.429 202.689 328.231 206.609 322.592Z" fill="black"/>
</g>
<path d="M203.05 298.992C203.05 298.992 195.031 283.362 189.236 273.611C183.441 263.861 174.099 234.417 174.099 234.417C174.099 234.417 169.65 226.398 158.469 227.288C147.288 228.177 144.655 250.011 146.446 268.261C148.238 286.512 162.485 314.585 175.397 324.829C188.31 335.072 197.111 330.732 206.573 322.592" stroke="#263238" stroke-linecap="round" stroke-linejoin="round"/>
<path d="M154.502 229.969C154.502 229.969 149.368 242.28 149.368 252.427C149.368 262.574 155.824 272.722 155.824 272.722C155.824 272.722 171.045 251.081 172.428 241.823C173.81 232.565 157.327 221.336 154.502 229.969Z" fill="white" stroke="#263238" stroke-linecap="round" stroke-linejoin="round"/>
<path d="M181.228 181.422C182.118 176.084 175.854 178.092 172.536 184.728C171.334 187.133 170.985 190.74 170.985 193.89C170.985 197.04 156.281 197.905 151.833 203.243C147.384 208.582 144.258 217.058 154.502 229.97C154.502 229.97 152.278 252.681 159.852 253.571C167.426 254.461 174.544 242.438 174.099 234.419C174.031 232.598 174.071 230.776 174.219 228.96C176.011 226.556 178.223 223.117 178.223 220.292C178.223 215.807 176.96 211.744 176.828 208.113C177.369 204.35 177.85 200.899 178.103 198.35C178.992 189.477 180.339 186.772 181.228 181.422Z" fill="white"/>
<mask id="mask3_2038_897" style="mask-type:luminance" maskUnits="userSpaceOnUse" x="147" y="178" width="35" height="76">
<path d="M181.228 181.422C182.118 176.084 175.854 178.092 172.536 184.728C171.334 187.133 170.985 190.74 170.985 193.89C170.985 197.04 156.281 197.905 151.833 203.243C147.384 208.582 144.258 217.058 154.502 229.97C154.502 229.97 152.278 252.681 159.852 253.571C167.426 254.461 174.544 242.438 174.099 234.419C174.031 232.598 174.071 230.776 174.219 228.96C176.011 226.556 178.223 223.117 178.223 220.292C178.223 215.807 176.96 211.744 176.828 208.113C177.369 204.35 177.85 200.899 178.103 198.35C178.992 189.477 180.339 186.772 181.228 181.422Z" fill="white"/>
</mask>
<g mask="url(#mask3_2038_897)">
<path d="M174.099 234.419C174.031 232.599 174.071 230.776 174.219 228.961C176.011 226.556 178.223 223.118 178.223 220.293C178.223 215.808 176.96 211.744 176.828 208.113C177.369 204.35 177.85 200.9 178.103 198.351C178.992 189.442 180.339 186.773 181.228 181.423C181.4 180.689 181.337 179.919 181.048 179.223C179.846 179.559 178.644 180.425 178.006 184.801C177.008 191.113 174.015 199.758 171.995 203.088C169.975 206.418 164.673 203.749 160.682 208.739C156.69 213.728 156.69 215.399 156.69 215.399C156.69 215.399 164.673 220.377 165.671 224.368C166.669 228.36 167.667 233.986 162.677 239.998C160.08 243.112 159.828 248.835 160.513 253.62C167.847 253.728 174.532 242.198 174.099 234.419Z" fill="#FFC283"/>
<path opacity="0.5" d="M174.099 234.419C174.031 232.599 174.071 230.776 174.219 228.961C176.011 226.556 178.223 223.118 178.223 220.293C178.223 215.808 176.96 211.744 176.828 208.113C177.369 204.35 177.85 200.9 178.103 198.351C178.992 189.442 180.339 186.773 181.228 181.423C181.4 180.689 181.337 179.919 181.048 179.223C179.846 179.559 178.644 180.425 178.006 184.801C177.008 191.113 174.015 199.758 171.995 203.088C169.975 206.418 164.673 203.749 160.682 208.739C156.69 213.728 156.69 215.399 156.69 215.399C156.69 215.399 164.673 220.377 165.671 224.368C166.669 228.36 167.667 233.986 162.677 239.998C160.08 243.112 159.828 248.835 160.513 253.62C167.847 253.728 174.532 242.198 174.099 234.419Z" fill="white"/>
</g>
<path d="M181.228 181.422C182.118 176.084 175.854 178.092 172.536 184.728C171.334 187.133 170.985 190.74 170.985 193.89C170.985 197.04 156.281 197.905 151.833 203.243C147.384 208.582 144.258 217.058 154.502 229.97C154.502 229.97 152.278 252.681 159.852 253.571C167.426 254.461 174.544 242.438 174.099 234.419C174.031 232.598 174.071 230.776 174.219 228.96C176.011 226.556 178.223 223.117 178.223 220.292C178.223 215.807 176.96 211.744 176.828 208.113C177.369 204.35 177.85 200.899 178.103 198.35C178.992 189.477 180.339 186.772 181.228 181.422Z" stroke="#263238" stroke-linecap="round" stroke-linejoin="round"/>
<path d="M160.297 169.844L161.126 218.909C161.135 219.358 161.235 219.8 161.419 220.21C161.604 220.619 161.869 220.987 162.199 221.292C162.529 221.596 162.917 221.83 163.341 221.981C163.764 222.131 164.213 222.195 164.661 222.167C165.52 222.108 166.323 221.718 166.899 221.079C167.476 220.439 167.781 219.601 167.751 218.74L166.08 169.844H160.297Z" fill="white" stroke="#263238" stroke-linecap="round" stroke-linejoin="round"/>
<path d="M196.105 125.59C196.622 99.7672 182.184 78.5364 163.857 78.1699C145.531 77.8033 130.256 98.4399 129.739 124.263C129.223 150.086 143.661 171.317 161.987 171.683C180.314 172.05 195.589 151.413 196.105 125.59Z" fill="white" stroke="#263238" stroke-width="1.0002" stroke-linecap="round" stroke-linejoin="round"/>
<path d="M189.229 126.33C189.752 103.806 177.965 85.2639 162.903 84.9142C147.841 84.5645 135.207 102.54 134.684 125.063C134.161 147.587 145.948 166.129 161.01 166.479C176.072 166.829 188.706 148.853 189.229 126.33Z" fill="white"/>
<mask id="mask4_2038_897" style="mask-type:luminance" maskUnits="userSpaceOnUse" x="134" y="84" width="56" height="83">
<path d="M189.229 126.33C189.752 103.806 177.965 85.2639 162.903 84.9142C147.841 84.5645 135.207 102.54 134.684 125.063C134.161 147.587 145.948 166.129 161.01 166.479C176.072 166.829 188.706 148.853 189.229 126.33Z" fill="white"/>
</mask>
<g mask="url(#mask4_2038_897)">
<path d="M137.033 109.873L168.556 85.9595C166.741 85.3309 164.839 84.9862 162.918 84.9376C151.472 84.6731 141.421 95.0007 137.033 109.873Z" fill="#FFC283"/>
<path d="M188.478 115.283L138.223 146.542C142.755 158.313 151.183 166.308 161.066 166.536C176.131 166.885 188.719 148.911 189.284 126.392C189.358 122.672 189.088 118.954 188.478 115.283Z" fill="#FFC283"/>
<path d="M185.184 103.633C183.989 100.736 182.46 97.9879 180.627 95.4453L149.368 127.967L185.184 103.633Z" fill="#FFC283"/>
</g>
<path d="M189.229 126.33C189.752 103.806 177.965 85.2639 162.903 84.9142C147.841 84.5645 135.207 102.54 134.684 125.063C134.161 147.587 145.948 166.129 161.01 166.479C176.072 166.829 188.706 148.853 189.229 126.33Z" stroke="#263238" stroke-linecap="round" stroke-linejoin="round"/>
<path d="M149.368 199.396C149.368 199.396 146.146 189.706 149.837 188.78C153.528 187.854 160.898 188.78 164.589 189.706C168.28 190.631 175.662 193.854 173.81 195.717C171.959 197.581 170.131 198.939 165.058 197.557C161.723 196.752 158.245 196.752 154.911 197.557L149.368 199.396Z" fill="white" stroke="#263238" stroke-linecap="round" stroke-linejoin="round"/>
<path d="M145.689 206.308C145.689 206.308 145.689 198.926 149.837 197.087C153.985 195.247 159.058 196.618 165.058 197.544C171.057 198.469 174.736 201.235 171.514 204.469C168.292 207.703 165.058 207.691 159.491 207.691C154.865 207.53 150.255 207.068 145.689 206.308Z" fill="white" stroke="#263238" stroke-linecap="round" stroke-linejoin="round"/>
<path d="M147.528 215.073C146.568 212.235 145.95 209.292 145.689 206.308C145.689 203.086 156.293 203.543 159.515 202.16C162.737 200.778 168.28 201.691 171.538 204.469C174.796 207.246 172.452 209.073 168.761 209.073C165.208 209.114 161.663 209.424 158.157 209.999C155.391 210.456 149.392 215.073 149.392 215.073H147.528Z" fill="white" stroke="#263238" stroke-linecap="round" stroke-linejoin="round"/>
<path d="M152.145 218.764L161.367 213.222C161.367 213.222 172.897 217.382 171.971 212.765C171.045 208.148 165.058 206.309 162.281 206.309C159.503 206.309 150.763 210.925 147.985 211.839C145.208 212.753 145.689 216.913 148.454 219.221" fill="white"/>
<path d="M152.145 218.764L161.367 213.222C161.367 213.222 172.897 217.382 171.971 212.765C171.045 208.148 165.058 206.309 162.281 206.309C159.503 206.309 150.763 210.925 147.985 211.839C145.208 212.753 145.689 216.913 148.454 219.221" stroke="#263238" stroke-linecap="round" stroke-linejoin="round"/>
<path d="M171.514 218.764C171.514 218.764 174.279 227.985 171.971 231.676C170.734 233.768 168.989 235.513 166.897 236.75" stroke="#263238" stroke-linecap="round" stroke-linejoin="round"/>
<path d="M312.157 160.934C312.157 160.934 327.293 161.823 336.647 166.728C346.001 171.634 352.277 178.751 366.043 181.865C379.809 184.979 379.4 191.219 376.286 209.926C373.172 228.634 346.001 315.475 340.651 333.28C335.301 351.086 339.316 384.053 339.316 384.053H212.848C212.848 384.053 220.411 341.3 219.076 311.916C217.742 282.532 214.628 262.935 218.631 243.783C222.635 224.63 225.316 217.501 225.316 217.501C225.316 217.501 220.411 197.062 225.761 196.569C231.111 196.076 255.589 191.219 267.179 178.751C278.769 166.284 301.468 159.599 312.157 160.934Z" fill="#FFC283"/>
<mask id="mask5_2038_897" style="mask-type:luminance" maskUnits="userSpaceOnUse" x="212" y="160" width="167" height="225">
<path d="M312.157 160.934C312.157 160.934 327.293 161.823 336.647 166.728C346.001 171.634 352.277 178.751 366.043 181.865C379.809 184.979 379.4 191.219 376.286 209.926C373.172 228.634 346.001 315.475 340.651 333.28C335.301 351.086 339.316 384.053 339.316 384.053H212.848C212.848 384.053 220.411 341.3 219.076 311.916C217.742 282.532 214.628 262.935 218.631 243.783C222.635 224.63 225.316 217.501 225.316 217.501C225.316 217.501 220.411 197.062 225.761 196.569C231.111 196.076 255.589 191.219 267.179 178.751C278.769 166.284 301.468 159.599 312.157 160.934Z" fill="white"/>
</mask>
<g mask="url(#mask5_2038_897)">
<path opacity="0.3" d="M242.328 281.968C242.328 281.968 234.285 299.497 226.879 315.716C221.89 326.657 239.371 295.445 239.094 302.298C238.818 309.151 231.88 337.838 232.349 339.401C232.818 340.964 242.172 305.677 243.831 301.12C245.49 296.563 246.236 274.814 246.067 267.985C245.899 261.156 242.328 281.968 242.328 281.968Z" fill="black"/>
<path opacity="0.3" d="M376.286 209.915C376.286 209.566 376.394 209.242 376.455 208.905C375.389 207.95 374.128 207.24 372.759 206.825C371.391 206.409 369.948 206.299 368.531 206.5C347.299 210.107 333.269 301.084 333.269 301.084L332.066 299.076C332.066 299.076 314.429 334.351 310.425 354.79C306.422 375.228 325.658 347.973 322.845 356.785C320.44 364.203 300.819 375.601 296.311 384.041H339.316C339.316 384.041 335.313 351.086 340.651 333.269C345.989 315.451 373.196 228.634 376.286 209.915Z" fill="black"/>
</g>
<path d="M312.157 160.934C312.157 160.934 327.293 161.823 336.647 166.728C346.001 171.634 352.277 178.751 366.043 181.865C379.809 184.979 379.4 191.219 376.286 209.926C373.172 228.634 346.001 315.475 340.651 333.28C335.301 351.086 339.316 384.053 339.316 384.053H212.848C212.848 384.053 220.411 341.3 219.076 311.916C217.742 282.532 214.628 262.935 218.631 243.783C222.635 224.63 225.316 217.501 225.316 217.501C225.316 217.501 220.411 197.062 225.761 196.569C231.111 196.076 255.589 191.219 267.179 178.751C278.769 166.284 301.468 159.599 312.157 160.934Z" stroke="#263238" stroke-linecap="round" stroke-linejoin="round"/>
<path opacity="0.3" d="M266.374 183.958C266.374 183.958 258.355 194.646 253.462 197.327C248.568 200.008 265.484 206.224 265.484 206.224L244.108 209.831C244.108 209.831 240.946 224.931 240.946 252.993C240.946 281.054 243.17 305.1 243.17 305.1L262.322 308.213C262.322 308.213 273.9 277.038 289.975 267.685C306.049 258.331 322.436 228.947 327.835 224.931C333.233 220.916 340.302 210.684 340.302 210.684L322.04 203.555L343.861 199.095C343.861 199.095 337.621 180.832 330.948 173.702C324.276 166.573 323.374 166.585 311.351 166.14C299.328 165.695 281.511 169.711 266.374 183.958Z" fill="black"/>
<path d="M267.179 178.753C267.179 178.753 259.16 189.441 254.255 192.11C249.35 194.779 266.278 201.019 266.278 201.019L244.901 204.626C244.901 204.626 241.787 219.775 241.787 247.824C241.787 275.873 244.012 299.931 244.012 299.931L263.164 303.044C263.164 303.044 274.742 271.881 290.816 262.528C306.891 253.174 323.278 223.778 328.664 219.775C334.05 215.771 341.096 205.467 341.096 205.467L322.845 198.35L344.666 193.889C344.666 193.889 338.427 175.639 331.754 168.509C325.081 161.38 324.18 161.38 312.157 160.935C300.134 160.49 282.316 164.506 267.179 178.753Z" fill="#FFC283" stroke="#263238" stroke-linecap="round" stroke-linejoin="round"/>
<path d="M286.163 284.024C286.166 284.871 285.917 285.7 285.448 286.405C284.979 287.111 284.312 287.661 283.53 287.987C282.748 288.313 281.887 288.399 281.056 288.235C280.225 288.072 279.461 287.665 278.861 287.067C278.261 286.469 277.853 285.706 277.686 284.875C277.52 284.045 277.604 283.184 277.928 282.401C278.252 281.618 278.8 280.949 279.504 280.478C280.208 280.007 281.036 279.756 281.883 279.756C283.016 279.756 284.103 280.205 284.906 281.005C285.708 281.805 286.16 282.891 286.163 284.024Z" fill="#263238"/>
<path d="M286.163 306.831C286.166 307.678 285.917 308.506 285.448 309.212C284.979 309.917 284.312 310.468 283.53 310.793C282.748 311.119 281.887 311.206 281.056 311.042C280.225 310.878 279.461 310.471 278.861 309.873C278.261 309.275 277.853 308.513 277.686 307.682C277.52 306.851 277.604 305.99 277.928 305.207C278.252 304.425 278.8 303.756 279.504 303.285C280.208 302.814 281.036 302.563 281.883 302.563C283.016 302.562 284.103 303.012 284.906 303.812C285.708 304.612 286.16 305.698 286.163 306.831Z" fill="#263238"/>
<path d="M284.985 156.486C284.985 156.486 287.654 168.064 283.651 186.326C279.647 204.589 254.7 244.661 246.692 267.817C238.685 290.973 244.456 383.608 244.456 383.608H268.502C268.502 383.608 266.722 303.897 274.73 275.836C282.737 247.775 309.475 216.612 309.475 216.612C309.475 216.612 320.164 204.589 318.829 183.645C317.495 162.701 314.381 140.447 314.381 140.447C314.381 140.447 292.559 154.261 284.985 156.486Z" fill="white"/>
<mask id="mask6_2038_897" style="mask-type:luminance" maskUnits="userSpaceOnUse" x="242" y="140" width="77" height="244">
<path d="M284.985 156.486C284.985 156.486 287.654 168.064 283.651 186.326C279.647 204.589 254.7 244.661 246.692 267.817C238.685 290.973 244.456 383.608 244.456 383.608H268.502C268.502 383.608 266.722 303.897 274.73 275.836C282.737 247.775 309.475 216.612 309.475 216.612C309.475 216.612 320.164 204.589 318.829 183.645C317.495 162.701 314.381 140.447 314.381 140.447C314.381 140.447 292.559 154.261 284.985 156.486Z" fill="white"/>
</mask>
<g mask="url(#mask6_2038_897)">
<path d="M318.829 183.645C317.494 162.725 314.381 140.447 314.381 140.447C314.381 140.447 292.559 154.261 284.985 156.486C285.556 159.506 285.841 162.573 285.838 165.647L304.113 172.536C306.069 183.932 307.095 195.468 307.179 207.03C307.179 210.757 307.311 214.844 307.528 218.968C308.73 217.453 309.475 216.564 309.475 216.564C309.475 216.564 320.164 204.577 318.829 183.645Z" fill="#FFC283"/>
<path d="M285.67 172.451C285.67 172.451 289.277 185.231 284.877 198.012C280.476 210.792 268.045 221.588 268.045 221.588C268.045 221.588 282.472 180.434 283.23 176.84C283.987 173.245 285.67 172.451 285.67 172.451Z" fill="#FFC283"/>
<path opacity="0.5" d="M285.67 172.451C285.67 172.451 289.277 185.231 284.877 198.012C280.476 210.792 268.045 221.588 268.045 221.588C268.045 221.588 282.472 180.434 283.23 176.84C283.987 173.245 285.67 172.451 285.67 172.451Z" fill="white"/>
<path opacity="0.5" d="M318.829 183.645C317.494 162.725 314.381 140.447 314.381 140.447C314.381 140.447 292.559 154.261 284.985 156.486C285.556 159.506 285.841 162.573 285.838 165.647L304.113 172.536C306.069 183.932 307.095 195.468 307.179 207.03C307.179 210.757 307.311 214.844 307.528 218.968C308.73 217.453 309.475 216.564 309.475 216.564C309.475 216.564 320.164 204.577 318.829 183.645Z" fill="white"/>
</g>
<path d="M284.985 156.486C284.985 156.486 287.654 168.064 283.651 186.326C279.647 204.589 254.7 244.661 246.692 267.817C238.685 290.973 244.456 383.608 244.456 383.608H268.502C268.502 383.608 266.722 303.897 274.73 275.836C282.737 247.775 309.475 216.612 309.475 216.612C309.475 216.612 320.164 204.589 318.829 183.645C317.495 162.701 314.381 140.447 314.381 140.447C314.381 140.447 292.559 154.261 284.985 156.486Z" stroke="#263238" stroke-linecap="round" stroke-linejoin="round"/>
<path d="M307.071 219.533C299.316 224.667 290.804 229.38 284.985 229.969C277.772 230.69 272.458 225.376 269.139 220.351C260.723 236.966 251.105 254.976 246.693 267.793C238.674 290.949 244.456 383.584 244.456 383.584H268.502C268.502 383.584 266.723 303.873 274.73 275.812C281.294 252.908 300.326 227.949 307.071 219.533Z" fill="white" stroke="#263238" stroke-linecap="round" stroke-linejoin="round"/>
<path d="M256.491 74.5385C256.491 74.5385 255.145 100.82 255.59 108.395C256.034 115.969 253.365 130.661 256.936 137.778C260.507 144.896 271.183 160.045 276.966 161.379C282.749 162.714 290.78 158.265 293.449 156.041C296.118 153.817 309.476 147.132 314.381 140.411C319.286 133.691 319.274 123.05 319.274 123.05C319.274 123.05 326.404 121.716 328.183 115.476C329.963 109.236 325.959 103.898 325.959 103.898L316.16 102.564C308.432 101.173 301.383 97.2573 296.118 91.4305C287.21 81.6319 285.43 67.8298 276.076 64.259C266.723 60.6882 260.05 70.09 256.491 74.5385Z" fill="white"/>
<mask id="mask7_2038_897" style="mask-type:luminance" maskUnits="userSpaceOnUse" x="255" y="63" width="74" height="99">
<path d="M256.491 74.5385C256.491 74.5385 255.145 100.82 255.59 108.395C256.034 115.969 253.365 130.661 256.936 137.778C260.507 144.896 271.183 160.045 276.966 161.379C282.749 162.714 290.78 158.265 293.449 156.041C296.118 153.817 309.476 147.132 314.381 140.411C319.286 133.691 319.274 123.05 319.274 123.05C319.274 123.05 326.404 121.716 328.183 115.476C329.963 109.236 325.959 103.898 325.959 103.898L316.16 102.564C308.432 101.173 301.383 97.2573 296.118 91.4305C287.21 81.6319 285.43 67.8298 276.076 64.259C266.723 60.6882 260.05 70.09 256.491 74.5385Z" fill="white"/>
</mask>
<g mask="url(#mask7_2038_897)">
<path d="M328.183 115.512C329.963 109.284 325.959 103.934 325.959 103.934L316.16 102.599C308.432 101.208 301.383 97.2928 296.118 91.466C287.209 81.6674 285.43 67.8653 276.076 64.2945C266.723 60.7237 260.05 70.0895 256.491 74.5379C256.491 74.5379 261.962 67.9134 273.455 75.9566C284.949 83.9999 286.103 98.9562 301.817 103.176C317.531 107.396 314.465 108.154 314.465 108.154C314.465 108.154 315.992 122.329 311.015 133.834C306.037 145.34 289.879 153.792 283.422 157.591C280.489 159.311 276.521 159.467 273.047 159.118C274.17 160.152 275.509 160.923 276.966 161.379C282.761 162.725 290.78 158.265 293.449 156.04C296.118 153.816 309.476 147.132 314.381 140.411C319.286 133.69 319.274 123.05 319.274 123.05C319.274 123.05 326.404 121.751 328.183 115.512Z" fill="#FFC283"/>
<path opacity="0.5" d="M328.183 115.512C329.963 109.284 325.959 103.934 325.959 103.934L316.16 102.599C308.432 101.208 301.383 97.2928 296.118 91.466C287.209 81.6674 285.43 67.8653 276.076 64.2945C266.723 60.7237 260.05 70.0895 256.491 74.5379C256.491 74.5379 261.962 67.9134 273.455 75.9566C284.949 83.9999 286.103 98.9562 301.817 103.176C317.531 107.396 314.465 108.154 314.465 108.154C314.465 108.154 315.992 122.329 311.015 133.834C306.037 145.34 289.879 153.792 283.422 157.591C280.489 159.311 276.521 159.467 273.047 159.118C274.17 160.152 275.509 160.923 276.966 161.379C282.761 162.725 290.78 158.265 293.449 156.04C296.118 153.816 309.476 147.132 314.381 140.411C319.286 133.69 319.274 123.05 319.274 123.05C319.274 123.05 326.404 121.751 328.183 115.512Z" fill="white"/>
</g>
<path d="M256.491 74.5385C256.491 74.5385 255.145 100.82 255.59 108.395C256.034 115.969 253.365 130.661 256.936 137.778C260.507 144.896 271.183 160.045 276.966 161.379C282.749 162.714 290.78 158.265 293.449 156.041C296.118 153.817 309.476 147.132 314.381 140.411C319.286 133.691 319.274 123.05 319.274 123.05C319.274 123.05 326.404 121.716 328.183 115.476C329.963 109.236 325.959 103.898 325.959 103.898L316.16 102.564C308.432 101.173 301.383 97.2573 296.118 91.4305C287.21 81.6319 285.43 67.8298 276.076 64.259C266.723 60.6882 260.05 70.09 256.491 74.5385Z" stroke="#263238" stroke-linecap="round" stroke-linejoin="round"/>
<path d="M271.183 104.379C271.183 104.379 269.849 115.067 267.576 118.181C265.304 121.295 265.34 126.2 271.58 126.597" stroke="#263238" stroke-linecap="round" stroke-linejoin="round"/>
<path d="M267.179 133.33C267.179 133.33 274.742 139.558 286.32 134.665" stroke="#263238" stroke-linecap="round" stroke-linejoin="round"/>
<path d="M281.823 91.5748C283.35 90.3194 285.189 89.5029 287.143 89.2128C289.098 88.9226 291.095 89.1698 292.92 89.9277C299.256 92.5607 298.379 95.5664 298.379 95.5664" stroke="#263238" stroke-width="2" stroke-linecap="round" stroke-linejoin="round"/>
<path d="M269.969 91.1901C269.969 91.1901 263.32 83.2551 258.499 89.555" stroke="#263238" stroke-width="2" stroke-linecap="round" stroke-linejoin="round"/>
<path d="M264.991 104.836C264.991 106.796 264.15 108.443 263.104 108.443C262.058 108.443 261.204 106.844 261.204 104.836C261.204 102.829 262.046 101.229 263.104 101.229C264.162 101.229 264.991 102.913 264.991 104.836Z" fill="#263238"/>
<path d="M290.119 111.953C291.168 111.953 292.018 110.36 292.018 108.395C292.018 106.429 291.168 104.836 290.119 104.836C289.07 104.836 288.219 106.429 288.219 108.395C288.219 110.36 289.07 111.953 290.119 111.953Z" fill="#263238"/>
<path d="M352.229 199.239C352.229 199.239 366.043 185.437 377.176 188.106C388.309 190.775 408.796 205.924 401.666 228.635C394.537 251.346 377.621 275.392 363.362 289.639C349.103 303.886 336.202 324.373 321.498 327.943C306.794 331.514 305.027 305.677 310.377 285.659C315.727 265.641 344.666 218.861 344.666 218.861L352.229 199.239Z" fill="#FFC283"/>
<mask id="mask8_2038_897" style="mask-type:luminance" maskUnits="userSpaceOnUse" x="307" y="187" width="97" height="142">
<path d="M352.229 199.239C352.229 199.239 366.043 185.437 377.176 188.106C388.309 190.775 408.796 205.924 401.666 228.635C394.537 251.346 377.621 275.392 363.362 289.639C349.103 303.886 336.202 324.373 321.498 327.943C306.794 331.514 305.027 305.677 310.377 285.659C315.727 265.641 344.666 218.861 344.666 218.861L352.229 199.239Z" fill="white"/>
</mask>
<g mask="url(#mask8_2038_897)">
<path opacity="0.3" d="M382.574 190.09C387.383 196.005 398.817 211.43 394.982 219.738C390.172 230.162 374.543 216.131 374.543 223.754C374.543 231.376 381.36 237.376 380.554 245.395C379.749 253.414 366.932 260.219 364.925 265.833C362.917 271.448 370.143 272.638 365.333 279.455C360.524 286.272 345.291 309.909 331.261 315.92C319.803 320.838 321.715 327.09 312.289 325.046C313.353 326.404 314.804 327.408 316.45 327.925C318.096 328.443 319.861 328.449 321.51 327.943C336.202 324.336 349.163 303.898 363.362 289.639C377.561 275.38 394.537 251.346 401.666 228.635C407.738 209.266 393.743 195.404 382.574 190.09Z" fill="black"/>
</g>
<path d="M352.229 199.239C352.229 199.239 366.043 185.437 377.176 188.106C388.309 190.775 408.796 205.924 401.666 228.635C394.537 251.346 377.621 275.392 363.362 289.639C349.103 303.886 336.202 324.373 321.498 327.943C306.794 331.514 305.027 305.677 310.377 285.659C315.727 265.641 344.666 218.861 344.666 218.861L352.229 199.239Z" stroke="#263238" stroke-linecap="round" stroke-linejoin="round"/>
<path d="M325.514 115.068C325.514 115.068 326.26 102.119 321.03 102.396C318.324 102.528 317.94 113.733 318.829 117.737C319.719 121.74 317.05 127.98 315.716 135.999C314.381 144.018 315.271 151.629 317.05 154.262C318.829 156.895 320.164 159.155 320.164 159.155L321.955 174.304L337.585 173.859C337.585 173.859 335.806 159.155 337.585 152.038C339.364 144.92 342.731 124.061 339.533 114.767C335.024 101.867 327.161 94.4965 325.165 96.9011C323.783 98.5482 328.508 105.389 329.842 109.838C330.647 112.546 330.988 115.371 330.852 118.193C330.852 118.193 329.518 122.209 327.245 123.988C324.973 125.768 325.514 115.068 325.514 115.068Z" fill="white"/>
<mask id="mask9_2038_897" style="mask-type:luminance" maskUnits="userSpaceOnUse" x="315" y="96" width="26" height="79">
<path d="M325.514 115.068C325.514 115.068 326.26 102.119 321.03 102.396C318.324 102.528 317.94 113.733 318.829 117.737C319.719 121.74 317.05 127.98 315.716 135.999C314.381 144.018 315.271 151.629 317.05 154.262C318.829 156.895 320.164 159.155 320.164 159.155L321.955 174.304L337.585 173.859C337.585 173.859 335.806 159.155 337.585 152.038C339.364 144.92 342.731 124.061 339.533 114.767C335.024 101.867 327.161 94.4965 325.165 96.9011C323.783 98.5482 328.508 105.389 329.842 109.838C330.647 112.546 330.988 115.371 330.852 118.193C330.852 118.193 329.518 122.209 327.245 123.988C324.973 125.768 325.514 115.068 325.514 115.068Z" fill="white"/>
</mask>
<g mask="url(#mask9_2038_897)">
<path d="M337.537 152.038C339.316 144.908 342.683 124.061 339.485 114.767C335.024 101.867 327.161 94.4965 325.165 96.9011C325.069 97.0102 325.002 97.1429 324.973 97.2858C328.534 101.342 331.793 105.654 334.724 110.186C339.208 117.4 335.012 140.099 335.012 145.473C335.012 150.847 332.608 165.816 333.81 170.901C334.026 171.827 335.289 171.635 337.212 170.709C336.804 165.984 336.275 157.099 337.537 152.038Z" fill="#FFC283"/>
<path opacity="0.5" d="M337.537 152.038C339.316 144.908 342.683 124.061 339.485 114.767C335.024 101.867 327.161 94.4965 325.165 96.9011C325.069 97.0102 325.002 97.1429 324.973 97.2858C328.534 101.342 331.793 105.654 334.724 110.186C339.208 117.4 335.012 140.099 335.012 145.473C335.012 150.847 332.608 165.816 333.81 170.901C334.026 171.827 335.289 171.635 337.212 170.709C336.804 165.984 336.275 157.099 337.537 152.038Z" fill="white"/>
</g>
<path d="M325.514 115.068C325.514 115.068 326.26 102.119 321.03 102.396C318.324 102.528 317.94 113.733 318.829 117.737C319.719 121.74 317.05 127.98 315.716 135.999C314.381 144.018 315.271 151.629 317.05 154.262C318.829 156.895 320.164 159.155 320.164 159.155L321.955 174.304L337.585 173.859C337.585 173.859 335.806 159.155 337.585 152.038C339.364 144.92 342.731 124.061 339.533 114.767C335.024 101.867 327.161 94.4965 325.165 96.9011C323.783 98.5482 328.508 105.389 329.842 109.838C330.647 112.546 330.988 115.371 330.852 118.193C330.852 118.193 329.518 122.209 327.245 123.988C324.973 125.768 325.514 115.068 325.514 115.068Z" stroke="#263238" stroke-linecap="round" stroke-linejoin="round"/>
<path d="M309.355 103.657L327.738 106.603L328.616 109.669L308.514 107.541L309.355 103.657Z" fill="#263238"/>
<path d="M344.221 134.172C344.221 134.172 349.56 123.928 347.335 122.149C345.111 120.37 336.647 112.795 333.533 111.905C330.419 111.016 325.117 123.039 325.117 123.039C325.117 123.039 324.228 127.042 326.897 127.042C329.566 127.042 344.221 134.172 344.221 134.172Z" fill="white"/>
<mask id="mask10_2038_897" style="mask-type:luminance" maskUnits="userSpaceOnUse" x="324" y="111" width="24" height="24">
<path d="M344.221 134.172C344.221 134.172 349.56 123.928 347.335 122.149C345.111 120.37 336.647 112.795 333.533 111.905C330.419 111.016 325.117 123.039 325.117 123.039C325.117 123.039 324.228 127.042 326.897 127.042C329.566 127.042 344.221 134.172 344.221 134.172Z" fill="white"/>
</mask>
<g mask="url(#mask10_2038_897)">
<path d="M333.882 112.086C332.714 113.276 331.959 114.81 331.73 116.462C331.73 119.973 335.914 125.431 338.306 127.824C339.28 128.798 341.913 131.058 344.63 133.39C345.832 130.986 349.175 123.676 347.335 122.197C345.183 120.478 337.236 113.372 333.882 112.086Z" fill="#FFC283"/>
<path opacity="0.5" d="M333.882 112.086C332.714 113.276 331.959 114.81 331.73 116.462C331.73 119.973 335.914 125.431 338.306 127.824C339.28 128.798 341.913 131.058 344.63 133.39C345.832 130.986 349.175 123.676 347.335 122.197C345.183 120.478 337.236 113.372 333.882 112.086Z" fill="white"/>
</g>
<path d="M344.221 134.172C344.221 134.172 349.56 123.928 347.335 122.149C345.111 120.37 336.647 112.795 333.533 111.905C330.419 111.016 325.117 123.039 325.117 123.039C325.117 123.039 324.228 127.042 326.897 127.042C329.566 127.042 344.221 134.172 344.221 134.172Z" stroke="#263238" stroke-linecap="round" stroke-linejoin="round"/>
<path d="M341.096 142.239C341.096 142.239 347.78 131.996 345.556 130.216C343.332 128.437 334.868 120.863 331.754 119.973C328.64 119.083 323.338 131.106 323.338 131.106C323.338 131.106 322.448 135.11 325.117 135.11C327.786 135.11 341.096 142.239 341.096 142.239Z" fill="white"/>
<mask id="mask11_2038_897" style="mask-type:luminance" maskUnits="userSpaceOnUse" x="323" y="119" width="24" height="24">
<path d="M341.096 142.239C341.096 142.239 347.78 131.996 345.556 130.216C343.332 128.437 334.868 120.863 331.754 119.973C328.64 119.083 323.338 131.106 323.338 131.106C323.338 131.106 322.448 135.11 325.117 135.11C327.786 135.11 341.096 142.239 341.096 142.239Z" fill="white"/>
</mask>
<g mask="url(#mask11_2038_897)">
<path d="M332.091 120.453C330.92 121.646 330.165 123.185 329.938 124.841C329.938 128.34 334.122 133.81 336.515 136.203C337.489 137.177 340.122 139.437 342.839 141.77C344.041 139.365 347.384 132.043 345.544 130.564C343.392 128.845 335.433 121.74 332.091 120.453Z" fill="#FFC283"/>
<path opacity="0.5" d="M332.091 120.453C330.92 121.646 330.165 123.185 329.938 124.841C329.938 128.34 334.122 133.81 336.515 136.203C337.489 137.177 340.122 139.437 342.839 141.77C344.041 139.365 347.384 132.043 345.544 130.564C343.392 128.845 335.433 121.74 332.091 120.453Z" fill="white"/>
</g>
<path d="M341.096 142.239C341.096 142.239 347.78 131.996 345.556 130.216C343.332 128.437 334.868 120.863 331.754 119.973C328.64 119.083 323.338 131.106 323.338 131.106C323.338 131.106 322.448 135.11 325.117 135.11C327.786 135.11 341.096 142.239 341.096 142.239Z" stroke="#263238" stroke-linecap="round" stroke-linejoin="round"/>
<path d="M333.089 158.71C333.089 158.71 344.859 140.363 342.707 138.656C340.555 136.949 332.511 129.723 329.482 128.87C326.452 128.016 321.414 139.51 321.414 139.51C321.216 140.434 321.253 141.393 321.523 142.299C322.016 142.6 324.288 143.922 325.875 143.129C326.413 142.803 326.86 142.344 327.171 141.797C327.483 141.25 327.649 140.632 327.654 140.003L332.56 142.239L331.874 145.425" fill="white"/>
<mask id="mask12_2038_897" style="mask-type:luminance" maskUnits="userSpaceOnUse" x="321" y="128" width="22" height="31">
<path d="M333.089 158.71C333.089 158.71 344.859 140.363 342.707 138.656C340.555 136.949 332.511 129.723 329.482 128.87C326.452 128.016 321.414 139.51 321.414 139.51C321.216 140.434 321.253 141.393 321.523 142.299C322.016 142.6 324.288 143.922 325.875 143.129C326.413 142.803 326.86 142.344 327.171 141.797C327.483 141.25 327.649 140.632 327.654 140.003L332.56 142.239L331.874 145.425" fill="white"/>
</mask>
<g mask="url(#mask12_2038_897)">
<path d="M342.731 138.656C341.108 137.358 335.974 132.801 332.331 130.36L332.031 130.817C331.607 130.801 331.185 130.878 330.794 131.042C330.403 131.206 330.052 131.454 329.767 131.768C329.482 132.082 329.269 132.454 329.143 132.859C329.017 133.264 328.98 133.691 329.037 134.111C329.337 137.406 337.453 138.596 337.116 141.59C336.84 144.319 331.598 154.514 334.339 156.714C337.308 151.917 344.426 140.015 342.731 138.656Z" fill="#FFC283"/>
<path opacity="0.5" d="M342.731 138.656C341.108 137.358 335.974 132.801 332.331 130.36L332.031 130.817C331.607 130.801 331.185 130.878 330.794 131.042C330.403 131.206 330.052 131.454 329.767 131.768C329.482 132.082 329.269 132.454 329.143 132.859C329.017 133.264 328.98 133.691 329.037 134.111C329.337 137.406 337.453 138.596 337.116 141.59C336.84 144.319 331.598 154.514 334.339 156.714C337.308 151.917 344.426 140.015 342.731 138.656Z" fill="white"/>
</g>
<path d="M333.089 158.71C333.089 158.71 344.859 140.363 342.707 138.656C340.555 136.949 332.511 129.723 329.482 128.87C326.452 128.016 321.414 139.51 321.414 139.51C321.216 140.434 321.253 141.393 321.523 142.299C322.016 142.6 324.288 143.922 325.875 143.129C326.413 142.803 326.86 142.344 327.171 141.797C327.483 141.25 327.649 140.632 327.654 140.003L332.56 142.239L331.874 145.425" stroke="#263238" stroke-linecap="round" stroke-linejoin="round"/>
<path d="M340.651 314.586C330.852 323.483 317.495 334.172 309.932 323.483C302.37 312.795 304.137 258.909 302.803 247.74C301.468 236.571 306.806 214.34 303.693 203.652C300.579 192.964 301.913 171.587 301.913 171.587L344.666 165.432C344.666 165.432 350.894 197.893 350.004 217.538C349.115 237.184 357.134 254.052 358.42 266.964C359.707 279.877 355.306 292.356 350.846 297.25" fill="#FFC283"/>
<mask id="mask13_2038_897" style="mask-type:luminance" maskUnits="userSpaceOnUse" x="301" y="165" width="58" height="163">
<path d="M340.651 314.586C330.852 323.483 317.495 334.172 309.932 323.483C302.37 312.795 304.137 258.909 302.803 247.74C301.468 236.571 306.806 214.34 303.693 203.652C300.579 192.964 301.913 171.587 301.913 171.587L344.666 165.432C344.666 165.432 350.894 197.893 350.004 217.538C349.115 237.184 357.134 254.052 358.42 266.964C359.707 279.877 355.306 292.356 350.846 297.25" fill="white"/>
</mask>
<g mask="url(#mask13_2038_897)">
<path opacity="0.3" d="M358.913 278.65C360.116 266.964 355.787 261.734 355.956 254.604C353.19 243.904 349.379 231.4 349.944 217.55C350.834 197.953 344.606 165.443 344.606 165.443L327.774 167.848C327.173 171.335 327.305 179.474 331.153 198.518C337.97 232.182 345.989 246.609 341.576 263.441C337.164 280.273 313.118 319.948 321.943 319.54C330.768 319.131 356.112 305.509 358.913 278.65Z" fill="black"/>
</g>
<path d="M340.651 314.586C330.852 323.483 317.495 334.172 309.932 323.483C302.37 312.795 304.137 258.909 302.803 247.74C301.468 236.571 306.806 214.34 303.693 203.652C300.579 192.964 301.913 171.587 301.913 171.587L344.666 165.432C344.666 165.432 350.894 197.893 350.004 217.538C349.115 237.184 357.134 254.052 358.42 266.964C359.707 279.877 355.306 292.356 350.846 297.25" stroke="#263238" stroke-linecap="round" stroke-linejoin="round"/>
<path d="M270.293 99.4858L243.122 95.0254C243.122 95.0254 246.729 109.729 248.917 111.509C251.105 113.288 258.271 114.623 262.274 114.178C266.278 113.733 270.293 99.4858 270.293 99.4858Z" fill="white" stroke="#263238" stroke-linecap="round" stroke-linejoin="round"/>
<path d="M309.355 103.657L281.823 101.072C281.823 101.072 286.5 115.932 288.869 117.592C291.237 119.251 298.487 120.116 302.478 119.359C306.47 118.601 309.355 103.657 309.355 103.657Z" fill="white"/>
<mask id="mask14_2038_897" style="mask-type:luminance" maskUnits="userSpaceOnUse" x="281" y="101" width="29" height="19">
<path d="M309.355 103.657L281.823 101.072C281.823 101.072 286.5 115.932 288.869 117.592C291.237 119.251 298.487 120.116 302.478 119.359C306.47 118.601 309.355 103.657 309.355 103.657Z" fill="white"/>
</mask>
<g mask="url(#mask14_2038_897)">
<path d="M286.969 114.838C287.387 115.872 288.013 116.809 288.808 117.591C291.213 119.262 298.427 120.116 302.418 119.359C304.919 118.89 307.011 112.83 308.225 108.382L286.969 114.838Z" fill="#FFC283"/>
</g>
<path d="M309.355 103.657L281.823 101.072C281.823 101.072 286.5 115.932 288.869 117.592C291.237 119.251 298.487 120.116 302.478 119.359C306.47 118.601 309.355 103.657 309.355 103.657Z" stroke="#263238" stroke-linecap="round" stroke-linejoin="round"/>
<path d="M281.823 101.073C280.203 99.8579 278.3 99.075 276.293 98.7974C274.287 98.5198 272.243 98.7566 270.354 99.4857" fill="white"/>
<path d="M281.823 101.073C280.203 99.8579 278.3 99.075 276.293 98.7974C274.287 98.5198 272.243 98.7566 270.354 99.4857" stroke="#263238" stroke-width="2" stroke-linecap="round" stroke-linejoin="round"/>
<path d="M243.122 95.0254L269.572 99.8946" stroke="#263238" stroke-width="2" stroke-linecap="round" stroke-linejoin="round"/>
<path d="M282.028 101.842L309.355 103.657" stroke="#263238" stroke-width="2" stroke-linecap="round" stroke-linejoin="round"/>
<path d="M270.293 99.4858L243.122 95.0254C243.122 95.0254 246.729 109.729 248.917 111.509C251.105 113.288 258.271 114.623 262.274 114.178C266.278 113.733 270.293 99.4858 270.293 99.4858Z" fill="white"/>
<mask id="mask15_2038_897" style="mask-type:luminance" maskUnits="userSpaceOnUse" x="243" y="95" width="28" height="20">
<path d="M270.293 99.4858L243.122 95.0254C243.122 95.0254 246.729 109.729 248.917 111.509C251.105 113.288 258.271 114.623 262.274 114.178C266.278 113.733 270.293 99.4858 270.293 99.4858Z" fill="white"/>
</mask>
<g mask="url(#mask15_2038_897)">
<path d="M248.628 111.22C248.715 111.325 248.812 111.421 248.917 111.508C251.141 113.288 258.271 114.622 262.274 114.177C264.931 113.877 267.588 107.517 269.079 103.261L248.628 111.22Z" fill="#FFC283"/>
</g>
<path d="M270.293 99.4858L243.122 95.0254C243.122 95.0254 246.729 109.729 248.917 111.509C251.105 113.288 258.271 114.623 262.274 114.178C266.278 113.733 270.293 99.4858 270.293 99.4858Z" stroke="#263238" stroke-linecap="round" stroke-linejoin="round"/>
<path d="M277.363 130.937L277.519 130.324C277.266 130.493 277.194 130.697 277.363 130.937Z" fill="#FFC283"/>
</g>
</svg>
