<svg width="298" height="273" viewBox="0 0 298 273" fill="none" xmlns="http://www.w3.org/2000/svg">
<path d="M142.564 272.019C210.941 272.019 266.371 263.512 266.371 253.017C266.371 242.523 210.941 234.015 142.564 234.015C74.1868 234.015 18.7563 242.523 18.7563 253.017C18.7563 263.512 74.1868 272.019 142.564 272.019Z" fill="#B8DEEA"/>
<path opacity="0.5" d="M142.564 272.019C210.941 272.019 266.371 263.512 266.371 253.017C266.371 242.523 210.941 234.015 142.564 234.015C74.1868 234.015 18.7563 242.523 18.7563 253.017C18.7563 263.512 74.1868 272.019 142.564 272.019Z" fill="white"/>
<path d="M142.564 262.852C184.376 262.852 218.271 257.649 218.271 251.231C218.271 244.814 184.376 239.611 142.564 239.611C100.752 239.611 66.8571 244.814 66.8571 251.231C66.8571 257.649 100.752 262.852 142.564 262.852Z" stroke="white" stroke-miterlimit="10"/>
<path d="M142.564 258.359C168.204 258.359 188.99 255.168 188.99 251.231C188.99 247.294 168.204 244.103 142.564 244.103C116.923 244.103 96.1379 247.294 96.1379 251.231C96.1379 255.168 116.923 258.359 142.564 258.359Z" stroke="white" stroke-miterlimit="10"/>
<path d="M142.564 255.39C157.521 255.39 169.646 253.528 169.646 251.231C169.646 248.934 157.521 247.072 142.564 247.072C127.606 247.072 115.481 248.934 115.481 251.231C115.481 253.528 127.606 255.39 142.564 255.39Z" stroke="white" stroke-miterlimit="10"/>
<path d="M142.564 252.731C147.973 252.731 152.359 252.06 152.359 251.231C152.359 250.403 147.973 249.731 142.564 249.731C137.154 249.731 132.769 250.403 132.769 251.231C132.769 252.06 137.154 252.731 142.564 252.731Z" stroke="white" stroke-miterlimit="10"/>
<path d="M196.506 149.728V142.307" stroke="#263238" stroke-linecap="round" stroke-linejoin="round"/>
<path d="M196.506 138.02V133.067" stroke="#263238" stroke-linecap="round" stroke-linejoin="round"/>
<path d="M216.278 133.075V118.899" stroke="#263238" stroke-linecap="round" stroke-linejoin="round"/>
<path d="M192.546 110.66V96.4839" stroke="#263238" stroke-linecap="round" stroke-linejoin="round"/>
<path d="M192.546 90.8801V82.9745" stroke="#263238" stroke-linecap="round" stroke-linejoin="round"/>
<path d="M192.546 56.384V48.4705" stroke="#263238" stroke-linecap="round" stroke-linejoin="round"/>
<path d="M202.158 88.2608V69.7509" stroke="#263238" stroke-linecap="round" stroke-linejoin="round"/>
<path d="M205.73 124.177V116.264" stroke="#263238" stroke-linecap="round" stroke-linejoin="round"/>
<path d="M172.44 72.7511V64.8375" stroke="#263238" stroke-linecap="round" stroke-linejoin="round"/>
<path d="M130.904 118.899V110.994" stroke="#263238" stroke-linecap="round" stroke-linejoin="round"/>
<path d="M216.278 116.597V88.5782" stroke="#263238" stroke-linecap="round" stroke-linejoin="round"/>
<path d="M75.85 140.171V117.883" stroke="#263238" stroke-linecap="round" stroke-linejoin="round"/>
<path d="M75.85 113.47V106.048" stroke="#263238" stroke-linecap="round" stroke-linejoin="round"/>
<path d="M109.473 162.92V155.49" stroke="#263238" stroke-linecap="round" stroke-linejoin="round"/>
<path d="M109.473 151.379V143.958" stroke="#263238" stroke-linecap="round" stroke-linejoin="round"/>
<path d="M87.7164 132.591V125.17" stroke="#263238" stroke-linecap="round" stroke-linejoin="round"/>
<path d="M87.7164 80.6646V73.2431" stroke="#263238" stroke-linecap="round" stroke-linejoin="round"/>
<path d="M99.9163 108.525V83.6331" stroke="#263238" stroke-linecap="round" stroke-linejoin="round"/>
<path d="M59.2846 194.375C59.2846 194.375 57.4035 196.138 62.8565 201.781C68.3094 207.425 78.2947 221.926 90.3357 218.156C102.377 214.386 101.821 203.67 113.862 200.281C125.903 196.892 131.555 202.162 129.864 207.242C128.173 212.322 119.545 217.973 123.649 223.053C127.753 228.133 133.968 225.879 144.167 219.878C154.367 213.878 166.392 205.012 169.956 208.583C173.52 212.155 169.749 218.553 169.003 222.037C168.257 225.522 176.353 223.077 178.607 220.45C180.862 217.823 185.751 208.028 189.529 208.028C193.307 208.028 194.887 216.211 199.451 217.553C199.451 217.553 203.832 215.529 204.396 214.028C204.683 213.196 205.131 212.427 205.714 211.766C205.714 211.766 209.103 216.1 211.548 217.227C213.992 218.354 214.183 217.227 214.183 217.227C214.183 217.227 218.326 208.568 220.771 201.606C223.216 194.645 214.373 188.43 208.722 186.74C203.07 185.049 188.958 178.802 181.06 167.349C173.162 155.895 165.058 139.869 158.835 139.869C152.612 139.869 145.842 146.457 127.967 159.634C110.092 172.81 81.2871 183.35 74.8895 185.827C68.492 188.303 62.4834 189.788 59.2846 194.375Z" fill="#FFC283"/>
<mask id="mask0_209_1797" style="mask-type:luminance" maskUnits="userSpaceOnUse" x="58" y="139" width="164" height="87">
<path d="M59.2846 194.375C59.2846 194.375 57.4035 196.138 62.8565 201.781C68.3094 207.425 78.2947 221.926 90.3357 218.156C102.377 214.386 101.821 203.67 113.862 200.281C125.903 196.892 131.555 202.162 129.864 207.242C128.173 212.322 119.545 217.973 123.649 223.053C127.753 228.133 133.968 225.879 144.167 219.878C154.367 213.878 166.392 205.012 169.956 208.583C173.52 212.155 169.749 218.553 169.003 222.037C168.257 225.522 176.353 223.077 178.607 220.45C180.862 217.823 185.751 208.028 189.529 208.028C193.307 208.028 194.887 216.211 199.451 217.553C199.451 217.553 203.832 215.529 204.396 214.028C204.683 213.196 205.131 212.427 205.714 211.766C205.714 211.766 209.103 216.1 211.548 217.227C213.992 218.354 214.183 217.227 214.183 217.227C214.183 217.227 218.326 208.568 220.771 201.606C223.216 194.645 214.373 188.43 208.722 186.74C203.07 185.049 188.958 178.802 181.06 167.349C173.162 155.895 165.058 139.869 158.835 139.869C152.612 139.869 145.842 146.457 127.967 159.634C110.092 172.81 81.2871 183.35 74.8895 185.827C68.492 188.303 62.4834 189.788 59.2846 194.375Z" fill="white"/>
</mask>
<g mask="url(#mask0_209_1797)">
<path opacity="0.5" d="M59.2846 194.375C59.2846 194.375 57.4035 196.138 62.8565 201.781C68.3094 207.425 78.2947 221.926 90.3357 218.156C102.377 214.386 101.821 203.67 113.862 200.281C125.903 196.892 131.555 202.162 129.864 207.242C128.173 212.322 119.545 217.973 123.649 223.053C127.753 228.133 133.968 225.879 144.167 219.878C154.367 213.878 166.392 205.012 169.956 208.583C173.52 212.155 169.749 218.553 169.003 222.037C168.257 225.522 176.353 223.077 178.607 220.45C180.862 217.823 185.751 208.028 189.529 208.028C193.307 208.028 194.887 216.211 199.451 217.553C199.451 217.553 203.832 215.529 204.396 214.028C204.683 213.196 205.131 212.427 205.714 211.766C205.714 211.766 209.103 216.1 211.548 217.227C213.992 218.354 214.183 217.227 214.183 217.227C214.183 217.227 218.326 208.568 220.771 201.606C223.216 194.645 214.373 188.43 208.722 186.74C203.07 185.049 188.958 178.802 181.06 167.349C173.162 155.895 165.058 139.869 158.835 139.869C152.612 139.869 145.842 146.457 127.967 159.634C110.092 172.81 81.2871 183.35 74.8895 185.827C68.492 188.303 62.4834 189.788 59.2846 194.375Z" fill="white"/>
</g>
<path d="M59.2846 194.375C59.2846 194.375 57.4035 196.138 62.8565 201.781C68.3094 207.425 78.2947 221.926 90.3357 218.156C102.377 214.386 101.821 203.67 113.862 200.281C125.903 196.892 131.555 202.162 129.864 207.242C128.173 212.322 119.545 217.973 123.649 223.053C127.753 228.133 133.968 225.879 144.167 219.878C154.367 213.878 166.392 205.012 169.956 208.583C173.52 212.155 169.749 218.553 169.003 222.037C168.257 225.522 176.353 223.077 178.607 220.45C180.862 217.823 185.751 208.028 189.529 208.028C193.307 208.028 194.887 216.211 199.451 217.553C199.451 217.553 203.832 215.529 204.396 214.028C204.683 213.196 205.131 212.427 205.714 211.766C205.714 211.766 209.103 216.1 211.548 217.227C213.992 218.354 214.183 217.227 214.183 217.227C214.183 217.227 218.326 208.568 220.771 201.606C223.216 194.645 214.373 188.43 208.722 186.74C203.07 185.049 188.958 178.802 181.06 167.349C173.162 155.895 165.058 139.869 158.835 139.869C152.612 139.869 145.842 146.457 127.967 159.634C110.092 172.81 81.2871 183.35 74.8895 185.827C68.492 188.303 62.4834 189.788 59.2846 194.375Z" stroke="#263238" stroke-linecap="round" stroke-linejoin="round"/>
<path d="M73.5005 150.212C73.5005 150.212 70.9844 154.45 71.7702 154.919C72.556 155.387 74.1514 152.252 74.1514 152.252C74.1514 152.252 73.6831 155.077 74.3102 154.76C74.9372 154.442 76.612 151.212 77.1359 149.902C77.6597 148.593 80.2711 147.227 78.39 147.227C76.5088 147.227 74.1276 148.64 73.5005 150.212Z" fill="white" stroke="#263238" stroke-linecap="round" stroke-linejoin="round"/>
<path d="M225.327 142.505C225.327 142.505 226.915 146.807 226.121 146.807C225.327 146.807 223.898 144.33 223.898 144.33C223.898 144.33 223.382 146.156 222.859 145.124C222.335 144.092 218.818 141.338 218.033 140.298C217.247 139.258 219.731 138.71 220.906 138.988C222.706 139.678 224.25 140.906 225.327 142.505Z" fill="white" stroke="#263238" stroke-linecap="round" stroke-linejoin="round"/>
<path d="M221.263 136.536C219.445 135.694 214.119 136.083 211.04 134.678C207.96 133.273 201.515 124.971 199.34 122.09C197.165 119.208 187.974 110.85 186.95 109.572C185.926 108.294 177.806 96.7058 177.195 94.1817C176.702 92.1577 175.258 83.1805 172.686 78.1878C172.686 78.1878 169.257 72.2507 166.678 70.1869C164.098 68.1232 156.502 67.5359 151.596 68.0042C146.691 68.4725 131.753 72.7666 131.753 72.7666C131.753 72.7666 122.474 75.5209 118.863 78.7831C115.251 82.0454 114.561 95.6342 114.219 98.2139C113.878 100.794 106.996 113.168 106.139 114.541C105.282 115.914 97.0269 125.201 95.1378 128.297C93.2487 131.392 87.7481 140.33 84.8192 142.052C81.8903 143.775 76.5723 143.941 74.8499 144.973C73.1274 146.005 69.0079 153.395 69.0079 154.427C69.0079 155.458 70.3811 154.768 71.2383 153.569C72.0956 152.371 73.4767 149.958 74.5086 149.601L77.6041 148.569C76.7533 149.767 75.8336 150.914 74.8499 152.006C73.818 153.037 75.0245 154.236 78.636 150.799C78.636 150.799 80.1838 148.569 81.7316 148.418C83.2794 148.267 85.8511 145.497 85.8511 145.497C85.8511 145.497 94.9632 138.099 101.329 132.257C107.695 126.415 114.029 116.438 117.656 110.422C121.284 104.405 125.856 92.6498 125.856 92.6498C125.856 92.6498 128.57 98.9997 131.142 102.135C133.714 105.27 138.801 107.334 139.492 109.906C140.183 112.477 133.475 119.367 130.38 125.034C127.284 130.702 127.11 137.075 127.8 141.544C128.491 146.013 134.674 154.776 137.603 158.387C140.532 161.999 143.445 165.952 143.445 165.952C142.585 166.788 141.599 167.484 140.524 168.015C138.976 168.706 131.753 174.722 129.173 180.715C126.594 186.708 121.093 199.971 120.926 200.654C120.76 201.336 116.958 207.361 116.958 212.52C116.958 217.68 118.76 217.449 119.704 218.021C122.173 219.497 124.006 208.56 125.554 202.543C127.102 196.526 132.944 187.073 139.135 183.295C143.256 180.839 147.566 178.715 152.025 176.945C152.025 176.945 150.652 186.748 150.136 193.613C149.62 200.479 151.335 207.901 149.104 215.449C146.874 222.998 145.493 225.077 144.286 227.998C143.08 230.919 140.675 237.793 140.675 241.404C140.675 245.016 143.429 245.016 145.834 242.095C148.239 239.174 148.215 227.657 149.803 225.077C151.39 222.498 161.153 210.464 163.042 199.979C164.931 189.494 162.185 183.311 163.042 177.453C163.899 171.595 165.423 167.484 169.059 158.713C172.694 149.942 173.21 136.377 171.305 128.098C169.4 119.819 162.876 110.739 163.05 106.27C163.225 101.802 165.431 100.389 164.773 93.3721C164.503 90.5067 161.677 85.1251 162.534 84.7759C163.148 84.6453 163.789 84.7498 164.33 85.0687C164.871 85.3876 165.272 85.8977 165.455 86.4983C167.281 91.2607 168.424 95.6819 170.94 100.135C172.163 102.395 173.534 104.572 175.044 106.651C179.266 112.255 186.64 121.502 193.585 126.646C200.531 131.789 210.357 138.187 210.357 138.187C210.357 138.187 213.214 140.647 214.77 140.655C216.326 140.663 218.104 142.727 218.104 142.727C222.073 145.767 223.12 144.441 221.993 143.521C220.898 142.54 219.862 141.496 218.89 140.393L222.065 141.092C223.12 141.33 224.747 143.576 225.724 144.679C226.7 145.783 228.105 146.33 228.042 145.299C227.978 144.267 223.081 137.385 221.263 136.536Z" fill="white" stroke="#263238" stroke-linecap="round" stroke-linejoin="round"/>
<path d="M142.032 243.984C142.032 243.984 142.738 243.849 142.738 242.571V240.73" stroke="#263238" stroke-linecap="round" stroke-linejoin="round"/>
<path d="M143.866 243.436C144.204 242.691 144.304 241.859 144.151 241.055" stroke="#263238" stroke-linecap="round" stroke-linejoin="round"/>
<path d="M145.429 242.444C145.579 241.849 145.665 241.24 145.683 240.627" stroke="#263238" stroke-linecap="round" stroke-linejoin="round"/>
<path d="M119.664 217.394C119.664 217.394 120.371 217.108 120.514 215.41" stroke="#263238" stroke-linecap="round" stroke-linejoin="round"/>
<path d="M118.244 217.108C118.571 216.533 118.812 215.912 118.958 215.267" stroke="#263238" stroke-linecap="round" stroke-linejoin="round"/>
<path d="M117.537 215.124L118.244 213.997" stroke="#263238" stroke-linecap="round" stroke-linejoin="round"/>
<path d="M117.117 213.711L117.537 212.576" stroke="#263238" stroke-linecap="round" stroke-linejoin="round"/>
<path d="M146.588 240.746V239.603" stroke="#263238" stroke-linecap="round" stroke-linejoin="round"/>
<path d="M136.206 85.8477C137.116 86.0692 138.048 86.1864 138.984 86.1969" stroke="#263238" stroke-linecap="round" stroke-linejoin="round"/>
<path d="M131.412 83.9663C132.609 84.6277 133.873 85.1599 135.182 85.5538" stroke="#263238" stroke-linecap="round" stroke-linejoin="round"/>
<path d="M152.787 75.9498C152.046 78.5365 150.577 80.8561 148.557 82.6331" stroke="#263238" stroke-linecap="round" stroke-linejoin="round"/>
<path d="M100.162 121.891C100.162 121.891 105.123 123.875 107.941 127.519C110.759 131.162 115.553 138.941 115.553 138.941C115.553 138.941 119.188 131.162 119.355 125.034C119.521 118.907 123.49 101.706 123.823 99.5553C124.221 97.8702 124.891 96.2615 125.808 94.7929C125.808 94.7929 128.292 100.587 130.943 102.897C133.594 105.207 138.722 108.032 138.222 110.676C137.722 113.319 133.094 119.288 130.285 123.915C127.475 128.543 126.149 133.353 126.483 139.79C126.816 146.227 129.792 150.053 128.634 152.863C127.475 155.673 106.456 166.436 96.3601 171.063C86.2638 175.691 65.7377 187.629 62.5627 190.407C59.3877 193.185 59.2528 194.375 59.2528 194.375C59.2528 194.375 62.4278 190.899 66.206 192.224C69.9842 193.55 77.1278 207.448 79.4455 209.599C81.7633 211.75 87.0575 211.092 91.0262 204.305C94.9949 197.519 97.8127 191.066 113.203 181.636C128.594 172.206 139.047 164.261 147.652 156.673C156.256 149.085 156.922 145.91 156.922 145.91C157.644 152.556 158.862 159.138 160.566 165.602C163.209 175.207 173.472 196.058 173.805 203.003C174.139 209.949 171.813 218.084 169.043 222.053C166.273 226.022 161.899 229.665 162.756 232.642C163.614 235.618 170.035 235.626 175.663 230.165C181.29 224.704 184.433 219.735 187.41 215.433C190.386 211.131 194.554 205.004 197.673 206.329C200.792 207.655 196.181 214.933 199.491 217.584C202.801 220.235 206.444 214.774 210.246 207.321C214.048 199.868 215.215 195.241 216.04 196.733C216.866 198.225 216.834 205.17 215.246 210.139C213.659 215.108 214.088 218.91 215.413 216.425C216.739 213.941 222.2 201.86 224.144 192.931C226.089 184.001 224.938 179.024 222.985 178.532C221.033 178.04 206.102 170.42 206.102 170.42C206.102 170.42 211.397 159.165 209.412 154.204C207.428 149.243 197.832 155.53 188.561 147.584C179.29 139.639 172.686 128.384 171.019 124.749C169.352 121.113 164.733 110.517 163.741 108.032C162.748 105.548 163.741 105.215 164.399 101.079C165.058 96.9439 164.399 94.5627 164.82 93.4356C165.241 92.3085 164.399 88.1731 164.399 88.1731C164.399 88.1731 167.709 96.6105 169.694 103.064C171.678 109.517 173.964 123.217 175.274 126.511C176.583 129.805 180.242 136.932 180.242 136.932C180.242 136.932 187.854 129.987 190.998 126.011C192.872 123.658 194.378 121.036 195.466 118.232C195.466 118.232 190.704 112.938 188.513 110.461C186.323 107.985 178.687 96.3486 177.941 95.2453C177.194 94.142 176.282 85.649 174.964 82.5058C173.646 79.3626 169.829 73.5683 169.829 73.5683C167.373 77.489 164.028 80.7765 160.066 83.1646C153.613 86.9746 147.366 92.6022 137.722 92.4355C131.102 92.3244 125.744 90.5543 123.014 88.9986C120.526 87.5141 118.173 85.8142 115.981 83.9187C115.981 83.9187 113.894 91.5862 113.894 93.9674C113.894 96.3486 114.394 97.436 113.1 99.9204C111.806 102.405 107.472 111.676 106.147 113.16C104.821 114.644 100.162 121.891 100.162 121.891Z" fill="#FFC283" stroke="#263238" stroke-linecap="round" stroke-linejoin="round"/>
<path d="M153.7 109.588C153.7 109.588 161.264 128.495 158.423 143.624" stroke="#263238" stroke-linecap="round" stroke-linejoin="round"/>
<path d="M115.41 86.1333C115.41 86.1333 117.99 85.6491 118.966 87.7207C119.942 89.7924 120.903 91.1179 122.998 90.4671C125.094 89.8162 126.395 93.5389 128.007 93.5389C129.618 93.5389 130.753 91.4354 133.34 92.5705C135.928 93.7055 137.214 95.801 139.476 95.1501C141.738 94.4993 142.381 91.1179 145.453 91.9196C148.525 92.7213 150.62 92.888 151.914 91.2767C153.208 89.6654 151.589 87.4032 155.303 87.4032C159.018 87.4032 159.669 87.0778 160.312 85.2998C160.955 83.5219 161.105 81.7439 164.026 81.7439C166.947 81.7439 168.067 81.4264 168.067 79.4817C168.067 77.5371 168.551 75.767 169.845 75.767H171.13" stroke="#263238" stroke-linecap="round" stroke-linejoin="round"/>
<path d="M122.514 162.729L119.339 164.428" stroke="#263238" stroke-linecap="round" stroke-linejoin="round"/>
<path d="M151.803 110.85C151.803 110.85 155.272 126.289 149.287 139.211C144.635 149.251 134.095 156.244 125.776 160.935" stroke="#263238" stroke-linecap="round" stroke-linejoin="round"/>
<path d="M141.635 116.645C140.517 121.806 138.857 126.834 136.682 131.646" stroke="#263238" stroke-linecap="round" stroke-linejoin="round"/>
<path d="M142.667 110.533C142.667 110.533 142.556 111.692 142.215 113.66" stroke="#263238" stroke-linecap="round" stroke-linejoin="round"/>
<path d="M128.626 152.839C128.626 152.839 141.087 143.941 144.238 132.281C146.135 125.193 146.564 117.793 145.501 110.533" stroke="#263238" stroke-linecap="round" stroke-linejoin="round"/>
<path d="M168.13 140.084C168.567 141.187 169.011 142.267 169.464 143.306" stroke="#263238" stroke-linecap="round" stroke-linejoin="round"/>
<path d="M158.423 109.588C158.423 109.588 162.129 124.177 166.963 137.084" stroke="#263238" stroke-linecap="round" stroke-linejoin="round"/>
<path d="M183.87 180.85L182.417 177.977" stroke="#263238" stroke-linecap="round" stroke-linejoin="round"/>
<path d="M197.633 206.29C197.633 206.29 192.601 197.519 184.846 182.715" stroke="#263238" stroke-linecap="round" stroke-linejoin="round"/>
<path d="M216 196.693C216 196.693 194.673 182.406 181.751 160.641" stroke="#263238" stroke-linecap="round" stroke-linejoin="round"/>
<path d="M206.071 170.381C206.071 170.381 194.355 163.166 178.599 147.092" stroke="#263238" stroke-linecap="round" stroke-linejoin="round"/>
<path d="M182.243 121.439C179.862 111.763 177.195 94.1819 177.195 94.1819C177.195 94.1819 177.647 106.088 177.988 114.311" stroke="#263238" stroke-linecap="round" stroke-linejoin="round"/>
<path d="M183.322 125.344C183.14 124.796 182.949 124.161 182.759 123.455" stroke="#263238" stroke-linecap="round" stroke-linejoin="round"/>
<path d="M117.45 121.875C117.45 112.739 114.275 98.214 114.275 98.214C114.275 98.214 115.91 116.208 114.965 122.193" stroke="#263238" stroke-linecap="round" stroke-linejoin="round"/>
<path d="M99.1861 181.279C88.6452 187.113 78.8584 193.701 78.8584 193.701C78.8584 193.701 86.3751 196.36 88.4547 199.535C90.0977 202.075 89.1373 206.02 88.669 207.551C89.5815 206.565 90.3803 205.478 91.0502 204.313C95.0189 197.527 97.8367 191.073 113.227 181.644C128.618 172.214 139.048 164.261 147.652 156.673C156.256 149.085 156.923 145.91 156.923 145.91C156.796 146.068 156.645 146.219 156.494 146.394C142.905 162.165 109.489 175.564 99.1861 181.279Z" fill="#FFC283"/>
<mask id="mask1_209_1797" style="mask-type:luminance" maskUnits="userSpaceOnUse" x="78" y="145" width="79" height="63">
<path d="M99.1861 181.279C88.6452 187.113 78.8584 193.701 78.8584 193.701C78.8584 193.701 86.3751 196.36 88.4547 199.535C90.0977 202.075 89.1373 206.02 88.669 207.551C89.5815 206.565 90.3803 205.478 91.0502 204.313C95.0189 197.527 97.8367 191.073 113.227 181.644C128.618 172.214 139.048 164.261 147.652 156.673C156.256 149.085 156.923 145.91 156.923 145.91C156.796 146.068 156.645 146.219 156.494 146.394C142.905 162.165 109.489 175.564 99.1861 181.279Z" fill="white"/>
</mask>
<g mask="url(#mask1_209_1797)">
<path opacity="0.5" d="M99.1861 181.279C88.6452 187.113 78.8584 193.701 78.8584 193.701C78.8584 193.701 86.3751 196.36 88.4547 199.535C90.0977 202.075 89.1373 206.02 88.669 207.551C89.5815 206.565 90.3803 205.478 91.0502 204.313C95.0189 197.527 97.8367 191.073 113.227 181.644C128.618 172.214 139.048 164.261 147.652 156.673C156.256 149.085 156.923 145.91 156.923 145.91C156.796 146.068 156.645 146.219 156.494 146.394C142.905 162.165 109.489 175.564 99.1861 181.279Z" fill="white"/>
</g>
<path d="M99.1861 181.279C88.6452 187.113 78.8584 193.701 78.8584 193.701C78.8584 193.701 86.3751 196.36 88.4547 199.535C90.0977 202.075 89.1373 206.02 88.669 207.551C89.5815 206.565 90.3803 205.478 91.0502 204.313C95.0189 197.527 97.8367 191.073 113.227 181.644C128.618 172.214 139.048 164.261 147.652 156.673C156.256 149.085 156.923 145.91 156.923 145.91C156.796 146.068 156.645 146.219 156.494 146.394C142.905 162.165 109.489 175.564 99.1861 181.279Z" stroke="#263238" stroke-linecap="round" stroke-linejoin="round"/>
<path d="M156.922 145.886L157.01 146.68C158.446 144.417 158.716 143.679 156.922 145.886Z" fill="white" stroke="#263238" stroke-linecap="round" stroke-linejoin="round"/>
<path d="M152.065 176.945C152.065 176.945 157.899 174.365 158.153 171.19C158.407 168.015 156.248 154.942 154.089 150.625" fill="white"/>
<path d="M152.065 176.945C152.065 176.945 157.899 174.365 158.153 171.19C158.407 168.015 156.248 154.942 154.089 150.625" stroke="#263238" stroke-linecap="round" stroke-linejoin="round"/>
<path d="M138.992 72.87C136.373 73.9416 133.745 75.0369 131.126 76.1879C127.626 77.7277 123.355 78.8151 119.537 78.2516C111.521 77.0689 110.632 71.4254 113.005 69.6395C115.378 67.8536 118.648 65.4883 115.386 65.4883C112.124 65.4883 102.631 64.8691 99.9558 54.1775C97.2809 43.4858 110.274 36.2072 117.116 33.5403C123.958 30.8733 126.641 29.8573 123.109 27.484C119.577 25.1107 117.172 19.4673 123.403 12.9348C129.634 6.40232 137.063 14.1254 137.063 14.1254C137.063 14.1254 142.111 5.21964 152.795 6.10863C163.479 6.99761 164.955 15.0144 167.63 13.8C170.305 12.5855 167.336 12.6173 164.963 9.03753C162.59 5.45776 167.344 4.27509 172.385 6.65631C175.694 8.24379 176.845 12.776 177.147 16.078C177.512 20.515 176.568 24.317 171.805 25.5156C170.011 25.968 168.146 26.0712 166.336 26.4839C163.82 27.0633 161.455 28.4762 160.542 31.0003C158.161 37.5328 161.431 40.795 167.686 42.9064C169.368 43.5205 170.83 44.6199 171.886 46.0653C172.943 47.5108 173.548 49.2373 173.623 51.0263C173.789 55.2252 170.741 58.17 167.32 60.1226C158.129 65.3057 148.564 68.949 138.992 72.87Z" fill="#263238" stroke="#263238" stroke-width="0.5" stroke-miterlimit="10"/>
<path d="M136.936 17.562C137.326 17.7757 137.684 18.0428 138 18.3558" stroke="white" stroke-width="0.5" stroke-linecap="round" stroke-linejoin="round"/>
<path d="M110.719 52.201C108.116 51.6692 105.957 50.4706 105.425 47.4385C104.179 40.4774 111.394 36.9929 124.324 35.7547C137.254 34.5164 131.785 29.5318 128.554 23.8486C126.014 19.364 130.936 16.2525 135.023 16.9113" stroke="white" stroke-width="0.5" stroke-linecap="round" stroke-linejoin="round"/>
<path d="M125.871 62.2178C125.871 62.2178 124.57 55.1933 120.593 53.4867C118.855 52.693 115.974 52.82 113.18 52.5898" stroke="white" stroke-width="0.5" stroke-linecap="round" stroke-linejoin="round"/>
<path d="M137.254 57.1619C137.254 57.1619 135.761 50.7008 130.538 46.9703C125.316 43.2397 129.3 35.7786 141.984 32.048C154.668 28.3174 147.699 21.6024 148.199 14.6334C148.699 7.66432 158.399 11.9029 162.875 15.6335C167.352 19.364 174.067 19.364 174.559 14.6334C175.051 9.90267 170.083 8.17231 170.083 10.4107C170.083 12.649 172.575 13.1411 172.575 13.1411" stroke="white" stroke-width="0.5" stroke-linecap="round" stroke-linejoin="round"/>
<path d="M159.082 47.9307C160.558 49.2563 162.201 50.4786 164.638 50.4786C170.607 50.4786 173.091 55.2411 169.861 57.4477" stroke="white" stroke-width="0.5" stroke-linecap="round" stroke-linejoin="round"/>
<path d="M145.715 60.1463C145.715 60.1463 145.961 46.9702 151.684 44.9779C154.541 43.9858 156.28 45.351 158.034 46.9702" stroke="white" stroke-width="0.5" stroke-linecap="round" stroke-linejoin="round"/>
<path d="M154.914 34.5323C159.391 30.8017 154.914 25.3329 159.637 22.3484C164.36 19.364 166.606 24.8328 172.575 23.8407" stroke="white" stroke-width="0.5" stroke-linecap="round" stroke-linejoin="round"/>
<path d="M142.262 61.0513C142.262 61.0513 135.269 49.939 138.746 41.4936C141.73 34.2468 148.191 37.0487 152.795 35.6517" stroke="white" stroke-width="0.5" stroke-linecap="round" stroke-linejoin="round"/>
<path d="M102.766 59.043C102.3 58.6056 101.858 58.1446 101.44 57.6619" stroke="white" stroke-width="0.5" stroke-linecap="round" stroke-linejoin="round"/>
<path d="M125.999 67.8614C125.999 67.8614 121.585 61.4242 117.331 60.8924C113.87 60.4876 110.076 63.9165 104.988 60.8051" stroke="white" stroke-width="0.5" stroke-linecap="round" stroke-linejoin="round"/>
<path d="M149.247 63.5596C149.247 63.5596 150.43 60.591 151.914 61.7737C153.398 62.9563 152.803 66.5361 151.62 68.0045C150.438 69.4729 149.692 68.5919 149.692 68.5919L149.247 63.5596Z" fill="white" stroke="#263238" stroke-linecap="round" stroke-linejoin="round"/>
<path d="M127.268 68.9091C127.268 68.9091 124.847 66.8295 124.093 68.5678C123.339 70.3061 125.49 73.1794 127.221 73.9493C128.951 74.7193 129.205 73.5842 129.205 73.5842L127.268 68.9091Z" fill="white" stroke="#263238" stroke-linecap="round" stroke-linejoin="round"/>
<path d="M126.57 67.8535C126.57 67.8535 129.388 76.7434 133.094 79.8548C136.801 82.9663 141.54 86.3794 143.469 85.3396C145.397 84.2998 149.691 76.8942 149.691 72.4492C149.691 68.0043 148.953 59.8526 148.953 59.8526C148.953 59.8526 146.286 58.5191 139.913 59.1065C133.539 59.6938 127.903 63.2577 126.57 67.8535Z" fill="white" stroke="#263238" stroke-linecap="round" stroke-linejoin="round"/>
<path d="M131.761 74.9653C131.761 74.9653 134.722 76.6004 136.357 73.7826" stroke="#263238" stroke-linecap="round" stroke-linejoin="round"/>
<path d="M140.945 72.743C140.945 72.743 144.064 74.2273 145.397 71.5603" stroke="#263238" stroke-linecap="round" stroke-linejoin="round"/>
<path d="M140.056 69.3616C140.056 69.3616 141.389 67.282 144.358 68.6154" stroke="#263238" stroke-linecap="round" stroke-linejoin="round"/>
<path d="M135.166 70.2267C135.166 70.2267 131.316 69.0361 130.872 72.0047" stroke="#263238" stroke-linecap="round" stroke-linejoin="round"/>
<path d="M138.428 74.5208C138.428 74.5208 139.317 78.3784 139.468 78.8229C139.619 79.2674 140.945 79.4102 141.095 77.9339" stroke="#263238" stroke-linecap="round" stroke-linejoin="round"/>
<path d="M139.611 81.0454C139.611 81.0454 142.135 81.4899 142.58 80.1564" stroke="#263238" stroke-linecap="round" stroke-linejoin="round"/>
<path d="M127.126 64.5992C127.126 64.5992 126.999 62.5911 125.871 62.218C124.744 61.845 123.609 62.726 124.109 63.7261C124.615 64.4772 125.307 65.0843 126.117 65.4882C126.117 65.4882 123.609 65.2342 123.609 66.9963C123.609 68.7584 124.99 68.7505 125.99 67.8774C126.551 67.4313 126.948 66.8114 127.118 66.1153C127.118 66.1153 127.618 68.3774 129.38 67.9964C131.142 67.6154 131.142 65.8613 130.388 65.7422C129.804 65.6596 129.215 65.6172 128.626 65.6152C128.626 65.6152 129.88 64.6072 129.507 63.7261C129.134 62.8451 128.626 62.345 128.253 62.726C127.819 63.3139 127.442 63.941 127.126 64.5992Z" fill="#FFC283" stroke="#263238" stroke-miterlimit="10"/>
<path d="M132.031 61.6543C132.031 61.6543 130.062 61.2495 129.404 62.2417C128.745 63.2339 129.292 64.5515 130.396 64.3292C131.253 64.0392 132.019 63.5302 132.618 62.8529C132.618 62.8529 131.721 65.2341 133.412 65.6707C135.103 66.1072 135.468 64.7975 134.88 63.599C134.61 62.9258 134.117 62.3655 133.483 62.0115C133.483 62.0115 135.793 62.1226 135.865 60.3208C135.936 58.5191 134.277 58.0666 133.944 58.7334C133.713 59.2724 133.519 59.8267 133.364 60.3923C133.364 60.3923 132.721 58.9159 131.777 59.0509C130.832 59.1858 130.189 59.543 130.475 60.0034C130.943 60.5993 131.464 61.1518 132.031 61.6543Z" fill="#FFC283" stroke="#263238" stroke-miterlimit="10"/>
<path d="M148.183 60.6302C148.183 60.6302 146.215 60.2254 145.556 61.2176C144.897 62.2098 145.453 63.5353 146.548 63.313C147.405 63.0181 148.17 62.5068 148.771 61.8287C148.771 61.8287 147.874 64.21 149.565 64.6465C151.255 65.0831 151.62 63.7734 151.033 62.5749C150.76 61.9033 150.267 61.3439 149.636 60.9874C149.636 60.9874 151.946 61.0985 152.017 59.3047C152.089 57.5108 150.43 57.0425 150.096 57.7172C149.865 58.2587 149.671 58.8157 149.517 59.384C149.517 59.384 148.874 57.9077 147.929 58.0426C146.985 58.1776 146.342 58.5268 146.636 58.9872C147.097 59.5837 147.615 60.134 148.183 60.6302Z" fill="#FFC283" stroke="#263238" stroke-miterlimit="10"/>
<path d="M138.024 60.6304C138.024 60.6304 138.357 62.6147 139.524 62.8687C140.691 63.1227 141.714 62.1305 141.111 61.186C140.53 60.4934 139.777 59.9653 138.928 59.6541C138.928 59.6541 141.453 59.6541 141.262 57.884C141.072 56.114 139.675 56.2965 138.801 57.2649C138.29 57.7652 137.961 58.4216 137.865 59.1302C137.865 59.1302 137.119 56.9395 135.412 57.4951C133.706 58.0507 133.888 59.8049 134.618 59.8763C135.206 59.9052 135.795 59.8919 136.381 59.8366C136.381 59.8366 135.238 60.9717 135.706 61.8051C136.174 62.6385 136.73 63.091 137.063 62.6703C137.445 62.0213 137.767 61.3384 138.024 60.6304Z" fill="#FFC283" stroke="#263238" stroke-miterlimit="10"/>
<path d="M144.54 59.924C144.54 59.924 144.881 61.9084 146.04 62.1624C147.199 62.4164 148.239 61.4242 147.628 60.4796C147.042 59.7868 146.287 59.2566 145.437 58.9398C145.437 58.9398 147.961 58.9398 147.818 57.1777C147.675 55.4156 146.231 55.5902 145.35 56.5586C144.836 57.057 144.506 57.7143 144.413 58.4239C144.413 58.4239 143.675 56.2252 141.968 56.7888C140.262 57.3523 140.444 59.0985 141.175 59.17C141.763 59.1863 142.351 59.1651 142.937 59.1065C142.937 59.1065 141.794 60.2415 142.262 61.0749C142.73 61.9084 143.286 62.3529 143.619 61.9401C143.988 61.2978 144.296 60.6229 144.54 59.924Z" fill="#FFC283" stroke="#263238" stroke-miterlimit="10"/>
<path d="M148.033 86.6016L148.136 91.5624L152.875 92.9991L148.191 94.6183L148.295 99.5713L145.302 95.6264L140.619 97.2456L143.453 93.1817L140.46 89.2368L145.207 90.6734L148.033 86.6016Z" fill="white" stroke="#263238" stroke-linecap="round" stroke-linejoin="round"/>
<path d="M151.803 89.7291L148.739 93.6185L151.486 97.738L146.834 96.0235L143.77 99.9049L143.969 94.9599L139.318 93.2375L144.088 91.896L144.286 86.951L147.041 91.0706L151.803 89.7291Z" fill="white" stroke="#263238" stroke-linecap="round" stroke-linejoin="round"/>
<path d="M78.0804 91.9437L83.5096 91.0865L78.0804 90.2372C77.6037 90.1635 77.1628 89.94 76.8217 89.5989C76.4806 89.2578 76.257 88.8169 76.1834 88.3401L75.3262 82.903L74.4689 88.3401C74.393 88.8159 74.1686 89.2555 73.828 89.5962C73.4873 89.9369 73.0477 90.1612 72.5719 90.2372L67.1348 91.0865L72.5719 91.9437C73.0477 92.0197 73.4873 92.244 73.828 92.5847C74.1686 92.9254 74.393 93.365 74.4689 93.8407L75.3182 99.2699L76.1755 93.8407C76.2495 93.3629 76.4743 92.9211 76.8169 92.5799C77.1596 92.2387 77.6023 92.0158 78.0804 91.9437Z" fill="#FFC283"/>
<path opacity="0.4" d="M78.0804 91.9437L83.5096 91.0865L78.0804 90.2372C77.6037 90.1635 77.1628 89.94 76.8217 89.5989C76.4806 89.2578 76.257 88.8169 76.1834 88.3401L75.3262 82.903L74.4689 88.3401C74.393 88.8159 74.1686 89.2555 73.828 89.5962C73.4873 89.9369 73.0477 90.1612 72.5719 90.2372L67.1348 91.0865L72.5719 91.9437C73.0477 92.0197 73.4873 92.244 73.828 92.5847C74.1686 92.9254 74.393 93.365 74.4689 93.8407L75.3182 99.2699L76.1755 93.8407C76.2495 93.3629 76.4743 92.9211 76.8169 92.5799C77.1596 92.2387 77.6023 92.0158 78.0804 91.9437Z" fill="white"/>
<path d="M56.0622 151.196L61.4994 150.339L56.0622 149.529C55.5865 149.453 55.1469 149.229 54.8062 148.888C54.4655 148.547 54.2412 148.108 54.1652 147.632L53.3159 142.195L52.4587 147.632C52.3827 148.108 52.1584 148.547 51.8177 148.888C51.477 149.229 51.0374 149.453 50.5616 149.529L45.1007 150.323L50.5299 151.18C51.0066 151.254 51.4475 151.477 51.7886 151.818C52.1297 152.159 52.3533 152.6 52.4269 153.077L53.2842 158.506L54.1335 153.077C54.2119 152.599 54.4415 152.158 54.7886 151.819C55.1357 151.481 55.582 151.262 56.0622 151.196Z" fill="#FFC283"/>
<path opacity="0.4" d="M56.0622 151.196L61.4994 150.339L56.0622 149.529C55.5865 149.453 55.1469 149.229 54.8062 148.888C54.4655 148.547 54.2412 148.108 54.1652 147.632L53.3159 142.195L52.4587 147.632C52.3827 148.108 52.1584 148.547 51.8177 148.888C51.477 149.229 51.0374 149.453 50.5616 149.529L45.1007 150.323L50.5299 151.18C51.0066 151.254 51.4475 151.477 51.7886 151.818C52.1297 152.159 52.3533 152.6 52.4269 153.077L53.2842 158.506L54.1335 153.077C54.2119 152.599 54.4415 152.158 54.7886 151.819C55.1357 151.481 55.582 151.262 56.0622 151.196Z" fill="white"/>
<path d="M239.813 138.877L245.25 138.02L239.813 137.171C239.338 137.094 238.9 136.87 238.56 136.529C238.221 136.188 237.998 135.749 237.924 135.274L237.067 129.837L236.209 135.242C236.136 135.719 235.912 136.16 235.571 136.501C235.23 136.842 234.789 137.065 234.312 137.139L228.883 137.988L234.312 138.845C234.789 138.918 235.231 139.141 235.572 139.482C235.914 139.824 236.137 140.265 236.209 140.743L237.067 146.172L237.924 140.743C238.002 140.272 238.227 139.839 238.566 139.504C238.905 139.169 239.342 138.949 239.813 138.877Z" fill="#FFC283"/>
<path opacity="0.4" d="M239.813 138.877L245.25 138.02L239.813 137.171C239.338 137.094 238.9 136.87 238.56 136.529C238.221 136.188 237.998 135.749 237.924 135.274L237.067 129.837L236.209 135.242C236.136 135.719 235.912 136.16 235.571 136.501C235.23 136.842 234.789 137.065 234.312 137.139L228.883 137.988L234.312 138.845C234.789 138.918 235.231 139.141 235.572 139.482C235.914 139.824 236.137 140.265 236.209 140.743L237.067 146.172L237.924 140.743C238.002 140.272 238.227 139.839 238.566 139.504C238.905 139.169 239.342 138.949 239.813 138.877Z" fill="white"/>
<path d="M175.274 160.594L180.703 159.737L175.274 158.888C174.798 158.812 174.359 158.587 174.018 158.247C173.677 157.906 173.453 157.466 173.377 156.991L172.52 151.554L171.67 156.991C171.593 157.466 171.369 157.905 171.028 158.245C170.688 158.586 170.249 158.811 169.773 158.888L164.336 159.737L169.773 160.594C170.249 160.67 170.689 160.895 171.029 161.235C171.37 161.576 171.594 162.016 171.67 162.491L172.52 167.921L173.377 162.491C173.45 162.015 173.674 161.574 174.015 161.233C174.356 160.891 174.797 160.668 175.274 160.594Z" fill="white"/>
<path d="M82.8032 85.4827L85.5178 85.0541L82.8032 84.6254C82.5652 84.5885 82.3449 84.4772 82.1738 84.3076C82.0028 84.138 81.8897 83.9186 81.8507 83.6809L81.43 80.9584L81.0014 83.6809C80.9625 83.9186 80.8494 84.138 80.6783 84.3076C80.5073 84.4772 80.287 84.5885 80.0489 84.6254L77.3344 85.0541L80.0489 85.4827C80.2875 85.5185 80.5084 85.6294 80.6796 85.7992C80.8509 85.969 80.9636 86.189 81.0014 86.4272L81.43 89.1418L81.8507 86.4272C81.8885 86.189 82.0012 85.969 82.1725 85.7992C82.3438 85.6294 82.5647 85.5185 82.8032 85.4827Z" fill="#FFC283"/>
<path opacity="0.4" d="M82.8032 85.4827L85.5178 85.0541L82.8032 84.6254C82.5652 84.5885 82.3449 84.4772 82.1738 84.3076C82.0028 84.138 81.8897 83.9186 81.8507 83.6809L81.43 80.9584L81.0014 83.6809C80.9625 83.9186 80.8494 84.138 80.6783 84.3076C80.5073 84.4772 80.287 84.5885 80.0489 84.6254L77.3344 85.0541L80.0489 85.4827C80.2875 85.5185 80.5084 85.6294 80.6796 85.7992C80.8509 85.969 80.9636 86.189 81.0014 86.4272L81.43 89.1418L81.8507 86.4272C81.8885 86.189 82.0012 85.969 82.1725 85.7992C82.3438 85.6294 82.5647 85.5185 82.8032 85.4827Z" fill="white"/>
<path d="M230.256 98.2854L232.971 97.8568L230.256 97.4282C230.019 97.3908 229.8 97.2793 229.63 97.1096C229.46 96.9399 229.349 96.7207 229.312 96.4836L228.883 93.7611L228.454 96.4836C228.416 96.7202 228.304 96.9387 228.134 97.1082C227.965 97.2777 227.746 97.3897 227.51 97.4282L224.787 97.8568L227.51 98.2854C227.747 98.3216 227.967 98.4328 228.137 98.6027C228.307 98.7726 228.418 98.9924 228.454 99.23L228.883 101.945L229.312 99.23C229.347 98.9919 229.457 98.7715 229.627 98.6013C229.798 98.4312 230.018 98.3204 230.256 98.2854Z" fill="#FFC283"/>
<path opacity="0.4" d="M230.256 98.2854L232.971 97.8568L230.256 97.4282C230.019 97.3908 229.8 97.2793 229.63 97.1096C229.46 96.9399 229.349 96.7207 229.312 96.4836L228.883 93.7611L228.454 96.4836C228.416 96.7202 228.304 96.9387 228.134 97.1082C227.965 97.2777 227.746 97.3897 227.51 97.4282L224.787 97.8568L227.51 98.2854C227.747 98.3216 227.967 98.4328 228.137 98.6027C228.307 98.7726 228.418 98.9924 228.454 99.23L228.883 101.945L229.312 99.23C229.347 98.9919 229.457 98.7715 229.627 98.6013C229.798 98.4312 230.018 98.3204 230.256 98.2854Z" fill="white"/>
<path d="M199.086 32.0559L203.999 31.2622L199.086 30.4684C198.655 30.4013 198.257 30.199 197.949 29.8908C197.641 29.5827 197.439 29.1845 197.372 28.7539L196.578 23.8486L195.784 28.7539C195.718 29.185 195.516 29.5838 195.208 29.8922C194.899 30.2006 194.501 30.4024 194.07 30.4684L189.164 31.2622L194.07 32.0559C194.501 32.1219 194.899 32.3237 195.208 32.6321C195.516 32.9405 195.718 33.3393 195.784 33.7704L196.578 38.6757L197.372 33.7704C197.439 33.3398 197.641 32.9416 197.949 32.6335C198.257 32.3253 198.655 32.123 199.086 32.0559Z" fill="#FFC283"/>
<path opacity="0.4" d="M199.086 32.0559L203.999 31.2622L199.086 30.4684C198.655 30.4013 198.257 30.199 197.949 29.8908C197.641 29.5827 197.439 29.1845 197.372 28.7539L196.578 23.8486L195.784 28.7539C195.718 29.185 195.516 29.5838 195.208 29.8922C194.899 30.2006 194.501 30.4024 194.07 30.4684L189.164 31.2622L194.07 32.0559C194.501 32.1219 194.899 32.3237 195.208 32.6321C195.516 32.9405 195.718 33.3393 195.784 33.7704L196.578 38.6757L197.372 33.7704C197.439 33.3398 197.641 32.9416 197.949 32.6335C198.257 32.3253 198.655 32.123 199.086 32.0559Z" fill="white"/>
<path d="M185.243 81.0931L187.966 80.6645L185.243 80.2438C185.006 80.2048 184.786 80.0917 184.617 79.9207C184.447 79.7496 184.336 79.5294 184.299 79.2913L183.87 76.5767L183.441 79.2913C183.406 79.5298 183.295 79.7507 183.125 79.922C182.955 80.0933 182.735 80.206 182.497 80.2438L179.782 80.6645L182.497 81.0931C182.735 81.1309 182.955 81.2436 183.125 81.4149C183.295 81.5861 183.406 81.8071 183.441 82.0456L183.87 84.7602L184.299 82.0456C184.336 81.8075 184.447 81.5873 184.617 81.4162C184.786 81.2452 185.006 81.1321 185.243 81.0931Z" fill="#FFC283"/>
<path opacity="0.4" d="M185.243 81.0931L187.966 80.6645L185.243 80.2438C185.006 80.2048 184.786 80.0917 184.617 79.9207C184.447 79.7496 184.336 79.5294 184.299 79.2913L183.87 76.5767L183.441 79.2913C183.406 79.5298 183.295 79.7507 183.125 79.922C182.955 80.0933 182.735 80.206 182.497 80.2438L179.782 80.6645L182.497 81.0931C182.735 81.1309 182.955 81.2436 183.125 81.4149C183.295 81.5861 183.406 81.8071 183.441 82.0456L183.87 84.7602L184.299 82.0456C184.336 81.8075 184.447 81.5873 184.617 81.4162C184.786 81.2452 185.006 81.1321 185.243 81.0931Z" fill="white"/>
<path d="M246.623 146.354L249.338 145.926L246.623 145.505C246.385 145.467 246.165 145.355 245.995 145.183C245.825 145.012 245.714 144.791 245.678 144.553L245.25 141.838L244.821 144.553C244.784 144.791 244.673 145.011 244.503 145.182C244.334 145.353 244.114 145.466 243.877 145.505L241.154 145.926L243.877 146.354C244.114 146.393 244.334 146.506 244.503 146.678C244.673 146.849 244.784 147.069 244.821 147.307L245.25 150.021L245.678 147.307C245.714 147.068 245.825 146.847 245.995 146.676C246.165 146.505 246.385 146.392 246.623 146.354Z" fill="#FFC283"/>
<path opacity="0.4" d="M246.623 146.354L249.338 145.926L246.623 145.505C246.385 145.467 246.165 145.355 245.995 145.183C245.825 145.012 245.714 144.791 245.678 144.553L245.25 141.838L244.821 144.553C244.784 144.791 244.673 145.011 244.503 145.182C244.334 145.353 244.114 145.466 243.877 145.505L241.154 145.926L243.877 146.354C244.114 146.393 244.334 146.506 244.503 146.678C244.673 146.849 244.784 147.069 244.821 147.307L245.25 150.021L245.678 147.307C245.714 147.068 245.825 146.847 245.995 146.676C246.165 146.505 246.385 146.392 246.623 146.354Z" fill="white"/>
<path d="M122.308 149.378L125.022 148.95L122.308 148.521C122.069 148.487 121.847 148.376 121.676 148.206C121.504 148.036 121.392 147.815 121.355 147.577L120.926 144.862L120.506 147.577C120.469 147.815 120.357 148.036 120.185 148.206C120.014 148.376 119.792 148.487 119.553 148.521L116.839 148.95L119.553 149.378C119.791 149.415 120.012 149.527 120.183 149.696C120.354 149.866 120.467 150.085 120.506 150.323L120.926 153.046L121.355 150.323C121.394 150.085 121.507 149.866 121.678 149.696C121.849 149.527 122.07 149.415 122.308 149.378Z" fill="#FFC283"/>
<path opacity="0.4" d="M122.308 149.378L125.022 148.95L122.308 148.521C122.069 148.487 121.847 148.376 121.676 148.206C121.504 148.036 121.392 147.815 121.355 147.577L120.926 144.862L120.506 147.577C120.469 147.815 120.357 148.036 120.185 148.206C120.014 148.376 119.792 148.487 119.553 148.521L116.839 148.95L119.553 149.378C119.791 149.415 120.012 149.527 120.183 149.696C120.354 149.866 120.467 150.085 120.506 150.323L120.926 153.046L121.355 150.323C121.394 150.085 121.507 149.866 121.678 149.696C121.849 149.527 122.07 149.415 122.308 149.378Z" fill="white"/>
<path d="M94.7649 179.549L97.4795 179.12L94.7649 178.691C94.5264 178.656 94.3055 178.545 94.1342 178.375C93.9629 178.205 93.8502 177.985 93.8124 177.747L93.3838 175.032L92.9631 177.747C92.9253 177.985 92.8126 178.205 92.6413 178.375C92.47 178.545 92.2491 178.656 92.0106 178.691L89.296 179.12L92.0106 179.549C92.2487 179.586 92.4689 179.697 92.64 179.866C92.811 180.036 92.9241 180.255 92.9631 180.493L93.3838 183.216L93.8124 180.493C93.8514 180.255 93.9645 180.036 94.1355 179.866C94.3066 179.697 94.5268 179.586 94.7649 179.549Z" fill="white"/>
</svg>
