<svg width="293" height="231" viewBox="0 0 293 231" fill="none" xmlns="http://www.w3.org/2000/svg">
<path d="M273.914 106.274L273.952 34.1027L175.751 34.0512L175.713 106.223L273.914 106.274Z" fill="white"/>
<path d="M260.07 95.4466C260.07 95.4466 255.569 90.1046 242.922 88.7691C230.274 87.4335 235.136 92.6154 243.59 97.1027C252.043 101.59 260.07 95.4466 260.07 95.4466Z" fill="white" stroke="#263238" stroke-linecap="round" stroke-linejoin="round"/>
<path d="M258.988 78.2653C256.718 67.2072 260.871 61.9386 260.871 61.9386C260.871 61.9386 268.01 67.4142 269.011 75.5943C269.554 80.692 268.685 85.8409 266.5 90.4786C266.5 90.4786 261.259 89.3234 258.988 78.2653Z" fill="white" stroke="#263238" stroke-linecap="round" stroke-linejoin="round"/>
<path d="M252.751 75.8279C252.751 75.8279 244.845 71.5476 242.641 62.6063C240.438 53.665 243.943 50.8403 243.943 50.8403C243.943 50.8403 249.553 58.7132 251.609 63.4076C253.666 68.1019 252.751 75.8279 252.751 75.8279Z" fill="white" stroke="#263238" stroke-linecap="round" stroke-linejoin="round"/>
<path d="M245.98 77.0766C245.98 77.0766 239.022 74.9598 232.725 77.297C229.257 78.5463 225.877 80.0276 222.609 81.7309C222.609 81.7309 226.048 83.6741 233.293 83.5072C240.538 83.3402 245.98 77.0766 245.98 77.0766Z" fill="white" stroke="#263238" stroke-linecap="round" stroke-linejoin="round"/>
<path d="M265.105 97.1094C265.105 97.1094 255.649 81.4504 237.226 64.9835C218.802 48.5166 195.825 42.2396 186.156 51.6283C176.487 61.017 188.493 64.8166 192.373 57.9453" stroke="#263238" stroke-linecap="round" stroke-linejoin="round"/>
<path d="M234.688 59.2071C234.688 59.2071 225.674 52.396 222.822 45.892C219.971 39.3881 222.949 36.3631 227.33 40.4698C231.71 44.5765 234.688 59.2071 234.688 59.2071Z" stroke="#263238" stroke-linecap="round" stroke-linejoin="round"/>
<path d="M231.65 66.9998C231.65 66.9998 226.268 61.6043 220.218 62.5391C214.168 63.474 210.669 66.2986 216.879 68.7293C223.089 71.1599 231.65 66.9998 231.65 66.9998Z" stroke="#263238" stroke-linecap="round" stroke-linejoin="round"/>
<path d="M186.269 74.7261L212.098 74.9197" stroke="#263238" stroke-linecap="round" stroke-linejoin="round"/>
<path d="M185.875 82.5856L215.17 82.7926" stroke="#263238" stroke-linecap="round" stroke-linejoin="round"/>
<path d="M189.187 91.8942L224.492 91.774" stroke="#263238" stroke-linecap="round" stroke-linejoin="round"/>
<path d="M215.056 53.6382C211.339 52.8171 207.504 52.6791 203.738 53.2308C200.36 53.7703 197.294 55.5194 195.11 58.1522C195.11 58.1522 211.457 59.4477 215.056 53.6382Z" stroke="#263238" stroke-linecap="round" stroke-linejoin="round"/>
<path d="M219.15 48.0157C219.15 48.0157 216.178 41.2446 210.469 38.7539C204.759 36.2631 205.714 39.3014 205.714 39.3014C205.714 39.3014 211.043 48.8838 219.15 48.0157Z" stroke="#263238" stroke-linecap="round" stroke-linejoin="round"/>
<path d="M244.825 46.0259C244.825 46.0259 237.126 47.5884 237.74 53.1509C238.354 58.7133 244.251 60.4962 247.443 59.4679C250.634 58.4395 251.603 53.9922 250.114 50.6267C248.625 47.2612 243.436 47.0075 240.692 50.7536" stroke="#263238" stroke-width="2" stroke-linecap="round" stroke-linejoin="round"/>
<path d="M256.851 41.8455L253.205 51.8285" stroke="#263238" stroke-width="2" stroke-linecap="round" stroke-linejoin="round"/>
<path d="M251.175 44.7037L261.425 48.9574" stroke="#263238" stroke-width="2" stroke-linecap="round" stroke-linejoin="round"/>
<path d="M210.823 172.207L209.828 179.56L206.292 172.957L196.307 112.857L200.838 112.106L210.823 172.207Z" fill="white" stroke="#263238" stroke-linecap="round" stroke-linejoin="round"/>
<path d="M199.813 112.268L197.341 112.678L207.323 172.778L209.795 172.368L199.813 112.268Z" fill="#FFC283" stroke="#263238" stroke-width="0.5" stroke-linecap="round" stroke-linejoin="round"/>
<path d="M210.814 172.216L206.301 172.966L209.828 179.56L210.814 172.216Z" stroke="#263238" stroke-linecap="round" stroke-linejoin="round"/>
<path d="M208.064 176.259L209.828 179.56L210.325 175.888L208.064 176.259Z" fill="#263238" stroke="#263238" stroke-linecap="round" stroke-linejoin="round"/>
<path d="M197.455 105.749C196.855 105.849 196.318 106.183 195.963 106.678C195.609 107.173 195.466 107.789 195.565 108.39L196.307 112.858L200.829 112.107L200.087 107.639C199.987 107.04 199.655 106.505 199.161 106.151C198.668 105.797 198.055 105.652 197.455 105.749Z" fill="white" stroke="#263238" stroke-linecap="round" stroke-linejoin="round"/>
<path d="M197.455 105.748C196.854 105.848 196.318 106.182 195.963 106.677C195.609 107.173 195.465 107.788 195.565 108.389L195.927 110.524L200.449 109.773L200.096 107.638C199.996 107.038 199.662 106.501 199.167 106.147C198.672 105.792 198.056 105.649 197.455 105.748Z" fill="#263238" stroke="#263238" stroke-linecap="round" stroke-linejoin="round"/>
<path d="M35.2227 113.318H148.193C150.236 113.318 152.195 114.129 153.64 115.574C155.084 117.018 155.896 118.977 155.896 121.02V192.546C155.896 193.653 155.678 194.749 155.254 195.772C154.83 196.795 154.209 197.724 153.426 198.506C152.643 199.288 151.713 199.909 150.69 200.332C149.667 200.755 148.571 200.972 147.464 200.971H35.9446C33.7102 200.971 31.5674 200.083 29.9875 198.503C28.4076 196.923 27.52 194.781 27.52 192.546V121.013C27.5219 118.971 28.3343 117.014 29.7786 115.571C31.2229 114.128 33.181 113.318 35.2227 113.318Z" fill="white" stroke="#263238" stroke-linecap="round" stroke-linejoin="round"/>
<path d="M75.9812 121.944H68.755V126.694H75.9812V121.944Z" fill="#263238"/>
<path d="M52.5699 151.225H45.8635V157.881H52.5699V151.225Z" fill="#263238"/>
<path d="M82.2041 127.828H75.4471V134.484H82.2041V127.828Z" fill="#263238"/>
<path d="M67.6144 121.944H60.3882V126.694H67.6144V121.944Z" fill="#263238"/>
<path d="M90.1089 127.828H83.3519V134.484H90.1089V127.828Z" fill="#263238"/>
<path d="M84.3481 121.944H77.1219V126.694H84.3481V121.944Z" fill="#263238"/>
<path d="M48.5201 143.421H35.8074V150.077H48.5201V143.421Z" fill="#263238"/>
<path d="M66.4017 127.828H59.6447V134.484H66.4017V127.828Z" fill="#263238"/>
<path d="M44.7229 151.225H35.8074V157.881H44.7229V151.225Z" fill="#263238"/>
<path d="M92.7222 121.944H85.496V126.694H92.7222V121.944Z" fill="#263238"/>
<path d="M50.5992 127.828H43.8422V134.484H50.5992V127.828Z" fill="#263238"/>
<path d="M50.8808 121.944H43.6545V126.694H50.8808V121.944Z" fill="#263238"/>
<path d="M59.2476 121.944H52.0214V126.694H59.2476V121.944Z" fill="#263238"/>
<path d="M58.504 127.828H51.747V134.484H58.504V127.828Z" fill="#263238"/>
<path d="M74.3065 127.828H67.5495V134.484H74.3065V127.828Z" fill="#263238"/>
<path d="M126.19 121.944H118.963V126.694H126.19V121.944Z" fill="#263238"/>
<path d="M134.556 121.944H127.33V126.694H134.556V121.944Z" fill="#263238"/>
<path d="M129.619 127.828H122.862V134.484H129.619V127.828Z" fill="#263238"/>
<path d="M137.516 127.828H130.759V134.484H137.516V127.828Z" fill="#263238"/>
<path d="M150.027 151.225H140.072V157.881H150.027V151.225Z" fill="#263238"/>
<path d="M142.923 121.944H135.697V126.694H142.923V121.944Z" fill="#263238"/>
<path d="M42.7088 127.828H35.8074V134.484H42.7088V127.828Z" fill="#263238"/>
<path d="M101.089 121.944H93.8628V126.694H101.089V121.944Z" fill="#263238"/>
<path d="M109.456 121.944H102.23V126.694H109.456V121.944Z" fill="#263238"/>
<path d="M105.911 127.828H99.1544V134.484H105.911V127.828Z" fill="#263238"/>
<path d="M121.714 127.828H114.957V134.484H121.714V127.828Z" fill="#263238"/>
<path d="M98.0138 127.828H91.2568V134.484H98.0138V127.828Z" fill="#263238"/>
<path d="M113.816 127.828H107.059V134.484H113.816V127.828Z" fill="#263238"/>
<path d="M117.823 121.944H110.596V126.694H117.823V121.944Z" fill="#263238"/>
<path d="M107.521 151.225H100.815V157.881H107.521V151.225Z" fill="#263238"/>
<path d="M142.721 143.421H136.015V150.077H142.721V143.421Z" fill="#263238"/>
<path d="M134.874 143.421H128.168V150.077H134.874V143.421Z" fill="#263238"/>
<path d="M138.924 151.225H132.217V157.881H138.924V151.225Z" fill="#263238"/>
<path d="M131.077 151.225H124.37V157.881H131.077V151.225Z" fill="#263238"/>
<path d="M115.376 151.225H108.669V157.881H115.376V151.225Z" fill="#263238"/>
<path d="M123.223 151.225H116.516V157.881H123.223V151.225Z" fill="#263238"/>
<path d="M127.02 143.421H120.313V150.077H127.02V143.421Z" fill="#263238"/>
<path d="M119.173 143.421H112.466V150.077H119.173V143.421Z" fill="#263238"/>
<path d="M150.027 121.944H144.071V126.694H150.027V121.944Z" fill="#263238"/>
<path d="M42.5139 121.944H35.8074V126.694H42.5139V121.944Z" fill="#263238"/>
<path d="M150.027 159.021H35.8074V165.945H150.027V159.021Z" fill="#263238"/>
<path d="M150.027 127.828H138.664V134.484H150.027V127.828Z" fill="#263238"/>
<path d="M150.02 143.421H143.862V150.077H150.02V143.421Z" fill="#263238"/>
<path d="M141.97 142.237H140.83V135.624H134.116V142.237H132.975V135.624H126.269V142.237H125.128V135.624H118.415V142.237H117.274V135.624H110.568V142.237H109.427V135.624H102.713V142.237H101.573V135.624H94.8663V142.237H93.7257V135.624H87.012V142.237H85.8714V135.624H79.1649V142.237H78.0243V135.624H71.3106V142.237H70.17V135.624H63.4635V142.237H62.3229V135.624H55.6092V142.237H54.4686V135.624H47.7621V142.237H46.6215V135.624H35.8074V142.28H150.02V135.624H141.97V142.237Z" fill="#263238"/>
<path d="M87.7699 143.421H81.0635V150.077H87.7699V143.421Z" fill="#263238"/>
<path d="M111.318 143.421H104.612V150.077H111.318V143.421Z" fill="#263238"/>
<path d="M72.0685 143.421H65.3621V150.077H72.0685V143.421Z" fill="#263238"/>
<path d="M76.1257 151.225H69.4192V157.881H76.1257V151.225Z" fill="#263238"/>
<path d="M79.9157 143.421H73.2092V150.077H79.9157V143.421Z" fill="#263238"/>
<path d="M64.2143 143.421H57.5078V150.077H64.2143V143.421Z" fill="#263238"/>
<path d="M60.4243 151.225H53.7178V157.881H60.4243V151.225Z" fill="#263238"/>
<path d="M68.2714 151.225H61.5649V157.881H68.2714V151.225Z" fill="#263238"/>
<path d="M95.617 143.421H88.9105V150.077H95.617V143.421Z" fill="#263238"/>
<path d="M99.6741 151.225H92.9677V157.881H99.6741V151.225Z" fill="#263238"/>
<path d="M103.471 143.421H96.7649V150.077H103.471V143.421Z" fill="#263238"/>
<path d="M83.9727 151.225H77.2662V157.881H83.9727V151.225Z" fill="#263238"/>
<path d="M91.8198 151.225H85.1133V157.881H91.8198V151.225Z" fill="#263238"/>
<path d="M56.3672 143.421H49.6607V150.077H56.3672V143.421Z" fill="#263238"/>
<path d="M163.223 46.7002H19.5285C16.511 46.7002 14.3092 50.6273 15.096 54.6411L25.5997 108.343C26.1411 111.094 27.9603 113.007 30.0394 113.007H44.7085V116.703H138.736V113.007H152.712C154.791 113.007 156.611 111.094 157.152 108.343L167.656 54.6411C168.443 50.6273 166.241 46.7002 163.223 46.7002Z" fill="#263238" stroke="#263238" stroke-linecap="round" stroke-linejoin="round"/>
<path d="M146.966 108.264H35.7568L24.6323 53.3275H158.09L146.966 108.264Z" fill="#71BDD5" stroke="#263238" stroke-linecap="round" stroke-linejoin="round"/>
<path d="M30.0033 57.363L38.9621 104.265H144.273L153.225 57.363H30.0033Z" fill="white"/>
<path d="M100.483 84.99C96.2018 84.167 87.9288 86.9175 87.9288 86.9175C87.9288 86.9175 89.6397 89.3864 94.7796 90.2093C99.9196 91.0323 106.756 87.7404 106.756 87.7404C106.756 87.7404 104.756 85.8202 100.483 84.99Z" fill="#263238"/>
<path d="M124.724 98.7278C122.828 97.2263 120.903 95.756 118.949 94.317L119.108 94.1943C119.108 94.1943 118.985 94.1221 118.74 94.0066C119.441 91.9599 119.602 89.7669 119.209 87.6394C118.574 83.4813 113.101 76.9047 113.101 76.9047C113.101 76.9047 111.261 79.287 112.185 84.2248C112.907 88.1159 116.516 92.1008 117.96 93.6096C116.516 92.57 115.116 91.5521 113.672 90.5415C112.741 89.8845 111.78 89.2421 110.828 88.6068C109.875 87.9715 108.849 87.4229 107.868 86.8237L106.857 86.2389C107.438 84.2836 107.556 82.2201 107.204 80.2111C106.568 76.0601 101.096 69.4836 101.096 69.4836C101.096 69.4836 99.2554 71.8659 100.179 76.7965C100.779 80.0161 103.334 83.2936 105.045 85.1922C103.984 84.593 102.923 84.0083 101.84 83.438C98.2621 81.532 94.5875 79.8139 90.8308 78.2908C90.8181 76.8288 90.4568 75.3909 89.7768 74.0965C88.2969 71.2089 82.0525 68.5451 82.0525 68.5451C82.0525 68.5451 80.9768 71.1079 82.8754 74.443C83.1684 74.9396 83.5279 75.3938 83.9439 75.793L82.6372 75.3815C80.3993 74.7318 78.1325 74.1976 75.8513 73.7356C74.1188 73.3963 72.3718 73.0931 70.6248 72.8476C70.0529 71.7668 69.264 70.8156 68.3075 70.0539C66.1417 68.2636 60.3665 67.5778 60.3665 67.5778C60.3665 67.5778 60.4892 69.6641 63.1603 71.707C63.3912 71.878 63.6322 72.0347 63.8822 72.1763C63.2397 72.1763 62.59 72.1113 61.9403 72.0896C59.5933 72.0141 57.2439 72.1009 54.9089 72.3495C52.5504 72.5868 50.2328 73.1304 48.0148 73.9666C45.7418 74.7938 43.7597 76.2666 42.3117 78.2042C41.606 79.1913 41.1142 80.315 40.8679 81.5033C40.6167 82.728 40.7925 84.0018 41.366 85.1128C41.6875 85.714 42.1699 86.2139 42.7593 86.5566C43.3585 86.868 44.0261 87.0243 44.7012 87.0114C45.941 86.9483 47.1418 86.5572 48.1808 85.878C48.6977 85.581 49.1816 85.2301 49.6246 84.8312C50.0802 84.4404 50.4344 83.945 50.6569 83.3874C50.87 82.8345 50.87 82.2222 50.6569 81.6693C50.443 81.1329 50.1009 80.657 49.6607 80.2832C50.0567 80.6865 50.3447 81.1831 50.4981 81.727C50.6443 82.2444 50.5928 82.7976 50.3537 83.2791C49.7808 84.2195 48.9164 84.947 47.892 85.351C46.9294 85.8445 45.8539 86.0761 44.7734 86.0224C44.2887 85.9827 43.8219 85.8213 43.4162 85.5531C43.0229 85.309 42.6956 84.9718 42.4633 84.5713C42.0112 83.6801 41.8811 82.6599 42.0952 81.6837C42.3148 80.6685 42.7425 79.7099 43.3513 78.8683C44.6595 77.1225 46.4519 75.7996 48.5057 75.0639C50.6186 74.2658 52.8273 73.7488 55.075 73.5262C57.35 73.2831 59.6391 73.1987 61.9258 73.2736C66.5206 73.4353 71.0939 73.9786 75.5987 74.8978H75.7647C74.8269 74.7901 73.8799 74.7901 72.9421 74.8978C69.5708 75.2949 64.2792 79.5325 64.2792 79.5325C64.2792 79.5325 66.25 81.0846 70.2494 80.4709C74.2487 79.8573 78.313 75.5403 78.313 75.5403C78.123 75.4515 77.9277 75.3743 77.7283 75.3093C79.2515 75.6486 80.7675 76.0312 82.2546 76.4644C84.4203 77.1213 86.586 77.9082 88.7517 78.6951C89.4736 78.9694 90.1955 79.2654 90.9174 79.5541C90.1083 79.477 89.2937 79.477 88.4846 79.5541C85.0989 79.8501 79.6918 83.9216 79.6918 83.9216C79.6918 83.9216 81.6121 85.5315 85.6331 85.0406C88.9755 84.6363 92.4406 81.6693 93.5091 80.7092C96.1368 81.8738 98.7188 83.1275 101.255 84.4703C103.276 85.5315 105.262 86.6721 107.232 87.8271L110.156 89.6102C111.131 90.2022 112.134 90.758 113.109 91.3572C114.083 91.9564 115.108 92.5628 116.097 93.1836C114.854 92.9405 113.588 92.8388 112.322 92.8804C107.99 93.0176 100.555 97.5006 100.555 97.5006C100.555 97.5006 102.8 99.5364 107.998 99.2115C112.177 98.9588 116.798 95.8691 118.444 94.6635C120.552 96.0015 122.645 97.3562 124.724 98.7278Z" fill="#263238"/>
<path d="M70.8197 90.9964H41.4383C41.3596 90.9954 41.2815 91.01 41.2085 91.0392C41.1354 91.0684 41.0688 91.1118 41.0125 91.1668C40.9562 91.2217 40.9113 91.2873 40.8803 91.3596C40.8493 91.4319 40.8329 91.5096 40.8319 91.5883C40.8357 91.746 40.9015 91.8958 41.015 92.0053C41.1285 92.1147 41.2806 92.175 41.4383 92.1731H70.8197C70.8981 92.175 70.976 92.1613 71.049 92.1329C71.122 92.1045 71.1887 92.0618 71.2451 92.0074C71.3015 91.953 71.3466 91.888 71.3776 91.816C71.4087 91.7441 71.4252 91.6667 71.4261 91.5883C71.4252 91.5096 71.4088 91.4319 71.3778 91.3596C71.3468 91.2873 71.3019 91.2217 71.2455 91.1668C71.1892 91.1118 71.1226 91.0684 71.0496 91.0392C70.9765 91.01 70.8984 90.9954 70.8197 90.9964Z" fill="#263238"/>
<path d="M70.8197 94.1873H42.2396C42.0819 94.1854 41.9298 94.2457 41.8163 94.3551C41.7028 94.4646 41.637 94.6144 41.6332 94.7721C41.6341 94.8507 41.6506 94.9285 41.6815 95.0008C41.7125 95.0731 41.7575 95.1387 41.8138 95.1936C41.8701 95.2486 41.9367 95.2919 42.0097 95.3212C42.0828 95.3504 42.1609 95.365 42.2396 95.364H70.8197C70.8984 95.365 70.9765 95.3504 71.0495 95.3212C71.1226 95.2919 71.1892 95.2486 71.2455 95.1936C71.3018 95.1387 71.3467 95.0731 71.3777 95.0008C71.4087 94.9285 71.4251 94.8507 71.4261 94.7721C71.4252 94.6937 71.4087 94.6163 71.3776 94.5444C71.3465 94.4724 71.3015 94.4074 71.2451 94.353C71.1887 94.2986 71.122 94.2559 71.049 94.2275C70.976 94.199 70.898 94.1854 70.8197 94.1873Z" fill="#263238"/>
<path d="M70.8197 97.2048H43.0048C42.922 97.1956 42.8383 97.204 42.759 97.2294C42.6797 97.2547 42.6067 97.2966 42.5447 97.3521C42.4826 97.4076 42.433 97.4756 42.3991 97.5516C42.3651 97.6276 42.3475 97.7099 42.3475 97.7931C42.3475 97.8764 42.3651 97.9587 42.3991 98.0347C42.433 98.1107 42.4826 98.1787 42.5447 98.2342C42.6067 98.2897 42.6797 98.3315 42.759 98.3569C42.8383 98.3823 42.922 98.3907 43.0048 98.3815H70.8197C70.8983 98.3824 70.9764 98.3679 71.0495 98.3386C71.1226 98.3094 71.1892 98.2661 71.2455 98.2111C71.3018 98.1561 71.3467 98.0906 71.3777 98.0183C71.4087 97.9459 71.4251 97.8682 71.4261 97.7895C71.4251 97.7112 71.4086 97.6338 71.3776 97.5618C71.3465 97.4899 71.3015 97.4248 71.245 97.3705C71.1886 97.3161 71.122 97.2734 71.049 97.245C70.9759 97.2165 70.898 97.2029 70.8197 97.2048Z" fill="#263238"/>
<path d="M70.8197 100.063H43.7194C43.5618 100.061 43.4097 100.122 43.2961 100.231C43.1826 100.341 43.1168 100.49 43.113 100.648C43.114 100.727 43.1304 100.804 43.1614 100.877C43.1924 100.949 43.2373 101.015 43.2936 101.07C43.3499 101.125 43.4165 101.168 43.4896 101.197C43.5626 101.226 43.6408 101.241 43.7194 101.24H70.8197C70.8983 101.241 70.9764 101.226 71.0495 101.197C71.1226 101.168 71.1892 101.125 71.2455 101.07C71.3018 101.015 71.3467 100.949 71.3777 100.877C71.4087 100.804 71.4251 100.727 71.4261 100.648C71.4251 100.57 71.4086 100.492 71.3776 100.42C71.3465 100.348 71.3014 100.283 71.245 100.229C71.1886 100.175 71.122 100.132 71.049 100.103C70.9759 100.075 70.898 100.061 70.8197 100.063Z" fill="#263238"/>
<path d="M129.785 69.3824L125.294 102.301H138.83L145.082 69.3824H129.785ZM131.106 100.893H127.258L127.799 97.154H131.698L131.106 100.893ZM132.311 93.3063H128.348L128.918 89.343H132.939L132.311 93.3063ZM133.589 85.2571H129.503L130.11 81.0484H134.253L133.589 85.2571ZM134.939 76.7025H130.701L131.344 72.2195H135.625L134.939 76.7025ZM137.321 100.893H133.474L134.102 97.154H138.007L137.321 100.893ZM138.707 93.3063H134.751L135.416 89.343H139.437L138.707 93.3063ZM140.151 85.2571H136.072L136.794 81.0484H140.938L140.151 85.2571ZM141.718 76.7025H137.509L138.231 72.2195H142.512L141.718 76.7025Z" fill="#71BDD5"/>
<path d="M59.6158 66.1338H126.868L127.706 59.3984H58.8939L59.6158 66.1338Z" fill="#71BDD5"/>
<path d="M210.956 187.258L254.701 212.82L288.931 146.398L248.157 123.227L210.956 187.258Z" fill="#263238" stroke="#263238" stroke-linecap="round" stroke-linejoin="round"/>
<path d="M212.659 182.978L210.956 187.258L254.695 211.999C255.119 210.373 255.981 208.895 257.185 207.725L212.659 182.978Z" fill="white" stroke="#263238" stroke-linecap="round" stroke-linejoin="round"/>
<path d="M247.99 120.529L212.659 182.978L257.846 208.353L291.408 145.056L247.99 120.529Z" fill="#263238" stroke="#263238" stroke-linecap="round" stroke-linejoin="round"/>
<path d="M212.439 185.221L224.692 191.318" stroke="#263238" stroke-linecap="round" stroke-linejoin="round"/>
<path d="M211.631 186.363L225.961 193.688" stroke="#263238" stroke-linecap="round" stroke-linejoin="round"/>
<path d="M255.823 209.161L246.661 203.585" stroke="#263238" stroke-linecap="round" stroke-linejoin="round"/>
<path d="M255.255 210.583L240.404 201.942" stroke="#263238" stroke-linecap="round" stroke-linejoin="round"/>
<path d="M254.053 135.607L276.951 148.147" stroke="#FFC283" stroke-miterlimit="10"/>
<path d="M246.848 138.338L279.175 156.04" stroke="#FFC283" stroke-miterlimit="10"/>
<path d="M288.657 150.244L291.408 145.056L285.585 141.77L288.657 150.244Z" fill="#FFC283" stroke="#FFC283" stroke-miterlimit="10"/>
<path d="M257.846 208.352L259.803 204.666L252.07 205.107L257.846 208.352Z" fill="#FFC283" stroke="#FFC283" stroke-miterlimit="10"/>
<path d="M173.029 150.552C172.489 150.11 171.84 149.821 171.151 149.717C170.461 149.612 169.756 149.695 169.109 149.958C165.303 151.494 157.757 154.806 157.35 157.043C156.816 160.034 162.104 177.823 163.36 183.813C164.615 189.803 167.587 193.83 174.985 195.439C182.384 197.048 192.073 192.975 195.773 186.284C199.472 179.593 194.437 173.496 190.578 167.473C187.506 162.705 177.189 153.978 173.029 150.552Z" fill="#263238"/>
<path d="M205.487 227.835C205.487 227.835 198.449 202.874 198.449 188.183C198.449 173.492 195.999 162.755 192.987 158.047C189.975 153.339 187.151 151.45 185.829 151.45C184.506 151.45 185.455 153.146 187.338 155.596C189.221 158.047 190.917 159.363 191.672 162.381C192.426 165.399 192.419 169.159 191.478 168.785C190.536 168.411 189.034 160.872 187.712 158.047C186.39 155.222 183.191 151.643 181.308 149.947C179.425 148.251 175.298 143.163 173.402 144.485C171.505 145.807 172.647 147.683 173.776 148.438C174.904 149.193 179.425 153.713 181.495 156.538C183.565 159.363 184.887 166.554 183.759 166.708C182.63 166.861 179.238 156.351 177.355 154.087C175.472 151.824 167.939 145.613 166.243 145.406C164.547 145.199 164.36 147.857 165.863 149.173C167.365 150.488 172.407 156.164 174.13 159.57C175.852 162.975 176.58 169.179 175.071 167.669C173.562 166.16 171.118 159.95 169.061 157.88C167.005 155.81 160.774 149.199 159.265 149.967C157.756 150.735 158.137 152.638 159.452 153.92C160.768 155.202 165.856 162.401 167.178 166.167C168.5 169.933 170.003 180.477 169.248 178.975C168.494 177.472 166.043 169.746 164.727 166.541C163.412 163.336 160.774 161.833 160.394 163.342C160.013 164.851 160.774 165.599 161.729 168.992C162.684 172.384 162.671 181.419 165.495 186.507C168.32 191.595 179.245 205.344 180.754 209.111C182.263 212.877 186.37 230.078 186.37 230.078" fill="white"/>
<path d="M205.487 227.835C205.487 227.835 198.449 202.874 198.449 188.183C198.449 173.492 195.999 162.755 192.987 158.047C189.975 153.339 187.151 151.45 185.829 151.45C184.506 151.45 185.455 153.146 187.338 155.596C189.221 158.047 190.917 159.363 191.672 162.381C192.426 165.399 192.419 169.159 191.478 168.785C190.536 168.411 189.034 160.872 187.712 158.047C186.39 155.222 183.191 151.643 181.308 149.947C179.425 148.251 175.298 143.163 173.402 144.485C171.505 145.807 172.647 147.683 173.776 148.438C174.904 149.193 179.425 153.713 181.495 156.538C183.565 159.363 184.887 166.554 183.759 166.708C182.63 166.861 179.238 156.351 177.355 154.087C175.472 151.824 167.939 145.613 166.243 145.406C164.547 145.199 164.36 147.857 165.863 149.173C167.365 150.488 172.407 156.164 174.13 159.57C175.852 162.975 176.58 169.179 175.071 167.669C173.562 166.16 171.118 159.95 169.061 157.88C167.005 155.81 160.774 149.199 159.265 149.967C157.756 150.735 158.137 152.638 159.452 153.92C160.768 155.202 165.856 162.401 167.178 166.167C168.5 169.933 170.003 180.477 169.248 178.975C168.494 177.472 166.043 169.746 164.727 166.541C163.412 163.336 160.774 161.833 160.394 163.342C160.013 164.851 160.774 165.599 161.729 168.992C162.684 172.384 162.671 181.419 165.495 186.507C168.32 191.595 179.245 205.344 180.754 209.111C182.263 212.877 186.37 230.078 186.37 230.078" stroke="#263238" stroke-linecap="round" stroke-linejoin="round"/>
<path d="M49.3053 151.516C48.9981 151.951 48.6909 152.398 48.3904 152.852" stroke="white" stroke-linecap="round" stroke-linejoin="round"/>
<path d="M54.3135 145.754C52.9781 146.989 51.7433 148.329 50.6208 149.76" stroke="white" stroke-linecap="round" stroke-linejoin="round"/>
<path d="M48.8712 148.291C47.5635 150.135 46.3768 152.063 45.3187 154.061" stroke="white" stroke-linecap="round" stroke-linejoin="round"/>
<path d="M82.6464 158.822C82.3459 159.256 82.0388 159.703 81.7383 160.157" stroke="white" stroke-linecap="round" stroke-linejoin="round"/>
<path d="M87.6547 153.059C86.3226 154.296 85.0901 155.635 83.9686 157.066" stroke="white" stroke-linecap="round" stroke-linejoin="round"/>
<path d="M82.2592 155.597C80.9489 157.439 79.7622 159.367 78.7067 161.366" stroke="white" stroke-linecap="round" stroke-linejoin="round"/>
<path d="M35.8766 224.716C35.8766 224.716 43.4357 202.874 43.4357 188.183C43.4357 173.493 45.8864 162.755 48.8979 158.047C51.9095 153.34 54.7408 151.45 56.0563 151.45C57.3718 151.45 56.437 153.146 54.5539 155.597C52.6708 158.047 50.9747 159.363 50.2201 162.381C49.4655 165.399 49.4655 169.159 50.4071 168.785C51.3486 168.411 52.8778 160.905 54.1732 158.047C55.4687 155.189 58.694 151.643 60.5771 149.947C62.4601 148.251 66.5869 143.163 68.49 144.485C70.3931 145.807 69.2446 147.684 68.1161 148.438C66.9875 149.193 62.4601 153.714 60.3901 156.538C58.32 159.363 56.9979 166.555 58.1331 166.708C59.2682 166.862 62.6538 156.351 64.5369 154.087C66.4199 151.824 73.9523 145.614 75.6484 145.407C77.3445 145.2 77.5315 147.857 76.0223 149.173C74.5132 150.488 69.4315 156.164 67.7354 159.57C66.0393 162.975 65.2914 169.179 66.7939 167.67C68.2963 166.161 70.7537 159.95 72.8037 157.88C74.8537 155.81 81.0906 149.199 82.5997 149.967C84.1089 150.735 83.7283 152.638 82.4061 153.921C81.0839 155.203 76.0023 162.401 74.6868 166.167C73.3713 169.933 71.8622 180.477 72.6167 178.975C73.3713 177.472 75.8153 169.746 77.1375 166.541C78.4596 163.336 81.0906 161.833 81.4646 163.343C81.8385 164.852 81.0906 165.6 80.129 168.992C79.1675 172.384 79.1875 181.419 76.3629 186.507C73.5383 191.595 62.6137 205.345 61.1046 209.111C59.5954 212.877 54.9812 226.967 54.9812 226.967" fill="white"/>
<path d="M35.8766 224.716C35.8766 224.716 43.4357 202.874 43.4357 188.183C43.4357 173.493 45.8864 162.755 48.8979 158.047C51.9095 153.34 54.7408 151.45 56.0563 151.45C57.3718 151.45 56.437 153.146 54.5539 155.597C52.6708 158.047 50.9747 159.363 50.2201 162.381C49.4655 165.399 49.4655 169.159 50.4071 168.785C51.3486 168.411 52.8778 160.905 54.1732 158.047C55.4687 155.189 58.694 151.643 60.5771 149.947C62.4601 148.251 66.5869 143.163 68.49 144.485C70.3931 145.807 69.2446 147.684 68.1161 148.438C66.9875 149.193 62.4601 153.714 60.3901 156.538C58.32 159.363 56.9979 166.555 58.1331 166.708C59.2682 166.862 62.6538 156.351 64.5369 154.087C66.4199 151.824 73.9523 145.614 75.6484 145.407C77.3445 145.2 77.5315 147.857 76.0223 149.173C74.5132 150.488 69.4315 156.164 67.7354 159.57C66.0393 162.975 65.2914 169.179 66.7939 167.67C68.2963 166.161 70.7537 159.95 72.8037 157.88C74.8537 155.81 81.0906 149.199 82.5997 149.967C84.1089 150.735 83.7283 152.638 82.4061 153.921C81.0839 155.203 76.0023 162.401 74.6868 166.167C73.3713 169.933 71.8622 180.477 72.6167 178.975C73.3713 177.472 75.8153 169.746 77.1375 166.541C78.4596 163.336 81.0906 161.833 81.4646 163.343C81.8385 164.852 81.0906 165.6 80.129 168.992C79.1675 172.384 79.1875 181.419 76.3629 186.507C73.5383 191.595 62.6137 205.345 61.1046 209.111C59.5954 212.877 54.9812 226.967 54.9812 226.967" stroke="#263238" stroke-linecap="round" stroke-linejoin="round"/>
<path d="M89.8049 34.5229L90.2122 33.9886" stroke="#263238" stroke-linecap="round" stroke-linejoin="round"/>
<path d="M91.0336 32.9469C98.3334 23.7729 107.456 16.2122 117.826 10.7421C128.195 5.27198 139.586 2.01136 151.28 1.16613C162.973 0.320888 174.715 1.90939 185.763 5.83132C196.812 9.75325 206.927 15.9234 215.47 23.9522" stroke="#263238" stroke-linecap="round" stroke-linejoin="round" stroke-dasharray="1.99 1.99"/>
<path d="M215.951 24.413L216.432 24.8737" stroke="#263238" stroke-linecap="round" stroke-linejoin="round"/>
<path d="M94.7931 36.2653L85.7115 40.4255L86.6464 30.4825L94.7931 36.2653Z" fill="#263238"/>
<path d="M232.058 109.859V135.394" stroke="#263238" stroke-linecap="round" stroke-linejoin="round" stroke-dasharray="2 2"/>
<path d="M227.063 111.315L232.058 102.668L237.052 111.315H227.063Z" fill="#263238"/>
</svg>
