<svg width="360" height="340" viewBox="0 0 360 340" fill="none" xmlns="http://www.w3.org/2000/svg">
<g clip-path="url(#clip0_209_1678)">
<path d="M341.981 283.999C350.289 270.581 349.508 257.412 346.559 245.033C345.038 244.916 343.352 244.833 341.424 244.833C329.103 244.833 326.203 265.862 318.992 266.584C311.78 267.307 300.871 255.709 288.55 255.709C276.229 255.709 260.302 305.725 254.486 309.356C248.67 312.986 244.333 306.456 232.012 301.38C219.691 296.303 203.764 312.255 189.241 317.323C174.718 322.391 158.799 313.701 153.723 304.279C148.646 294.858 137.048 267.307 126.903 268.03C116.759 268.753 106.606 276.006 100.807 269.484C95.0078 262.962 75.4334 210.038 68.1885 209.315C63.4611 208.842 41.7681 221.944 27.2534 231.108C38.7272 241.41 50.1262 248.057 53.0757 263.361C58.2352 290.188 94.3514 323.181 136.657 336.624C178.963 350.067 207.851 312.862 247.058 314.956C286.265 317.049 323.42 313.917 341.981 283.999Z" fill="#FFC283"/>
<path opacity="0.5" d="M341.981 283.999C350.289 270.581 349.508 257.412 346.559 245.033C345.038 244.916 343.352 244.833 341.424 244.833C329.103 244.833 326.203 265.862 318.992 266.584C311.78 267.307 300.871 255.709 288.55 255.709C276.229 255.709 260.302 305.725 254.486 309.356C248.67 312.986 244.333 306.456 232.012 301.38C219.691 296.303 203.764 312.255 189.241 317.323C174.718 322.391 158.799 313.701 153.723 304.279C148.646 294.858 137.048 267.307 126.903 268.03C116.759 268.753 106.606 276.006 100.807 269.484C95.0078 262.962 75.4334 210.038 68.1885 209.315C63.4611 208.842 41.7681 221.944 27.2534 231.108C38.7272 241.41 50.1262 248.057 53.0757 263.361C58.2352 290.188 94.3514 323.181 136.657 336.624C178.963 350.067 207.851 312.862 247.058 314.956C286.265 317.049 323.42 313.917 341.981 283.999Z" fill="white"/>
<path d="M313.442 139.883C312.692 139.881 311.959 140.102 311.335 140.517C310.711 140.933 310.224 141.524 309.936 142.216C309.648 142.908 309.572 143.67 309.717 144.405C309.862 145.141 310.222 145.817 310.752 146.347C311.281 146.878 311.956 147.24 312.691 147.387C313.427 147.533 314.189 147.459 314.882 147.172C315.574 146.886 316.166 146.4 316.583 145.777C317 145.154 317.222 144.421 317.222 143.671C317.222 142.668 316.824 141.706 316.115 140.995C315.407 140.285 314.445 139.885 313.442 139.883Z" fill="#FFC283"/>
<path d="M281.629 144.012C281.254 144.01 280.887 144.12 280.575 144.327C280.262 144.534 280.018 144.83 279.873 145.176C279.729 145.522 279.69 145.903 279.762 146.271C279.834 146.639 280.014 146.977 280.279 147.243C280.543 147.509 280.881 147.69 281.248 147.764C281.616 147.837 281.997 147.8 282.344 147.657C282.691 147.514 282.987 147.271 283.195 146.96C283.404 146.648 283.515 146.281 283.515 145.906C283.515 145.405 283.317 144.925 282.963 144.57C282.61 144.215 282.13 144.014 281.629 144.012Z" fill="#FFC283"/>
<path d="M320.496 109.1C320.121 109.099 319.754 109.208 319.441 109.416C319.128 109.623 318.884 109.918 318.74 110.264C318.595 110.61 318.556 110.991 318.628 111.359C318.701 111.727 318.88 112.065 319.145 112.331C319.409 112.597 319.747 112.778 320.115 112.852C320.482 112.926 320.864 112.889 321.21 112.746C321.557 112.602 321.853 112.36 322.062 112.048C322.27 111.736 322.382 111.37 322.382 110.995C322.382 110.494 322.183 110.013 321.83 109.658C321.476 109.303 320.997 109.103 320.496 109.1Z" fill="#FFC283"/>
<path d="M343.368 140.921C342.993 140.92 342.626 141.029 342.313 141.237C342 141.444 341.756 141.74 341.612 142.087C341.467 142.433 341.429 142.815 341.502 143.183C341.575 143.551 341.755 143.889 342.021 144.155C342.286 144.42 342.624 144.601 342.993 144.674C343.361 144.747 343.742 144.708 344.089 144.564C344.435 144.42 344.731 144.175 344.939 143.863C345.146 143.55 345.256 143.183 345.254 142.807C345.252 142.308 345.053 141.829 344.7 141.476C344.346 141.123 343.868 140.923 343.368 140.921Z" fill="#FFC283"/>
<path d="M285.941 186.459C285.301 186.844 284.789 187.41 284.469 188.085C284.15 188.761 284.038 189.516 284.148 190.255C284.258 190.994 284.584 191.684 285.086 192.238C285.587 192.792 286.242 193.184 286.966 193.366C287.691 193.549 288.454 193.512 289.157 193.261C289.861 193.01 290.475 192.556 290.921 191.956C291.367 191.357 291.625 190.639 291.663 189.892C291.701 189.146 291.517 188.405 291.134 187.764C290.879 187.336 290.543 186.964 290.144 186.667C289.745 186.37 289.291 186.155 288.808 186.034C288.326 185.913 287.825 185.888 287.333 185.961C286.841 186.034 286.368 186.203 285.941 186.459Z" fill="#FFC283"/>
<path d="M268.652 161.941C268.332 162.134 268.077 162.416 267.919 162.754C267.76 163.091 267.705 163.468 267.76 163.836C267.815 164.205 267.978 164.549 268.229 164.825C268.479 165.101 268.806 165.296 269.168 165.387C269.529 165.477 269.909 165.458 270.26 165.333C270.611 165.207 270.917 164.98 271.139 164.681C271.361 164.382 271.49 164.023 271.509 163.651C271.527 163.279 271.435 162.909 271.244 162.589C270.985 162.161 270.567 161.852 270.082 161.731C269.596 161.609 269.082 161.685 268.652 161.941Z" fill="#FFC283"/>
<path d="M318.568 177.345C318.249 177.537 317.994 177.82 317.835 178.157C317.676 178.494 317.621 178.871 317.676 179.24C317.731 179.608 317.895 179.952 318.145 180.228C318.396 180.504 318.722 180.7 319.084 180.79C319.446 180.881 319.826 180.862 320.177 180.736C320.528 180.611 320.834 180.384 321.056 180.085C321.278 179.785 321.406 179.427 321.425 179.055C321.444 178.682 321.352 178.313 321.16 177.993C321.033 177.78 320.865 177.594 320.666 177.446C320.466 177.298 320.24 177.191 319.999 177.131C319.758 177.071 319.508 177.059 319.262 177.095C319.017 177.132 318.781 177.217 318.568 177.345Z" fill="#FFC283"/>
<path d="M303.032 213.312C302.709 213.504 302.452 213.787 302.291 214.126C302.13 214.465 302.073 214.844 302.128 215.215C302.183 215.586 302.346 215.933 302.598 216.211C302.85 216.489 303.179 216.685 303.543 216.776C303.906 216.867 304.289 216.848 304.642 216.722C304.995 216.595 305.303 216.366 305.525 216.064C305.748 215.763 305.877 215.402 305.894 215.027C305.912 214.652 305.818 214.281 305.624 213.96C305.365 213.531 304.947 213.222 304.461 213.101C303.976 212.98 303.462 213.055 303.032 213.312Z" fill="#FFC283"/>
<path d="M70.9635 151.581C70.3229 151.965 69.8107 152.531 69.4915 153.207C69.1723 153.882 69.0605 154.637 69.1702 155.377C69.2799 156.116 69.6062 156.806 70.1078 157.359C70.6094 157.913 71.2639 158.306 71.9886 158.488C72.7132 158.67 73.4756 158.633 74.1794 158.382C74.8832 158.131 75.4968 157.677 75.9427 157.078C76.3887 156.478 76.647 155.76 76.685 155.014C76.723 154.268 76.539 153.527 76.1562 152.885C75.6401 152.024 74.8033 151.403 73.8297 151.159C72.8561 150.914 71.8252 151.066 70.9635 151.581Z" fill="#FFC283"/>
<path d="M53.6822 127.055C53.3598 127.246 53.1014 127.529 52.9397 127.867C52.7781 128.206 52.7205 128.584 52.7742 128.955C52.8279 129.326 52.9906 129.673 53.2415 129.952C53.4925 130.23 53.8205 130.428 54.184 130.52C54.5474 130.612 54.9301 130.594 55.2834 130.469C55.6367 130.343 55.9447 130.116 56.1686 129.815C56.3925 129.514 56.522 129.154 56.5408 128.779C56.5597 128.405 56.467 128.033 56.2744 127.711C56.0155 127.283 55.5983 126.974 55.1131 126.851C54.6279 126.728 54.1138 126.801 53.6822 127.055Z" fill="#FFC283"/>
<path d="M103.59 142.458C103.268 142.65 103.009 142.933 102.848 143.271C102.686 143.609 102.629 143.988 102.682 144.359C102.736 144.73 102.899 145.077 103.15 145.355C103.401 145.634 103.729 145.832 104.092 145.924C104.456 146.016 104.838 145.998 105.191 145.872C105.545 145.747 105.853 145.519 106.077 145.218C106.301 144.918 106.43 144.557 106.449 144.183C106.468 143.808 106.375 143.437 106.183 143.115C105.925 142.685 105.508 142.374 105.022 142.251C104.536 142.128 104.021 142.203 103.59 142.458Z" fill="#FFC283"/>
<path d="M88.0454 178.433C87.7273 178.627 87.4735 178.91 87.316 179.247C87.1585 179.584 87.1043 179.961 87.1602 180.329C87.2162 180.697 87.3798 181.04 87.6304 181.315C87.8811 181.59 88.2076 181.785 88.5687 181.875C88.9299 181.965 89.3097 181.946 89.6602 181.821C90.0106 181.695 90.3162 181.469 90.5383 181.17C90.7604 180.872 90.8891 180.514 90.9083 180.142C90.9274 179.77 90.8362 179.401 90.646 179.081C90.5178 178.868 90.3489 178.682 90.1488 178.534C89.9488 178.386 89.7215 178.279 89.48 178.218C89.2385 178.158 88.9875 178.146 88.7413 178.183C88.4952 178.22 88.2587 178.305 88.0454 178.433Z" fill="#FFC283"/>
<path d="M35.7029 186.343C35.0624 186.727 34.5501 187.293 34.231 187.969C33.9118 188.644 33.8 189.399 33.9097 190.139C34.0194 190.878 34.3456 191.568 34.8472 192.121C35.3489 192.675 36.0033 193.068 36.728 193.25C37.4527 193.432 38.2151 193.395 38.9188 193.144C39.6226 192.893 40.2362 192.439 40.6822 191.84C41.1281 191.24 41.3864 190.522 41.4244 189.776C41.4624 189.03 41.2784 188.289 40.8956 187.647C40.6409 187.22 40.3043 186.847 39.9052 186.55C39.5061 186.254 39.0524 186.038 38.57 185.917C38.0876 185.796 37.5861 185.771 37.0941 185.844C36.6021 185.917 36.1293 186.087 35.7029 186.343Z" fill="#FFC283"/>
<path d="M18.4134 161.825C18.0941 162.017 17.839 162.3 17.6802 162.637C17.5215 162.974 17.4662 163.351 17.5214 163.72C17.5766 164.088 17.7398 164.432 17.9903 164.708C18.2409 164.984 18.5676 165.18 18.9292 165.27C19.2908 165.361 19.6711 165.342 20.022 165.216C20.3729 165.091 20.6788 164.864 20.9009 164.565C21.1231 164.265 21.2516 163.907 21.2702 163.535C21.2889 163.162 21.1968 162.793 21.0056 162.473C20.8782 162.26 20.7101 162.074 20.5107 161.926C20.3114 161.778 20.0848 161.671 19.844 161.611C19.6032 161.551 19.3528 161.538 19.1073 161.575C18.8618 161.612 18.626 161.697 18.4134 161.825Z" fill="#FFC283"/>
<path d="M68.3297 177.229C68.0116 177.422 67.7578 177.705 67.6003 178.042C67.4428 178.38 67.3886 178.756 67.4445 179.124C67.5005 179.492 67.6641 179.835 67.9147 180.111C68.1654 180.386 68.4919 180.581 68.853 180.671C69.2142 180.761 69.594 180.742 69.9445 180.616C70.2949 180.491 70.6005 180.265 70.8226 179.966C71.0447 179.667 71.1734 179.309 71.1926 178.938C71.2117 178.566 71.1205 178.197 70.9303 177.877C70.8029 177.663 70.6344 177.476 70.4344 177.327C70.2344 177.178 70.0069 177.071 69.7651 177.011C69.5233 176.95 69.272 176.939 69.0256 176.976C68.7792 177.013 68.5427 177.099 68.3297 177.229Z" fill="#FFC283"/>
<path d="M52.7932 213.162C52.4711 213.355 52.2133 213.638 52.0524 213.977C51.8915 214.316 51.8349 214.695 51.8896 215.066C51.9443 215.437 52.108 215.783 52.3598 216.061C52.6116 216.339 52.9403 216.536 53.3042 216.627C53.6681 216.718 54.0508 216.699 54.4038 216.572C54.7568 216.445 55.0642 216.217 55.2871 215.915C55.51 215.613 55.6384 215.252 55.6559 214.878C55.6734 214.503 55.5792 214.132 55.3854 213.811C55.1267 213.382 54.7088 213.073 54.2231 212.952C53.7373 212.83 53.2232 212.906 52.7932 213.162Z" fill="#FFC283"/>
<path d="M121.304 16.8365C120.631 17.1642 120.071 17.6839 119.694 18.33C119.317 18.976 119.141 19.7194 119.186 20.4659C119.232 21.2125 119.498 21.9287 119.951 22.5239C120.404 23.1191 121.023 23.5666 121.731 23.8098C122.438 24.0529 123.202 24.0807 123.925 23.8898C124.648 23.6988 125.298 23.2977 125.793 22.737C126.288 22.1764 126.606 21.4815 126.706 20.7402C126.806 19.999 126.684 19.2448 126.355 18.573C125.913 17.675 125.134 16.9884 124.187 16.663C123.241 16.3377 122.204 16.4001 121.304 16.8365Z" fill="#FFC283"/>
<path d="M149.743 2.57106C149.405 2.73394 149.123 2.99405 148.933 3.31809C148.744 3.64213 148.655 4.01536 148.679 4.39C148.703 4.76464 148.838 5.12365 149.067 5.42106C149.296 5.71847 149.609 5.94076 149.965 6.05947C150.321 6.17819 150.705 6.18792 151.066 6.08742C151.428 5.98693 151.751 5.78078 151.995 5.49537C152.239 5.20995 152.392 4.85827 152.435 4.48532C152.478 4.11237 152.408 3.73513 152.236 3.40189C152.01 2.96647 151.623 2.63617 151.158 2.48106C150.692 2.32595 150.185 2.35823 149.743 2.57106Z" fill="#FFC283"/>
<path d="M130.119 42.7336C129.685 42.961 129.356 43.3476 129.201 43.8124C129.046 44.2771 129.077 44.7838 129.288 45.2261C129.45 45.5671 129.711 45.8517 130.037 46.0435C130.362 46.2352 130.737 46.3253 131.114 46.3021C131.491 46.2789 131.853 46.1436 132.152 45.9134C132.452 45.6832 132.676 45.3688 132.795 45.0104C132.915 44.6521 132.924 44.2662 132.823 43.9023C132.721 43.5385 132.513 43.2133 132.226 42.9686C131.938 42.7238 131.584 42.5706 131.208 42.5288C130.833 42.4869 130.453 42.5582 130.119 42.7336Z" fill="#FFC283"/>
<path d="M95.6144 32.4312C95.2787 32.5992 95.0005 32.8631 94.8151 33.1895C94.6296 33.5159 94.5454 33.8901 94.573 34.2644C94.6006 34.6388 94.7388 34.9965 94.9701 35.2922C95.2014 35.5879 95.5153 35.8082 95.872 35.9252C96.2287 36.0421 96.6121 36.0504 96.9736 35.9491C97.335 35.8478 97.6582 35.6413 97.9021 35.356C98.146 35.0706 98.2997 34.7192 98.3435 34.3464C98.3874 33.9736 98.3194 33.5961 98.1484 33.262C97.9208 32.8174 97.5269 32.4807 97.0523 32.3251C96.5778 32.1695 96.061 32.2076 95.6144 32.4312Z" fill="#FFC283"/>
<path d="M292.189 65.1161C291.538 64.7483 290.792 64.582 290.046 64.6383C289.3 64.6946 288.588 64.9709 287.999 65.4323C287.41 65.8936 286.971 66.5193 286.738 67.2302C286.505 67.941 286.488 68.7049 286.69 69.4254C286.891 70.1458 287.302 70.7903 287.869 71.2773C288.437 71.7643 289.137 72.0719 289.879 72.1611C290.622 72.2504 291.375 72.1173 292.042 71.7787C292.709 71.4401 293.26 70.9112 293.627 70.2589C294.114 69.3856 294.237 68.3547 293.968 67.3912C293.699 66.4278 293.059 65.6099 292.189 65.1161Z" fill="#FFC283"/>
<path d="M262.462 53.069C262.137 52.8862 261.766 52.8037 261.394 52.832C261.022 52.8602 260.668 52.9979 260.374 53.2277C260.081 53.4575 259.862 53.769 259.746 54.123C259.629 54.477 259.62 54.8576 259.72 55.2167C259.819 55.5758 260.023 55.8974 260.305 56.1407C260.587 56.3841 260.935 56.5385 261.305 56.5842C261.675 56.63 262.05 56.5652 262.383 56.398C262.716 56.2307 262.992 55.9686 263.177 55.6446C263.3 55.429 263.38 55.1909 263.411 54.9442C263.442 54.6975 263.424 54.447 263.358 54.2074C263.291 53.9678 263.178 53.7438 263.024 53.5484C262.87 53.3529 262.679 53.19 262.462 53.069Z" fill="#FFC283"/>
<path d="M306.671 46.464C306.346 46.2812 305.974 46.1987 305.603 46.227C305.231 46.2552 304.876 46.3929 304.583 46.6227C304.289 46.8525 304.071 47.164 303.954 47.518C303.838 47.872 303.829 48.2526 303.928 48.6117C304.028 48.9708 304.232 49.2924 304.514 49.5358C304.796 49.7791 305.144 49.9335 305.514 49.9793C305.884 50.025 306.259 49.9602 306.592 49.793C306.925 49.6257 307.201 49.3636 307.385 49.0396C307.509 48.824 307.589 48.5859 307.62 48.3392C307.651 48.0925 307.633 47.8421 307.566 47.6024C307.5 47.3628 307.386 47.1388 307.233 46.9434C307.079 46.748 306.888 46.585 306.671 46.464Z" fill="#FFC283"/>
<path d="M315.876 84.0258C316.202 84.2112 316.576 84.2957 316.95 84.2685C317.324 84.2413 317.682 84.1037 317.977 83.8731C318.273 83.6425 318.494 83.3294 318.611 82.9732C318.729 82.6171 318.738 82.2341 318.638 81.8728C318.538 81.5114 318.332 81.1879 318.048 80.9433C317.764 80.6987 317.413 80.544 317.041 80.4987C316.669 80.4535 316.292 80.5197 315.957 80.6891C315.622 80.8585 315.346 81.1234 315.162 81.4503C314.918 81.8873 314.857 82.4026 314.991 82.8846C315.124 83.3667 315.442 83.7767 315.876 84.0258Z" fill="#FFC283"/>
<g opacity="0.3">
<path d="M313.442 139.883C312.692 139.881 311.959 140.102 311.335 140.517C310.711 140.933 310.224 141.524 309.936 142.216C309.648 142.908 309.572 143.67 309.717 144.405C309.862 145.141 310.222 145.817 310.752 146.347C311.281 146.878 311.956 147.24 312.691 147.387C313.427 147.533 314.189 147.459 314.882 147.172C315.574 146.886 316.167 146.4 316.583 145.777C317 145.154 317.222 144.421 317.222 143.671C317.222 142.668 316.824 141.706 316.116 140.995C315.407 140.285 314.445 139.885 313.442 139.883Z" fill="white"/>
<path d="M281.629 144.012C281.254 144.01 280.887 144.12 280.575 144.327C280.262 144.534 280.018 144.83 279.873 145.176C279.729 145.522 279.69 145.903 279.762 146.271C279.834 146.639 280.014 146.977 280.279 147.243C280.543 147.509 280.881 147.69 281.248 147.764C281.616 147.837 281.997 147.8 282.344 147.657C282.691 147.514 282.987 147.271 283.196 146.96C283.404 146.648 283.515 146.281 283.515 145.906C283.515 145.405 283.317 144.925 282.963 144.57C282.61 144.215 282.13 144.014 281.629 144.012Z" fill="white"/>
<path d="M320.496 109.1C320.121 109.099 319.754 109.208 319.441 109.416C319.128 109.623 318.884 109.918 318.74 110.264C318.595 110.61 318.556 110.991 318.628 111.359C318.701 111.727 318.88 112.065 319.145 112.331C319.41 112.597 319.747 112.778 320.115 112.852C320.482 112.926 320.864 112.889 321.21 112.746C321.557 112.602 321.853 112.36 322.062 112.048C322.27 111.736 322.382 111.37 322.382 110.995C322.382 110.494 322.183 110.013 321.83 109.658C321.476 109.303 320.997 109.103 320.496 109.1Z" fill="white"/>
<path d="M343.369 140.921C342.993 140.92 342.626 141.029 342.313 141.237C342 141.444 341.756 141.74 341.612 142.087C341.467 142.433 341.429 142.815 341.502 143.183C341.575 143.551 341.755 143.889 342.021 144.155C342.286 144.42 342.624 144.601 342.993 144.674C343.361 144.747 343.743 144.708 344.089 144.564C344.435 144.42 344.731 144.175 344.939 143.863C345.146 143.55 345.256 143.183 345.255 142.807C345.252 142.308 345.053 141.829 344.7 141.476C344.346 141.123 343.868 140.923 343.369 140.921Z" fill="white"/>
<path d="M285.942 186.459C285.301 186.844 284.789 187.41 284.47 188.085C284.15 188.761 284.039 189.516 284.148 190.255C284.258 190.994 284.584 191.684 285.086 192.238C285.587 192.792 286.242 193.184 286.967 193.366C287.691 193.549 288.454 193.512 289.157 193.261C289.861 193.01 290.475 192.556 290.921 191.956C291.367 191.357 291.625 190.639 291.663 189.892C291.701 189.146 291.517 188.405 291.134 187.764C290.879 187.336 290.543 186.964 290.144 186.667C289.745 186.37 289.291 186.155 288.809 186.034C288.326 185.913 287.825 185.888 287.333 185.961C286.841 186.034 286.368 186.203 285.942 186.459Z" fill="white"/>
<path d="M268.652 161.941C268.333 162.134 268.077 162.416 267.919 162.754C267.76 163.091 267.705 163.468 267.76 163.836C267.815 164.205 267.978 164.549 268.229 164.825C268.479 165.101 268.806 165.296 269.168 165.387C269.529 165.477 269.909 165.458 270.26 165.333C270.611 165.207 270.917 164.98 271.139 164.681C271.362 164.382 271.49 164.023 271.509 163.651C271.527 163.279 271.435 162.909 271.244 162.589C270.985 162.161 270.567 161.852 270.082 161.731C269.596 161.609 269.082 161.685 268.652 161.941Z" fill="white"/>
<path d="M318.568 177.345C318.249 177.537 317.994 177.82 317.835 178.157C317.676 178.494 317.621 178.871 317.676 179.24C317.731 179.608 317.895 179.952 318.145 180.228C318.396 180.504 318.722 180.7 319.084 180.79C319.446 180.881 319.826 180.862 320.177 180.736C320.528 180.611 320.834 180.384 321.056 180.085C321.278 179.785 321.406 179.427 321.425 179.055C321.444 178.682 321.352 178.313 321.16 177.993C321.033 177.78 320.865 177.594 320.666 177.446C320.466 177.298 320.24 177.191 319.999 177.131C319.758 177.071 319.508 177.059 319.262 177.095C319.017 177.132 318.781 177.217 318.568 177.345Z" fill="white"/>
<path d="M303.032 213.312C302.71 213.504 302.452 213.787 302.291 214.126C302.13 214.465 302.073 214.844 302.128 215.215C302.183 215.586 302.346 215.933 302.598 216.211C302.85 216.489 303.179 216.685 303.543 216.776C303.906 216.867 304.289 216.848 304.642 216.722C304.995 216.595 305.303 216.366 305.526 216.064C305.748 215.763 305.877 215.402 305.894 215.027C305.912 214.652 305.818 214.281 305.624 213.96C305.365 213.531 304.947 213.222 304.461 213.101C303.976 212.98 303.462 213.055 303.032 213.312Z" fill="white"/>
<path d="M70.9636 151.581C70.323 151.965 69.8107 152.531 69.4916 153.207C69.1724 153.882 69.0606 154.637 69.1703 155.377C69.28 156.116 69.6062 156.806 70.1078 157.359C70.6095 157.913 71.264 158.306 71.9886 158.488C72.7133 158.67 73.4757 158.633 74.1795 158.382C74.8832 158.131 75.4968 157.677 75.9428 157.078C76.3887 156.478 76.647 155.76 76.685 155.014C76.723 154.268 76.539 153.527 76.1563 152.885C75.6401 152.024 74.8034 151.403 73.8298 151.159C72.8562 150.914 71.8253 151.066 70.9636 151.581Z" fill="white"/>
<path d="M53.6823 127.055C53.3598 127.246 53.1014 127.529 52.9398 127.867C52.7781 128.206 52.7205 128.584 52.7742 128.955C52.828 129.326 52.9906 129.673 53.2416 129.952C53.4926 130.23 53.8205 130.428 54.184 130.52C54.5475 130.612 54.9301 130.594 55.2834 130.469C55.6367 130.343 55.9448 130.116 56.1687 129.815C56.3925 129.514 56.5221 129.154 56.5409 128.779C56.5597 128.405 56.467 128.033 56.2745 127.711C56.0156 127.283 55.5983 126.974 55.1131 126.851C54.6279 126.728 54.1138 126.801 53.6823 127.055Z" fill="white"/>
<path d="M103.59 142.458C103.268 142.65 103.009 142.933 102.848 143.271C102.686 143.609 102.629 143.988 102.682 144.359C102.736 144.73 102.899 145.077 103.15 145.355C103.401 145.634 103.729 145.832 104.092 145.924C104.456 146.016 104.838 145.998 105.191 145.872C105.545 145.747 105.853 145.519 106.077 145.218C106.301 144.918 106.43 144.557 106.449 144.183C106.468 143.808 106.375 143.437 106.183 143.115C105.925 142.685 105.508 142.374 105.022 142.251C104.536 142.128 104.021 142.203 103.59 142.458Z" fill="white"/>
<path d="M88.0456 178.433C87.7274 178.627 87.4736 178.91 87.3161 179.247C87.1586 179.584 87.1044 179.961 87.1603 180.329C87.2163 180.697 87.3799 181.04 87.6305 181.315C87.8812 181.59 88.2077 181.785 88.5689 181.875C88.9301 181.965 89.3098 181.946 89.6603 181.821C90.0108 181.695 90.3163 181.469 90.5384 181.17C90.7605 180.872 90.8892 180.514 90.9084 180.142C90.9276 179.77 90.8363 179.401 90.6461 179.081C90.5179 178.868 90.349 178.682 90.149 178.534C89.9489 178.386 89.7216 178.279 89.4801 178.218C89.2386 178.158 88.9876 178.146 88.7415 178.183C88.4953 178.22 88.2588 178.305 88.0456 178.433Z" fill="white"/>
<path d="M35.7031 186.343C35.0625 186.727 34.5503 187.293 34.2311 187.969C33.9119 188.644 33.8001 189.399 33.9098 190.139C34.0195 190.878 34.3457 191.568 34.8474 192.121C35.349 192.675 36.0035 193.068 36.7281 193.25C37.4528 193.432 38.2152 193.395 38.919 193.144C39.6227 192.893 40.2364 192.439 40.6823 191.84C41.1283 191.24 41.3865 190.522 41.4245 189.776C41.4625 189.03 41.2785 188.289 40.8958 187.647C40.641 187.22 40.3044 186.847 39.9053 186.55C39.5062 186.254 39.0525 186.038 38.5701 185.917C38.0877 185.796 37.5862 185.771 37.0942 185.844C36.6022 185.917 36.1295 186.087 35.7031 186.343Z" fill="white"/>
<path d="M18.4134 161.825C18.0942 162.017 17.839 162.3 17.6803 162.637C17.5215 162.974 17.4663 163.351 17.5215 163.72C17.5767 164.088 17.7398 164.432 17.9904 164.708C18.2409 164.984 18.5676 165.18 18.9292 165.27C19.2908 165.361 19.6711 165.342 20.022 165.216C20.373 165.091 20.6788 164.864 20.901 164.565C21.1232 164.265 21.2517 163.907 21.2703 163.535C21.2889 163.162 21.1968 162.793 21.0056 162.473C20.8783 162.26 20.7101 162.074 20.5108 161.926C20.3115 161.778 20.0849 161.671 19.8441 161.611C19.6033 161.551 19.3529 161.538 19.1074 161.575C18.8619 161.612 18.6261 161.697 18.4134 161.825Z" fill="white"/>
<path d="M68.3299 177.229C68.0117 177.422 67.7579 177.705 67.6004 178.042C67.4429 178.38 67.3887 178.756 67.4446 179.124C67.5006 179.492 67.6642 179.835 67.9148 180.111C68.1655 180.386 68.492 180.581 68.8532 180.671C69.2144 180.761 69.5941 180.742 69.9446 180.616C70.2951 180.491 70.6006 180.265 70.8227 179.966C71.0448 179.667 71.1735 179.309 71.1927 178.938C71.2119 178.566 71.1206 178.197 70.9304 177.877C70.803 177.663 70.6345 177.476 70.4345 177.327C70.2345 177.178 70.0071 177.071 69.7653 177.011C69.5234 176.95 69.2721 176.939 69.0257 176.976C68.7793 177.013 68.5428 177.099 68.3299 177.229Z" fill="white"/>
<path d="M52.7932 213.162C52.4711 213.355 52.2133 213.638 52.0524 213.977C51.8915 214.316 51.8349 214.695 51.8896 215.066C51.9443 215.437 52.108 215.783 52.3598 216.061C52.6116 216.339 52.9403 216.536 53.3042 216.627C53.6681 216.718 54.0508 216.699 54.4038 216.572C54.7568 216.445 55.0642 216.217 55.2871 215.915C55.51 215.613 55.6384 215.252 55.6559 214.878C55.6734 214.503 55.5792 214.132 55.3854 213.811C55.1267 213.382 54.7088 213.073 54.2231 212.952C53.7373 212.83 53.2232 212.906 52.7932 213.162Z" fill="white"/>
<path d="M121.304 16.8365C120.631 17.1642 120.071 17.6839 119.694 18.33C119.318 18.976 119.141 19.7194 119.187 20.4659C119.232 21.2125 119.498 21.9287 119.951 22.5239C120.404 23.1191 121.024 23.5666 121.731 23.8098C122.438 24.0529 123.202 24.0807 123.925 23.8898C124.648 23.6988 125.298 23.2977 125.793 22.737C126.288 22.1764 126.606 21.4815 126.706 20.7402C126.806 19.999 126.684 19.2448 126.355 18.573C125.913 17.675 125.134 16.9884 124.188 16.663C123.241 16.3377 122.204 16.4001 121.304 16.8365Z" fill="white"/>
<path d="M149.743 2.57106C149.405 2.73394 149.123 2.99405 148.933 3.31809C148.744 3.64213 148.655 4.01536 148.679 4.39C148.703 4.76464 148.838 5.12365 149.067 5.42106C149.296 5.71847 149.609 5.94076 149.965 6.05947C150.321 6.17819 150.705 6.18792 151.066 6.08742C151.428 5.98693 151.751 5.78078 151.995 5.49537C152.239 5.20995 152.392 4.85827 152.435 4.48532C152.478 4.11237 152.408 3.73513 152.236 3.40189C152.01 2.96647 151.623 2.63617 151.158 2.48106C150.692 2.32595 150.185 2.35823 149.743 2.57106Z" fill="white"/>
<path d="M130.119 42.7336C129.685 42.961 129.356 43.3476 129.201 43.8124C129.046 44.2771 129.077 44.7838 129.288 45.2261C129.45 45.5671 129.711 45.8517 130.037 46.0435C130.362 46.2352 130.737 46.3253 131.114 46.3021C131.491 46.2789 131.853 46.1436 132.152 45.9134C132.452 45.6832 132.676 45.3688 132.795 45.0104C132.915 44.6521 132.924 44.2662 132.823 43.9023C132.721 43.5385 132.513 43.2133 132.226 42.9686C131.938 42.7238 131.584 42.5706 131.208 42.5288C130.833 42.4869 130.453 42.5582 130.119 42.7336Z" fill="white"/>
<path d="M95.6144 32.4312C95.2787 32.5992 95.0005 32.8631 94.8151 33.1895C94.6296 33.5159 94.5454 33.8901 94.573 34.2644C94.6006 34.6388 94.7388 34.9965 94.9701 35.2922C95.2014 35.5879 95.5153 35.8082 95.872 35.9252C96.2287 36.0421 96.6121 36.0504 96.9736 35.9491C97.335 35.8478 97.6582 35.6413 97.9021 35.356C98.146 35.0706 98.2997 34.7192 98.3435 34.3464C98.3874 33.9736 98.3194 33.5961 98.1484 33.262C97.9208 32.8174 97.5269 32.4807 97.0523 32.3251C96.5778 32.1695 96.061 32.2076 95.6144 32.4312Z" fill="white"/>
<path d="M292.189 65.1161C291.538 64.7483 290.792 64.582 290.046 64.6383C289.3 64.6946 288.588 64.9709 287.999 65.4323C287.41 65.8936 286.971 66.5193 286.738 67.2302C286.505 67.941 286.488 68.7049 286.69 69.4254C286.891 70.1458 287.302 70.7903 287.87 71.2773C288.437 71.7643 289.137 72.0719 289.88 72.1611C290.622 72.2504 291.375 72.1173 292.042 71.7787C292.709 71.4401 293.26 70.9112 293.627 70.2589C294.115 69.3856 294.237 68.3547 293.968 67.3912C293.699 66.4278 293.059 65.6099 292.189 65.1161Z" fill="white"/>
<path d="M262.462 53.069C262.137 52.8862 261.766 52.8037 261.394 52.832C261.023 52.8602 260.668 52.9979 260.374 53.2277C260.081 53.4575 259.862 53.769 259.746 54.123C259.629 54.477 259.62 54.8576 259.72 55.2167C259.819 55.5758 260.023 55.8974 260.305 56.1407C260.588 56.3841 260.936 56.5385 261.305 56.5842C261.675 56.63 262.05 56.5652 262.383 56.398C262.716 56.2307 262.992 55.9686 263.177 55.6446C263.3 55.429 263.38 55.1909 263.411 54.9442C263.442 54.6975 263.424 54.447 263.358 54.2074C263.291 53.9678 263.178 53.7438 263.024 53.5484C262.87 53.3529 262.679 53.19 262.462 53.069Z" fill="white"/>
<path d="M306.671 46.464C306.346 46.2812 305.974 46.1987 305.603 46.227C305.231 46.2552 304.876 46.3929 304.583 46.6227C304.289 46.8525 304.071 47.164 303.954 47.518C303.838 47.872 303.829 48.2526 303.928 48.6117C304.028 48.9708 304.232 49.2924 304.514 49.5358C304.796 49.7791 305.144 49.9335 305.514 49.9793C305.884 50.025 306.259 49.9602 306.592 49.793C306.925 49.6257 307.201 49.3636 307.385 49.0396C307.509 48.824 307.589 48.5859 307.62 48.3392C307.651 48.0925 307.633 47.8421 307.566 47.6024C307.5 47.3628 307.386 47.1388 307.233 46.9434C307.079 46.748 306.888 46.585 306.671 46.464Z" fill="white"/>
<path d="M315.876 84.0258C316.202 84.2112 316.576 84.2957 316.95 84.2685C317.324 84.2413 317.682 84.1037 317.977 83.8731C318.273 83.6425 318.494 83.3294 318.611 82.9732C318.729 82.6171 318.738 82.2341 318.638 81.8728C318.538 81.5114 318.333 81.1879 318.048 80.9433C317.764 80.6987 317.414 80.544 317.041 80.4987C316.669 80.4535 316.292 80.5197 315.957 80.6891C315.623 80.8585 315.346 81.1234 315.162 81.4503C314.918 81.8873 314.857 82.4026 314.991 82.8846C315.124 83.3667 315.443 83.7767 315.876 84.0258Z" fill="white"/>
</g>
<path d="M185.967 106.159C212.489 106.159 233.989 89.3755 233.989 68.672C233.989 47.9684 212.489 31.1848 185.967 31.1848C159.445 31.1848 137.945 47.9684 137.945 68.672C137.945 89.3755 159.445 106.159 185.967 106.159Z" fill="#263238" stroke="#263238" stroke-width="1.24191" stroke-linecap="round" stroke-linejoin="round"/>
<path d="M219.849 45.1261C226.994 51.3823 231.339 59.6324 231.339 68.6719C231.339 88.2297 211.034 104.082 185.984 104.082C160.934 104.082 140.629 88.2297 140.629 68.6719C140.629 56.4504 148.563 45.6828 160.627 39.3186" fill="#263238"/>
<path d="M219.849 45.1261C226.994 51.3823 231.339 59.6324 231.339 68.6719C231.339 88.2297 211.034 104.082 185.984 104.082C160.934 104.082 140.629 88.2297 140.629 68.6719C140.629 56.4504 148.563 45.6828 160.627 39.3186" stroke="white" stroke-width="1.24191" stroke-linecap="round" stroke-linejoin="round"/>
<path d="M166.302 36.7597C169.957 35.3948 173.747 34.4255 177.609 33.8684L166.302 36.7597Z" fill="#263238"/>
<path d="M166.302 36.7597C169.957 35.3948 173.747 34.4255 177.609 33.8684" stroke="white" stroke-width="1.24191" stroke-linecap="round" stroke-linejoin="round"/>
<path d="M185.967 103.293C228.861 103.293 263.633 91.7542 263.633 77.5205C263.633 63.2868 228.861 51.748 185.967 51.748C143.073 51.748 108.301 63.2868 108.301 77.5205C108.301 91.7542 143.073 103.293 185.967 103.293Z" fill="#FFC283" stroke="#263238" stroke-width="1.24191" stroke-linecap="round" stroke-linejoin="round"/>
<path d="M185.967 112.581C247.082 112.581 296.626 101.043 296.626 86.809C296.626 72.5753 247.082 61.0366 185.967 61.0366C124.852 61.0366 75.3087 72.5753 75.3087 86.809C75.3087 101.043 124.852 112.581 185.967 112.581Z" fill="#FFC283" stroke="#263238" stroke-width="1.24191" stroke-linecap="round" stroke-linejoin="round"/>
<path d="M185.967 119.453C256.571 119.453 313.807 107.914 313.807 93.6801C313.807 79.4464 256.571 67.9077 185.967 67.9077C115.363 67.9077 58.1271 79.4464 58.1271 93.6801C58.1271 107.914 115.363 119.453 185.967 119.453Z" fill="#263238" stroke="#263238" stroke-width="1.24191" stroke-linecap="round" stroke-linejoin="round"/>
<path d="M186.034 111.684C238.912 111.684 281.779 103.62 281.779 93.6717C281.779 83.7237 238.912 75.6593 186.034 75.6593C133.155 75.6593 90.2887 83.7237 90.2887 93.6717C90.2887 103.62 133.155 111.684 186.034 111.684Z" fill="#FFC283" stroke="#263238" stroke-width="1.24191" stroke-linecap="round" stroke-linejoin="round"/>
<path opacity="0.6" d="M228.581 93.6801H143.354L80.8422 304.936C97.0752 319.217 116.075 330.004 136.657 336.624C178.963 350.033 207.851 312.887 247.058 314.956C266.168 315.961 284.828 315.728 301.063 311.757L228.581 93.6801Z" fill="white"/>
<path d="M185.967 102.271C209.502 102.271 228.581 98.4246 228.581 93.68C228.581 88.9355 209.502 85.0892 185.967 85.0892C162.433 85.0892 143.354 88.9355 143.354 93.68C143.354 98.4246 162.433 102.271 185.967 102.271Z" fill="#263238" stroke="#263238" stroke-width="1.24191" stroke-linecap="round" stroke-linejoin="round"/>
<path d="M186.034 76.4487C191.641 76.4487 196.187 75.4519 196.187 74.2221C196.187 72.9924 191.641 71.9955 186.034 71.9955C180.427 71.9955 175.881 72.9924 175.881 74.2221C175.881 75.4519 180.427 76.4487 186.034 76.4487Z" fill="white" stroke="#263238" stroke-width="1.24191" stroke-linecap="round" stroke-linejoin="round"/>
<path d="M91.9586 93.5223C91.9586 94.3531 88.8513 95.051 85.0129 95.051C81.1744 95.051 78.0588 94.3614 78.0588 93.5223C78.0588 92.6831 81.1744 91.9935 85.0129 91.9935C88.8513 91.9935 91.9586 92.6914 91.9586 93.5223Z" fill="white" stroke="#263238" stroke-width="1.24191" stroke-linecap="round" stroke-linejoin="round"/>
<path d="M296.036 93.5223C296.036 94.3531 292.92 95.051 289.082 95.051C285.243 95.051 282.161 94.3531 282.161 93.5223C282.161 92.6914 285.268 91.9935 289.107 91.9935C292.945 91.9935 296.036 92.6914 296.036 93.5223Z" fill="white" stroke="#263238" stroke-width="1.24191" stroke-linecap="round" stroke-linejoin="round"/>
<path d="M248.728 83.4275C253.969 83.4275 258.217 82.4938 258.217 81.3421C258.217 80.1904 253.969 79.2567 248.728 79.2567C243.488 79.2567 239.24 80.1904 239.24 81.3421C239.24 82.4938 243.488 83.4275 248.728 83.4275Z" fill="white" stroke="#263238" stroke-width="1.24191" stroke-linecap="round" stroke-linejoin="round"/>
<path d="M130.759 83.4275C135.999 83.4275 140.247 82.4938 140.247 81.3421C140.247 80.1904 135.999 79.2567 130.759 79.2567C125.518 79.2567 121.27 80.1904 121.27 81.3421C121.27 82.4938 125.518 83.4275 130.759 83.4275Z" fill="white" stroke="#263238" stroke-width="1.24191" stroke-linecap="round" stroke-linejoin="round"/>
<path d="M248.728 107.281C252.564 107.281 255.674 106.596 255.674 105.752C255.674 104.908 252.564 104.223 248.728 104.223C244.892 104.223 241.783 104.908 241.783 105.752C241.783 106.596 244.892 107.281 248.728 107.281Z" fill="white" stroke="#263238" stroke-width="1.24191" stroke-linecap="round" stroke-linejoin="round"/>
<path d="M130.759 107.281C134.595 107.281 137.704 106.596 137.704 105.752C137.704 104.908 134.595 104.223 130.759 104.223C126.923 104.223 123.813 104.908 123.813 105.752C123.813 106.596 126.923 107.281 130.759 107.281Z" fill="white" stroke="#263238" stroke-width="1.24191" stroke-linecap="round" stroke-linejoin="round"/>
<path d="M109.065 208.842L106.714 216.934" stroke="#263238" stroke-width="1.24191" stroke-linecap="round" stroke-linejoin="round"/>
<path d="M130.036 136.667L111.5 200.484" stroke="#263238" stroke-width="1.24191" stroke-linecap="round" stroke-linejoin="round"/>
<path d="M141.41 97.5018L132.055 129.722" stroke="#263238" stroke-width="1.24191" stroke-linecap="round" stroke-linejoin="round"/>
<path d="M228.581 93.6801L268.726 212.805" stroke="#263238" stroke-width="1.24191" stroke-linecap="round" stroke-linejoin="round"/>
<path d="M160.76 104.173L151.421 156.217" stroke="#263238" stroke-width="1.24191" stroke-linecap="round" stroke-linejoin="round"/>
<path d="M216.808 104.173L233.491 196.919" stroke="#263238" stroke-width="1.24191" stroke-linecap="round" stroke-linejoin="round"/>
<path d="M185.967 213.602V224.278" stroke="#263238" stroke-width="1.24191" stroke-linecap="round" stroke-linejoin="round"/>
<path d="M185.967 119.461V203.591" stroke="#263238" stroke-width="1.24191" stroke-linecap="round" stroke-linejoin="round"/>
<path d="M185.967 85.0892C177.813 85.0492 169.666 85.5655 161.582 86.6346C163.934 91.5033 174.211 95.1756 186.507 95.1756C198.804 95.1756 208.89 91.578 211.374 86.7841C202.957 85.6076 194.466 85.0412 185.967 85.0892Z" fill="white" stroke="#263238" stroke-width="1.24191" stroke-miterlimit="10"/>
<path d="M205.965 295.963C205.965 295.963 206.539 300.69 208.175 301.779C209.812 302.867 210.585 303.391 210.585 304.421C210.585 305.451 210.585 306.473 208.275 308.783C205.965 311.092 203.398 313.917 201.088 315.969C198.779 318.022 196.461 321.104 198.264 321.362C200.066 321.619 203.398 322.134 204.42 319.825C205.442 317.515 204.678 316.227 205.708 315.72C207.066 314.779 208.201 313.551 209.031 312.123C209.538 311.092 213.136 309.813 213.651 307.503C214.166 305.194 215.387 304.238 216.185 302.144C216.75 300.545 217.189 298.903 217.497 297.234C217.497 297.234 212.371 291.601 205.965 295.963Z" fill="#263238"/>
<path d="M194.741 298.464C195.388 299.175 196.091 299.834 196.843 300.433C197.333 300.784 197.87 301.064 198.438 301.264C198.438 301.264 198.322 302.618 199.178 302.992C200.033 303.366 200.906 302.502 200.906 302.502L202.758 302.743C202.758 302.743 203.124 303.856 203.988 303.856C204.852 303.856 205.218 302.743 205.218 302.743L208.175 301.762C208.175 301.762 209.53 302.867 210.153 301.879C210.334 301.645 210.422 301.352 210.399 301.057C210.376 300.762 210.244 300.486 210.028 300.284C210.813 299.762 211.382 298.974 211.632 298.065C211.997 296.586 211.133 296.088 210.028 296.088C207.526 295.886 205.011 295.886 202.509 296.088C198.322 296.495 193.021 295.016 194.741 298.464Z" fill="#FFC283" stroke="#263238" stroke-width="1.24191" stroke-linecap="round" stroke-linejoin="round"/>
<path d="M227.534 274.91C227.534 274.91 229.071 278.507 233.69 283.642C238.31 288.776 240.619 296.993 240.619 299.569C240.619 299.569 237.795 291.352 234.97 287.754C232.145 284.157 227.492 281.598 226.495 278.515C225.498 275.433 227.534 274.91 227.534 274.91Z" fill="white" stroke="#263238" stroke-width="1.24191" stroke-linecap="round" stroke-linejoin="round"/>
<path d="M240.619 299.569C240.619 299.569 239.074 300.591 238.31 303.931C237.545 307.271 242.672 309.58 242.672 309.58C242.354 308.94 242.168 308.243 242.124 307.529C242.08 306.816 242.178 306.101 242.414 305.426C243.195 303.15 243.702 302.385 240.619 299.569Z" fill="#263238"/>
<path d="M226.279 283.326C228.032 280.26 229.013 275.666 228.14 273.356C227.268 271.046 225.291 268.321 223.646 268.097C222.001 267.872 219.599 268.321 218.943 267.881C218.287 267.44 211.466 264.051 208.209 261.417C204.952 258.783 198.023 257.196 192.332 257.196C186.64 257.196 181.381 257.529 178.423 257.196C175.466 256.864 173.829 255.991 170.871 256.54C167.913 257.088 165.055 259.282 163.203 259.606C162.119 259.803 161.022 259.915 159.921 259.938C159.921 259.938 155.102 257.969 154.778 257.529C154.778 257.529 154.23 257.861 153.681 256.98C153.133 256.1 153.573 255.319 151.488 255.667C150.947 255.699 150.437 255.928 150.054 256.311C149.671 256.694 149.442 257.204 149.411 257.745C149.411 257.745 146.669 259.406 146.087 259.83C145.506 260.254 141.709 263.768 140.504 264.973C139.299 266.177 139.191 266.394 137.114 268.479C135.037 270.564 133.941 270.664 133.5 271.869C133.143 272.841 134.148 273.962 135.12 274.984C135.327 275.201 135.576 275.373 135.852 275.49C136.128 275.607 136.424 275.667 136.724 275.666C137.569 275.522 138.403 275.314 139.216 275.042L139.914 274.826C139.702 275.297 139.323 275.673 138.851 275.882C138.444 276.081 138.02 276.314 138.02 276.712C138.757 276.8 139.503 276.749 140.222 276.563C141.821 275.986 143.36 275.254 144.816 274.378C147.21 274.713 149.627 274.857 152.044 274.81C154.346 274.594 157.52 273.057 158.284 272.733C159.048 272.409 163.211 273.605 164.1 274.394C165.54 276.067 166.554 278.062 167.058 280.21C167.49 282.404 168.919 286.45 170.231 287.33C171.544 288.211 183.151 296.42 188.842 298.281C194.533 300.142 204.836 299.369 206.697 298.829C208.558 298.289 210.02 297.733 210.02 297.733C210.02 297.733 213.85 301.671 216.259 302.219C217.467 302.474 218.657 302.804 219.824 303.208C219.412 304.525 219.134 305.881 218.993 307.254C218.993 308.575 218.112 310.32 217.564 312.073C217.016 313.826 216.584 316.127 215.595 317.44C214.606 318.753 213.102 320.946 212.861 322.151C212.62 323.355 214.282 323.355 214.722 323.131C215.163 322.907 216.908 322.259 217.016 321.162C217.227 319.928 217.558 318.718 218.004 317.548C218.22 317 219.973 315.246 220.306 313.394C220.522 311.889 220.927 310.418 221.51 309.015C221.942 308.143 224.003 305.185 224.352 303.54C224.665 301.68 224.398 299.768 223.587 298.065C222.715 295.88 221.834 292.706 221.926 292.158C223.215 289.137 224.668 286.188 226.279 283.326Z" fill="white"/>
<mask id="mask0_209_1678" style="mask-type:luminance" maskUnits="userSpaceOnUse" x="133" y="255" width="96" height="69">
<path d="M226.279 283.326C228.032 280.26 229.013 275.666 228.14 273.356C227.268 271.046 225.291 268.321 223.646 268.097C222.001 267.872 219.599 268.321 218.943 267.881C218.287 267.44 211.466 264.051 208.209 261.417C204.952 258.783 198.023 257.196 192.332 257.196C186.64 257.196 181.381 257.529 178.423 257.196C175.466 256.864 173.829 255.991 170.871 256.54C167.913 257.088 165.055 259.282 163.203 259.606C162.119 259.803 161.022 259.915 159.921 259.938C159.921 259.938 155.102 257.969 154.778 257.529C154.778 257.529 154.23 257.861 153.681 256.98C153.133 256.1 153.573 255.319 151.488 255.667C150.947 255.699 150.437 255.928 150.054 256.311C149.671 256.694 149.442 257.204 149.411 257.745C149.411 257.745 146.669 259.406 146.087 259.83C145.506 260.254 141.709 263.768 140.504 264.973C139.299 266.177 139.191 266.394 137.114 268.479C135.037 270.564 133.941 270.664 133.5 271.869C133.143 272.841 134.148 273.962 135.12 274.984C135.327 275.201 135.576 275.373 135.852 275.49C136.128 275.607 136.424 275.667 136.724 275.666C137.569 275.522 138.403 275.314 139.216 275.042L139.914 274.826C139.702 275.297 139.323 275.673 138.851 275.882C138.444 276.081 138.02 276.314 138.02 276.712C138.757 276.8 139.503 276.749 140.222 276.563C141.821 275.986 143.36 275.254 144.816 274.378C147.21 274.713 149.627 274.857 152.044 274.81C154.346 274.594 157.52 273.057 158.284 272.733C159.048 272.409 163.211 273.605 164.1 274.394C165.54 276.067 166.554 278.062 167.058 280.21C167.49 282.404 168.919 286.45 170.231 287.33C171.544 288.211 183.151 296.42 188.842 298.281C194.533 300.142 204.836 299.369 206.697 298.829C208.558 298.289 210.02 297.733 210.02 297.733C210.02 297.733 213.85 301.671 216.259 302.219C217.467 302.474 218.657 302.804 219.824 303.208C219.412 304.525 219.134 305.881 218.993 307.254C218.993 308.575 218.112 310.32 217.564 312.073C217.016 313.826 216.584 316.127 215.595 317.44C214.606 318.753 213.102 320.946 212.861 322.151C212.62 323.355 214.282 323.355 214.722 323.131C215.163 322.907 216.908 322.259 217.016 321.162C217.227 319.928 217.558 318.718 218.004 317.548C218.22 317 219.973 315.246 220.306 313.394C220.522 311.889 220.927 310.418 221.51 309.015C221.942 308.143 224.003 305.185 224.352 303.54C224.665 301.68 224.398 299.768 223.587 298.065C222.715 295.88 221.834 292.706 221.926 292.158C223.215 289.137 224.668 286.188 226.279 283.326Z" fill="white"/>
</mask>
<g mask="url(#mask0_209_1678)">
<path d="M226.279 283.326C227.005 282.016 227.564 280.621 227.941 279.172C226.352 279.884 224.866 280.807 223.521 281.913C220.713 284.406 219.874 287.239 220.439 291.443C221.004 295.647 218.777 295.639 215.952 296.204C213.127 296.769 210.909 294.542 209.231 292C207.552 289.457 204.62 294.617 199.701 295.365C194.783 296.112 178.099 292.282 175.333 288.868C172.566 285.453 175.05 277.435 175.05 277.435C172.889 276.754 170.818 275.811 168.885 274.627C166.393 272.965 164.681 267.623 161.599 267.349C158.517 267.075 157.121 269.584 154.038 271.27C150.956 272.957 148.713 271.27 145.63 272.392C144.334 272.857 142.041 273.929 139.815 275.009C139.586 275.366 139.264 275.653 138.884 275.84C138.477 276.039 138.053 276.272 138.053 276.671C138.79 276.758 139.537 276.707 140.255 276.521C141.854 275.945 143.393 275.213 144.849 274.336C147.244 274.671 149.661 274.815 152.078 274.768C154.379 274.552 157.553 273.015 158.317 272.691C159.082 272.367 163.244 273.564 164.133 274.353C165.573 276.025 166.588 278.02 167.091 280.169C167.523 282.362 168.952 286.408 170.265 287.289C171.577 288.17 183.184 296.378 188.875 298.239C194.566 300.1 204.869 299.328 206.73 298.788C208.591 298.248 210.053 297.691 210.053 297.691C210.053 297.691 213.883 301.629 216.293 302.177C217.5 302.432 218.691 302.763 219.857 303.166C219.445 304.484 219.167 305.839 219.026 307.212C219.026 308.525 218.146 310.278 217.597 312.031C217.049 313.784 216.617 316.086 215.628 317.398C214.639 318.711 213.136 320.904 212.895 322.109C212.654 323.314 214.315 323.314 214.756 323.089C215.196 322.865 216.941 322.217 217.049 321.12C217.26 319.886 217.591 318.676 218.038 317.506C218.254 316.958 220.007 315.205 220.339 313.352C220.555 311.848 220.96 310.377 221.544 308.974C221.976 308.101 224.036 305.144 224.385 303.498C224.698 301.638 224.431 299.727 223.621 298.023C222.748 295.838 221.868 292.664 221.959 292.116C223.239 289.11 224.681 286.175 226.279 283.326Z" fill="#FFC283"/>
</g>
<path d="M226.279 283.326C228.032 280.26 229.013 275.666 228.14 273.356C227.268 271.046 225.291 268.321 223.646 268.097C222.001 267.872 219.599 268.321 218.943 267.881C218.287 267.44 211.466 264.051 208.209 261.417C204.952 258.783 198.023 257.196 192.332 257.196C186.64 257.196 181.381 257.529 178.423 257.196C175.466 256.864 173.829 255.991 170.871 256.54C167.913 257.088 165.055 259.282 163.203 259.606C162.119 259.803 161.022 259.915 159.921 259.938C159.921 259.938 155.102 257.969 154.778 257.529C154.778 257.529 154.23 257.861 153.681 256.98C153.133 256.1 153.573 255.319 151.488 255.667C150.947 255.699 150.437 255.928 150.054 256.311C149.671 256.694 149.442 257.204 149.411 257.745C149.411 257.745 146.669 259.406 146.087 259.83C145.506 260.254 141.709 263.768 140.504 264.973C139.299 266.177 139.191 266.394 137.114 268.479C135.037 270.564 133.941 270.664 133.5 271.869C133.143 272.841 134.148 273.962 135.12 274.984C135.327 275.201 135.576 275.373 135.852 275.49C136.128 275.607 136.424 275.667 136.724 275.666C137.569 275.522 138.403 275.314 139.216 275.042L139.914 274.826C139.702 275.297 139.323 275.673 138.851 275.882C138.444 276.081 138.02 276.314 138.02 276.712C138.757 276.8 139.503 276.749 140.222 276.563C141.821 275.986 143.36 275.254 144.816 274.378C147.21 274.713 149.627 274.857 152.044 274.81C154.346 274.594 157.52 273.057 158.284 272.733C159.048 272.409 163.211 273.605 164.1 274.394C165.54 276.067 166.554 278.062 167.058 280.21C167.49 282.404 168.919 286.45 170.231 287.33C171.544 288.211 183.151 296.42 188.842 298.281C194.533 300.142 204.836 299.369 206.697 298.829C208.558 298.289 210.02 297.733 210.02 297.733C210.02 297.733 213.85 301.671 216.259 302.219C217.467 302.474 218.657 302.804 219.824 303.208C219.412 304.525 219.134 305.881 218.993 307.254C218.993 308.575 218.112 310.32 217.564 312.073C217.016 313.826 216.584 316.127 215.595 317.44C214.606 318.753 213.102 320.946 212.861 322.151C212.62 323.355 214.282 323.355 214.722 323.131C215.163 322.907 216.908 322.259 217.016 321.162C217.227 319.928 217.558 318.718 218.004 317.548C218.22 317 219.973 315.246 220.306 313.394C220.522 311.889 220.927 310.418 221.51 309.015C221.942 308.143 224.003 305.185 224.352 303.54C224.665 301.68 224.398 299.768 223.587 298.065C222.715 295.88 221.834 292.706 221.926 292.158C223.215 289.137 224.668 286.188 226.279 283.326Z" stroke="#263238" stroke-width="1.24191" stroke-linecap="round" stroke-linejoin="round"/>
<path d="M182.669 290.945C185.694 290.86 188.708 291.362 191.542 292.424C195.696 294.152 200.166 291.934 202.634 291.684C205.101 291.435 207.561 293.413 204.603 294.642C201.645 295.872 198.438 295.382 196.469 296.37C194.641 297.297 192.599 297.722 190.554 297.6C188.061 297.6 186.117 296.62 183.649 296.121C181.894 295.74 180.165 295.246 178.473 294.642L182.669 290.945Z" fill="#263238"/>
<path d="M175.316 288.892C173.829 286.092 171.403 284.231 173.654 281.249C175.906 278.266 174.211 275.283 173.281 274.162C172.35 273.04 170.863 272.109 169.55 270.057C168.237 268.005 168.437 267.266 169.367 265.961C170.298 264.657 170.863 262.231 169.367 261.109C167.872 259.988 166.385 260.553 163.959 260.179C163.489 260.093 163.041 259.918 162.638 259.664C161.744 259.801 160.842 259.879 159.937 259.896C159.937 259.896 155.119 257.927 154.795 257.487C154.721 257.518 154.642 257.535 154.562 257.535C154.482 257.535 154.403 257.518 154.329 257.487C154.038 258.383 153.5 259.178 152.776 259.78C151.471 260.528 148.297 261.275 146.96 262.023C145.622 262.771 144.916 263.328 144.168 263.328C143.703 263.328 143.894 262.372 144.284 261.392C142.939 262.613 141.252 264.175 140.521 264.906C139.79 265.637 139.515 265.953 138.984 266.51C139.183 266.618 140.18 267.232 139.507 268.919C138.759 270.78 139.316 271.902 140.438 273.58C141.559 275.258 139.69 273.954 139.881 275.815C139.895 276.077 140.004 276.326 140.188 276.513C141.788 275.936 143.326 275.204 144.783 274.328C147.177 274.663 149.594 274.807 152.011 274.76C154.313 274.544 157.486 273.007 158.251 272.683C159.015 272.359 163.178 273.555 164.067 274.344C165.506 276.017 166.521 278.012 167.024 280.16C167.456 282.354 168.885 286.4 170.198 287.28C170.763 287.654 173.247 289.399 176.346 291.435C176.151 290.535 175.802 289.675 175.316 288.892Z" fill="#263238"/>
<path d="M165.504 276.796C165.504 276.796 167.348 280.643 166.509 284.157C165.67 287.671 167.515 290.181 169.184 292.183C170.76 293.962 172.701 295.379 174.876 296.337C176.878 297.342 178.199 296.678 181.232 297.168C184.264 297.658 188.252 298.339 189.756 298.672C190.69 298.874 191.642 298.985 192.597 299.004C192.597 299.004 183.907 294.991 178.548 288.976C173.189 282.961 169.999 278.133 169.857 276.962C169.716 275.791 165.504 272.451 165.504 276.796Z" fill="#263238"/>
<path d="M153.457 259.789C153.457 259.789 154.554 256.723 156.199 255.294C157.844 253.865 162.77 252.669 163.203 253.217C163.635 253.765 162.546 257.047 160.909 258.908C160.379 259.56 159.71 260.086 158.952 260.446C158.193 260.807 157.363 260.994 156.523 260.993C155.934 260.993 155.348 261.066 154.778 261.209" fill="#263238"/>
<path d="M171.561 284.157C170.658 285.979 169.337 287.562 167.706 288.776C165.138 290.571 159.497 292.365 159.497 294.683C159.497 297.002 157.437 305.717 157.179 308.542C156.921 311.367 155.642 314.449 155.642 315.188C155.642 315.928 156.157 318.778 157.179 319.035C158.201 319.293 160.776 316.983 161.549 314.931C162.322 312.879 160.776 307.993 160.776 307.993C161.312 307.154 161.582 306.172 161.549 305.177C161.549 303.374 162.313 297.699 163.086 296.702C163.859 295.705 167.963 293.878 171.046 293.62C174.128 293.362 180.035 289.507 180.035 289.507" fill="#263238"/>
<path d="M189.274 259.763C186.185 260.672 182.912 260.76 179.778 260.021C174.901 258.733 173.87 264.125 176.695 268.238C179.52 272.35 180.55 276.962 184.397 276.962C188.244 276.962 189.017 271.569 192.099 270.032C195.181 268.495 196.461 263.868 195.181 262.073C193.902 260.278 189.274 259.763 189.274 259.763Z" fill="#263238"/>
<path d="M225.432 269.144C224.956 268.624 224.333 268.262 223.646 268.105C221.984 267.889 219.599 268.329 218.943 267.889C218.287 267.449 211.466 264.059 208.209 261.425C207.161 260.632 206.009 259.986 204.786 259.506C205.146 260.528 205.255 261.622 205.103 262.695C204.951 263.768 204.543 264.789 203.913 265.671C201.088 269.775 191.077 272.6 193.644 278.25C196.211 283.899 200.058 288.261 203.398 289.05C206.738 289.84 212.379 285.968 215.462 284.173C218.544 282.379 218.287 277.751 218.029 275.956C217.772 274.162 219.832 274.154 222.142 274.154C224.177 274.137 225.216 272.982 225.432 269.144Z" fill="#263238"/>
<path d="M137.289 273.04C137.289 273.04 136.167 271.179 135.627 272.11C135.087 273.04 134.273 276.397 137.289 273.04Z" fill="#263238"/>
<path d="M150.956 265.422C150.956 265.686 150.878 265.945 150.731 266.165C150.584 266.385 150.375 266.556 150.13 266.658C149.886 266.759 149.617 266.785 149.357 266.734C149.098 266.682 148.86 266.555 148.672 266.368C148.485 266.181 148.358 265.942 148.306 265.683C148.255 265.423 148.281 265.154 148.383 264.91C148.484 264.665 148.655 264.457 148.875 264.31C149.095 264.163 149.354 264.084 149.618 264.084C149.973 264.084 150.313 264.225 150.564 264.476C150.815 264.727 150.956 265.067 150.956 265.422Z" fill="white"/>
<path d="M150.449 265.422C150.449 265.586 150.4 265.747 150.309 265.883C150.218 266.02 150.088 266.126 149.936 266.189C149.784 266.252 149.617 266.269 149.456 266.237C149.295 266.204 149.147 266.125 149.031 266.009C148.915 265.893 148.836 265.745 148.803 265.584C148.771 265.423 148.788 265.256 148.851 265.104C148.914 264.952 149.02 264.822 149.157 264.731C149.293 264.64 149.454 264.591 149.618 264.591C149.839 264.591 150.05 264.678 150.206 264.834C150.362 264.99 150.449 265.201 150.449 265.422Z" fill="#263238"/>
<path d="M175.923 281.839C175.923 281.839 173.098 286.209 173.098 289.316C173.098 292.424 169.774 296.503 167.706 299.07C165.637 301.638 165.138 304.72 166.169 305.717C167.199 306.714 169.766 313.194 171.046 315.737C172.325 318.279 172.591 320.099 173.613 320.356C174.635 320.614 176.695 323.439 178.232 323.181C179.769 322.924 180.293 321.121 178.747 318.811C177.202 316.501 176.953 319.584 174.901 316.244C172.848 312.904 173.098 309.057 171.818 307.52C170.539 305.983 169.508 305.21 170.024 303.922C170.539 302.635 175.407 297.276 177.21 295.705C179.013 294.135 184.139 292.623 187.18 290.313" fill="white"/>
<mask id="mask1_209_1678" style="mask-type:luminance" maskUnits="userSpaceOnUse" x="165" y="281" width="23" height="43">
<path d="M175.923 281.839C175.923 281.839 173.098 286.209 173.098 289.316C173.098 292.424 169.774 296.503 167.706 299.07C165.637 301.638 165.138 304.72 166.169 305.717C167.199 306.714 169.766 313.194 171.046 315.737C172.325 318.279 172.591 320.099 173.613 320.356C174.635 320.614 176.695 323.439 178.232 323.181C179.769 322.924 180.293 321.121 178.747 318.811C177.202 316.501 176.953 319.584 174.901 316.244C172.848 312.904 173.098 309.057 171.818 307.52C170.539 305.983 169.508 305.21 170.024 303.922C170.539 302.635 175.407 297.276 177.21 295.705C179.013 294.135 184.139 292.623 187.18 290.313" fill="white"/>
</mask>
<g mask="url(#mask1_209_1678)">
<path d="M177.21 295.705C178.506 294.592 181.531 293.487 184.281 292.083V292.025C184.281 292.025 177.277 294.268 175.316 293.985C173.887 293.786 173.654 291.368 172.824 290.812C172.034 293.628 169.401 296.877 167.664 299.045C165.612 301.612 165.097 304.695 166.127 305.692C167.157 306.689 169.725 313.169 171.004 315.712C172.284 318.254 172.549 320.074 173.571 320.331C174.593 320.589 176.654 323.414 178.191 323.156C179.728 322.898 180.251 321.095 178.706 318.786C177.161 316.476 176.911 319.558 174.859 316.219C172.807 312.879 173.056 309.032 171.777 307.495C170.497 305.958 169.467 305.185 169.982 303.897C170.497 302.609 175.407 297.251 177.21 295.705Z" fill="#FFC283"/>
</g>
<path d="M175.923 281.839C175.923 281.839 173.098 286.209 173.098 289.316C173.098 292.424 169.774 296.503 167.706 299.07C165.637 301.638 165.138 304.72 166.169 305.717C167.199 306.714 169.766 313.194 171.046 315.737C172.325 318.279 172.591 320.099 173.613 320.356C174.635 320.614 176.695 323.439 178.232 323.181C179.769 322.924 180.293 321.121 178.747 318.811C177.202 316.501 176.953 319.584 174.901 316.244C172.848 312.904 173.098 309.057 171.818 307.52C170.539 305.983 169.508 305.21 170.024 303.922C170.539 302.635 175.407 297.276 177.21 295.705C179.013 294.135 184.139 292.623 187.18 290.313" stroke="#263238" stroke-width="1.24191" stroke-linecap="round" stroke-linejoin="round"/>
<path d="M161.989 256.557C161.989 256.557 158.816 256.391 157.835 257.562C156.855 258.734 157.004 260.238 157.835 260.238C158.666 260.238 161.823 258.9 161.989 256.557Z" fill="white" stroke="#263238" stroke-width="1.24191" stroke-linecap="round" stroke-linejoin="round"/>
<path d="M149.353 265.555C149.6 265.555 149.801 265.354 149.801 265.106C149.801 264.858 149.6 264.658 149.353 264.658C149.105 264.658 148.904 264.858 148.904 265.106C148.904 265.354 149.105 265.555 149.353 265.555Z" fill="white"/>
<path d="M225.664 284.406C223.413 284.863 217.58 286.392 216.916 289.715C216.176 293.412 222.25 296.678 223.562 298.024C222.69 295.839 221.809 292.665 221.901 292.116C223.023 289.484 224.279 286.91 225.664 284.406Z" fill="#263238"/>
</g>
<rect x="1" y="1" width="357.732" height="337.559" rx="26" stroke="#FFC283" stroke-width="2"/>
<defs>
<clipPath id="clip0_209_1678">
<rect width="359.732" height="339.559" rx="27" fill="white"/>
</clipPath>
</defs>
</svg>
