<svg width="229" height="232" viewBox="0 0 229 232" fill="none" xmlns="http://www.w3.org/2000/svg">
<g clip-path="url(#clip0_209_697)">
<path d="M118.391 232.067C178.901 232.067 227.954 227.76 227.954 222.447C227.954 217.134 178.901 212.827 118.391 212.827C57.8814 212.827 8.82837 217.134 8.82837 222.447C8.82837 227.76 57.8814 232.067 118.391 232.067Z" fill="#FFC283"/>
<path opacity="0.5" d="M118.391 232.067C178.901 232.067 227.954 227.76 227.954 222.447C227.954 217.134 178.901 212.827 118.391 212.827C57.8814 212.827 8.82837 217.134 8.82837 222.447C8.82837 227.76 57.8814 232.067 118.391 232.067Z" fill="white"/>
<path d="M6.66687 100.769V106.458" stroke="#263238" stroke-linecap="round" stroke-linejoin="round"/>
<path d="M9.51452 103.616H3.82568" stroke="#263238" stroke-linecap="round" stroke-linejoin="round"/>
<path d="M200.786 52.0256V57.7145" stroke="#263238" stroke-linecap="round" stroke-linejoin="round"/>
<path d="M203.627 54.8733H197.939" stroke="#263238" stroke-linecap="round" stroke-linejoin="round"/>
<path d="M119.975 7.99011V13.6789" stroke="#263238" stroke-linecap="round" stroke-linejoin="round"/>
<path d="M122.817 10.8314H117.128" stroke="#263238" stroke-linecap="round" stroke-linejoin="round"/>
<path d="M26.3373 164.481V170.17" stroke="#263238" stroke-linecap="round" stroke-linejoin="round"/>
<path d="M29.1786 167.322H23.4897" stroke="#263238" stroke-linecap="round" stroke-linejoin="round"/>
<path d="M198.24 31.5215C198.241 32.4529 197.966 33.3636 197.45 34.1386C196.933 34.9136 196.199 35.518 195.338 35.8753C194.478 36.2326 193.532 36.3267 192.618 36.1458C191.704 35.9649 190.865 35.517 190.206 34.8589C189.547 34.2008 189.098 33.362 188.916 32.4487C188.734 31.5353 188.827 30.5885 189.183 29.7279C189.539 28.8673 190.142 28.1317 190.916 27.6142C191.691 27.0966 192.601 26.8204 193.532 26.8204C194.78 26.8204 195.976 27.3155 196.859 28.1969C197.742 29.0784 198.238 30.2741 198.24 31.5215Z" stroke="#263238" stroke-linecap="round" stroke-linejoin="round"/>
<path d="M214.941 144.474C217.34 143.481 218.479 140.731 217.486 138.332C216.492 135.933 213.742 134.794 211.343 135.788C208.945 136.781 207.806 139.531 208.799 141.93C209.793 144.329 212.543 145.468 214.941 144.474Z" stroke="#263238" stroke-linecap="round" stroke-linejoin="round"/>
<path d="M219.616 79.6233C219.628 79.7704 219.609 79.9184 219.56 80.0578C219.512 80.1973 219.435 80.3252 219.335 80.4336C219.234 80.5419 219.113 80.6284 218.977 80.6875C218.842 80.7466 218.696 80.7771 218.549 80.7771C218.401 80.7771 218.255 80.7466 218.12 80.6875C217.984 80.6284 217.863 80.5419 217.762 80.4336C217.662 80.3252 217.585 80.1973 217.537 80.0578C217.488 79.9184 217.469 79.7704 217.481 79.6233C217.502 79.3543 217.623 79.1032 217.821 78.92C218.019 78.7368 218.279 78.635 218.549 78.635C218.818 78.635 219.078 78.7368 219.276 78.92C219.474 79.1032 219.596 79.3543 219.616 79.6233Z" stroke="#263238" stroke-linecap="round" stroke-linejoin="round"/>
<path d="M56.5003 64.2305C56.5015 64.4427 56.4398 64.6504 56.3229 64.8273C56.206 65.0043 56.0391 65.1426 55.8435 65.2246C55.6479 65.3067 55.4324 65.3288 55.2242 65.2882C55.016 65.2476 54.8246 65.1461 54.6741 64.9966C54.5237 64.8471 54.4211 64.6562 54.3792 64.4483C54.3374 64.2403 54.3582 64.0247 54.4391 63.8286C54.5199 63.6325 54.6572 63.4648 54.8335 63.3469C55.0098 63.2289 55.2171 63.1659 55.4292 63.1659C55.7122 63.1659 55.9836 63.2779 56.1843 63.4773C56.385 63.6768 56.4986 63.9476 56.5003 64.2305Z" stroke="#263238" stroke-linecap="round" stroke-linejoin="round"/>
<path d="M173.368 27.513H74.3427C71.9518 27.513 70.0135 29.4512 70.0135 31.8422V217.252C70.0135 219.643 71.9518 221.581 74.3427 221.581H173.368C175.759 221.581 177.697 219.643 177.697 217.252V31.8422C177.697 29.4512 175.759 27.513 173.368 27.513Z" fill="#263238" stroke="#263238" stroke-linecap="round" stroke-linejoin="round"/>
<path d="M169.95 27.5131H70.9244C68.5334 27.5131 66.5952 29.4513 66.5952 31.8422V217.252C66.5952 219.643 68.5334 221.581 70.9244 221.581H169.95C172.341 221.581 174.279 219.643 174.279 217.252V31.8422C174.279 29.4513 172.341 27.5131 169.95 27.5131Z" fill="white"/>
<mask id="mask0_209_697" style="mask-type:luminance" maskUnits="userSpaceOnUse" x="66" y="27" width="109" height="195">
<path d="M169.95 27.5131H70.9244C68.5334 27.5131 66.5952 29.4513 66.5952 31.8422V217.252C66.5952 219.643 68.5334 221.581 70.9244 221.581H169.95C172.341 221.581 174.279 219.643 174.279 217.252V31.8422C174.279 29.4513 172.341 27.5131 169.95 27.5131Z" fill="white"/>
</mask>
<g mask="url(#mask0_209_697)">
<path d="M174.279 100.743L79.5889 221.587H169.956C171.103 221.586 172.203 221.129 173.013 220.317C173.824 219.506 174.279 218.405 174.279 217.258V100.743Z" fill="#FFC283"/>
<path opacity="0.5" d="M174.279 100.743L79.5889 221.587H169.956C171.103 221.586 172.203 221.129 173.013 220.317C173.824 219.506 174.279 218.405 174.279 217.258V100.743Z" fill="white"/>
</g>
<path d="M169.95 27.5131H70.9244C68.5334 27.5131 66.5952 29.4513 66.5952 31.8422V217.252C66.5952 219.643 68.5334 221.581 70.9244 221.581H169.95C172.341 221.581 174.279 219.643 174.279 217.252V31.8422C174.279 29.4513 172.341 27.5131 169.95 27.5131Z" stroke="#263238" stroke-linecap="round" stroke-linejoin="round"/>
<path d="M127.902 39.1087H114.498C114.132 39.1087 113.782 38.9634 113.523 38.7049C113.264 38.4463 113.119 38.0955 113.119 37.7298C113.119 37.549 113.155 37.37 113.224 37.2031C113.294 37.0362 113.395 36.8846 113.523 36.757C113.652 36.6295 113.804 36.5285 113.971 36.4599C114.138 36.3913 114.317 36.3565 114.498 36.3573H127.902C128.266 36.3573 128.616 36.5019 128.873 36.7593C129.13 37.0167 129.275 37.3658 129.275 37.7298C129.276 37.9106 129.241 38.0898 129.172 38.257C129.104 38.4243 129.003 38.5763 128.875 38.7045C128.748 38.8326 128.596 38.9343 128.429 39.0036C128.262 39.073 128.083 39.1087 127.902 39.1087Z" fill="#263238" stroke="#263238" stroke-linecap="round" stroke-linejoin="round"/>
<path d="M167.474 204.239H73.387V39.2692H95.6869L98.1946 41.3472C99.0698 42.076 100.173 42.4754 101.312 42.4759H140.659C141.84 42.4712 142.979 42.0382 143.866 41.2574L146.136 39.2692H167.474V204.239Z" fill="white" stroke="#263238" stroke-linecap="round" stroke-linejoin="round"/>
<path d="M91.0499 168.669H149.824" stroke="#263238" stroke-linecap="round" stroke-linejoin="round"/>
<path d="M91.0499 176.404H149.824" stroke="#263238" stroke-linecap="round" stroke-linejoin="round"/>
<path d="M91.0499 184.139H149.824" stroke="#263238" stroke-linecap="round" stroke-linejoin="round"/>
<path d="M96.4757 96.8565C92.782 102.208 90.9882 108.644 91.381 115.135C91.7738 121.626 94.3304 127.798 98.6426 132.665C102.955 137.532 108.774 140.814 115.17 141.987C121.566 143.159 128.171 142.154 133.929 139.132C139.687 136.111 144.266 131.246 146.936 125.317C149.605 119.387 150.21 112.734 148.654 106.42C147.099 100.106 143.472 94.4953 138.354 90.4843C133.235 86.4733 126.92 84.2932 120.418 84.2923C118.634 84.2924 116.855 84.4534 115.101 84.7733" stroke="white" stroke-linecap="round" stroke-linejoin="round"/>
<path d="M101.433 91.3601C100.456 92.2058 99.535 93.1142 98.6757 94.0795" stroke="white" stroke-linecap="round" stroke-linejoin="round"/>
<path d="M143.143 123.054C148.484 110.514 142.648 96.0188 130.108 90.6778C117.568 85.3368 103.072 91.1728 97.7314 103.713C92.3904 116.253 98.2264 130.748 110.766 136.089C123.306 141.43 137.802 135.594 143.143 123.054Z" fill="#FFC283"/>
<path d="M109.04 113.819L118.404 124.459L133.719 102.762" stroke="#263238" stroke-width="6" stroke-linecap="round" stroke-linejoin="round"/>
<path d="M143.891 41.2574C143.005 42.0382 141.866 42.4712 140.684 42.4759H101.324C100.185 42.4754 99.0827 42.076 98.2074 41.3472L95.6997 39.2692H73.387V56.1432H167.474V39.2692H146.162L143.891 41.2574Z" fill="#FFC283" stroke="#263238" stroke-linecap="round" stroke-linejoin="round"/>
<path d="M123.445 209.325C123.446 208.901 123.321 208.485 123.087 208.132C122.852 207.779 122.517 207.503 122.125 207.341C121.734 207.178 121.303 207.135 120.886 207.217C120.47 207.3 120.088 207.504 119.788 207.804C119.488 208.104 119.284 208.486 119.201 208.902C119.119 209.318 119.162 209.749 119.325 210.141C119.488 210.533 119.763 210.867 120.117 211.102C120.47 211.337 120.885 211.462 121.309 211.46C121.875 211.459 122.417 211.233 122.817 210.833C123.218 210.433 123.443 209.891 123.445 209.325Z" fill="#263238" stroke="#263238" stroke-linecap="round" stroke-linejoin="round"/>
<path d="M39.7674 143.714L31.3785 218.753C31.3785 218.753 25.2278 224.101 25.7666 226.263C26.3053 228.424 33.4051 224.98 34.3864 223.197C35.0828 221.713 35.5788 220.143 35.8615 218.528L53.5245 162.089L67.1084 222.614C67.1084 222.614 72.8806 227.353 76.0874 227.193C79.2942 227.033 78.1526 225.769 76.3247 223.454C74.4968 221.138 70.3601 219.817 70.3601 219.817L68.3206 141.809L39.7674 143.714Z" fill="#263238" stroke="#263238" stroke-linecap="round" stroke-linejoin="round"/>
<path d="M67.8604 140.496L39.6771 141.929L39.8725 145.772L68.0558 144.34L67.8604 140.496Z" fill="#263238" stroke="#263238" stroke-linecap="round" stroke-linejoin="round"/>
<path d="M57.161 142.938C57.2059 143.894 55.9937 144.727 54.4416 144.811C52.8895 144.894 51.5812 144.189 51.5812 143.227C51.5812 142.264 52.7549 141.437 54.3005 141.36C55.8462 141.283 57.1097 141.989 57.161 142.938Z" fill="white"/>
<path d="M52.3317 103.507L41.7365 106.611L43.0512 142.027L67.9038 141.411L64.7611 104.803L52.3317 103.507Z" fill="white" stroke="#263238" stroke-linecap="round" stroke-linejoin="round"/>
<path d="M47.6947 103.905L46.2709 164.34L32.7767 157.805L38.7093 138.718L34.6623 106.49L47.6947 103.905Z" fill="#FFC283" stroke="#263238" stroke-linecap="round" stroke-linejoin="round"/>
<path d="M58.4246 103.36L65.9669 163.34L78.7363 155.47L70.8989 137.082L71.6557 104.611L58.4246 103.36Z" fill="#FFC283" stroke="#263238" stroke-linecap="round" stroke-linejoin="round"/>
<path d="M50.3948 110.671L52.4984 114.096L50.8181 137.942L54.8073 142.662L56.8725 136.993L53.6785 114.141L55.6475 110.832L52.787 107.125L50.3948 110.671Z" fill="#263238" stroke="#263238" stroke-linecap="round" stroke-linejoin="round"/>
<path d="M52.9987 110.216L49.0287 113.205L45.8475 105.444L47.6369 102.674L57.3535 102.18L59.6495 105.277L57.7575 112.332L52.9987 110.216Z" fill="white" stroke="#263238" stroke-linecap="round" stroke-linejoin="round"/>
<path d="M48.4449 99.6913L49.3364 104.623L52.9986 110.216L56.3529 103.623L56.1412 99.4604L48.4449 99.6913Z" fill="white" stroke="#263238" stroke-linecap="round" stroke-linejoin="round"/>
<path d="M34.6622 106.49L16.6658 128.276L28.6271 142.438L33.4437 139.308L27.5303 127.244L36.3554 120.856L34.6622 106.49Z" fill="#FFC283" stroke="#263238" stroke-linecap="round" stroke-linejoin="round"/>
<path d="M33.4437 139.308L34.162 140.873L30.1086 143.169L29.5635 141.912L33.4437 139.308Z" fill="white" stroke="#263238" stroke-linecap="round" stroke-linejoin="round"/>
<path d="M34.162 140.873L38.2923 146.286L36.9326 147.96L35.9449 147.53L33.9439 149.236C33.9439 149.236 32.4816 148.826 32.2956 148.357C32.1096 147.889 30.1278 146.696 30.0829 145.901C30.038 145.106 30.0829 143.169 30.0829 143.169L34.162 140.873Z" fill="white" stroke="#263238" stroke-linecap="round" stroke-linejoin="round"/>
<path d="M81.6801 108.863C81.9239 108.227 81.9773 107.534 81.834 106.868C81.539 106.105 80.8848 103.462 81.013 102.59C81.1413 101.718 82.4625 100.448 82.578 99.3193C82.6934 98.1905 82.578 97.1579 82.578 96.5486C82.5886 96.3818 82.6528 96.223 82.761 96.0956C82.8691 95.9682 83.0156 95.8792 83.1784 95.8417C83.3413 95.8043 83.5119 95.8203 83.6648 95.8876C83.8178 95.9549 83.945 96.0697 84.0274 96.2151C84.6688 96.9591 85.0536 97.7223 84.7457 98.5111C84.5361 99.3933 84.437 100.298 84.4507 101.205C84.4507 101.205 85.4769 102.622 86.0413 103.546C86.6057 104.469 86.5544 106.887 86.176 107.856C85.8232 108.589 85.3258 109.244 84.7137 109.78L84.7778 111.447L81.6801 108.863Z" fill="white" stroke="#263238" stroke-linecap="round" stroke-linejoin="round"/>
<path d="M83.5529 99.8708C83.5529 99.8708 83.1039 101.192 83.8928 101.493C84.6817 101.795 87.9077 102.244 87.9398 101.205C87.9718 100.166 88.036 99.6463 87.5165 99.672C86.997 99.6977 84.579 99.672 84.579 99.672C84.579 99.672 83.4567 99.6143 83.5529 99.8708Z" fill="white" stroke="#263238" stroke-linecap="round" stroke-linejoin="round"/>
<path d="M83.9184 106.349C83.9184 106.349 83.5977 107.33 84.1685 107.554C84.7393 107.779 87.061 108.119 87.0803 107.343C87.0995 106.567 87.1444 106.182 86.7724 106.201C86.4004 106.22 84.656 106.201 84.656 106.201C84.656 106.201 83.8478 106.143 83.9184 106.349Z" fill="white" stroke="#263238" stroke-linecap="round" stroke-linejoin="round"/>
<path d="M83.4886 104.251C83.4886 104.251 83.1167 105.393 83.7773 105.656C84.4378 105.919 87.1251 106.297 87.1508 105.412C87.1764 104.527 87.2277 104.065 86.7916 104.085C86.3555 104.104 84.3416 104.085 84.3416 104.085C84.3416 104.085 83.4053 104.033 83.4886 104.251Z" fill="white" stroke="#263238" stroke-linecap="round" stroke-linejoin="round"/>
<path d="M83.2386 102.218C83.2386 102.218 82.7896 103.539 83.5849 103.841C84.3802 104.142 87.5934 104.591 87.6254 103.552C87.6575 102.513 87.7216 101.994 87.2021 102.019C86.6826 102.045 84.2647 102.019 84.2647 102.019C84.2647 102.019 83.1424 101.968 83.2386 102.218Z" fill="white" stroke="#263238" stroke-linecap="round" stroke-linejoin="round"/>
<path d="M81.3145 110.177L81.8147 108.164L85.2909 110.235L84.7072 112.422L81.3145 110.177Z" fill="white" stroke="#263238" stroke-linecap="round" stroke-linejoin="round"/>
<path d="M71.6557 104.61L78.313 118.778L81.5839 109.664L84.7907 112.717L81.5069 129.611C81.4046 130.131 81.1524 130.61 80.7814 130.988C80.4105 131.367 79.937 131.629 79.4191 131.742C78.9012 131.855 78.3615 131.814 77.8665 131.625C77.3714 131.435 76.9426 131.105 76.6326 130.675L71.3158 123.255L71.6557 104.61Z" fill="#FFC283" stroke="#263238" stroke-linecap="round" stroke-linejoin="round"/>
<path d="M45.3473 93.9319C45.3473 93.9319 44.0004 92.4952 43.8272 93.5471C43.6541 94.5989 44.1992 96.4139 45.0458 97.0617C45.8924 97.7095 46.6364 96.6384 46.6364 96.6384L45.3473 93.9319Z" fill="white" stroke="#263238" stroke-linecap="round" stroke-linejoin="round"/>
<path d="M58.0782 93.2841C58.0782 93.2841 59.2647 91.7192 59.5533 92.7453C59.8419 93.7715 59.4699 95.6378 58.6939 96.369C57.9178 97.1001 57.0648 96.106 57.0648 96.106L58.0782 93.2841Z" fill="white" stroke="#263238" stroke-linecap="round" stroke-linejoin="round"/>
<path d="M45.886 95.4069L44.6033 92.694C43.5709 91.241 42.8563 89.5867 42.506 87.8389C41.8647 84.863 42.9229 82.3874 44.2698 81.6242C45.0267 81.1711 45.9204 81.0028 46.7903 81.1496C46.7903 81.1496 47.0468 79.4051 51.2798 77.9428C55.5127 76.4805 60.1177 79.1165 60.0471 80.04C59.9766 80.9636 58.8478 81.3741 58.8478 81.3741C58.8478 81.3741 62.1444 82.5926 60.9514 84.1511C60.2158 85.1032 59.2638 85.8661 58.1744 86.3766C58.4135 87.1625 58.6083 87.9612 58.758 88.7689C58.9248 89.8015 57.9948 94.2397 57.9948 94.2397L55.718 87.9993L48.5733 88.3648C48.5733 88.3648 48.15 91.392 47.3932 92.4695C46.9101 93.2874 46.641 94.2138 46.6107 95.1632C46.6107 95.1632 46.2772 96.3048 45.886 95.4069Z" fill="#263238" stroke="#263238" stroke-linecap="round" stroke-linejoin="round"/>
<path d="M47.1558 84.132C47.1436 85.9945 47.0086 87.8542 46.7517 89.6989C46.5972 90.7254 46.0669 91.658 45.2638 92.3157C45.2638 92.3157 46.1745 96.5422 47.329 98.7934C48.4834 101.045 50.8821 102.892 53.3 102.642C55.7179 102.391 57.6484 99.6464 57.8793 97.3247C58.1102 95.0029 56.975 86.4216 56.975 86.4216C56.975 86.4216 49.4198 87.7492 47.1558 84.132Z" fill="white" stroke="#263238" stroke-linecap="round" stroke-linejoin="round"/>
<path d="M47.7972 92.8095C48.1824 92.5816 48.6171 92.4508 49.0641 92.4285C49.5111 92.4061 49.9567 92.4929 50.3627 92.6813" stroke="#263238" stroke-linecap="round" stroke-linejoin="round"/>
<path d="M47.6946 90.8854C47.6946 90.8854 47.8421 89.6027 49.9842 89.4872" stroke="#263238" stroke-linecap="round" stroke-linejoin="round"/>
<path d="M53.3962 89.2051C53.8809 89.0065 54.4165 88.9685 54.9244 89.0966C55.4323 89.2247 55.8857 89.5122 56.2182 89.917" stroke="#263238" stroke-linecap="round" stroke-linejoin="round"/>
<path d="M52.6458 91.2766C52.6458 91.2766 52.9857 93.842 53.0049 94.1563C53.0242 94.4706 54.0952 94.5283 53.8066 95.1825C53.518 95.8367 52.5881 96.5293 51.812 96.0355" stroke="#263238" stroke-linecap="round" stroke-linejoin="round"/>
<path d="M53.8515 98.184C53.8515 98.184 53.037 98.9729 51.3951 98.3059" stroke="#263238" stroke-linecap="round" stroke-linejoin="round"/>
<path d="M55.4743 92.0976C55.4743 92.5722 55.2755 92.9698 54.9805 92.9827C54.6854 92.9955 54.4289 92.6235 54.4032 92.1553C54.3776 91.6871 54.6021 91.2895 54.8971 91.2702C55.1921 91.251 55.4294 91.6294 55.4743 92.0976Z" fill="#263238"/>
</g>
<defs>
<clipPath id="clip0_209_697">
<rect width="229" height="232" fill="white"/>
</clipPath>
</defs>
</svg>
