<svg width="235" height="229" viewBox="0 0 235 229" fill="none" xmlns="http://www.w3.org/2000/svg">
<g clip-path="url(#clip0_209_524)">
<path d="M129.522 157.673H107.915V128.698H123.086L129.522 134.599V157.673Z" fill="#263238"/>
<path d="M130.788 156.691H109.18V127.724H124.352L130.788 133.626V156.691Z" fill="white" stroke="#263238" stroke-linecap="round" stroke-linejoin="round"/>
<path d="M124.352 127.724L122.77 134.653L130.788 133.626L124.352 127.724Z" fill="#263238" stroke="#263238" stroke-linecap="round" stroke-linejoin="round"/>
<path d="M124.352 127.724V133.626H130.788L124.352 127.724Z" fill="white" stroke="#263238" stroke-linecap="round" stroke-linejoin="round"/>
<path d="M113.309 137.882H125.625" stroke="#263238" stroke-linecap="round" stroke-linejoin="round"/>
<path d="M113.309 140.902H125.625" stroke="#263238" stroke-linecap="round" stroke-linejoin="round"/>
<path d="M113.309 143.923H125.625" stroke="#263238" stroke-linecap="round" stroke-linejoin="round"/>
<path d="M113.309 146.951H125.625" stroke="#263238" stroke-linecap="round" stroke-linejoin="round"/>
<path d="M113.309 149.971H125.625" stroke="#263238" stroke-linecap="round" stroke-linejoin="round"/>
<path d="M233.445 157.673H211.838V128.698H227.009L233.445 134.599V157.673Z" fill="#263238"/>
<path d="M234.703 156.691H213.095V127.724H228.267L234.703 133.626V156.691Z" fill="white" stroke="#263238" stroke-linecap="round" stroke-linejoin="round"/>
<path d="M228.267 127.724L226.693 134.653L234.703 133.626L228.267 127.724Z" fill="#263238" stroke="#263238" stroke-linecap="round" stroke-linejoin="round"/>
<path d="M228.267 127.724V133.626H234.703L228.267 127.724Z" fill="white" stroke="#263238" stroke-linecap="round" stroke-linejoin="round"/>
<path d="M217.232 137.882H229.548" stroke="#263238" stroke-linecap="round" stroke-linejoin="round"/>
<path d="M217.232 140.902H229.548" stroke="#263238" stroke-linecap="round" stroke-linejoin="round"/>
<path d="M217.232 143.923H229.548" stroke="#263238" stroke-linecap="round" stroke-linejoin="round"/>
<path d="M217.232 146.951H229.548" stroke="#263238" stroke-linecap="round" stroke-linejoin="round"/>
<path d="M217.232 149.971H229.548" stroke="#263238" stroke-linecap="round" stroke-linejoin="round"/>
<path d="M23.7936 157.673H2.18646V128.698H17.3578L23.7936 134.599V157.673Z" fill="#263238"/>
<path d="M25.0592 156.691H3.45203V127.724H18.6233L25.0592 133.626V156.691Z" fill="white" stroke="#263238" stroke-linecap="round" stroke-linejoin="round"/>
<path d="M18.6234 127.724L17.0414 134.653L25.0592 133.626L18.6234 127.724Z" fill="#263238" stroke="#263238" stroke-linecap="round" stroke-linejoin="round"/>
<path d="M18.6234 127.724V133.626H25.0593L18.6234 127.724Z" fill="white" stroke="#263238" stroke-linecap="round" stroke-linejoin="round"/>
<path d="M7.58813 137.882H19.9042" stroke="#263238" stroke-linecap="round" stroke-linejoin="round"/>
<path d="M7.58813 140.902H19.9042" stroke="#263238" stroke-linecap="round" stroke-linejoin="round"/>
<path d="M7.58813 143.923H19.9042" stroke="#263238" stroke-linecap="round" stroke-linejoin="round"/>
<path d="M7.58813 146.951H19.9042" stroke="#263238" stroke-linecap="round" stroke-linejoin="round"/>
<path d="M7.58813 149.971H19.9042" stroke="#263238" stroke-linecap="round" stroke-linejoin="round"/>
<path d="M129.522 230.068H107.915V201.093H123.086L129.522 206.994V230.068Z" fill="#263238"/>
<path d="M130.788 229.087H109.18V200.119H124.352L130.788 206.021V229.087Z" fill="white" stroke="#263238" stroke-linecap="round" stroke-linejoin="round"/>
<path d="M124.352 200.119L122.77 207.048L130.788 206.021L124.352 200.119Z" fill="#263238" stroke="#263238" stroke-linecap="round" stroke-linejoin="round"/>
<path d="M124.352 200.119V206.021H130.788L124.352 200.119Z" fill="white" stroke="#263238" stroke-linecap="round" stroke-linejoin="round"/>
<path d="M113.309 210.277H125.625" stroke="#263238" stroke-linecap="round" stroke-linejoin="round"/>
<path d="M113.309 213.298H125.625" stroke="#263238" stroke-linecap="round" stroke-linejoin="round"/>
<path d="M113.309 216.326H125.625" stroke="#263238" stroke-linecap="round" stroke-linejoin="round"/>
<path d="M113.309 219.346H125.625" stroke="#263238" stroke-linecap="round" stroke-linejoin="round"/>
<path d="M113.309 222.366H125.625" stroke="#263238" stroke-linecap="round" stroke-linejoin="round"/>
<path d="M233.445 230.068H211.838V201.093H227.009L233.445 206.994V230.068Z" fill="#263238"/>
<path d="M234.703 229.087H213.095V200.119H228.267L234.703 206.021V229.087Z" fill="white" stroke="#263238" stroke-linecap="round" stroke-linejoin="round"/>
<path d="M228.267 200.119L226.693 207.048L234.703 206.021L228.267 200.119Z" fill="#263238" stroke="#263238" stroke-linecap="round" stroke-linejoin="round"/>
<path d="M228.267 200.119V206.021H234.703L228.267 200.119Z" fill="white" stroke="#263238" stroke-linecap="round" stroke-linejoin="round"/>
<path d="M217.232 210.277H229.548" stroke="#263238" stroke-linecap="round" stroke-linejoin="round"/>
<path d="M217.232 213.298H229.548" stroke="#263238" stroke-linecap="round" stroke-linejoin="round"/>
<path d="M217.232 216.326H229.548" stroke="#263238" stroke-linecap="round" stroke-linejoin="round"/>
<path d="M217.232 219.346H229.548" stroke="#263238" stroke-linecap="round" stroke-linejoin="round"/>
<path d="M217.232 222.366H229.548" stroke="#263238" stroke-linecap="round" stroke-linejoin="round"/>
<path d="M23.7936 230.068H2.18646V201.093H17.3578L23.7936 206.994V230.068Z" fill="#263238"/>
<path d="M25.0592 229.087H3.45203V200.119H18.6233L25.0592 206.021V229.087Z" fill="white" stroke="#263238" stroke-linecap="round" stroke-linejoin="round"/>
<path d="M18.6234 200.119L17.0414 207.048L25.0592 206.021L18.6234 200.119Z" fill="#263238" stroke="#263238" stroke-linecap="round" stroke-linejoin="round"/>
<path d="M18.6234 200.119V206.021H25.0593L18.6234 200.119Z" fill="white" stroke="#263238" stroke-linecap="round" stroke-linejoin="round"/>
<path d="M7.58813 210.277H19.9042" stroke="#263238" stroke-linecap="round" stroke-linejoin="round"/>
<path d="M7.58813 213.298H19.9042" stroke="#263238" stroke-linecap="round" stroke-linejoin="round"/>
<path d="M7.58813 216.326H19.9042" stroke="#263238" stroke-linecap="round" stroke-linejoin="round"/>
<path d="M7.58813 219.346H19.9042" stroke="#263238" stroke-linecap="round" stroke-linejoin="round"/>
<path d="M7.58813 222.366H19.9042" stroke="#263238" stroke-linecap="round" stroke-linejoin="round"/>
<path d="M75.751 192.472H54.1439V163.505H69.3229L75.751 169.406V192.472Z" fill="#263238"/>
<path d="M77.0167 191.499H55.4095V162.524H70.5808L77.0167 168.425V191.499Z" fill="#FFE1C1" stroke="#263238" stroke-linecap="round" stroke-linejoin="round"/>
<path d="M70.5807 162.524L69.0065 169.453L77.0165 168.425L70.5807 162.524Z" fill="#263238" stroke="#263238" stroke-linecap="round" stroke-linejoin="round"/>
<path d="M70.5807 162.524V168.425H77.0166L70.5807 162.524Z" fill="white" stroke="#263238" stroke-linecap="round" stroke-linejoin="round"/>
<path d="M59.5457 172.689H71.8618" stroke="#263238" stroke-linecap="round" stroke-linejoin="round"/>
<path d="M59.5457 175.709H71.8618" stroke="#263238" stroke-linecap="round" stroke-linejoin="round"/>
<path d="M59.5457 178.73H71.8618" stroke="#263238" stroke-linecap="round" stroke-linejoin="round"/>
<path d="M59.5457 181.75H71.8618" stroke="#263238" stroke-linecap="round" stroke-linejoin="round"/>
<path d="M59.5457 184.77H71.8618" stroke="#263238" stroke-linecap="round" stroke-linejoin="round"/>
<path d="M129.522 85.2771H107.915V56.3019H123.086L129.522 62.2036V85.2771Z" fill="#263238"/>
<path d="M130.788 84.2961H109.18V55.3287H124.352L130.788 61.2304V84.2961Z" fill="white" stroke="#263238" stroke-linecap="round" stroke-linejoin="round"/>
<path d="M124.352 55.3287L122.77 62.2577L130.788 61.2304L124.352 55.3287Z" fill="#263238" stroke="#263238" stroke-linecap="round" stroke-linejoin="round"/>
<path d="M124.352 55.3287V61.2304H130.788L124.352 55.3287Z" fill="white" stroke="#263238" stroke-linecap="round" stroke-linejoin="round"/>
<path d="M113.309 65.4866H125.625" stroke="#263238" stroke-linecap="round" stroke-linejoin="round"/>
<path d="M113.309 68.507H125.625" stroke="#263238" stroke-linecap="round" stroke-linejoin="round"/>
<path d="M113.309 71.5273H125.625" stroke="#263238" stroke-linecap="round" stroke-linejoin="round"/>
<path d="M113.309 74.5475H125.625" stroke="#263238" stroke-linecap="round" stroke-linejoin="round"/>
<path d="M113.309 77.5758H125.625" stroke="#263238" stroke-linecap="round" stroke-linejoin="round"/>
<path d="M181.48 47.6813H159.872V18.7139H175.051L181.48 24.6078V47.6813Z" fill="#263238"/>
<path d="M182.745 46.7079H161.138V17.7328H176.309L182.745 23.6344V46.7079Z" fill="white" stroke="#263238" stroke-linecap="round" stroke-linejoin="round"/>
<path d="M176.309 17.7328L174.735 24.6618L182.745 23.6344L176.309 17.7328Z" fill="#263238" stroke="#263238" stroke-linecap="round" stroke-linejoin="round"/>
<path d="M176.309 17.7328V23.6344H182.745L176.309 17.7328Z" fill="white" stroke="#263238" stroke-linecap="round" stroke-linejoin="round"/>
<path d="M165.274 27.8907H177.59" stroke="#263238" stroke-linecap="round" stroke-linejoin="round"/>
<path d="M165.274 30.9188H177.59" stroke="#263238" stroke-linecap="round" stroke-linejoin="round"/>
<path d="M165.274 33.9391H177.59" stroke="#263238" stroke-linecap="round" stroke-linejoin="round"/>
<path d="M165.274 36.9594H177.59" stroke="#263238" stroke-linecap="round" stroke-linejoin="round"/>
<path d="M165.274 39.9799H177.59" stroke="#263238" stroke-linecap="round" stroke-linejoin="round"/>
<path d="M233.445 85.2771H211.838V56.3019H227.009L233.445 62.2036V85.2771Z" fill="#263238"/>
<path d="M234.703 84.2961H213.095V55.3287H228.267L234.703 61.2304V84.2961Z" fill="#FFE1C1" stroke="#263238" stroke-linecap="round" stroke-linejoin="round"/>
<path d="M228.267 55.3287L226.693 62.2577L234.703 61.2304L228.267 55.3287Z" fill="#263238" stroke="#263238" stroke-linecap="round" stroke-linejoin="round"/>
<path d="M228.267 55.3287V61.2304H234.703L228.267 55.3287Z" fill="white" stroke="#263238" stroke-linecap="round" stroke-linejoin="round"/>
<path d="M217.232 65.4866H229.548" stroke="#263238" stroke-linecap="round" stroke-linejoin="round"/>
<path d="M217.232 68.507H229.548" stroke="#263238" stroke-linecap="round" stroke-linejoin="round"/>
<path d="M217.232 71.5273H229.548" stroke="#263238" stroke-linecap="round" stroke-linejoin="round"/>
<path d="M217.232 74.5475H229.548" stroke="#263238" stroke-linecap="round" stroke-linejoin="round"/>
<path d="M217.232 77.5758H229.548" stroke="#263238" stroke-linecap="round" stroke-linejoin="round"/>
<path d="M23.7936 85.2771H2.18646V56.3019H17.3578L23.7936 62.2036V85.2771Z" fill="#263238"/>
<path d="M25.0592 84.2961H3.45203V55.3287H18.6233L25.0592 61.2304V84.2961Z" fill="white" stroke="#263238" stroke-linecap="round" stroke-linejoin="round"/>
<path d="M18.6234 55.3287L17.0414 62.2577L25.0592 61.2304L18.6234 55.3287Z" fill="#263238" stroke="#263238" stroke-linecap="round" stroke-linejoin="round"/>
<path d="M18.6234 55.3287V61.2304H25.0593L18.6234 55.3287Z" fill="white" stroke="#263238" stroke-linecap="round" stroke-linejoin="round"/>
<path d="M7.58813 65.4866H19.9042" stroke="#263238" stroke-linecap="round" stroke-linejoin="round"/>
<path d="M7.58813 68.507H19.9042" stroke="#263238" stroke-linecap="round" stroke-linejoin="round"/>
<path d="M7.58813 71.5273H19.9042" stroke="#263238" stroke-linecap="round" stroke-linejoin="round"/>
<path d="M7.58813 74.5475H19.9042" stroke="#263238" stroke-linecap="round" stroke-linejoin="round"/>
<path d="M7.58813 77.5758H19.9042" stroke="#263238" stroke-linecap="round" stroke-linejoin="round"/>
<path d="M171.116 229.087C192.315 229.087 209.5 225.78 209.5 221.702C209.5 217.623 192.315 214.317 171.116 214.317C149.917 214.317 132.732 217.623 132.732 221.702C132.732 225.78 149.917 229.087 171.116 229.087Z" fill="#FFC283"/>
<path opacity="0.5" d="M171.116 229.087C192.315 229.087 209.5 225.78 209.5 221.702C209.5 217.623 192.315 214.317 171.116 214.317C149.917 214.317 132.732 217.623 132.732 221.702C132.732 225.78 149.917 229.087 171.116 229.087Z" fill="white"/>
<path d="M142 120.447C141.952 120.496 141.894 120.536 141.831 120.563C141.673 120.637 141.493 120.645 141.329 120.586C141.166 120.526 141.032 120.404 140.959 120.247L139.415 116.994C139.358 116.839 139.361 116.667 139.424 116.513C139.487 116.36 139.605 116.235 139.755 116.165C139.906 116.094 140.077 116.082 140.235 116.131C140.393 116.18 140.528 116.287 140.611 116.431L142.155 119.683C142.214 119.81 142.231 119.953 142.203 120.09C142.176 120.228 142.104 120.353 142 120.447Z" fill="white" stroke="#263238" stroke-miterlimit="10"/>
<path d="M143.39 128.473C145.045 128.696 146.605 129.375 147.896 130.435C150.057 132.204 154.764 134.56 160.853 135.935C166.941 137.31 168.5 137.48 168.5 137.48L166.957 129.037C166.957 129.037 158.322 129.23 154.61 128.643C150.898 128.056 146.561 124.719 144.578 122.95C142.595 121.181 143.39 128.473 143.39 128.473Z" fill="#FFC283" stroke="#263238" stroke-miterlimit="10"/>
<path d="M146.098 128.844C146.024 128.911 145.941 128.968 145.851 129.014C145.614 129.125 145.342 129.138 145.095 129.05C144.848 128.962 144.645 128.78 144.532 128.543L140.673 120.393C140.617 120.276 140.585 120.148 140.579 120.018C140.572 119.888 140.592 119.758 140.635 119.635C140.679 119.513 140.746 119.4 140.834 119.303C140.921 119.207 141.026 119.128 141.144 119.072C141.262 119.017 141.389 118.985 141.519 118.978C141.649 118.972 141.779 118.991 141.901 119.034C142.024 119.078 142.136 119.146 142.233 119.233C142.329 119.32 142.408 119.426 142.464 119.544L146.322 127.693C146.41 127.884 146.435 128.098 146.395 128.305C146.355 128.511 146.251 128.7 146.098 128.844Z" fill="white" stroke="#263238" stroke-miterlimit="10"/>
<path d="M143.274 115.025C141.782 116.414 139.912 117.329 137.901 117.654C135.889 117.98 133.827 117.701 131.974 116.853C130.121 116.005 128.561 114.626 127.491 112.89C126.421 111.155 125.889 109.141 125.962 107.103C126.035 105.064 126.711 103.094 127.903 101.44C129.095 99.7859 130.75 98.523 132.659 97.8108C134.569 97.0985 136.646 96.969 138.629 97.4384C140.611 97.9079 142.41 98.9553 143.798 100.448C145.656 102.453 146.644 105.113 146.546 107.845C146.448 110.578 145.271 113.159 143.274 115.025ZM130.587 101.367C129.381 102.49 128.533 103.945 128.153 105.55C127.773 107.154 127.877 108.835 128.452 110.381C129.026 111.926 130.046 113.266 131.381 114.231C132.717 115.196 134.309 115.743 135.955 115.803C137.601 115.862 139.228 115.432 140.629 114.565C142.031 113.699 143.144 112.436 143.829 110.936C144.513 109.436 144.738 107.767 144.474 106.139C144.21 104.512 143.47 102.999 142.348 101.792C140.843 100.178 138.76 99.2267 136.555 99.1471C134.351 99.0675 132.205 99.8659 130.587 101.367Z" fill="#263238"/>
<path d="M144.74 120.625C144.74 120.625 145.813 120.053 146.283 120.934C146.754 121.815 147.919 123.645 147.695 124.31C147.472 124.974 146.222 125.082 145.612 124.395C145.012 123.511 144.525 122.556 144.161 121.552L144.74 120.625Z" fill="white" stroke="#263238" stroke-miterlimit="10"/>
<path d="M140.619 121.938L144.74 120.625C144.888 120.72 145.014 120.847 145.107 120.997C145.201 121.146 145.26 121.315 145.28 121.49C145.365 122.108 147.101 125.546 146.908 126.411C146.715 127.276 142.95 128.859 142.572 128.388C142.193 127.917 139.971 122.548 139.971 122.548C139.971 122.548 139.909 122.139 140.619 121.938Z" fill="white" stroke="#263238" stroke-miterlimit="10"/>
<path d="M145.365 122.108L141.645 123.267" stroke="#263238" stroke-miterlimit="10" stroke-linecap="round"/>
<path d="M145.905 123.715L142.518 125.028" stroke="#263238" stroke-miterlimit="10" stroke-linecap="round"/>
<path d="M146.53 125.206L143.32 127.021" stroke="#263238" stroke-miterlimit="10" stroke-linecap="round"/>
<path d="M161.833 105.886C161.833 105.886 158.491 112.167 158.106 118.454C157.72 124.742 163.399 125.522 164.186 126.11C164.974 126.697 167.914 151.446 167.914 151.446C167.914 151.446 147.31 177.965 147.31 180.908C147.31 183.851 144.385 212.749 144.385 212.749L148.699 212.95C148.699 212.95 155.189 194.658 156.732 190.348C158.275 186.037 158.885 179.348 158.885 179.348L177.922 161.473C177.922 161.473 180.075 178.954 182.043 182.685C184.011 186.416 197.539 213.328 197.539 213.328C198.698 213.625 199.88 213.822 201.073 213.916C201.889 213.879 202.689 213.679 203.427 213.328L191.851 180.113C191.851 180.113 192.438 149.863 189.891 144.95C187.345 140.037 180.863 132.969 180.863 132.969C180.863 132.969 175.368 110.189 174.581 106.651C173.794 103.113 169.287 100.17 167.127 100.17C164.966 100.17 161.833 105.886 161.833 105.886Z" fill="#FFC283" stroke="#263238" stroke-miterlimit="10"/>
<path d="M158.275 101.954L161.022 106.273C161.022 106.273 159.479 112.954 160.83 111.386C162.18 109.818 164.356 104.117 165.537 102.936C166.265 102.156 166.794 101.213 167.08 100.186L161.239 96.8794L158.275 101.954Z" fill="white" stroke="#263238" stroke-miterlimit="10"/>
<path d="M146.09 87.5482C146.09 87.5482 145.743 91.1556 146.916 92.9554C148.089 94.7553 148.459 95.3114 148.097 96.4856C147.734 97.6597 145.936 97.6674 146.33 98.6485C146.723 99.6295 148.884 100.023 148.884 100.023C148.884 100.023 151.238 105.523 153.391 105.523C155.544 105.523 161.061 100.116 161.84 98.1464C162.62 96.1766 154.571 90.9856 153.198 89.8115C151.824 88.6373 147.657 85.3853 146.09 87.5482Z" fill="white" stroke="#263238" stroke-miterlimit="10"/>
<path d="M150.89 94.3922C151.106 95.0488 151.037 95.6668 150.728 95.7672C150.42 95.8676 149.956 95.4196 149.779 94.763C149.602 94.1064 149.625 93.4884 149.933 93.3803C150.242 93.2721 150.666 93.7279 150.89 94.3922Z" fill="#263238"/>
<path d="M150.288 100.526C150.288 100.526 152.187 100.526 152.819 97.7833" stroke="#263238" stroke-miterlimit="10" stroke-linecap="round"/>
<path d="M147.063 78.3866H143.004C140.395 78.3866 140.11 83.6008 145.612 89.402C151.114 95.2032 162.118 102.155 168.492 102.155C174.866 102.155 180.369 103.893 182.684 110.274C184.999 116.655 188.764 122.448 200.062 120.131C211.359 117.813 214.253 102.449 206.143 89.402C198.032 76.3551 187.314 78.6725 181.812 81.2834C176.309 83.8943 167.042 84.7595 165.305 81.2834C163.569 77.8073 159.464 75.4667 155.119 75.4667C150.774 75.4667 147.063 78.3866 147.063 78.3866Z" fill="#263238"/>
<path d="M203.427 213.321L191.851 180.105C191.851 180.105 192.438 149.855 189.891 144.942C187.7 140.732 182.637 134.946 181.241 133.355L166.185 137.82C167.08 144.463 167.914 151.454 167.914 151.454C167.914 151.454 147.31 177.973 147.31 180.916C147.31 183.859 144.385 212.749 144.385 212.749L148.699 212.95C148.699 212.95 155.189 194.658 156.732 190.348C158.275 186.037 158.885 179.348 158.885 179.348L177.922 161.473C177.922 161.473 180.075 178.954 182.043 182.685C184.011 186.416 197.539 213.328 197.539 213.328C198.698 213.625 199.88 213.822 201.073 213.915C201.889 213.876 202.69 213.674 203.427 213.321Z" fill="#263238" stroke="#263238" stroke-miterlimit="10"/>
<path d="M170.074 106.08C169.19 105.866 168.259 105.988 167.46 106.424C166.661 106.859 166.053 107.576 165.753 108.436C164.58 111.58 169.48 114.329 173.207 118.478C176.935 122.626 187.73 131.046 187.73 131.046L194.012 151.083L196.952 150.489C196.952 150.489 193.001 127.685 193.001 127.098C193.001 126.511 176.526 110.205 175.931 109.617C175.337 109.03 172.991 106.474 172.991 106.474" fill="#FFC283"/>
<path d="M170.074 106.08C169.19 105.866 168.259 105.988 167.46 106.424C166.661 106.859 166.053 107.576 165.753 108.436C164.58 111.58 169.48 114.329 173.207 118.478C176.935 122.626 187.73 131.046 187.73 131.046L194.012 151.083L196.952 150.489C196.952 150.489 193.001 127.685 193.001 127.098C193.001 126.511 176.526 110.205 175.931 109.617C175.337 109.03 172.991 106.474 172.991 106.474" stroke="#263238" stroke-miterlimit="10"/>
<path d="M194.012 151.06L192.831 156.166L194.791 159.897C194.791 159.897 196.335 160.484 196.759 159.696L197.145 158.924C197.145 158.924 199.113 158.723 199.306 156.954C199.499 155.185 196.952 150.473 196.952 150.473L194.012 151.06Z" fill="white" stroke="#263238" stroke-miterlimit="10"/>
<path d="M144.385 212.749C144.385 212.749 134.77 219.825 134.353 220.999C133.936 222.173 147.302 219.037 148.483 218.836C149.663 218.635 148.676 212.95 148.676 212.95L144.385 212.749Z" fill="#FFC283" stroke="#263238" stroke-miterlimit="10"/>
<path d="M135.341 219.863C134.952 220.174 134.62 220.551 134.361 220.976C133.967 222.158 147.31 219.014 148.49 218.813C148.892 218.751 149.038 218.04 149.061 217.121L135.341 219.863Z" fill="white" stroke="#263238" stroke-miterlimit="10"/>
<path d="M197.539 213.321C197.539 213.321 189.498 214.696 190.478 215.87C191.962 217.293 193.918 218.118 195.972 218.187C197.932 218.187 198.719 218.774 200.486 219.732C202.254 220.69 203.427 220.713 204.013 219.137C204.6 217.562 203.427 213.251 203.427 213.251C203.427 213.251 198.719 214.294 197.539 213.321Z" fill="#FFC283" stroke="#263238" stroke-miterlimit="10"/>
<path d="M200.486 219.802C202.246 220.783 203.426 220.783 204.013 219.207C204.078 219.028 204.12 218.841 204.136 218.651C201.212 220.126 198.519 216.619 196.065 216.619C194.521 216.619 192.368 215.762 190.941 215.074C190.478 215.337 190.262 215.599 190.478 215.847C191.962 217.27 193.918 218.095 195.972 218.164C197.932 218.226 198.719 218.813 200.486 219.802Z" fill="white" stroke="#263238" stroke-miterlimit="10"/>
<path d="M152.557 87.9496C154.1 91.0395 156.331 94.7242 158.908 96.2305" stroke="white" stroke-width="0.75" stroke-miterlimit="10"/>
<path d="M150.358 82.7821C150.358 82.7821 150.705 83.794 151.338 85.2849" stroke="white" stroke-width="0.75" stroke-miterlimit="10"/>
<path d="M206.359 94.3149C207.046 94.8672 207.654 95.5119 208.165 96.2307" stroke="white" stroke-width="0.75" stroke-miterlimit="10" stroke-linecap="round"/>
<path d="M145.334 81.832C145.334 81.832 148.05 91.1015 157.141 95.4119C166.231 99.7222 169.897 98.8107 181.426 93.7897C190.254 89.9274 198.928 90.1591 204.275 92.9632" stroke="white" stroke-width="0.75" stroke-miterlimit="10" stroke-linecap="round"/>
<path d="M190.246 112.522C190.1 109.532 193.155 109.965 193.51 110.081" stroke="white" stroke-width="0.75" stroke-miterlimit="10" stroke-linecap="round"/>
<path d="M174.921 96.5011C174.921 96.5011 180.214 95.5509 190.524 95.6823C200.834 95.8136 207.216 106.42 205.186 112.8C203.319 118.655 193.688 118.686 191.064 115.117" stroke="white" stroke-width="0.75" stroke-miterlimit="10" stroke-linecap="round"/>
<path d="M64.8935 138.909C86.0921 138.909 103.277 135.603 103.277 131.525C103.277 127.446 86.0921 124.14 64.8935 124.14C43.6948 124.14 26.5099 127.446 26.5099 131.525C26.5099 135.603 43.6948 138.909 64.8935 138.909Z" fill="#FFC283"/>
<path opacity="0.5" d="M64.8935 138.909C86.0921 138.909 103.277 135.603 103.277 131.525C103.277 127.446 86.0921 124.14 64.8935 124.14C43.6948 124.14 26.5099 127.446 26.5099 131.525C26.5099 135.603 43.6948 138.909 64.8935 138.909Z" fill="white"/>
<path d="M83.9386 13.2759C83.9386 13.2759 83.9386 9.41356 83.9386 6.95713C83.9386 4.50069 87.4344 0.221242 92.7204 0.00495229C98.0065 -0.211338 106.611 6.70994 105.237 10.4178C103.864 14.1256 101.888 11.9627 101.888 11.9627C101.888 11.9627 103.3 13.554 101.363 14.4346C99.4264 15.3152 98.0836 11.6923 98.0836 11.6923C98.0836 11.6923 95.4367 9.22045 92.9673 9.22045C90.498 9.22045 91.2079 9.39812 89.4408 11.8623C87.6736 14.3264 86.0916 13.6312 86.0916 14.5118C86.0916 15.3924 87.3263 16.8292 85.3894 16.8292C83.4525 16.8292 83.9386 13.2759 83.9386 13.2759Z" fill="#263238" stroke="#263238" stroke-miterlimit="10"/>
<path d="M8.32905 99.5448C8.32905 99.5448 2.56457 97.8994 1.73887 98.3938C0.913166 98.8882 -0.0745885 111.595 0.257236 112.746C0.58906 113.897 5.65903 104.164 5.65903 104.164L8.12842 103.84L8.32905 99.5448Z" fill="#FFC283" stroke="#263238" stroke-miterlimit="10"/>
<path d="M2.60315 98.3087C2.31253 98.2629 2.01505 98.2922 1.73887 98.3936C0.913166 98.888 -0.0745885 111.595 0.257236 112.746C0.334404 113.016 0.673942 112.684 1.15239 112.02L2.60315 98.3087Z" fill="white" stroke="#263238" stroke-miterlimit="10"/>
<path d="M55.9729 57.6385C54.44 59.8275 53.1146 62.155 52.0142 64.5907C50.5325 68.0514 48.8811 71.6819 48.8811 71.6819L39.1579 93.1333C39.1579 93.1333 21.0233 97.4282 18.716 98.0848C16.4086 98.7414 8.32911 99.5679 8.32911 99.5679L8.16705 103.863C8.16705 103.863 30.7465 104.519 36.0249 104.519C41.3032 104.519 42.2909 105.508 44.2664 104.025C46.242 102.542 60.9117 77.5681 60.9117 77.5681L66.6839 77.2437C66.6839 77.2437 83.005 96.0532 84.3246 98.0307C85.6442 100.008 90.0891 113.21 92.3964 117.504C93.7872 120.089 95.4451 122.52 97.3429 124.758L100.97 120.633C100.97 120.633 93.253 95.721 92.2343 90.4374C91.2157 85.1537 78.0585 68.1672 78.0585 68.1672L79.3781 59.4229C79.3781 59.4229 58.1105 60.1104 55.9729 57.6385Z" fill="#263238" stroke="#263238" stroke-miterlimit="10"/>
<path d="M84.6333 24.523C84.6333 24.523 72.6799 23.8355 70.9591 23.9513C69.2382 24.0672 67.6254 24.2912 67.4016 25.3263C67.1778 26.3614 55.2244 57.2909 55.2244 59.3611C55.2244 61.4313 61.8841 64.1967 68.0884 64.1967C72.0802 64.1696 75.9534 62.8347 79.1158 60.3962C79.6868 59.9404 95.1977 30.8494 95.5449 30.1542C95.8922 29.459 95.7687 28.4316 94.6266 27.3965C93.4845 26.3614 84.6333 24.523 84.6333 24.523Z" fill="#FFC283" stroke="#263238" stroke-miterlimit="10"/>
<path d="M85.32 22.7231C85.32 22.7231 82.2333 23.4106 81.4153 24.4457C80.5973 25.4808 78.1974 34.7967 78.1974 34.7967L84.3709 33.5299L87.9283 38.9371C87.9283 38.9371 90.3437 31.1198 90.4595 27.7828C90.5752 24.4457 87.0409 22.3369 85.32 22.7231Z" fill="#FFC283" stroke="#263238" stroke-miterlimit="10"/>
<path d="M67.5096 24.4689C64.1098 25.5058 60.8456 26.945 57.7864 28.756C53.6579 31.3979 41.6273 38.659 41.6273 38.659L49.3442 40.6365L63.52 35.0285C63.52 35.0285 66.5219 28.756 67.5096 24.4689Z" fill="#FFC283" stroke="#263238" stroke-miterlimit="10"/>
<path d="M64.2145 40.312C64.2145 40.312 56.6289 39.4854 53.164 38.4967C49.6991 37.5079 46.4118 35.5227 42.9469 37.6701C39.482 39.8176 39.8139 42.3049 41.9591 43.9425C44.1044 45.5802 56.4668 44.1048 58.9362 43.9425C60.3976 43.8493 61.8133 43.3955 63.057 42.6216L64.2145 40.312Z" fill="#FFC283" stroke="#263238" stroke-miterlimit="10"/>
<path d="M62.4011 40.4897C62.4011 40.4897 69.979 37.6857 70.4729 37.6857C70.9668 37.6857 71.9622 37.6857 72.1243 38.8366C72.2864 39.9876 72.95 42.7994 72.2864 42.9616C71.6227 43.1238 68.1656 44.4525 67.3399 44.4525C66.7774 44.4335 66.2219 44.3213 65.6962 44.1203C65.0618 44.3482 64.3792 44.4075 63.7151 44.2924C63.0511 44.1773 62.4281 43.8918 61.9072 43.4637C60.0937 41.9574 61.4056 40.9686 62.4011 40.4897Z" fill="white" stroke="#263238" stroke-miterlimit="10"/>
<path d="M65.6962 44.1049L65.0326 42.1274" stroke="#263238" stroke-miterlimit="10"/>
<path d="M67.8414 39.8177L68.9912 44.1049" stroke="#263238" stroke-miterlimit="10" stroke-linecap="round"/>
<path d="M69.8168 38.4967L70.9666 42.9461" stroke="#263238" stroke-miterlimit="10" stroke-linecap="round"/>
<path d="M66.1899 40.6367L67.3398 44.4372" stroke="#263238" stroke-miterlimit="10" stroke-linecap="round"/>
<path d="M94.997 27.8908C96.5399 29.2867 97.7797 30.9852 98.6393 32.8809C100.406 36.4188 105.584 47.7586 105.584 47.7586C105.584 47.7586 107.244 51.6209 103.817 52.8568C100.391 54.0928 99.9589 50.7789 98.5158 48.9018C97.0728 47.0247 91.7636 37.3535 91.7636 37.3535L94.997 27.8908Z" fill="#FFC283" stroke="#263238" stroke-miterlimit="10"/>
<path d="M98.7627 46.9243C99.3443 46.4269 100.025 46.0589 100.759 45.8445C101.493 45.6301 102.265 45.5742 103.022 45.6807C105.723 45.9896 106.665 50.1532 105.623 52.3393C104.581 54.5254 101.765 55.3519 100.839 54.9348C99.9126 54.5176 96.8953 52.8491 98.7627 46.9243Z" fill="#FFC283" stroke="#263238" stroke-miterlimit="10"/>
<path d="M100.051 46.3835C99.9877 46.3946 99.9224 46.3946 99.8586 46.3835C99.7757 46.358 99.6988 46.3163 99.6322 46.2608C99.5655 46.2054 99.5105 46.1373 99.4704 46.0604C99.4302 45.9836 99.4056 45.8995 99.3981 45.8131C99.3905 45.7267 99.4002 45.6396 99.4264 45.557L100.507 42.1195C100.532 42.0367 100.574 41.9598 100.629 41.8934C100.685 41.827 100.753 41.7724 100.83 41.7328C100.907 41.6932 100.991 41.6694 101.077 41.6629C101.164 41.6563 101.25 41.6671 101.332 41.6946C101.415 41.7202 101.492 41.7618 101.559 41.8173C101.626 41.8728 101.681 41.9409 101.721 42.0177C101.761 42.0946 101.785 42.1786 101.793 42.2651C101.801 42.3515 101.791 42.4385 101.765 42.5212L100.684 45.9587C100.634 46.0853 100.547 46.1938 100.434 46.2696C100.321 46.3455 100.188 46.3852 100.051 46.3835Z" fill="white" stroke="#263238" stroke-miterlimit="10"/>
<path d="M97.312 55.3286C97.2124 55.3289 97.1134 55.3133 97.0188 55.2823C96.7688 55.2024 96.5604 55.0269 96.439 54.794C96.3176 54.5611 96.293 54.2896 96.3706 54.0386L99.0792 45.4256C99.1643 45.1836 99.3401 44.9842 99.5694 44.8695C99.7988 44.7549 100.064 44.7339 100.308 44.8112C100.553 44.8884 100.757 45.0577 100.879 45.2834C101.002 45.509 101.031 45.7733 100.962 46.0204L98.2535 54.6334C98.1921 54.8352 98.0673 55.0118 97.8977 55.1371C97.7281 55.2623 97.5227 55.3295 97.312 55.3286Z" fill="white" stroke="#263238" stroke-miterlimit="10"/>
<path d="M104.682 43.2783C102.644 43.2783 100.652 42.6735 98.9582 41.5403C97.264 40.4072 95.9436 38.7966 95.1638 36.9123C94.3841 35.0279 94.1801 32.9545 94.5776 30.954C94.9751 28.9536 95.9563 27.1161 97.397 25.6739C98.8378 24.2317 100.673 23.2496 102.672 22.8517C104.67 22.4538 106.742 22.658 108.624 23.4385C110.506 24.219 112.115 25.5408 113.247 27.2366C114.379 28.9325 114.984 30.9263 114.984 32.9659C114.98 35.6997 113.893 38.3203 111.962 40.2533C110.031 42.1864 107.413 43.2742 104.682 43.2783ZM104.682 24.631C103.034 24.6295 101.424 25.117 100.054 26.0319C98.6833 26.9469 97.6149 28.2481 96.9835 29.7709C96.3521 31.2938 96.1861 32.9699 96.5065 34.5872C96.8269 36.2045 97.6193 37.6904 98.7835 38.8568C99.9477 40.0232 101.431 40.8178 103.047 41.1401C104.662 41.4623 106.337 41.2977 107.859 40.6671C109.38 40.0364 110.681 38.9682 111.597 37.5973C112.512 36.2265 113 34.6147 113 32.9659C112.998 30.7573 112.122 28.6397 110.562 27.0772C109.003 25.5148 106.888 24.6351 104.682 24.631Z" fill="#263238"/>
<path d="M97.5203 46.098C97.5203 46.098 96.3705 45.6808 96.0618 46.6155C95.7531 47.5502 94.8117 49.5277 95.1281 50.1534C95.4445 50.7791 96.6714 50.671 97.2039 49.9448C97.6739 48.9848 98.0238 47.9703 98.2457 46.9245L97.5203 46.098Z" fill="white" stroke="#263238" stroke-miterlimit="10"/>
<path d="M101.78 46.8241L97.5203 46.098C97.3861 46.2132 97.2792 46.3569 97.2071 46.5185C97.1351 46.6801 97.0997 46.8557 97.1036 47.0326C97.1036 47.6583 95.8534 51.2967 96.1621 52.1309C96.4708 52.9652 100.43 54.0003 100.738 53.4827C101.047 52.9652 102.505 47.3416 102.505 47.3416C102.505 47.3416 102.505 46.9245 101.78 46.8241Z" fill="white" stroke="#263238" stroke-miterlimit="10"/>
<path d="M97.1036 47.6581L100.947 48.2761" stroke="#263238" stroke-miterlimit="10" stroke-linecap="round"/>
<path d="M96.7872 49.319L100.322 50.1532" stroke="#263238" stroke-miterlimit="10" stroke-linecap="round"/>
<path d="M96.3705 50.8794L99.8045 52.2312" stroke="#263238" stroke-miterlimit="10" stroke-linecap="round"/>
<path d="M84.965 20.2666C84.965 20.2666 83.4756 26.2455 83.4756 28.895C83.4756 31.5446 83.4756 33.7229 84.3939 33.5298C85.3122 33.3367 88.4144 27.3501 88.9855 25.0327C89.5565 22.7153 87.5038 18.1964 84.965 20.2666Z" fill="white" stroke="#263238" stroke-miterlimit="10"/>
<path d="M84.641 13.6312C84.641 13.6312 83.4063 11.5146 82.704 12.9205C82.0018 14.3264 81.2919 17.6866 82.3491 18.7449C83.4063 19.8032 83.7613 18.2196 83.7613 18.2196C83.7613 18.2196 83.9387 22.9857 85.6982 24.747C87.4576 26.5082 89.4023 27.3965 92.2266 26.1606C95.051 24.9246 98.5699 19.8032 99.6271 16.2808C100.188 14.5525 100.601 12.7798 100.862 10.9816C100.862 10.9816 100.16 8.16215 96.1005 7.27382C92.0414 6.38549 87.8203 7.98448 87.8203 9.7457C87.8203 11.5069 88.7 11.6923 87.6428 12.2176C87.0985 12.5195 86.496 12.7012 85.8757 12.7506C85.8757 12.7506 85.1734 16.4507 84.641 13.6312Z" fill="white" stroke="#263238" stroke-miterlimit="10"/>
<path d="M95.8536 17.3159C95.6761 17.9339 95.3211 18.3664 95.0819 18.2892C94.8427 18.2119 94.7501 17.6558 94.9276 17.0455C95.1051 16.4353 95.46 15.995 95.6993 16.0722C95.9385 16.1495 96.0311 16.6979 95.8536 17.3159Z" fill="#263238"/>
<path d="M89.4562 14.9753L91.9796 16.5125" stroke="#263238" stroke-miterlimit="10" stroke-linecap="round"/>
<path d="M95.159 14.3185C95.159 14.3185 96.9107 12.6732 97.474 14.6507" stroke="#263238" stroke-miterlimit="10" stroke-linecap="round"/>
<path d="M92.7436 14.1023C92.7436 14.1023 92.4118 11.6845 90.3282 12.3411" stroke="#263238" stroke-miterlimit="10" stroke-linecap="round"/>
<path d="M94.5031 16.0723C94.1584 16.3338 93.8723 16.6649 93.6636 17.0441C93.4549 17.4234 93.3282 17.8423 93.2916 18.2738C93.2916 19.587 94.3874 20.7997 93.3996 21.016C92.4119 21.2323 90.8762 20.1432 90.8762 20.1432" stroke="#263238" stroke-miterlimit="10" stroke-linecap="round"/>
<path d="M91.7559 22.8853C91.7559 22.8853 88.9007 23.3256 88.5766 21.24" stroke="#263238" stroke-miterlimit="10" stroke-linecap="round"/>
<path d="M97.312 124.789C97.312 124.789 98.9634 129.424 100.113 129.424C101.263 129.424 110.5 120.347 110.832 119.381C111.164 118.416 102.258 121.699 102.258 121.699L100.939 120.702L97.312 124.789Z" fill="#FFC283" stroke="#263238" stroke-miterlimit="10"/>
<path d="M109.011 119.443L99.3647 128.867C99.6348 129.192 99.8971 129.416 100.136 129.416C101.294 129.416 110.523 120.339 110.855 119.374C110.963 119.034 110.161 119.15 109.011 119.443Z" fill="white" stroke="#263238" stroke-miterlimit="10"/>
</g>
<defs>
<clipPath id="clip0_209_524">
<rect width="235" height="229" fill="white"/>
</clipPath>
</defs>
</svg>
