<svg width="247" height="215" viewBox="0 0 247 215" fill="none" xmlns="http://www.w3.org/2000/svg">
<g clip-path="url(#clip0_209_171)">
<path d="M191.044 128.929V128.892C186.033 127.222 178.344 127.789 177.202 128.473C175.987 129.289 174.944 130.336 174.131 131.555C171.432 135.397 169.497 139.726 168.432 144.305L113.927 149.389C111.919 145.038 108.891 141.137 105.851 138.783C104.982 138.053 103.981 137.499 102.903 137.15C102.428 137.093 101.948 137.11 101.478 137.199C99.5008 131.45 96.7003 125.904 93.1997 125.552C85.83 124.813 72.97 127.29 69.4632 134.463C65.9565 141.636 64.8572 159.544 64.8572 159.544L62.4006 162.009C60.6089 158.507 58.1169 155.413 55.0801 152.92C54.2143 152.186 53.2125 151.631 52.1322 151.287C51.5181 151.114 49.0615 151.496 46.4883 152.34C46.3839 152.242 46.2856 152.143 46.1751 152.051C43.7185 149.986 38.6826 148.859 35.8698 154.121C33.0571 159.384 36.4348 169.349 38.1176 171.604C38.9348 172.756 39.9596 173.745 41.1391 174.519C43.1228 179.449 46.6664 185.735 52.1199 186.024C53.9879 186.125 55.8556 185.822 57.5966 185.135C59.3375 184.448 60.911 183.394 62.2102 182.043C65.7477 178.346 66.1284 173.151 64.7958 168.067L65.3669 167.229C65.3669 167.229 66.6382 169.047 71.5083 168.313C72.9201 168.168 74.2586 167.611 75.3589 166.711C77.6435 172.559 81.3345 178.42 87.1995 179.295C89.7167 179.681 92.2872 179.519 94.7363 178.82C97.1854 178.12 99.4555 176.899 101.392 175.24C102.518 174.265 103.5 173.134 104.309 171.882C107.593 171.7 110.687 170.277 112.969 167.901C115.01 165.716 116.178 162.853 116.248 159.859L123.501 159.008C128.054 161.046 133.022 161.979 138.001 161.732C142.769 161.425 147.283 159.464 150.769 156.186L167.296 154.768C167.572 161.196 169.875 167.093 175.279 170.341C177.349 171.58 179.661 172.355 182.057 172.611C184.453 172.867 186.876 172.6 189.159 171.826C196.78 169.262 198.586 157.899 199.077 150.991C199.839 139.898 196.314 130.501 191.044 128.929Z" fill="#263238" stroke="#263238" stroke-width="0.75" stroke-linecap="round" stroke-linejoin="round"/>
<path d="M90.1413 175.727C89.5075 176.54 88.6994 177.199 87.7769 177.656" stroke="white" stroke-width="0.5" stroke-linecap="round" stroke-linejoin="round"/>
<path d="M93.1199 161.122C93.1199 161.122 93.8507 169.133 91.1301 174.217" stroke="white" stroke-width="0.5" stroke-linecap="round" stroke-linejoin="round"/>
<path d="M95.2755 169.971C94.5815 173.052 93.1997 176.041 90.522 177.366" stroke="white" stroke-width="0.5" stroke-linecap="round" stroke-linejoin="round"/>
<path d="M98.6103 160.512C98.6103 160.512 99.8386 173.829 93.2734 177.045" stroke="white" stroke-width="0.5" stroke-linecap="round" stroke-linejoin="round"/>
<path d="M101.362 160.204C101.362 160.204 102.59 173.527 96.0186 176.737" stroke="white" stroke-width="0.5" stroke-linecap="round" stroke-linejoin="round"/>
<path d="M184.215 169.54C183.509 170.434 182.632 171.178 181.636 171.727" stroke="white" stroke-width="0.5" stroke-linecap="round" stroke-linejoin="round"/>
<path d="M189.153 152.907C189.153 152.907 188.76 162.022 185.388 167.82" stroke="white" stroke-width="0.5" stroke-linecap="round" stroke-linejoin="round"/>
<path d="M190.031 163.001C188.926 166.508 187.157 169.91 184.362 171.389" stroke="white" stroke-width="0.5" stroke-linecap="round" stroke-linejoin="round"/>
<path d="M194.606 152.23C194.606 152.23 193.949 167.414 187.089 171.05" stroke="white" stroke-width="0.5" stroke-linecap="round" stroke-linejoin="round"/>
<path d="M197.345 151.897C197.345 151.897 196.688 167.075 189.828 170.717" stroke="white" stroke-width="0.5" stroke-linecap="round" stroke-linejoin="round"/>
<path d="M53.8518 183.966C53.3291 184.77 52.64 185.451 51.8312 185.963" stroke="white" stroke-width="0.5" stroke-linecap="round" stroke-linejoin="round"/>
<path d="M54.8222 171.006C54.8222 171.006 56.554 177.785 54.6011 182.524" stroke="white" stroke-width="0.5" stroke-linecap="round" stroke-linejoin="round"/>
<path d="M58.0341 178.284C57.7577 181.027 56.8058 183.787 54.4291 185.303" stroke="white" stroke-width="0.5" stroke-linecap="round" stroke-linejoin="round"/>
<path d="M60.0055 169.688C60.0055 169.688 62.8919 180.934 57.0208 184.638" stroke="white" stroke-width="0.5" stroke-linecap="round" stroke-linejoin="round"/>
<path d="M62.5971 169.022C62.5971 169.022 65.4897 180.268 59.6124 183.978" stroke="white" stroke-width="0.5" stroke-linecap="round" stroke-linejoin="round"/>
<path d="M83.7665 156.556C85.2282 164.943 84.3131 172.116 81.7338 172.578C79.1544 173.04 75.8687 166.594 74.4071 158.207C72.9454 149.82 73.8605 142.647 76.446 142.185C79.0315 141.723 82.3049 148.162 83.7665 156.556Z" fill="#71BDD5" stroke="#263238" stroke-linecap="round" stroke-linejoin="round"/>
<path d="M82.4646 156.734C82.8699 159.951 82.4953 162.644 81.6171 162.755C80.7388 162.866 79.7071 160.352 79.3017 157.135C78.8964 153.918 79.3017 151.219 80.1493 151.108C80.9968 150.997 82.0592 153.517 82.4646 156.734Z" fill="#71BDD5" stroke="#263238" stroke-linecap="round" stroke-linejoin="round"/>
<path d="M76.3047 149.044C76.3918 147.964 76.5623 146.892 76.8145 145.839" stroke="#263238" stroke-width="0.75" stroke-linecap="round" stroke-linejoin="round"/>
<path d="M80.3765 169.552C78.6771 166.138 77.4616 162.502 76.7654 158.749C76.3029 156.095 76.1156 153.4 76.2065 150.707" stroke="#263238" stroke-width="0.75" stroke-linecap="round" stroke-linejoin="round"/>
<path d="M47.6233 181.481C49.4798 180.965 49.6344 175.657 47.9686 169.625C46.3027 163.594 43.4472 159.123 41.5907 159.639C39.7341 160.155 39.5795 165.463 41.2454 171.495C42.9112 177.526 45.7667 181.998 47.6233 181.481Z" fill="#71BDD5" stroke="#263238" stroke-linecap="round" stroke-linejoin="round"/>
<path d="M47.3604 169.866C47.9438 172.159 47.9131 174.143 47.2867 174.303C46.6602 174.464 45.6899 172.732 45.1065 170.446C44.523 168.159 44.5537 166.163 45.1802 166.009C45.8066 165.855 46.7769 167.574 47.3604 169.866Z" stroke="#263238" stroke-width="0.75" stroke-linecap="round" stroke-linejoin="round"/>
<path d="M42.2139 164.856C42.1795 164.067 42.2063 163.276 42.294 162.49" stroke="#263238" stroke-width="0.75" stroke-linecap="round" stroke-linejoin="round"/>
<path d="M46.998 179.332C45.4623 177.014 44.2571 174.491 43.4176 171.838C42.8437 169.96 42.465 168.027 42.2875 166.07" stroke="#263238" stroke-width="0.75" stroke-linecap="round" stroke-linejoin="round"/>
<path d="M179.271 66.6885C172.798 53.2852 170.004 52.1205 165.699 51.8986C161.394 51.6768 151.23 50.4073 139.905 52.2252C139.905 52.2252 108.314 51.6706 83.8709 66.5283C58.3534 82.0391 45.9355 95.6643 44.1975 102.726C42.4595 109.789 36.5269 128.19 33.7142 138.74C30.9014 149.29 28.9853 158.583 32.5719 167.124C34.7398 172.288 37.0489 173.841 40.0152 173.816C39.5614 172.999 39.1614 172.153 38.8177 171.284C35.8698 163.956 36.226 153.474 39.5915 152.796C42.957 152.118 44.9652 159.137 46.998 166.791C47.4015 168.478 47.948 170.128 48.6316 171.721C53.6614 169.817 61.7189 165.559 72.4295 161.134C71.4127 154.412 71.3899 147.576 72.3619 140.847C73.9464 130.328 80.6467 128.005 83.5638 134.408C85.9774 139.683 86.874 151.49 87.1136 155.471C91.4125 153.986 95.0114 153.006 97.2284 152.87C97.2284 152.87 133.88 144.563 160.896 143.898C187.912 143.232 201.429 142.585 201.429 142.585C201.429 142.585 185.744 80.0672 179.271 66.6885Z" fill="white"/>
<mask id="mask0_209_171" style="mask-type:luminance" maskUnits="userSpaceOnUse" x="30" y="51" width="172" height="123">
<path d="M179.271 66.6885C172.798 53.2852 170.004 52.1205 165.699 51.8986C161.394 51.6768 151.23 50.4073 139.905 52.2252C139.905 52.2252 108.314 51.6706 83.8709 66.5283C58.3534 82.0391 45.9355 95.6643 44.1975 102.726C42.4595 109.789 36.5269 128.19 33.7142 138.74C30.9014 149.29 28.9853 158.583 32.5719 167.124C34.7398 172.288 37.0489 173.841 40.0152 173.816C39.5614 172.999 39.1614 172.153 38.8177 171.284C35.8698 163.956 36.226 153.474 39.5915 152.796C42.957 152.118 44.9652 159.137 46.998 166.791C47.4015 168.478 47.948 170.128 48.6316 171.721C53.6614 169.817 61.7189 165.559 72.4295 161.134C71.4127 154.412 71.3899 147.576 72.3619 140.847C73.9464 130.328 80.6467 128.005 83.5638 134.408C85.9774 139.683 86.874 151.49 87.1136 155.471C91.4125 153.986 95.0114 153.006 97.2284 152.87C97.2284 152.87 133.88 144.563 160.896 143.898C187.912 143.232 201.429 142.585 201.429 142.585C201.429 142.585 185.744 80.0672 179.271 66.6885Z" fill="white"/>
</mask>
<g mask="url(#mask0_209_171)">
<path d="M92.8987 131.357C92.8987 131.357 89.1832 136.46 84.6631 137.551C86.2599 143.43 86.917 152.131 87.1197 155.422C90.9581 154.097 94.2191 153.166 96.4546 152.895C96.7801 150.972 96.9766 149.746 96.9766 149.746L92.8987 131.357Z" fill="#71BDD5"/>
<path opacity="0.2" d="M47.1577 167.346C48.865 167.519 50.0012 168.258 53.4711 167.389C59.6124 165.855 55.1968 153.961 65.3854 149.105C67.3632 148.105 69.5155 147.498 71.7233 147.318C71.8149 145.142 72.0199 142.972 72.3374 140.817C72.6079 138.7 73.2307 136.644 74.1798 134.734C71.3978 133.878 70.8942 133.058 66.153 135.32C55.9583 140.176 57.4875 152.704 51.3768 154.239C46.5006 155.471 46.2304 153.505 42.5271 154.417C44.259 156.882 45.5978 161.683 46.9489 166.742C47.0533 166.97 47.1024 167.137 47.1577 167.346Z" fill="#71BDD5"/>
<g style="mix-blend-mode:multiply">
<path opacity="0.2" d="M37.1287 156.814C34.2729 158.786 32.5717 161.744 31.6014 164.24C31.8646 165.225 32.1887 166.192 32.5717 167.136C34.7397 172.301 37.0488 173.854 40.0151 173.829C39.5613 173.012 39.1612 172.166 38.8175 171.296C36.9444 166.631 36.4408 160.697 37.1287 156.814Z" fill="#71BDD5"/>
</g>
<g style="mix-blend-mode:multiply" opacity="0.2">
<path d="M165.699 51.8988L164.587 51.8311C119.798 63.3302 101.576 117.498 95.3061 143.602C95.6439 146.197 96.0123 148.742 96.4115 151.219C97.1731 151.071 96.6449 152.87 97.2283 152.84C97.2283 152.84 133.88 144.533 160.896 143.867C187.912 143.202 201.429 142.555 201.429 142.555C201.429 142.555 185.744 80.0674 179.271 66.6887C172.798 53.31 170.004 52.096 165.699 51.8988Z" fill="#71BDD5"/>
</g>
</g>
<path d="M179.271 66.6885C172.798 53.2852 170.004 52.1205 165.699 51.8986C161.394 51.6768 151.23 50.4073 139.905 52.2252C139.905 52.2252 108.314 51.6706 83.8709 66.5283C58.3534 82.0391 45.9355 95.6643 44.1975 102.726C42.4595 109.789 36.5269 128.19 33.7142 138.74C30.9014 149.29 28.9853 158.583 32.5719 167.124C34.7398 172.288 37.0489 173.841 40.0152 173.816C39.5614 172.999 39.1614 172.153 38.8177 171.284C35.8698 163.956 36.226 153.474 39.5915 152.796C42.957 152.118 44.9652 159.137 46.998 166.791C47.4015 168.478 47.948 170.128 48.6316 171.721C53.6614 169.817 61.7189 165.559 72.4295 161.134C71.4127 154.412 71.39 147.576 72.3619 140.847C73.9464 130.328 80.6467 128.005 83.5638 134.408C85.9774 139.683 86.874 151.49 87.1136 155.471C91.4125 153.986 95.0114 153.006 97.2284 152.87C97.2284 152.87 133.88 144.563 160.896 143.898C187.912 143.232 201.429 142.585 201.429 142.585C201.429 142.585 185.744 80.0672 179.271 66.6885Z" stroke="#263238" stroke-linecap="round" stroke-linejoin="round"/>
<path opacity="0.2" d="M45.2048 134.328C45.6264 134.68 46.1395 134.903 46.6836 134.972C47.2277 135.041 47.7801 134.952 48.2755 134.716C50.21 133.939 50.4065 131.018 50.4065 131.018L53.3053 130.827L53.8887 121.701L47.5017 124.221C47.5017 124.221 45.7882 133.163 45.2048 134.328Z" fill="#71BDD5"/>
<path d="M36.8279 161.017C34.994 161.995 33.26 163.151 31.6507 164.468C31.9053 165.371 32.2129 166.258 32.5719 167.124C34.7398 172.288 37.049 173.841 40.0153 173.817C39.5614 172.999 39.1614 172.153 38.8177 171.284C37.5587 168.005 36.8851 164.53 36.8279 161.017Z" fill="#263238" stroke="#263238" stroke-width="0.75" stroke-linecap="round" stroke-linejoin="round"/>
<path d="M46.6112 155.927C46.445 155.926 46.282 155.881 46.1394 155.795C45.9968 155.709 45.8797 155.587 45.8005 155.44C45.6887 155.227 45.6647 154.979 45.7336 154.748C45.8025 154.518 45.9589 154.324 46.169 154.208C46.3164 154.128 58.2675 146.696 68.1674 141.414C68.2743 141.357 68.3913 141.322 68.5118 141.31C68.6323 141.299 68.7539 141.311 68.8697 141.346C68.9854 141.382 69.0931 141.44 69.1865 141.517C69.2799 141.594 69.3573 141.689 69.4142 141.796C69.471 141.904 69.5063 142.021 69.5179 142.142C69.5295 142.263 69.5173 142.385 69.482 142.501C69.4466 142.617 69.3888 142.725 69.3118 142.819C69.2349 142.913 69.1402 142.99 69.0334 143.047C59.1396 148.323 47.1946 155.748 47.0472 155.828C46.9128 155.898 46.7626 155.932 46.6112 155.927Z" fill="#263238" stroke="#263238" stroke-miterlimit="10"/>
<path d="M62.2349 94.1546L61.8111 104.736C61.719 106.178 62.5543 106.874 63.6536 106.251L80.6345 95.1591C81.2588 94.7223 81.7621 94.1335 82.0973 93.4479C82.4325 92.7623 82.5885 92.0025 82.5506 91.2398L82.4462 79.4387C82.3234 78.3664 81.5987 77.9289 80.7082 78.3911C77.5147 80.0488 71.3487 85.6566 63.9791 90.8762C63.4797 91.2733 63.0672 91.7693 62.7671 92.3333C62.467 92.8974 62.2859 93.5173 62.2349 94.1546Z" fill="#71BDD5" stroke="#263238" stroke-linecap="round" stroke-linejoin="round"/>
<path d="M73.7069 91.1721L82.0039 93.2057" stroke="#263238" stroke-linecap="round" stroke-linejoin="round"/>
<path d="M62.3577 106.301L67.4796 94.9496" stroke="#263238" stroke-linecap="round" stroke-linejoin="round"/>
<path d="M62.3331 93.8033L69.8625 94.7461C70.6424 94.8632 71.6128 94.2162 72.319 93.0946L82.1453 78.9764" stroke="#263238" stroke-linecap="round" stroke-linejoin="round"/>
<path d="M104.371 74.4964L106.115 100.995C106.16 101.76 106.36 102.507 106.703 103.192C107.046 103.877 107.524 104.484 108.109 104.977C108.693 105.471 109.372 105.839 110.103 106.06C110.834 106.281 111.602 106.351 112.361 106.264L171.023 98.6224C171.832 98.5289 172.61 98.2605 173.305 97.8356C173.999 97.4108 174.594 96.8396 175.047 96.1616C175.5 95.4836 175.801 94.715 175.929 93.9088C176.058 93.1027 176.01 92.2782 175.789 91.4924L168.383 65.2158C168.032 63.9671 167.262 62.8783 166.204 62.1337C165.145 61.3892 163.862 61.0346 162.573 61.1301C153.066 61.8326 130.263 63.8847 108.737 68.6975C107.445 68.9922 106.298 69.7357 105.499 70.7969C104.7 71.858 104.3 73.1683 104.371 74.4964Z" fill="#71BDD5" stroke="#263238" stroke-linecap="round" stroke-linejoin="round"/>
<path d="M147.975 82.7109L174.757 95.4425" stroke="#263238" stroke-linecap="round" stroke-linejoin="round"/>
<path d="M108.338 105.099L130.957 84.7877" stroke="#263238" stroke-linecap="round" stroke-linejoin="round"/>
<path d="M104.567 73.8001L137.025 87.1911C138.243 87.6906 139.58 87.8243 140.873 87.576C142.166 87.3276 143.36 86.708 144.308 85.7922L167.443 63.8724" stroke="#263238" stroke-linecap="round" stroke-linejoin="round"/>
<path d="M169.388 102.373C174.901 102.237 179.263 97.7189 179.129 92.2819C178.996 86.8449 174.418 82.5477 168.905 82.6839C163.391 82.82 159.03 87.338 159.163 92.775C159.297 98.2121 163.874 102.509 169.388 102.373Z" fill="#263238" stroke="#263238" stroke-width="0.75" stroke-linecap="round" stroke-linejoin="round"/>
<path d="M168.069 97.2297H168.039C167.845 97.2302 167.654 97.1847 167.481 97.0969C167.308 97.009 167.158 96.8814 167.044 96.7244L163.119 91.2891C162.928 91.0243 162.849 90.6941 162.901 90.3711C162.952 90.0481 163.129 89.7587 163.393 89.5667C163.657 89.3747 163.986 89.2957 164.308 89.3471C164.629 89.3985 164.918 89.5762 165.109 89.8409L168.039 93.8958L175.04 84.19C175.231 83.9252 175.52 83.7476 175.842 83.6961C176.163 83.6447 176.493 83.7237 176.756 83.9157C177.02 84.1078 177.197 84.3971 177.249 84.7201C177.3 85.0432 177.221 85.3734 177.03 85.6381L169.046 96.7305C168.933 96.8839 168.786 97.0088 168.616 97.0955C168.447 97.1821 168.26 97.228 168.069 97.2297Z" fill="white" stroke="#263238" stroke-linecap="round" stroke-linejoin="round"/>
<path d="M130.975 123.79C130.975 123.79 151.856 119.772 166.166 120.055L167.025 123.506C167.025 123.506 136.982 124.936 131.258 127.82L130.975 123.79Z" fill="#263238" stroke="#263238" stroke-width="0.75" stroke-linecap="round" stroke-linejoin="round"/>
<path d="M131.258 127.808L131.872 131.259C131.936 131.643 132.147 131.988 132.46 132.218C132.773 132.448 133.164 132.546 133.549 132.491C138.787 131.739 157.175 129.207 166.712 129.441C166.947 129.448 167.18 129.399 167.393 129.299C167.606 129.199 167.792 129.049 167.936 128.863C168.08 128.677 168.179 128.459 168.223 128.228C168.268 127.996 168.257 127.757 168.192 127.53L167.05 123.519" stroke="#263238" stroke-linecap="round" stroke-linejoin="round"/>
<path d="M55.0617 121.713L54.945 107.478L55.6513 92.8419C55.6565 92.7019 55.6196 92.5636 55.5453 92.4449C55.471 92.3263 55.3627 92.233 55.2347 92.1771C55.1067 92.1211 54.9648 92.1053 54.8277 92.1315C54.6905 92.1578 54.5645 92.225 54.466 92.3243C51.8252 95.0357 47.3051 99.1399 45.9663 102.505C44.2283 106.861 42.1709 128.307 42.1709 128.307L55.0617 121.713Z" fill="#263238" stroke="#263238" stroke-width="0.75" stroke-linecap="round" stroke-linejoin="round"/>
<path d="M38.7071 118.854H36.6498C35.6017 118.854 34.7521 119.706 34.7521 120.758V131.394C34.7521 132.446 35.6017 133.298 36.6498 133.298H38.7071C39.7552 133.298 40.6048 132.446 40.6048 131.394V120.758C40.6048 119.706 39.7552 118.854 38.7071 118.854Z" fill="#263238" stroke="#263238" stroke-width="0.75" stroke-linecap="round" stroke-linejoin="round"/>
<path d="M40.003 108.92C40.9769 109.107 41.9281 109.399 42.8403 109.789C43.5967 110.162 44.2842 110.662 44.8731 111.268L47.9438 107.194C47.9438 107.194 43.4422 105.302 42.5885 104.15L41.741 102.992L40.003 108.92Z" fill="white"/>
<mask id="mask1_209_171" style="mask-type:luminance" maskUnits="userSpaceOnUse" x="40" y="102" width="8" height="10">
<path d="M40.003 108.92C40.9769 109.107 41.9281 109.399 42.8403 109.789C43.5967 110.162 44.2842 110.662 44.8731 111.268L47.9438 107.194C47.9438 107.194 43.4422 105.302 42.5885 104.15L41.741 102.992L40.003 108.92Z" fill="white"/>
</mask>
<g mask="url(#mask1_209_171)">
<g style="mix-blend-mode:multiply" opacity="0.5">
<path d="M42.5824 104.15L41.7902 103.047L41.6981 103.109L40.0031 108.901C40.0031 108.901 40.3285 108.963 40.7891 109.074L45.1802 105.882C44.2206 105.46 43.3415 104.874 42.5824 104.15Z" fill="#71BDD5"/>
</g>
</g>
<path d="M40.003 108.92C40.9769 109.107 41.9281 109.399 42.8403 109.789C43.5967 110.162 44.2842 110.662 44.8731 111.268L47.9438 107.194C47.9438 107.194 43.4422 105.302 42.5885 104.15L41.741 102.992L40.003 108.92Z" stroke="#263238" stroke-width="0.75" stroke-linecap="round" stroke-linejoin="round"/>
<path d="M46.4883 105.463L42.7359 110.263L43.2456 111.896L48.9632 105.937L46.4883 105.463Z" fill="#71BDD5" stroke="#263238" stroke-linecap="round" stroke-linejoin="round"/>
<path d="M40.482 91.8991C37.9456 89.9271 31.3375 91.1843 30.0417 95.8554C29.2433 98.7332 29.6855 103.047 29.6855 103.047L37.2148 101.445L37.8289 102.375C39.0572 104.224 41.7164 102.991 42.4043 102.375C42.7789 102.049 42.7543 101.087 42.6561 100.292L42.957 100.225C42.957 100.225 43.0123 93.8772 40.482 91.8991Z" fill="#263238" stroke="#263238" stroke-width="0.75" stroke-linecap="round" stroke-linejoin="round"/>
<path d="M37.6692 100.878C34.3645 100.508 31.0193 100.827 27.843 101.814C22.9299 103.466 22.1745 104.896 25.6935 104.809C29.2125 104.723 37.6692 100.878 37.6692 100.878Z" fill="#263238" stroke="#263238" stroke-width="0.75" stroke-linecap="round" stroke-linejoin="round"/>
<path d="M31.6015 99.0847C32.1747 99.0847 32.6394 98.4473 32.6394 97.6611C32.6394 96.8749 32.1747 96.2376 31.6015 96.2376C31.0283 96.2376 30.5636 96.8749 30.5636 97.6611C30.5636 98.4473 31.0283 99.0847 31.6015 99.0847Z" fill="#71BDD5"/>
<path d="M54.945 107.478C54.945 107.478 48.2202 105.765 46.1505 107.342C44.0809 108.92 43.5527 111.527 44.216 114.688C44.8792 117.849 46.4944 126.162 46.4944 126.162L55.0617 121.713L54.945 107.478Z" fill="#263238" stroke="#263238" stroke-width="0.75" stroke-linecap="round" stroke-linejoin="round"/>
<path d="M44.2712 124.837C44.2712 124.837 43.9089 128.029 43.4851 128.479C43.0614 128.929 31.884 119.507 31.2023 118.619C30.5206 117.732 30.9874 114.565 31.2023 113.572C31.4173 112.58 31.055 112.038 29.9741 112.722C28.8932 113.406 29.1818 116.253 29.1818 116.253C29.1818 116.253 25.8839 115.458 25.2268 115.366C24.5696 115.273 23.9985 116.093 24.0968 116.746C24.195 117.399 25.061 117.455 25.061 117.455C24.8394 118.401 24.9014 119.391 25.2391 120.302C25.8163 121.497 26.4673 122.249 27.6956 122.545C28.9629 122.743 30.2459 122.822 31.5278 122.779C31.5278 122.779 37.2393 128.239 38.8975 130.279C40.5557 132.319 44.0501 135.092 45.7882 134.593C47.5262 134.093 49.1843 125.386 49.1843 125.386L44.2712 124.837Z" fill="white"/>
<mask id="mask2_209_171" style="mask-type:luminance" maskUnits="userSpaceOnUse" x="24" y="112" width="26" height="23">
<path d="M44.2712 124.837C44.2712 124.837 43.9089 128.029 43.4851 128.479C43.0614 128.929 31.884 119.507 31.2023 118.619C30.5206 117.732 30.9874 114.565 31.2023 113.572C31.4173 112.58 31.055 112.038 29.9741 112.722C28.8932 113.406 29.1818 116.253 29.1818 116.253C29.1818 116.253 25.8839 115.458 25.2268 115.366C24.5696 115.273 23.9985 116.093 24.0968 116.746C24.195 117.399 25.061 117.455 25.061 117.455C24.8394 118.401 24.9014 119.391 25.2391 120.302C25.8163 121.497 26.4673 122.249 27.6956 122.545C28.9629 122.743 30.2459 122.822 31.5278 122.779C31.5278 122.779 37.2393 128.239 38.8975 130.279C40.5557 132.319 44.0501 135.092 45.7882 134.593C47.5262 134.093 49.1843 125.386 49.1843 125.386L44.2712 124.837Z" fill="white"/>
</mask>
<g mask="url(#mask2_209_171)">
<g style="mix-blend-mode:multiply" opacity="0.5">
<path d="M43.4851 128.479L46.7524 129.57C46.856 130.258 46.7112 130.96 46.344 131.55C45.9768 132.14 45.4116 132.578 44.7503 132.787C43.307 133.267 40.7154 131.622 38.873 130.236L38.9282 130.303C40.6171 132.349 44.0809 135.116 45.8189 134.617C47.5569 134.118 49.2151 125.41 49.2151 125.41L44.2712 124.794C44.2712 124.794 43.9089 128.029 43.4851 128.479Z" fill="#71BDD5"/>
</g>
</g>
<path d="M44.2712 124.837C44.2712 124.837 43.9089 128.029 43.4851 128.479C43.0614 128.929 31.884 119.507 31.2023 118.619C30.5206 117.732 30.9874 114.565 31.2023 113.572C31.4173 112.58 31.055 112.038 29.9741 112.722C28.8932 113.406 29.1818 116.253 29.1818 116.253C29.1818 116.253 25.8839 115.458 25.2268 115.366C24.5696 115.273 23.9985 116.093 24.0968 116.746C24.195 117.399 25.061 117.455 25.061 117.455C24.8394 118.401 24.9014 119.391 25.2391 120.302C25.8163 121.497 26.4673 122.249 27.6956 122.545C28.9629 122.743 30.2459 122.822 31.5278 122.779C31.5278 122.779 37.2393 128.239 38.8975 130.279C40.5557 132.319 44.0501 135.092 45.7882 134.593C47.5262 134.093 49.1843 125.386 49.1843 125.386L44.2712 124.837Z" stroke="#263238" stroke-width="0.75" stroke-linecap="round" stroke-linejoin="round"/>
<path d="M33.1001 120.351L31.5279 122.804L32.3324 123.352L33.9414 121.041L33.1001 120.351Z" fill="#263238" stroke="#263238" stroke-miterlimit="10"/>
<path d="M32.5596 122.662C32.8988 122.662 33.1738 122.386 33.1738 122.046C33.1738 121.705 32.8988 121.429 32.5596 121.429C32.2205 121.429 31.9455 121.705 31.9455 122.046C31.9455 122.386 32.2205 122.662 32.5596 122.662Z" fill="white" stroke="#263238" stroke-width="0.75" stroke-linecap="round" stroke-linejoin="round"/>
<path d="M31.055 103.836C31.055 103.836 31.4296 104.766 32.056 106.399C32.6825 108.032 36.0479 111.477 37.6938 111.674C39.3397 111.872 41.3111 105.869 41.6243 104.631C41.7287 104.224 41.8331 103.571 41.8331 103.571C41.8331 103.571 43.9028 102.591 43.4238 101.408C42.9447 100.225 41.9744 99.6824 41.5138 100.046C41.0532 100.41 40.9733 101.944 40.2855 101.956C39.5977 101.969 39.223 101.753 38.615 100.94C38.007 100.126 31.706 101.815 31.055 103.836Z" fill="white"/>
<mask id="mask3_209_171" style="mask-type:luminance" maskUnits="userSpaceOnUse" x="31" y="99" width="13" height="13">
<path d="M31.055 103.836C31.055 103.836 31.4296 104.766 32.056 106.399C32.6825 108.032 36.0479 111.477 37.6938 111.674C39.3397 111.872 41.3111 105.869 41.6243 104.631C41.7287 104.224 41.8331 103.571 41.8331 103.571C41.8331 103.571 43.9028 102.591 43.4238 101.408C42.9447 100.225 41.9744 99.6824 41.5138 100.046C41.0532 100.41 40.9733 101.944 40.2855 101.956C39.5977 101.969 39.223 101.753 38.615 100.94C38.007 100.126 31.706 101.815 31.055 103.836Z" fill="white"/>
</mask>
<g mask="url(#mask3_209_171)">
<path opacity="0.5" d="M38.6028 100.94C37.9886 100.132 31.706 101.821 31.055 103.836L31.4112 104.748C33.8128 103.295 36.4226 102.22 39.1493 101.562C38.9456 101.375 38.7624 101.166 38.6028 100.94Z" fill="#71BDD5"/>
<g style="mix-blend-mode:multiply">
<path opacity="0.5" d="M43.3439 101.241C42.8404 100.181 41.9499 99.7008 41.5015 100.046C41.2205 100.414 41.0121 100.832 40.8874 101.278C41.7031 101.187 42.5258 101.174 43.3439 101.241Z" fill="#71BDD5"/>
</g>
</g>
<path d="M31.055 103.836C31.055 103.836 31.4296 104.766 32.056 106.399C32.6825 108.032 36.0479 111.477 37.6938 111.674C39.3397 111.872 41.3111 105.869 41.6243 104.631C41.7287 104.224 41.8331 103.571 41.8331 103.571C41.8331 103.571 43.9028 102.591 43.4238 101.408C42.9447 100.225 41.9744 99.6824 41.5138 100.046C41.0532 100.41 40.9733 101.944 40.2855 101.956C39.5977 101.969 39.223 101.753 38.615 100.94C38.007 100.126 31.706 101.815 31.055 103.836Z" stroke="#263238" stroke-width="0.75" stroke-linecap="round" stroke-linejoin="round"/>
<path d="M33.2843 104.279C33.3949 104.655 33.358 105.001 33.2106 105.044C33.0632 105.087 32.8483 104.816 32.7377 104.427C32.6272 104.039 32.664 103.706 32.8114 103.663C32.9588 103.62 33.1738 103.916 33.2843 104.279Z" fill="#263238" stroke="#263238" stroke-miterlimit="10"/>
<path d="M32.1419 103.232C33.0017 102.985 33.3702 103.632 33.4746 104.23L33.6343 104.939L34.1686 107.681L34.9793 107.336" stroke="#263238" stroke-width="0.5" stroke-linecap="round" stroke-linejoin="round"/>
<path d="M35.6425 103.441C35.8293 103.236 36.0618 103.077 36.3211 102.979C36.5804 102.88 36.8592 102.845 37.1349 102.874" stroke="#263238" stroke-width="0.5" stroke-linecap="round" stroke-linejoin="round"/>
<path d="M36.3549 101.734C36.0056 101.808 35.6849 101.981 35.432 102.234C35.179 102.487 35.0047 102.808 34.9301 103.158" stroke="#263238" stroke-width="0.5" stroke-linecap="round" stroke-linejoin="round"/>
<path d="M35.7101 108.223C35.7101 108.223 37.4912 107.866 37.6324 106.584" stroke="#263238" stroke-width="0.5" stroke-linecap="round" stroke-linejoin="round"/>
<path d="M50.8303 129.459L41.8393 126.945C41.8393 126.945 42.6315 111.539 44.0195 108.932C46.1813 104.884 51.1374 106.708 52.0708 111.798C52.9429 116.604 50.8303 129.459 50.8303 129.459Z" fill="#71BDD5" stroke="#263238" stroke-linecap="round" stroke-linejoin="round"/>
<path d="M42.0542 125.232C42.0542 125.232 46.9673 126.366 49.9581 127.352" stroke="#263238" stroke-width="0.5" stroke-linecap="round" stroke-linejoin="round"/>
<path d="M49.8354 106.239C49.8354 106.239 52.7587 106.467 54.6686 108.045" stroke="#71BDD5" stroke-width="0.5" stroke-linecap="round" stroke-linejoin="round"/>
<path d="M101.349 145.648C101.349 145.648 88.2559 150.282 87.0584 151.545C85.8608 152.809 85.9836 157.739 88.8087 160.136C91.6337 162.533 111.771 157.098 126.167 155.514C140.562 153.93 172.166 151.601 185.063 150.972C197.96 150.344 203.825 152.051 204.955 148.014C206.085 143.978 205.943 139.664 203.487 138.789C201.03 137.914 156.272 130.723 101.349 145.648Z" fill="#263238" stroke="#263238" stroke-width="0.75" stroke-linecap="round" stroke-linejoin="round"/>
<path d="M86.1248 154.238C86.1248 154.238 86.7389 159.581 90.0123 160.401C93.2857 161.22 132.185 153.826 155.111 153.006C178.037 152.186 198.101 151.57 198.101 151.57" stroke="white" stroke-width="0.5" stroke-linecap="round" stroke-linejoin="round"/>
<path d="M105.126 156.95C120.332 153.252 151.61 148.027 204.242 149.512" stroke="white" stroke-width="0.5" stroke-linecap="round" stroke-linejoin="round"/>
<path d="M92.6593 160.204C92.6593 160.204 96.1537 159.353 101.466 157.899" stroke="white" stroke-width="0.5" stroke-linecap="round" stroke-linejoin="round"/>
<path d="M95.8657 160.814C96.0315 163.105 95.9696 165.406 95.6808 167.685" stroke="white" stroke-width="0.5" stroke-linecap="round" stroke-linejoin="round"/>
<path d="M95.3063 62.2702C95.3063 62.2702 92.3768 65.715 92.1496 68.8024" stroke="#263238" stroke-width="0.75" stroke-linecap="round" stroke-linejoin="round"/>
<path d="M91.8424 71.2921C91.8424 71.2921 89.6377 106.486 95.472 143.941" stroke="#263238" stroke-width="0.75" stroke-linecap="round" stroke-linejoin="round"/>
<path d="M92.5364 111.958C92.5364 111.958 87.7768 113.622 87.7154 115.779C87.5557 121.577 88.1637 133.952 89.4227 135.153C90.6817 136.355 94.5938 133.175 94.5938 133.175C94.5938 133.175 100.121 133.656 100.735 132.411C101.349 131.166 99.0463 113.646 98.7024 112.118C98.3584 110.59 92.5364 111.958 92.5364 111.958Z" fill="#71BDD5" stroke="#263238" stroke-linecap="round" stroke-linejoin="round"/>
<path d="M191.953 120.302C193.192 120.909 194.538 121.265 195.914 121.349C194.391 115.606 192.666 109.209 190.885 102.825C189.276 102.714 187.2 102.714 187.243 103.441C187.274 104.686 190.4 119.402 191.953 120.302Z" fill="#71BDD5" stroke="#263238" stroke-linecap="round" stroke-linejoin="round"/>
<path d="M91.8547 113.77C91.8547 113.77 92.0635 124.862 92.8803 129.176" stroke="#263238" stroke-width="0.75" stroke-linecap="round" stroke-linejoin="round"/>
<path d="M149.264 116.333C149.264 116.333 176.667 111.902 208.596 117.566" stroke="#263238" stroke-linecap="round" stroke-linejoin="round"/>
<path d="M232.689 133.705C234.575 134.272 236.429 134.87 238.216 135.511" stroke="#263238" stroke-linecap="round" stroke-linejoin="round"/>
<path d="M183.49 125.337C183.49 125.337 205.219 126.662 226.026 131.881" stroke="#263238" stroke-linecap="round" stroke-linejoin="round"/>
<path d="M117.36 176.109C135.251 173.365 153.427 173.04 171.404 175.141" stroke="#263238" stroke-linecap="round" stroke-linejoin="round"/>
<path d="M115.112 173.207C115.112 173.207 127.972 171.592 132.154 171.271" stroke="#263238" stroke-linecap="round" stroke-linejoin="round"/>
<path d="M201.239 53.5193C203.081 53.7843 204.924 54.1356 206.594 54.5361" stroke="#263238" stroke-linecap="round" stroke-linejoin="round"/>
<path d="M174.764 52.9093C182.331 52.3729 189.928 52.4245 197.487 53.0634" stroke="#263238" stroke-linecap="round" stroke-linejoin="round"/>
<path d="M75.6783 127.561C75.6783 127.561 94.0288 118.841 120.578 116.42" stroke="#263238" stroke-linecap="round" stroke-linejoin="round"/>
<path d="M106.582 111.57C106.582 111.57 117.692 108.667 134.593 107.693" stroke="#263238" stroke-linecap="round" stroke-linejoin="round"/>
<path d="M75.3774 173.139C77.6075 177.147 81.2064 180.211 85.5107 181.766" stroke="#263238" stroke-linecap="round" stroke-linejoin="round"/>
<path d="M74.7632 175.912C74.7632 175.912 77.5269 180.225 81.2117 182.074" stroke="#263238" stroke-linecap="round" stroke-linejoin="round"/>
<path d="M165.349 160.506C165.349 160.506 167.191 169.133 174.561 172.83" stroke="#263238" stroke-linecap="round" stroke-linejoin="round"/>
<path d="M166.27 168.209C167.73 170.355 169.748 172.06 172.104 173.139" stroke="#263238" stroke-linecap="round" stroke-linejoin="round"/>
<path d="M44.7687 184.823C44.7687 184.823 46.6111 187.904 53.0596 187.904" stroke="#263238" stroke-linecap="round" stroke-linejoin="round"/>
<path d="M43.5403 186.671C45.8897 188.632 48.7855 189.816 51.8312 190.061" stroke="#263238" stroke-linecap="round" stroke-linejoin="round"/>
<path d="M126.56 179.067C110.249 179.957 94.0586 182.388 78.2025 186.326L78.5833 186.899C78.5833 186.899 92.0943 184.021 117.065 190.184C142.036 196.346 143.682 201.276 171.109 201.276C198.537 201.276 225.154 194.707 225.154 194.707L221.825 192.858C197.198 182.401 163.445 176.996 126.56 179.067Z" fill="#71BDD5"/>
<path opacity="0.5" d="M126.56 179.067C110.249 179.957 94.0586 182.388 78.2025 186.326L78.5833 186.899C78.5833 186.899 92.0943 184.021 117.065 190.184C142.036 196.346 143.682 201.276 171.109 201.276C198.537 201.276 225.154 194.707 225.154 194.707L221.825 192.858C197.198 182.401 163.445 176.996 126.56 179.067Z" fill="white"/>
<path d="M66.4724 193.167C66.4724 193.167 98.7147 188.237 126.658 207.032" stroke="#263238" stroke-linecap="round" stroke-linejoin="round"/>
<path d="M100.25 200.253C100.25 200.253 113.454 204.259 121.438 212.886" stroke="#263238" stroke-linecap="round" stroke-linejoin="round"/>
<path d="M178.246 184.539C178.246 184.539 196.977 186.388 213.866 196.556" stroke="#263238" stroke-linecap="round" stroke-linejoin="round"/>
<path d="M236.65 200.463C240.023 202.534 243.234 204.86 246.255 207.42" stroke="#263238" stroke-linecap="round" stroke-linejoin="round"/>
<path d="M16.9175 215C39.3029 195.896 79.7501 181.723 126.56 179.067C169.285 176.633 207.823 184.311 232.806 198.17" stroke="#263238" stroke-linecap="round" stroke-linejoin="round"/>
<path d="M153.373 184.231C153.373 184.231 172.719 185.155 185.615 189.469" stroke="#263238" stroke-linecap="round" stroke-linejoin="round"/>
<path d="M65.6618 37.9345C65.6618 37.9345 65.0477 29.4119 52.6113 29.1037C40.175 28.7956 43.5037 37.6326 40.1689 39.7648C36.8341 41.897 35.919 38.5323 32.5781 40.6768C29.2372 42.8213 30.7357 47.0734 28.0273 47.6835C25.319 48.2936 21.6526 44.9412 18.3178 47.0673C14.983 49.1933 14.9769 51.0236 13.46 51.0236C11.943 51.0236 8.90919 49.7911 7.09134 51.0236C5.27349 52.256 3.14243 53.7474 3.14243 53.7474H79.9098C79.9098 53.7474 80.8187 51.0051 77.4533 49.181C74.0878 47.3569 72.5954 48.8729 71.3856 47.3322C70.1757 45.7916 74.7633 41.897 65.6618 37.9345Z" fill="#71BDD5"/>
<path d="M111.274 5.31673C111.274 5.31673 110.905 0.189578 103.425 0.00470429C95.945 -0.180169 97.9471 5.13802 95.9389 6.41981C93.9307 7.70159 93.3841 5.68647 91.3758 6.96826C89.3676 8.25005 90.2827 10.8136 88.6368 11.1772C86.9909 11.5408 84.8045 9.53184 82.7963 10.8136C80.7881 12.0954 80.7881 13.1923 79.873 13.1923C78.9579 13.1923 77.1339 12.4652 76.0408 13.1923C74.9476 13.9195 73.6702 14.8439 73.6702 14.8439H119.853C119.853 14.8439 120.4 13.1923 118.392 12.0954C116.384 10.9985 115.475 11.9105 114.744 10.9985C114.013 10.0865 116.752 7.7016 111.274 5.31673Z" fill="#71BDD5"/>
<path opacity="0.7" d="M65.6618 37.9345C65.6618 37.9345 65.0477 29.4119 52.6113 29.1037C40.175 28.7956 43.5037 37.6326 40.1689 39.7648C36.8341 41.897 35.919 38.5323 32.5781 40.6768C29.2372 42.8213 30.7357 47.0734 28.0273 47.6835C25.319 48.2936 21.6526 44.9412 18.3178 47.0673C14.983 49.1933 14.9769 51.0236 13.46 51.0236C11.943 51.0236 8.90919 49.7911 7.09134 51.0236C5.27349 52.256 3.14243 53.7474 3.14243 53.7474H79.9098C79.9098 53.7474 80.8187 51.0051 77.4533 49.181C74.0878 47.3569 72.5954 48.8729 71.3856 47.3322C70.1757 45.7916 74.7633 41.897 65.6618 37.9345Z" fill="white"/>
<path opacity="0.8" d="M111.274 5.31673C111.274 5.31673 110.905 0.189578 103.425 0.00470429C95.945 -0.180169 97.9471 5.13802 95.9389 6.41981C93.9307 7.70159 93.3841 5.68647 91.3758 6.96826C89.3676 8.25005 90.2827 10.8136 88.6368 11.1772C86.9909 11.5408 84.8045 9.53184 82.7963 10.8136C80.7881 12.0954 80.7881 13.1923 79.873 13.1923C78.9579 13.1923 77.1339 12.4652 76.0408 13.1923C74.9476 13.9195 73.6702 14.8439 73.6702 14.8439H119.853C119.853 14.8439 120.4 13.1923 118.392 12.0954C116.384 10.9985 115.475 11.9105 114.744 10.9985C114.013 10.0865 116.752 7.7016 111.274 5.31673Z" fill="white"/>
</g>
<defs>
<clipPath id="clip0_209_171">
<rect width="246.255" height="215" fill="white"/>
</clipPath>
</defs>
</svg>
