<svg width="45" height="147" viewBox="0 0 45 147" fill="none" xmlns="http://www.w3.org/2000/svg">
<path d="M39.3664 33.0448C40.4317 31.3104 41.8111 29.7596 42.4287 28.0124C43.0596 26.2272 43.0439 24.2517 43.1182 22.3543C43.1693 21.0546 43.2619 19.6046 42.6742 18.4735C41.7236 16.6442 40.3109 14.9718 38.9343 13.331C38.0923 12.3272 36.8729 11.5616 35.9624 10.5929C33.3758 7.84052 30.8828 5.02369 28.2994 2.26898C27.8002 1.7368 27.0435 1.38571 26.4399 0.918922C26.2593 0.779221 26.0421 0.412657 26.1054 0.352343C26.292 0.174917 26.6171 -0.0112224 26.8757 0.000528909C28.1331 0.057438 29.2348 0.414504 29.9914 1.35508C31.1087 2.7434 32.137 4.19825 33.4004 5.48255C35.8007 7.92265 38.3305 10.2703 40.8261 12.6413C43.7435 15.4133 44.7681 18.6389 44.9818 22.3734C45.2293 26.697 42.9051 30.0404 40.8871 33.6657C38.8701 37.29 35.3853 39.3019 31.473 40.8704C29.1926 41.7851 26.6762 40.9868 24.3113 40.4879C23.1353 40.2398 21.9985 39.8227 20.8109 39.6552C18.5653 39.3387 17.1569 40.5434 15.7134 41.7942C12.3174 44.7366 11.1542 48.1459 12.875 52.0216C13.5224 53.4803 14.5941 54.9768 15.9466 55.9953C19.3747 58.576 23.1747 60.7941 26.6162 63.3631C28.3539 64.6607 29.5523 66.4727 31.1452 67.9314C33.5353 70.1197 34.5954 72.7672 34.9808 75.6345C35.389 78.6713 34.403 81.5272 32.7808 84.1817C31.9439 85.5517 30.2704 86.4225 28.558 86.5404C25.6719 86.7391 22.6931 86.8359 19.8524 86.4471C14.647 85.7349 9.30626 89.3352 9.81367 93.9006C10.0227 95.7806 9.66888 97.744 10.1525 99.5554C10.9378 102.494 13.2557 104.676 15.9934 106.52C18.5497 108.242 21.1642 109.91 23.5976 111.752C25.1505 112.927 26.2598 116.374 24.8078 118.38C23.5566 120.108 22.3387 121.886 20.8033 123.421C19.9532 124.27 18.5593 124.889 17.2734 125.215C15.0586 125.775 14.1568 127.497 12.5655 128.585C10.6896 129.868 11.3908 131.75 10.9126 133.353C10.706 134.045 10.7018 134.792 10.7006 135.515C10.6998 135.827 10.9393 136.139 11.0698 136.451C11.3745 136.314 11.6944 136.197 11.9809 136.035C12.341 135.833 12.6779 135.599 13.0178 135.371C13.4234 135.099 13.8211 134.818 14.2224 134.541C14.1849 135.036 14.3101 135.595 14.083 136.015C12.6495 138.663 11.1217 141.274 9.6624 143.913C9.28729 144.591 9.1279 145.362 8.71413 146.018C8.46019 146.42 7.96265 146.874 7.48237 146.971C6.60689 147.15 6.76879 146.453 6.61485 145.977C5.86967 143.666 4.233 141.826 2.27311 140.171C1.49914 139.517 0.65502 138.903 0.0283802 138.157C-0.122816 137.977 0.361977 137.062 0.729219 136.964C3.07882 136.333 5.4465 135.629 7.98154 136.186C9.52376 136.525 9.02195 135.377 9.11576 134.878C9.3404 133.682 9.38899 132.457 9.42861 131.241C9.49736 129.125 10.9913 127.618 12.6588 126.398C14.8678 124.781 17.3971 123.486 19.7885 122.052C22.9172 120.177 24.2496 117.069 22.8117 114.075C22.2656 112.938 20.9728 111.984 19.8144 111.158C17.3599 109.408 14.5429 107.992 12.3038 106.072C10.3084 104.362 8.841 102.186 8.18869 99.72C7.34848 96.5422 7.88962 93.4079 8.7558 90.3323C9.03271 89.348 9.9807 88.4206 10.8461 87.6526C13.9204 84.9247 17.7487 84.5523 21.9043 85.1838C23.3979 85.4107 24.9593 85.5234 26.4672 85.4269C29.8172 85.2132 31.5136 83.7948 32.5579 81.0659C33.7131 78.0466 33.413 75.0038 32.0914 72.2754C30.9756 69.9715 28.8719 67.9643 26.9419 66.017C24.1147 63.1634 20.1526 61.4583 16.8219 59.1256C13.8777 57.0636 11.1113 54.7321 10.4447 51.0824C9.44392 45.6013 12.7273 41.1231 17.6054 38.6564C19.772 37.5608 22.0054 38.2484 24.1818 38.8623C26.5282 39.5241 28.9553 40.3001 31.3593 39.3657C33.1048 38.6869 34.7886 37.7447 36.2097 36.6452C37.4638 35.6751 38.3164 34.3249 39.3664 33.0448Z" fill="#71BDD5"/>
</svg>
