<svg width="43" height="116" viewBox="0 0 43 116" fill="none" xmlns="http://www.w3.org/2000/svg">
<path d="M18.36 20.1975C16.8872 21.4916 15.2152 22.4744 14.2175 23.9229C12.6994 26.1266 12.6641 28.1853 16.2163 31.3677C19.2949 34.1259 22.791 36.3214 26.8138 37.4993C29.5675 38.3056 34.835 37.9051 36.7694 34.3384C37.2474 33.4568 37.7016 33.6323 37.9945 34.5673C38.7924 37.1146 40.032 39.6011 40.3441 42.2018C40.684 45.0369 40.2325 47.9779 40.0024 50.8628C39.9456 51.5753 39.4092 52.2498 39.093 52.9417C38.5203 52.5584 37.8289 52.2777 37.3932 51.7753C33.8779 47.7214 29.3693 45.7151 24.1085 45.6781C21.4882 45.66 19.3486 47.2029 18.28 49.6329C17.9814 50.3117 18.5145 51.7925 19.1507 52.3742C22.1634 55.1286 25.4657 57.425 29.3982 58.8389C32.7704 60.0514 35.6147 59.8046 38.1497 57.1904C38.2996 57.0357 38.5313 56.9604 38.7252 56.8481C38.8898 57.3286 39.1925 57.808 39.1958 58.2895C39.2113 60.5251 39.5539 62.7227 38.873 64.9987C37.922 68.1774 37.4033 71.4725 35.47 74.2989C34.6294 75.5274 34.3526 75.5742 33.4543 74.4357C30.5092 70.7022 27.0325 67.6062 22.5706 65.7929C20.1975 64.8282 18.0647 65.734 16.6131 68.202C14.2272 72.2583 14.5014 73.0659 17.7482 76.6774C20.2395 79.4486 23.4356 80.7787 26.7634 81.7538C29.3606 82.5147 31.8035 81.3113 33.8114 79.5824C34.7305 78.7909 34.912 78.9735 35.1263 80.0235C35.4726 81.7181 36.031 83.3731 36.3142 85.0758C36.6041 86.8174 36.1922 88.4277 35.0944 89.9104C33.5561 91.9877 32.1922 94.1933 30.7063 96.3109C29.5333 97.983 27.5378 98.4827 25.5688 97.5725C23.8415 96.7739 22.1954 95.7955 20.4528 95.0349C19.7024 94.7071 18.75 94.5037 17.984 94.6732C17.5013 94.7797 16.7464 95.8496 16.8778 96.2017C18.2061 99.761 19.7282 103.247 21.1234 106.783C22.2941 109.749 23.6305 112.593 25.9572 114.862C27.5983 116.463 28.516 116.407 29.7583 114.488C30.8736 112.764 31.8717 110.963 33.0176 109.261C34.613 106.891 36.3256 104.601 37.9166 102.229C38.1742 101.845 38.2932 101.023 38.0641 100.746C37.7936 100.42 37.0788 100.44 36.5486 100.36C36.2144 100.31 35.8455 100.427 35.5277 100.34C34.4252 100.037 33.3384 99.6766 32.2453 99.338C32.7206 98.3045 32.9749 97.0634 33.712 96.2756C36.0246 93.803 37.6646 90.8835 38.3321 87.7041C38.7773 85.5835 38.3533 83.0513 37.5995 80.9633C36.6283 78.2721 36.677 76.0409 38.3856 73.7626C40.3928 71.0855 40.6165 67.8079 41.2857 64.6796C41.8907 61.8499 41.9173 59.0934 40.9132 56.3229C40.7059 55.7506 40.9857 54.8673 41.2985 54.2608C43.6507 49.6951 43.1458 44.9848 42.2623 40.1888C41.6069 36.6311 39.5872 33.751 38.094 30.5904C36.7747 27.7973 36.2957 24.6152 35.0658 21.7693C32.1196 14.9509 26.9741 10.0237 20.5281 6.63419C16.2879 4.4043 11.7087 2.80148 7.22193 1.07298C5.62051 0.45606 3.85616 0.141347 2.14087 0.0027857C1.45589 -0.0525917 0.696331 0.730829 0.002285 1.18077C-0.0279503 1.20041 0.249203 1.94611 0.393993 1.95014C5.84761 2.10077 10.8907 4.02099 15.6886 6.22399C19.5102 7.97844 22.881 10.7571 26.3573 13.2159C30.4305 16.0968 31.9964 20.7711 34.3063 24.8943C34.5733 25.3704 34.4272 26.0788 34.4729 26.6797C34.144 26.3441 33.8417 25.9763 33.4825 25.6774C29.8148 22.6247 25.85 20.1632 20.9618 19.7126C20.1471 19.6376 19.2966 19.9574 18.36 20.1975ZM30.7934 35.3232C29.6408 35.4039 28.4119 35.7831 27.35 35.5105C23.8129 34.602 20.7599 32.6538 18.0364 30.2841C17.0562 29.431 16.1992 28.1497 15.8569 26.9063C15.0597 24.011 19.1864 20.7869 22.6465 21.8601C27.1239 23.2488 31.0957 25.64 34.529 28.841C35.0782 29.353 35.4159 30.3066 35.4787 31.0863C35.652 33.2332 34.0415 34.7449 30.7934 35.3232ZM22.1618 77.7163C21.1052 76.7954 19.9866 75.936 19.0046 74.9411C16.8717 72.7801 16.8852 70.6316 19.0994 68.4928C19.6587 67.9525 20.7008 67.3321 21.2853 67.513C22.7785 67.9747 24.2966 68.667 25.5171 69.632C27.566 71.2529 29.4247 73.123 31.2959 74.9575C32.122 75.7672 33.5208 76.4242 32.9306 77.8703C32.8443 78.0815 31.1081 77.5643 30.1275 77.4897C29.761 77.4621 29.3354 77.6813 29.0085 77.8972C28.8523 78.0001 28.7808 78.371 28.817 78.5972C28.8795 78.9873 29.0562 79.3591 29.1849 79.7384C28.7257 79.7142 28.2402 79.7778 27.8119 79.65C25.9878 79.1049 24.1808 78.5031 22.1618 77.7163ZM35.1092 52.4038C35.6886 52.9841 36.3511 53.5066 36.8117 54.1697C37.0364 54.4931 37.0925 55.2947 36.8688 55.5112C35.5314 56.8054 33.8968 58.2626 32.037 57.4489C28.4465 55.8784 25.0041 53.9407 21.6004 51.9811C20.2899 51.2266 20.3433 49.5858 21.6354 48.6827C22.4319 48.1262 23.5361 47.6858 24.4807 47.7241C28.4878 47.8872 32.1237 49.0875 35.1092 52.4038ZM29.3549 110.026C28.9776 110.197 28.6004 110.368 28.2231 110.539C28.4428 109.84 28.6198 109.123 28.903 108.45C29.0149 108.184 29.3633 108.018 29.6041 107.806C29.5208 108.409 29.4378 109.011 29.3549 110.026Z" fill="#71BDD5"/>
</svg>
