<svg width="170" height="53" viewBox="0 0 170 53" fill="none" xmlns="http://www.w3.org/2000/svg">
<g clip-path="url(#clip0_264_571)">
<path d="M26.3193 52.9446C40.738 52.9446 52.4266 41.105 52.4266 26.5001C52.4266 11.8952 40.738 0.0556641 26.3193 0.0556641C11.9007 0.0556641 0.212036 11.8952 0.212036 26.5001C0.212036 41.105 11.9007 52.9446 26.3193 52.9446Z" fill="white"/>
<path d="M17.6416 32.9955C17.6117 33.5999 17.5968 34.2346 17.5968 34.8995C17.5968 35.5341 17.6117 36.1235 17.6416 36.6675C17.6714 37.4835 17.7162 38.239 17.7758 38.9341C17.8355 39.599 17.9548 40.1732 18.1339 40.6568C18.3129 41.1101 18.5963 41.4577 18.9842 41.6995C19.3423 41.911 19.8495 41.9715 20.5059 41.8808C21.1922 41.7901 21.6845 41.4577 21.9828 40.8835C22.2812 40.3092 22.4901 39.6595 22.6094 38.9341C22.6989 38.1786 22.7288 37.423 22.6989 36.6675C22.6691 35.9119 22.6691 35.3226 22.6989 34.8995C22.7288 34.2346 22.7586 33.479 22.7884 32.6328C22.7884 31.7563 22.8779 30.9403 23.057 30.1848C23.2061 29.399 23.4747 28.7341 23.8626 28.1901C24.2504 27.6461 24.8323 27.359 25.608 27.3288C26.5926 27.2683 27.3535 27.3439 27.8905 27.5555C28.3978 27.767 28.7707 28.0843 29.0094 28.5075C29.2481 28.9003 29.3973 29.3839 29.457 29.9581C29.4868 30.5323 29.5465 31.1519 29.636 31.8168L29.6808 33.5848V36.8941C29.6808 37.4381 29.6957 38.0123 29.7255 38.6168C29.7255 39.191 29.815 39.7199 29.994 40.2035C30.1731 40.687 30.4565 41.095 30.8444 41.4275C31.2024 41.7599 31.7395 41.9261 32.4556 41.9261C33.3507 41.9261 34.022 41.639 34.4696 41.0648C34.8873 40.4603 35.0962 39.7199 35.0962 38.8435V12.7768C35.0962 12.5955 35.0962 12.4292 35.0962 12.2781C35.0663 12.0968 35.0365 11.9155 35.0066 11.7341C34.947 11.5528 34.9022 11.3866 34.8724 11.2355C34.8425 11.0541 34.7978 10.8879 34.7381 10.7368C34.6486 10.4346 34.4994 10.2079 34.2906 10.0568C34.1414 9.90567 33.9922 9.78479 33.843 9.69412C33.6938 9.60345 33.5297 9.54301 33.3507 9.51279C33.2015 9.48256 33.0374 9.46745 32.8584 9.46745C32.6794 9.43723 32.5003 9.42212 32.3213 9.42212C31.8738 9.42212 31.4411 9.55812 31.0234 9.83012C30.8444 9.95101 30.6803 10.087 30.5311 10.2381C30.3819 10.359 30.2626 10.5403 30.1731 10.7821C29.9344 11.3563 29.815 11.9003 29.815 12.4141C29.7852 12.5652 29.7703 12.7919 29.7703 13.0941C29.7404 13.3661 29.7255 13.6532 29.7255 13.9555C29.7255 14.2577 29.7255 14.5599 29.7255 14.8621C29.6957 15.1341 29.6808 15.3457 29.6808 15.4968V15.7235C29.6509 16.6906 29.636 17.6728 29.636 18.6701C29.636 19.6675 29.636 20.6799 29.636 21.7075V22.4781C28.3828 22.055 27.07 21.8586 25.6975 21.8888C24.325 21.8888 23.1017 22.1608 22.0276 22.7048C20.9236 23.279 20.0882 23.9288 19.5213 24.6541C18.9245 25.3795 18.4919 26.1803 18.2234 27.0568C17.9548 27.9332 17.8057 28.8701 17.7758 29.8675C17.7162 30.8648 17.6714 31.9075 17.6416 32.9955Z" fill="#71BDD5"/>
<path d="M66.6459 32.0173C66.6096 32.7517 66.5916 33.523 66.5916 34.3312C66.5916 35.1025 66.6096 35.8187 66.6459 36.4798C66.6823 37.4715 66.7367 38.3898 66.8091 39.2344C66.8815 40.0425 67.0267 40.7402 67.2442 41.3279C67.4618 41.8789 67.8062 42.3013 68.2776 42.5951C68.7128 42.8523 69.3291 42.9256 70.1269 42.8154C70.9608 42.7052 71.5591 42.3013 71.9218 41.6034C72.2845 40.9055 72.5381 40.1159 72.6832 39.2344C72.792 38.3161 72.8284 37.3981 72.792 36.4798C72.7557 35.5615 72.7557 34.8453 72.792 34.3312C72.8284 33.523 72.8644 32.605 72.9008 31.5765C72.9008 30.5115 73.0096 29.5199 73.2271 28.6015C73.4083 27.6467 73.7347 26.8386 74.2062 26.1775C74.6777 25.5164 75.3847 25.1675 76.3274 25.1307C77.524 25.0574 78.4486 25.149 79.1013 25.4062C79.7176 25.6634 80.1711 26.049 80.4611 26.5631C80.751 27.0407 80.9325 27.6281 81.005 28.3261C81.0413 29.024 81.1137 29.7768 81.2225 30.5849L81.2769 32.7335V36.7552C81.2769 37.4164 81.2949 38.1143 81.3313 38.8488C81.3313 39.5467 81.4401 40.1893 81.6576 40.777C81.8752 41.3648 82.2196 41.8606 82.691 42.2645C83.1262 42.6684 83.7788 42.8705 84.6491 42.8705C85.7369 42.8705 86.5527 42.5217 87.0967 41.8238C87.6042 41.0893 87.8581 40.1893 87.8581 39.1242V7.44599C87.8581 7.22562 87.8581 7.02361 87.8581 6.83997C87.8218 6.6196 87.7857 6.39923 87.7493 6.17886C87.6769 5.95849 87.6225 5.75648 87.5862 5.57284C87.5498 5.35247 87.4954 5.15046 87.423 4.96682C87.3142 4.59953 87.133 4.32407 86.8791 4.14044C86.6979 3.9568 86.5164 3.80988 86.3352 3.6997C86.154 3.58951 85.9545 3.51606 85.7369 3.47933C85.5557 3.44259 85.3562 3.42423 85.1386 3.42423C84.921 3.38749 84.7035 3.36914 84.4859 3.36914C83.942 3.36914 83.4162 3.53442 82.9086 3.86497C82.6911 4.0119 82.4915 4.17718 82.3103 4.36081C82.1291 4.50773 81.984 4.7281 81.8752 5.02192C81.5852 5.71977 81.4401 6.38088 81.4401 7.00525C81.4037 7.18888 81.3857 7.46434 81.3857 7.83164C81.3493 8.16219 81.3313 8.51111 81.3313 8.8784C81.3313 9.24569 81.3313 9.61296 81.3313 9.98025C81.2949 10.3108 81.2769 10.5679 81.2769 10.7515V11.027C81.2405 12.2023 81.2225 13.396 81.2225 14.608C81.2225 15.8201 81.2225 17.0504 81.2225 18.2992V19.2358C79.6996 18.7217 78.1042 18.4828 76.4362 18.5196C74.7681 18.5196 73.2815 18.8502 71.9762 19.5113C70.6344 20.2092 69.6194 20.9988 68.9303 21.8802C68.2052 22.7617 67.6794 23.7351 67.353 24.8002C67.0267 25.8652 66.8455 27.0039 66.8091 28.2159C66.7367 29.4279 66.6823 30.6951 66.6459 32.0173Z" fill="white"/>
<path d="M97.2499 19.8297C98.7352 19.2684 100.077 19.0213 101.274 19.0887C102.493 19.156 103.58 19.4705 104.533 20.0318C105.486 20.5708 106.295 21.3005 106.961 22.2214C107.648 23.1422 108.202 24.1751 108.623 25.3204C108.956 26.1739 109.211 27.0721 109.388 28.0152C109.566 28.9584 109.665 29.9016 109.688 30.8448C109.732 31.7656 109.699 32.6751 109.588 33.5733C109.499 34.4715 109.344 35.3026 109.122 36.066C108.989 36.5826 108.834 37.0542 108.657 37.4808C108.479 37.9074 108.269 38.3342 108.025 38.7608C107.471 39.7263 106.75 40.5124 105.863 41.1188C104.998 41.7251 104.045 42.1517 103.003 42.3988C102.294 42.5786 101.562 42.6683 100.808 42.6683C100.055 42.6459 99.3117 42.5449 98.5801 42.3651C97.8485 42.163 97.1389 41.8822 96.4518 41.523C95.7866 41.1411 95.1768 40.6695 94.6227 40.1082C93.9355 39.4345 93.3702 38.6598 92.9266 37.7839C92.4831 36.8858 92.1397 35.9536 91.8957 34.9881C91.6517 33.9999 91.4966 33.012 91.4301 32.0238C91.3636 31.0356 91.3636 30.0924 91.4301 29.1942C91.4966 28.3634 91.6517 27.4763 91.8957 26.5331C92.1618 25.5899 92.5388 24.6804 93.0264 23.8046C93.5141 22.9288 94.1018 22.1427 94.789 21.4466C95.4985 20.7279 96.3187 20.1889 97.2499 19.8297ZM105.032 34.247C105.298 33.1914 105.409 32.0014 105.364 30.6764C105.32 29.3513 105.109 28.105 104.732 26.9373C104.488 26.2186 104.178 25.5899 103.801 25.0509C103.447 24.4896 103.014 24.0627 102.504 23.7709C102.017 23.4791 101.44 23.333 100.775 23.333C100.11 23.333 99.3671 23.5351 98.5469 23.9393C98.0592 24.1865 97.6378 24.5233 97.2831 24.9499C96.9506 25.3765 96.6734 25.8594 96.4518 26.3983C96.2522 26.9373 96.0859 27.4986 95.9529 28.0826C95.842 28.6666 95.7754 29.2279 95.7534 29.7669C95.7089 30.3508 95.6981 30.9682 95.7201 31.6195C95.7422 32.2482 95.8087 32.8883 95.9197 33.5396C96.0527 34.1683 96.2301 34.7746 96.4518 35.3586C96.6734 35.9199 96.9727 36.4252 97.3497 36.8744C97.9262 37.5481 98.5913 38.0197 99.345 38.2892C100.121 38.5363 100.886 38.57 101.64 38.3903C102.859 38.1208 103.79 37.301 104.433 35.9313C104.699 35.4373 104.899 34.8757 105.032 34.247ZM127.458 21.1435C128.3 21.9296 128.921 22.8727 129.32 23.973C129.719 25.0509 129.874 26.1289 129.785 27.2068C129.697 28.2397 129.375 29.1942 128.821 30.07C128.267 30.9235 127.424 31.5745 126.294 32.0238C125.407 32.4056 124.531 32.6751 123.666 32.8322C122.802 32.9893 121.848 33.113 120.806 33.2028C120.341 33.2478 119.942 33.2815 119.609 33.3038C119.299 33.3038 118.933 33.3151 118.512 33.3375C118.423 33.3375 118.268 33.3375 118.046 33.3375C117.847 33.3375 117.702 33.3488 117.614 33.3712V40.344C117.547 40.7706 117.458 41.2085 117.348 41.6577C117.259 42.107 117.004 42.4548 116.583 42.702C116.339 42.8367 116.04 42.9154 115.685 42.9378C115.33 42.9601 115.009 42.9491 114.721 42.9041C114.41 42.8591 114.144 42.7807 113.923 42.6683C113.723 42.5336 113.557 42.3091 113.424 41.9946C113.335 41.7925 113.246 41.568 113.158 41.3209C113.091 41.0514 113.058 40.7259 113.058 40.344V21.7161C113.058 21.559 113.069 21.4129 113.091 21.2782C113.113 21.1435 113.135 21.0087 113.158 20.874C113.202 20.7616 113.235 20.6382 113.257 20.5034C113.279 20.3687 113.313 20.2453 113.357 20.1329C113.401 20.0205 113.446 19.9195 113.49 19.8297C113.557 19.74 113.634 19.6613 113.723 19.5939C113.834 19.4816 114 19.3805 114.222 19.2908C114.465 19.201 114.82 19.156 115.286 19.156H115.352C116.04 19.111 116.805 19.0773 117.647 19.055C118.489 19.01 119.188 19.0213 119.742 19.0887C120.052 19.1337 120.341 19.1674 120.607 19.1897C120.873 19.1897 121.128 19.2011 121.372 19.2234C121.638 19.2458 121.904 19.2684 122.17 19.2908C122.436 19.3131 122.702 19.3468 122.968 19.3918C123.19 19.4368 123.389 19.4705 123.567 19.4929C123.766 19.5152 123.966 19.5489 124.165 19.5939C124.342 19.639 124.531 19.6837 124.731 19.7287C124.952 19.7737 125.152 19.8521 125.329 19.9645C125.795 20.0992 126.183 20.2676 126.493 20.4698C126.803 20.6719 127.125 20.8963 127.458 21.1435ZM125.462 26.7015C125.484 26.1626 125.373 25.691 125.13 25.2867C124.908 24.8825 124.586 24.5457 124.165 24.2762C123.744 24.0067 123.267 23.7933 122.735 23.6362C122.203 23.4791 121.671 23.3667 121.139 23.2993C121.006 23.2993 120.817 23.2993 120.574 23.2993C120.352 23.277 120.108 23.2656 119.842 23.2656C119.576 23.2433 119.321 23.2319 119.077 23.2319C118.855 23.2096 118.678 23.1983 118.545 23.1983C118.434 23.1759 118.301 23.1646 118.146 23.1646C117.991 23.1646 117.813 23.1646 117.614 23.1646C117.636 23.8606 117.647 24.5343 117.647 25.1857C117.647 25.8144 117.647 26.4994 117.647 27.2405C117.625 27.6447 117.614 28.0489 117.614 28.4531C117.614 28.8574 117.614 29.2503 117.614 29.6321L119.676 29.5984C120.208 29.5984 120.795 29.5648 121.438 29.4974C122.081 29.43 122.691 29.2953 123.267 29.0932C123.844 28.8911 124.332 28.5992 124.731 28.2173C125.152 27.8355 125.396 27.3302 125.462 26.7015ZM146.911 21.1435C147.753 21.9296 148.374 22.8727 148.773 23.973C149.172 25.0509 149.327 26.1289 149.239 27.2068C149.15 28.2397 148.829 29.1942 148.274 30.07C147.72 30.9235 146.878 31.5745 145.747 32.0238C144.86 32.4056 143.984 32.6751 143.12 32.8322C142.255 32.9893 141.302 33.113 140.26 33.2028C139.794 33.2478 139.395 33.2815 139.063 33.3038C138.752 33.3038 138.386 33.3151 137.965 33.3375C137.876 33.3375 137.721 33.3375 137.5 33.3375C137.3 33.3375 137.156 33.3488 137.067 33.3712V40.344C137.001 40.7706 136.912 41.2085 136.801 41.6577C136.712 42.107 136.457 42.4548 136.036 42.702C135.792 42.8367 135.493 42.9154 135.138 42.9378C134.783 42.9601 134.462 42.9491 134.174 42.9041C133.864 42.8591 133.597 42.7807 133.376 42.6683C133.176 42.5336 133.01 42.3091 132.877 41.9946C132.788 41.7925 132.7 41.568 132.611 41.3209C132.544 41.0514 132.511 40.7259 132.511 40.344V21.7161C132.511 21.559 132.522 21.4129 132.544 21.2782C132.567 21.1435 132.589 21.0087 132.611 20.874C132.655 20.7616 132.688 20.6382 132.711 20.5034C132.733 20.3687 132.766 20.2453 132.811 20.1329C132.855 20.0205 132.899 19.9195 132.944 19.8297C133.01 19.74 133.087 19.6613 133.176 19.5939C133.287 19.4816 133.453 19.3805 133.675 19.2908C133.919 19.201 134.274 19.156 134.739 19.156H134.806C135.493 19.111 136.258 19.0773 137.101 19.055C137.943 19.01 138.641 19.0213 139.196 19.0887C139.506 19.1337 139.794 19.1674 140.06 19.1897C140.326 19.1897 140.581 19.2011 140.825 19.2234C141.091 19.2458 141.357 19.2684 141.623 19.2908C141.889 19.3131 142.155 19.3468 142.421 19.3918C142.643 19.4368 142.843 19.4705 143.02 19.4929C143.22 19.5152 143.419 19.5489 143.619 19.5939C143.796 19.639 143.984 19.6837 144.184 19.7287C144.406 19.7737 144.605 19.8521 144.783 19.9645C145.248 20.0992 145.636 20.2676 145.947 20.4698C146.257 20.6719 146.578 20.8963 146.911 21.1435ZM144.916 26.7015C144.938 26.1626 144.827 25.691 144.583 25.2867C144.361 24.8825 144.04 24.5457 143.619 24.2762C143.197 24.0067 142.721 23.7933 142.189 23.6362C141.657 23.4791 141.124 23.3667 140.592 23.2993C140.459 23.2993 140.271 23.2993 140.027 23.2993C139.805 23.277 139.561 23.2656 139.295 23.2656C139.029 23.2433 138.774 23.2319 138.531 23.2319C138.309 23.2096 138.131 23.1983 137.998 23.1983C137.887 23.1759 137.754 23.1646 137.599 23.1646C137.444 23.1646 137.267 23.1646 137.067 23.1646C137.089 23.8606 137.101 24.5343 137.101 25.1857C137.101 25.8144 137.101 26.4994 137.101 27.2405C137.078 27.6447 137.067 28.0489 137.067 28.4531C137.067 28.8574 137.067 29.2503 137.067 29.6321L139.129 29.5984C139.661 29.5984 140.249 29.5648 140.892 29.4974C141.534 29.43 142.144 29.2953 142.721 29.0932C143.297 28.8911 143.785 28.5992 144.184 28.2173C144.605 27.8355 144.849 27.3302 144.916 26.7015ZM169.191 33.068C169.302 33.3825 169.379 33.7417 169.424 34.1459C169.49 34.5278 169.523 34.9207 169.523 35.3249C169.523 35.7291 169.49 36.1334 169.424 36.5376C169.379 36.9195 169.313 37.2563 169.224 37.5481C168.869 38.8058 168.16 39.8611 167.096 40.7146C166.031 41.5453 164.812 42.1517 163.437 42.5336C162.085 42.9154 160.677 43.0502 159.214 42.9378C157.773 42.8254 156.487 42.4548 155.356 41.8262C154.647 41.4219 154.037 40.928 153.527 40.344C153.018 39.76 152.585 39.109 152.23 38.3903C152.097 38.1431 152.009 37.8626 151.964 37.5481C151.942 37.2113 151.975 36.8968 152.064 36.605C152.153 36.2905 152.297 36.021 152.496 35.7965C152.696 35.5494 152.973 35.381 153.328 35.2912C153.55 35.2462 153.793 35.2239 154.059 35.2239C154.348 35.2239 154.625 35.2689 154.891 35.3586C155.157 35.426 155.401 35.5494 155.622 35.7291C155.844 35.8862 156.021 36.111 156.154 36.4028C156.398 36.8744 156.742 37.3123 157.185 37.7166C157.651 38.0984 158.139 38.4126 158.649 38.6598C159.38 38.9069 160.112 39.0079 160.844 38.9629C161.598 38.9179 162.274 38.7495 162.872 38.4576C163.493 38.1658 163.992 37.7726 164.369 37.2787C164.746 36.7621 164.934 36.1784 164.934 35.527C164.934 34.9881 164.857 34.5502 164.701 34.2133C164.546 33.8541 164.325 33.562 164.036 33.3375C163.77 33.0904 163.437 32.8883 163.038 32.7312C162.662 32.5741 162.24 32.4393 161.775 32.3269C161.243 32.2146 160.7 32.1362 160.145 32.0911C159.613 32.0461 159.07 31.9901 158.516 31.9227C157.961 31.8553 157.418 31.7656 156.886 31.6532C156.354 31.5408 155.833 31.3724 155.323 31.148C154.303 30.7214 153.527 30.07 152.995 29.1942C152.463 28.3184 152.142 27.3752 152.031 26.3647C151.942 25.3541 152.064 24.3549 152.397 23.3667C152.729 22.3561 153.261 21.4916 153.993 20.7729C154.702 20.1216 155.545 19.6613 156.52 19.3918C157.518 19.1 158.615 18.9316 159.813 18.8866C160.478 18.8642 161.143 18.8866 161.808 18.9539C162.495 19.0213 163.149 19.1337 163.77 19.2908C164.413 19.4479 165.001 19.65 165.533 19.8971C166.087 20.1442 166.564 20.4361 166.963 20.7729C167.251 20.9974 167.539 21.3005 167.827 21.6824C168.116 22.0416 168.337 22.4348 168.492 22.8614C168.648 23.2656 168.692 23.6585 168.625 24.0404C168.581 24.4223 168.348 24.7478 167.927 25.0173C167.572 25.2417 167.229 25.3428 166.896 25.3204C166.586 25.2754 166.287 25.1743 165.998 25.0173C165.71 24.8375 165.433 24.6354 165.167 24.4109C164.901 24.1865 164.657 23.9843 164.435 23.8046C163.837 23.3553 163.094 23.0522 162.207 22.8951C161.32 22.738 160.489 22.7043 159.713 22.794C159.225 22.8614 158.771 22.9738 158.349 23.1309C157.928 23.288 157.562 23.5014 157.252 23.7709C156.964 24.0404 156.731 24.3772 156.554 24.7815C156.398 25.1633 156.343 25.6012 156.387 26.0952C156.41 26.4544 156.509 26.7575 156.687 27.0047C156.886 27.2518 157.119 27.4539 157.385 27.611C157.673 27.7681 157.984 27.8918 158.316 27.9815C158.649 28.0713 158.981 28.1386 159.314 28.1837C160.311 28.3184 161.309 28.4195 162.307 28.4868C163.304 28.5542 164.28 28.7787 165.233 29.1605C166.209 29.5424 167.04 30.0587 167.727 30.7101C168.415 31.3614 168.903 32.1472 169.191 33.068Z" fill="white"/>
</g>
<defs>
<clipPath id="clip0_264_571">
<rect width="170" height="53" fill="white"/>
</clipPath>
</defs>
</svg>
